M48
; DRILL file KiCad 10.0.1 date 2026-06-18T06:39:23
; FORMAT={-:-/ absolute / metric / decimal}
; #@! TF.CreationDate,2026-06-18T06:39:23+08:00
; #@! TF.GenerationSoftware,Kicad,Pcbnew,10.0.1
; #@! TF.FileFunction,Plated,1,2,PTH
FMAT,2
METRIC
; #@! TA.AperFunction,Plated,PTH,ComponentDrill
T1C1.000
; #@! TA.AperFunction,Plated,PTH,ComponentDrill
T2C3.050
%
G90
G05
T1
X1.38Y-4.572
X1.38Y-19.812
X3.92Y-4.572
X3.92Y-19.812
X6.46Y-4.572
X6.46Y-19.812
X9.0Y-4.572
X9.0Y-19.812
X11.54Y-4.572
X11.54Y-19.812
X14.08Y-4.572
X14.08Y-19.812
X16.62Y-4.572
X16.62Y-19.812
X19.16Y-4.572
X19.16Y-19.812
X21.7Y-4.572
X21.7Y-7.112
X21.7Y-9.652
X21.7Y-12.192
X21.7Y-14.732
X21.7Y-17.272
X21.7Y-19.812
T2
X8.973Y-36.271
X8.973Y-55.372
X11.497Y-93.472
X15.323Y-33.731
X15.323Y-52.832
X17.847Y-90.932
X27.989Y-36.271
X28.023Y-55.372
X34.339Y-33.731
X34.373Y-52.832
X47.108Y-55.372
X53.458Y-52.832
X63.787Y-93.497
X66.123Y-55.372
X70.137Y-90.957
X70.949Y-74.422
X72.473Y-52.832
X77.299Y-71.882
X99.524Y-74.422
X104.274Y-55.372
X105.874Y-71.882
X106.662Y-93.497
X110.624Y-52.832
X113.012Y-90.957
X123.359Y-55.372
X129.709Y-52.832
X142.409Y-55.372
X142.425Y-36.322
X148.759Y-52.832
X148.775Y-33.782
X161.493Y-55.372
X161.51Y-36.322
X167.843Y-52.832
X167.859Y-33.782
M30
