M48
; DRILL file KiCad 10.0.1 date 2026-06-18T06:39:23
; FORMAT={-:-/ absolute / metric / decimal}
; #@! TF.CreationDate,2026-06-18T06:39:23+08:00
; #@! TF.GenerationSoftware,Kicad,Pcbnew,10.0.1
; #@! TF.FileFunction,NonPlated,1,2,NPTH
FMAT,2
METRIC
; #@! TA.AperFunction,NonPlated,NPTH,ComponentDrill
T1C1.750
; #@! TA.AperFunction,NonPlated,NPTH,ComponentDrill
T2C3.048
; #@! TA.AperFunction,NonPlated,NPTH,ComponentDrill
T3C3.200
; #@! TA.AperFunction,NonPlated,NPTH,ComponentDrill
T4C3.988
; #@! TA.AperFunction,NonPlated,NPTH,ComponentDrill
T5C4.000
%
G90
G05
T1
X7.703Y-38.811
X7.703Y-57.912
X10.227Y-96.012
X17.863Y-38.811
X17.863Y-57.912
X20.387Y-96.012
X26.719Y-38.811
X26.753Y-57.912
X36.879Y-38.811
X36.913Y-57.912
X45.838Y-57.912
X55.998Y-57.912
X62.517Y-96.037
X64.853Y-57.912
X69.679Y-76.962
X72.677Y-96.037
X75.013Y-57.912
X79.839Y-76.962
X98.254Y-76.962
X103.004Y-57.912
X105.392Y-96.037
X108.414Y-76.962
X113.164Y-57.912
X115.552Y-96.037
X122.089Y-57.912
X132.249Y-57.912
X141.139Y-57.912
X141.155Y-38.862
X151.299Y-57.912
X151.315Y-38.862
X160.223Y-57.912
X160.239Y-38.862
X170.383Y-57.912
X170.399Y-38.862
T2
X55.659Y-89.052
X79.535Y-89.052
X98.534Y-89.052
X122.41Y-89.052
T3
X22.0Y-77.0
X32.0Y-21.0
X35.0Y-96.0
X47.0Y-40.0
X89.052Y-57.0
X130.0Y-40.0
X145.0Y-96.0
X156.0Y-77.0
X165.0Y-21.0
T4
X55.659Y-104.262
X79.535Y-104.262
X98.534Y-104.262
X122.41Y-104.262
T5
X12.783Y-38.811
X12.783Y-57.912
X15.307Y-96.012
X31.799Y-38.811
X31.833Y-57.912
X50.918Y-57.912
X67.597Y-96.037
X69.933Y-57.912
X74.759Y-76.962
X103.334Y-76.962
X108.084Y-57.912
X110.472Y-96.037
X127.169Y-57.912
X146.219Y-57.912
X146.235Y-38.862
X165.303Y-57.912
X165.32Y-38.862
M30
