%TF.GenerationSoftware,KiCad,Pcbnew,10.0.1*%
%TF.CreationDate,2026-06-18T06:39:21+08:00*%
%TF.ProjectId,RhythmGameControllerKiCad,52687974-686d-4476-916d-65436f6e7472,rev?*%
%TF.SameCoordinates,Original*%
%TF.FileFunction,Legend,Top*%
%TF.FilePolarity,Positive*%
%FSLAX46Y46*%
G04 Gerber Fmt 4.6, Leading zero omitted, Abs format (unit mm)*
G04 Created by KiCad (PCBNEW 10.0.1) date 2026-06-18 06:39:21*
%MOMM*%
%LPD*%
G01*
G04 APERTURE LIST*
%ADD10C,0.200000*%
%ADD11C,0.000000*%
G04 APERTURE END LIST*
D10*
X832619Y-1761850D02*
X832619Y-1666612D01*
X832619Y-1666612D02*
X880238Y-1571374D01*
X880238Y-1571374D02*
X927857Y-1523755D01*
X927857Y-1523755D02*
X1023095Y-1476136D01*
X1023095Y-1476136D02*
X1213571Y-1428517D01*
X1213571Y-1428517D02*
X1451666Y-1428517D01*
X1451666Y-1428517D02*
X1642142Y-1476136D01*
X1642142Y-1476136D02*
X1737380Y-1523755D01*
X1737380Y-1523755D02*
X1785000Y-1571374D01*
X1785000Y-1571374D02*
X1832619Y-1666612D01*
X1832619Y-1666612D02*
X1832619Y-1761850D01*
X1832619Y-1761850D02*
X1785000Y-1857088D01*
X1785000Y-1857088D02*
X1737380Y-1904707D01*
X1737380Y-1904707D02*
X1642142Y-1952326D01*
X1642142Y-1952326D02*
X1451666Y-1999945D01*
X1451666Y-1999945D02*
X1213571Y-1999945D01*
X1213571Y-1999945D02*
X1023095Y-1952326D01*
X1023095Y-1952326D02*
X927857Y-1904707D01*
X927857Y-1904707D02*
X880238Y-1857088D01*
X880238Y-1857088D02*
X832619Y-1761850D01*
X872619Y-23288816D02*
X872619Y-23765006D01*
X872619Y-23765006D02*
X1348809Y-23812625D01*
X1348809Y-23812625D02*
X1301190Y-23765006D01*
X1301190Y-23765006D02*
X1253571Y-23669768D01*
X1253571Y-23669768D02*
X1253571Y-23431673D01*
X1253571Y-23431673D02*
X1301190Y-23336435D01*
X1301190Y-23336435D02*
X1348809Y-23288816D01*
X1348809Y-23288816D02*
X1444047Y-23241197D01*
X1444047Y-23241197D02*
X1682142Y-23241197D01*
X1682142Y-23241197D02*
X1777380Y-23288816D01*
X1777380Y-23288816D02*
X1825000Y-23336435D01*
X1825000Y-23336435D02*
X1872619Y-23431673D01*
X1872619Y-23431673D02*
X1872619Y-23669768D01*
X1872619Y-23669768D02*
X1825000Y-23765006D01*
X1825000Y-23765006D02*
X1777380Y-23812625D01*
X872619Y-22955482D02*
X1872619Y-22622149D01*
X1872619Y-22622149D02*
X872619Y-22288816D01*
X4372619Y-1428517D02*
X4372619Y-1999945D01*
X4372619Y-1714231D02*
X3372619Y-1714231D01*
X3372619Y-1714231D02*
X3515476Y-1809469D01*
X3515476Y-1809469D02*
X3610714Y-1904707D01*
X3610714Y-1904707D02*
X3658333Y-1999945D01*
X3420238Y-24479292D02*
X3372619Y-24574530D01*
X3372619Y-24574530D02*
X3372619Y-24717387D01*
X3372619Y-24717387D02*
X3420238Y-24860244D01*
X3420238Y-24860244D02*
X3515476Y-24955482D01*
X3515476Y-24955482D02*
X3610714Y-25003101D01*
X3610714Y-25003101D02*
X3801190Y-25050720D01*
X3801190Y-25050720D02*
X3944047Y-25050720D01*
X3944047Y-25050720D02*
X4134523Y-25003101D01*
X4134523Y-25003101D02*
X4229761Y-24955482D01*
X4229761Y-24955482D02*
X4325000Y-24860244D01*
X4325000Y-24860244D02*
X4372619Y-24717387D01*
X4372619Y-24717387D02*
X4372619Y-24622149D01*
X4372619Y-24622149D02*
X4325000Y-24479292D01*
X4325000Y-24479292D02*
X4277380Y-24431673D01*
X4277380Y-24431673D02*
X3944047Y-24431673D01*
X3944047Y-24431673D02*
X3944047Y-24622149D01*
X4372619Y-24003101D02*
X3372619Y-24003101D01*
X3372619Y-24003101D02*
X4372619Y-23431673D01*
X4372619Y-23431673D02*
X3372619Y-23431673D01*
X4372619Y-22955482D02*
X3372619Y-22955482D01*
X3372619Y-22955482D02*
X3372619Y-22717387D01*
X3372619Y-22717387D02*
X3420238Y-22574530D01*
X3420238Y-22574530D02*
X3515476Y-22479292D01*
X3515476Y-22479292D02*
X3610714Y-22431673D01*
X3610714Y-22431673D02*
X3801190Y-22384054D01*
X3801190Y-22384054D02*
X3944047Y-22384054D01*
X3944047Y-22384054D02*
X4134523Y-22431673D01*
X4134523Y-22431673D02*
X4229761Y-22479292D01*
X4229761Y-22479292D02*
X4325000Y-22574530D01*
X4325000Y-22574530D02*
X4372619Y-22717387D01*
X4372619Y-22717387D02*
X4372619Y-22955482D01*
X6007857Y-1999945D02*
X5960238Y-1952326D01*
X5960238Y-1952326D02*
X5912619Y-1857088D01*
X5912619Y-1857088D02*
X5912619Y-1618993D01*
X5912619Y-1618993D02*
X5960238Y-1523755D01*
X5960238Y-1523755D02*
X6007857Y-1476136D01*
X6007857Y-1476136D02*
X6103095Y-1428517D01*
X6103095Y-1428517D02*
X6198333Y-1428517D01*
X6198333Y-1428517D02*
X6341190Y-1476136D01*
X6341190Y-1476136D02*
X6912619Y-2047564D01*
X6912619Y-2047564D02*
X6912619Y-1428517D01*
X5912619Y-24812625D02*
X5912619Y-24193578D01*
X5912619Y-24193578D02*
X6293571Y-24526911D01*
X6293571Y-24526911D02*
X6293571Y-24384054D01*
X6293571Y-24384054D02*
X6341190Y-24288816D01*
X6341190Y-24288816D02*
X6388809Y-24241197D01*
X6388809Y-24241197D02*
X6484047Y-24193578D01*
X6484047Y-24193578D02*
X6722142Y-24193578D01*
X6722142Y-24193578D02*
X6817380Y-24241197D01*
X6817380Y-24241197D02*
X6865000Y-24288816D01*
X6865000Y-24288816D02*
X6912619Y-24384054D01*
X6912619Y-24384054D02*
X6912619Y-24669768D01*
X6912619Y-24669768D02*
X6865000Y-24765006D01*
X6865000Y-24765006D02*
X6817380Y-24812625D01*
X5912619Y-23907863D02*
X6912619Y-23574530D01*
X6912619Y-23574530D02*
X5912619Y-23241197D01*
X5912619Y-23003101D02*
X5912619Y-22384054D01*
X5912619Y-22384054D02*
X6293571Y-22717387D01*
X6293571Y-22717387D02*
X6293571Y-22574530D01*
X6293571Y-22574530D02*
X6341190Y-22479292D01*
X6341190Y-22479292D02*
X6388809Y-22431673D01*
X6388809Y-22431673D02*
X6484047Y-22384054D01*
X6484047Y-22384054D02*
X6722142Y-22384054D01*
X6722142Y-22384054D02*
X6817380Y-22431673D01*
X6817380Y-22431673D02*
X6865000Y-22479292D01*
X6865000Y-22479292D02*
X6912619Y-22574530D01*
X6912619Y-22574530D02*
X6912619Y-22860244D01*
X6912619Y-22860244D02*
X6865000Y-22955482D01*
X6865000Y-22955482D02*
X6817380Y-23003101D01*
X8452619Y-2047564D02*
X8452619Y-1428517D01*
X8452619Y-1428517D02*
X8833571Y-1761850D01*
X8833571Y-1761850D02*
X8833571Y-1618993D01*
X8833571Y-1618993D02*
X8881190Y-1523755D01*
X8881190Y-1523755D02*
X8928809Y-1476136D01*
X8928809Y-1476136D02*
X9024047Y-1428517D01*
X9024047Y-1428517D02*
X9262142Y-1428517D01*
X9262142Y-1428517D02*
X9357380Y-1476136D01*
X9357380Y-1476136D02*
X9405000Y-1523755D01*
X9405000Y-1523755D02*
X9452619Y-1618993D01*
X9452619Y-1618993D02*
X9452619Y-1904707D01*
X9452619Y-1904707D02*
X9405000Y-1999945D01*
X9405000Y-1999945D02*
X9357380Y-2047564D01*
X8547857Y-23907863D02*
X8500238Y-23860244D01*
X8500238Y-23860244D02*
X8452619Y-23765006D01*
X8452619Y-23765006D02*
X8452619Y-23526911D01*
X8452619Y-23526911D02*
X8500238Y-23431673D01*
X8500238Y-23431673D02*
X8547857Y-23384054D01*
X8547857Y-23384054D02*
X8643095Y-23336435D01*
X8643095Y-23336435D02*
X8738333Y-23336435D01*
X8738333Y-23336435D02*
X8881190Y-23384054D01*
X8881190Y-23384054D02*
X9452619Y-23955482D01*
X9452619Y-23955482D02*
X9452619Y-23336435D01*
X9452619Y-22860244D02*
X9452619Y-22669768D01*
X9452619Y-22669768D02*
X9405000Y-22574530D01*
X9405000Y-22574530D02*
X9357380Y-22526911D01*
X9357380Y-22526911D02*
X9214523Y-22431673D01*
X9214523Y-22431673D02*
X9024047Y-22384054D01*
X9024047Y-22384054D02*
X8643095Y-22384054D01*
X8643095Y-22384054D02*
X8547857Y-22431673D01*
X8547857Y-22431673D02*
X8500238Y-22479292D01*
X8500238Y-22479292D02*
X8452619Y-22574530D01*
X8452619Y-22574530D02*
X8452619Y-22765006D01*
X8452619Y-22765006D02*
X8500238Y-22860244D01*
X8500238Y-22860244D02*
X8547857Y-22907863D01*
X8547857Y-22907863D02*
X8643095Y-22955482D01*
X8643095Y-22955482D02*
X8881190Y-22955482D01*
X8881190Y-22955482D02*
X8976428Y-22907863D01*
X8976428Y-22907863D02*
X9024047Y-22860244D01*
X9024047Y-22860244D02*
X9071666Y-22765006D01*
X9071666Y-22765006D02*
X9071666Y-22574530D01*
X9071666Y-22574530D02*
X9024047Y-22479292D01*
X9024047Y-22479292D02*
X8976428Y-22431673D01*
X8976428Y-22431673D02*
X8881190Y-22384054D01*
X11325952Y-1523755D02*
X11992619Y-1523755D01*
X10945000Y-1761850D02*
X11659285Y-1999945D01*
X11659285Y-1999945D02*
X11659285Y-1380898D01*
X11087857Y-23907863D02*
X11040238Y-23860244D01*
X11040238Y-23860244D02*
X10992619Y-23765006D01*
X10992619Y-23765006D02*
X10992619Y-23526911D01*
X10992619Y-23526911D02*
X11040238Y-23431673D01*
X11040238Y-23431673D02*
X11087857Y-23384054D01*
X11087857Y-23384054D02*
X11183095Y-23336435D01*
X11183095Y-23336435D02*
X11278333Y-23336435D01*
X11278333Y-23336435D02*
X11421190Y-23384054D01*
X11421190Y-23384054D02*
X11992619Y-23955482D01*
X11992619Y-23955482D02*
X11992619Y-23336435D01*
X11421190Y-22765006D02*
X11373571Y-22860244D01*
X11373571Y-22860244D02*
X11325952Y-22907863D01*
X11325952Y-22907863D02*
X11230714Y-22955482D01*
X11230714Y-22955482D02*
X11183095Y-22955482D01*
X11183095Y-22955482D02*
X11087857Y-22907863D01*
X11087857Y-22907863D02*
X11040238Y-22860244D01*
X11040238Y-22860244D02*
X10992619Y-22765006D01*
X10992619Y-22765006D02*
X10992619Y-22574530D01*
X10992619Y-22574530D02*
X11040238Y-22479292D01*
X11040238Y-22479292D02*
X11087857Y-22431673D01*
X11087857Y-22431673D02*
X11183095Y-22384054D01*
X11183095Y-22384054D02*
X11230714Y-22384054D01*
X11230714Y-22384054D02*
X11325952Y-22431673D01*
X11325952Y-22431673D02*
X11373571Y-22479292D01*
X11373571Y-22479292D02*
X11421190Y-22574530D01*
X11421190Y-22574530D02*
X11421190Y-22765006D01*
X11421190Y-22765006D02*
X11468809Y-22860244D01*
X11468809Y-22860244D02*
X11516428Y-22907863D01*
X11516428Y-22907863D02*
X11611666Y-22955482D01*
X11611666Y-22955482D02*
X11802142Y-22955482D01*
X11802142Y-22955482D02*
X11897380Y-22907863D01*
X11897380Y-22907863D02*
X11945000Y-22860244D01*
X11945000Y-22860244D02*
X11992619Y-22765006D01*
X11992619Y-22765006D02*
X11992619Y-22574530D01*
X11992619Y-22574530D02*
X11945000Y-22479292D01*
X11945000Y-22479292D02*
X11897380Y-22431673D01*
X11897380Y-22431673D02*
X11802142Y-22384054D01*
X11802142Y-22384054D02*
X11611666Y-22384054D01*
X11611666Y-22384054D02*
X11516428Y-22431673D01*
X11516428Y-22431673D02*
X11468809Y-22479292D01*
X11468809Y-22479292D02*
X11421190Y-22574530D01*
X13532619Y-1476136D02*
X13532619Y-1952326D01*
X13532619Y-1952326D02*
X14008809Y-1999945D01*
X14008809Y-1999945D02*
X13961190Y-1952326D01*
X13961190Y-1952326D02*
X13913571Y-1857088D01*
X13913571Y-1857088D02*
X13913571Y-1618993D01*
X13913571Y-1618993D02*
X13961190Y-1523755D01*
X13961190Y-1523755D02*
X14008809Y-1476136D01*
X14008809Y-1476136D02*
X14104047Y-1428517D01*
X14104047Y-1428517D02*
X14342142Y-1428517D01*
X14342142Y-1428517D02*
X14437380Y-1476136D01*
X14437380Y-1476136D02*
X14485000Y-1523755D01*
X14485000Y-1523755D02*
X14532619Y-1618993D01*
X14532619Y-1618993D02*
X14532619Y-1857088D01*
X14532619Y-1857088D02*
X14485000Y-1952326D01*
X14485000Y-1952326D02*
X14437380Y-1999945D01*
X13627857Y-23907863D02*
X13580238Y-23860244D01*
X13580238Y-23860244D02*
X13532619Y-23765006D01*
X13532619Y-23765006D02*
X13532619Y-23526911D01*
X13532619Y-23526911D02*
X13580238Y-23431673D01*
X13580238Y-23431673D02*
X13627857Y-23384054D01*
X13627857Y-23384054D02*
X13723095Y-23336435D01*
X13723095Y-23336435D02*
X13818333Y-23336435D01*
X13818333Y-23336435D02*
X13961190Y-23384054D01*
X13961190Y-23384054D02*
X14532619Y-23955482D01*
X14532619Y-23955482D02*
X14532619Y-23336435D01*
X13532619Y-23003101D02*
X13532619Y-22336435D01*
X13532619Y-22336435D02*
X14532619Y-22765006D01*
X16072619Y-1523755D02*
X16072619Y-1714231D01*
X16072619Y-1714231D02*
X16120238Y-1809469D01*
X16120238Y-1809469D02*
X16167857Y-1857088D01*
X16167857Y-1857088D02*
X16310714Y-1952326D01*
X16310714Y-1952326D02*
X16501190Y-1999945D01*
X16501190Y-1999945D02*
X16882142Y-1999945D01*
X16882142Y-1999945D02*
X16977380Y-1952326D01*
X16977380Y-1952326D02*
X17025000Y-1904707D01*
X17025000Y-1904707D02*
X17072619Y-1809469D01*
X17072619Y-1809469D02*
X17072619Y-1618993D01*
X17072619Y-1618993D02*
X17025000Y-1523755D01*
X17025000Y-1523755D02*
X16977380Y-1476136D01*
X16977380Y-1476136D02*
X16882142Y-1428517D01*
X16882142Y-1428517D02*
X16644047Y-1428517D01*
X16644047Y-1428517D02*
X16548809Y-1476136D01*
X16548809Y-1476136D02*
X16501190Y-1523755D01*
X16501190Y-1523755D02*
X16453571Y-1618993D01*
X16453571Y-1618993D02*
X16453571Y-1809469D01*
X16453571Y-1809469D02*
X16501190Y-1904707D01*
X16501190Y-1904707D02*
X16548809Y-1952326D01*
X16548809Y-1952326D02*
X16644047Y-1999945D01*
X16168849Y-23916961D02*
X16121230Y-23869342D01*
X16121230Y-23869342D02*
X16073611Y-23774104D01*
X16073611Y-23774104D02*
X16073611Y-23536009D01*
X16073611Y-23536009D02*
X16121230Y-23440771D01*
X16121230Y-23440771D02*
X16168849Y-23393152D01*
X16168849Y-23393152D02*
X16264087Y-23345533D01*
X16264087Y-23345533D02*
X16359325Y-23345533D01*
X16359325Y-23345533D02*
X16502182Y-23393152D01*
X16502182Y-23393152D02*
X17073611Y-23964580D01*
X17073611Y-23964580D02*
X17073611Y-23345533D01*
X16073611Y-22488390D02*
X16073611Y-22678866D01*
X16073611Y-22678866D02*
X16121230Y-22774104D01*
X16121230Y-22774104D02*
X16168849Y-22821723D01*
X16168849Y-22821723D02*
X16311706Y-22916961D01*
X16311706Y-22916961D02*
X16502182Y-22964580D01*
X16502182Y-22964580D02*
X16883134Y-22964580D01*
X16883134Y-22964580D02*
X16978372Y-22916961D01*
X16978372Y-22916961D02*
X17025992Y-22869342D01*
X17025992Y-22869342D02*
X17073611Y-22774104D01*
X17073611Y-22774104D02*
X17073611Y-22583628D01*
X17073611Y-22583628D02*
X17025992Y-22488390D01*
X17025992Y-22488390D02*
X16978372Y-22440771D01*
X16978372Y-22440771D02*
X16883134Y-22393152D01*
X16883134Y-22393152D02*
X16645039Y-22393152D01*
X16645039Y-22393152D02*
X16549801Y-22440771D01*
X16549801Y-22440771D02*
X16502182Y-22488390D01*
X16502182Y-22488390D02*
X16454563Y-22583628D01*
X16454563Y-22583628D02*
X16454563Y-22774104D01*
X16454563Y-22774104D02*
X16502182Y-22869342D01*
X16502182Y-22869342D02*
X16549801Y-22916961D01*
X16549801Y-22916961D02*
X16645039Y-22964580D01*
X18612619Y-2047564D02*
X18612619Y-1380898D01*
X18612619Y-1380898D02*
X19612619Y-1809469D01*
X19612619Y-23336435D02*
X19612619Y-23907863D01*
X19612619Y-23622149D02*
X18612619Y-23622149D01*
X18612619Y-23622149D02*
X18755476Y-23717387D01*
X18755476Y-23717387D02*
X18850714Y-23812625D01*
X18850714Y-23812625D02*
X18898333Y-23907863D01*
X18612619Y-22431673D02*
X18612619Y-22907863D01*
X18612619Y-22907863D02*
X19088809Y-22955482D01*
X19088809Y-22955482D02*
X19041190Y-22907863D01*
X19041190Y-22907863D02*
X18993571Y-22812625D01*
X18993571Y-22812625D02*
X18993571Y-22574530D01*
X18993571Y-22574530D02*
X19041190Y-22479292D01*
X19041190Y-22479292D02*
X19088809Y-22431673D01*
X19088809Y-22431673D02*
X19184047Y-22384054D01*
X19184047Y-22384054D02*
X19422142Y-22384054D01*
X19422142Y-22384054D02*
X19517380Y-22431673D01*
X19517380Y-22431673D02*
X19565000Y-22479292D01*
X19565000Y-22479292D02*
X19612619Y-22574530D01*
X19612619Y-22574530D02*
X19612619Y-22812625D01*
X19612619Y-22812625D02*
X19565000Y-22907863D01*
X19565000Y-22907863D02*
X19517380Y-22955482D01*
X21581190Y-1809469D02*
X21533571Y-1904707D01*
X21533571Y-1904707D02*
X21485952Y-1952326D01*
X21485952Y-1952326D02*
X21390714Y-1999945D01*
X21390714Y-1999945D02*
X21343095Y-1999945D01*
X21343095Y-1999945D02*
X21247857Y-1952326D01*
X21247857Y-1952326D02*
X21200238Y-1904707D01*
X21200238Y-1904707D02*
X21152619Y-1809469D01*
X21152619Y-1809469D02*
X21152619Y-1618993D01*
X21152619Y-1618993D02*
X21200238Y-1523755D01*
X21200238Y-1523755D02*
X21247857Y-1476136D01*
X21247857Y-1476136D02*
X21343095Y-1428517D01*
X21343095Y-1428517D02*
X21390714Y-1428517D01*
X21390714Y-1428517D02*
X21485952Y-1476136D01*
X21485952Y-1476136D02*
X21533571Y-1523755D01*
X21533571Y-1523755D02*
X21581190Y-1618993D01*
X21581190Y-1618993D02*
X21581190Y-1809469D01*
X21581190Y-1809469D02*
X21628809Y-1904707D01*
X21628809Y-1904707D02*
X21676428Y-1952326D01*
X21676428Y-1952326D02*
X21771666Y-1999945D01*
X21771666Y-1999945D02*
X21962142Y-1999945D01*
X21962142Y-1999945D02*
X22057380Y-1952326D01*
X22057380Y-1952326D02*
X22105000Y-1904707D01*
X22105000Y-1904707D02*
X22152619Y-1809469D01*
X22152619Y-1809469D02*
X22152619Y-1618993D01*
X22152619Y-1618993D02*
X22105000Y-1523755D01*
X22105000Y-1523755D02*
X22057380Y-1476136D01*
X22057380Y-1476136D02*
X21962142Y-1428517D01*
X21962142Y-1428517D02*
X21771666Y-1428517D01*
X21771666Y-1428517D02*
X21676428Y-1476136D01*
X21676428Y-1476136D02*
X21628809Y-1523755D01*
X21628809Y-1523755D02*
X21581190Y-1618993D01*
X22152619Y-23336435D02*
X22152619Y-23907863D01*
X22152619Y-23622149D02*
X21152619Y-23622149D01*
X21152619Y-23622149D02*
X21295476Y-23717387D01*
X21295476Y-23717387D02*
X21390714Y-23812625D01*
X21390714Y-23812625D02*
X21438333Y-23907863D01*
X21485952Y-22479292D02*
X22152619Y-22479292D01*
X21105000Y-22717387D02*
X21819285Y-22955482D01*
X21819285Y-22955482D02*
X21819285Y-22336435D01*
X24987619Y-7302475D02*
X24987619Y-7111999D01*
X24987619Y-7111999D02*
X24940000Y-7016761D01*
X24940000Y-7016761D02*
X24892380Y-6969142D01*
X24892380Y-6969142D02*
X24749523Y-6873904D01*
X24749523Y-6873904D02*
X24559047Y-6826285D01*
X24559047Y-6826285D02*
X24178095Y-6826285D01*
X24178095Y-6826285D02*
X24082857Y-6873904D01*
X24082857Y-6873904D02*
X24035238Y-6921523D01*
X24035238Y-6921523D02*
X23987619Y-7016761D01*
X23987619Y-7016761D02*
X23987619Y-7207237D01*
X23987619Y-7207237D02*
X24035238Y-7302475D01*
X24035238Y-7302475D02*
X24082857Y-7350094D01*
X24082857Y-7350094D02*
X24178095Y-7397713D01*
X24178095Y-7397713D02*
X24416190Y-7397713D01*
X24416190Y-7397713D02*
X24511428Y-7350094D01*
X24511428Y-7350094D02*
X24559047Y-7302475D01*
X24559047Y-7302475D02*
X24606666Y-7207237D01*
X24606666Y-7207237D02*
X24606666Y-7016761D01*
X24606666Y-7016761D02*
X24559047Y-6921523D01*
X24559047Y-6921523D02*
X24511428Y-6873904D01*
X24511428Y-6873904D02*
X24416190Y-6826285D01*
X24987619Y-9842476D02*
X24987619Y-10413904D01*
X24987619Y-10128190D02*
X23987619Y-10128190D01*
X23987619Y-10128190D02*
X24130476Y-10223428D01*
X24130476Y-10223428D02*
X24225714Y-10318666D01*
X24225714Y-10318666D02*
X24273333Y-10413904D01*
X23987619Y-9223428D02*
X23987619Y-9128190D01*
X23987619Y-9128190D02*
X24035238Y-9032952D01*
X24035238Y-9032952D02*
X24082857Y-8985333D01*
X24082857Y-8985333D02*
X24178095Y-8937714D01*
X24178095Y-8937714D02*
X24368571Y-8890095D01*
X24368571Y-8890095D02*
X24606666Y-8890095D01*
X24606666Y-8890095D02*
X24797142Y-8937714D01*
X24797142Y-8937714D02*
X24892380Y-8985333D01*
X24892380Y-8985333D02*
X24940000Y-9032952D01*
X24940000Y-9032952D02*
X24987619Y-9128190D01*
X24987619Y-9128190D02*
X24987619Y-9223428D01*
X24987619Y-9223428D02*
X24940000Y-9318666D01*
X24940000Y-9318666D02*
X24892380Y-9366285D01*
X24892380Y-9366285D02*
X24797142Y-9413904D01*
X24797142Y-9413904D02*
X24606666Y-9461523D01*
X24606666Y-9461523D02*
X24368571Y-9461523D01*
X24368571Y-9461523D02*
X24178095Y-9413904D01*
X24178095Y-9413904D02*
X24082857Y-9366285D01*
X24082857Y-9366285D02*
X24035238Y-9318666D01*
X24035238Y-9318666D02*
X23987619Y-9223428D01*
X24987619Y-12382476D02*
X24987619Y-12953904D01*
X24987619Y-12668190D02*
X23987619Y-12668190D01*
X23987619Y-12668190D02*
X24130476Y-12763428D01*
X24130476Y-12763428D02*
X24225714Y-12858666D01*
X24225714Y-12858666D02*
X24273333Y-12953904D01*
X24987619Y-11430095D02*
X24987619Y-12001523D01*
X24987619Y-11715809D02*
X23987619Y-11715809D01*
X23987619Y-11715809D02*
X24130476Y-11811047D01*
X24130476Y-11811047D02*
X24225714Y-11906285D01*
X24225714Y-11906285D02*
X24273333Y-12001523D01*
X24987619Y-14882476D02*
X24987619Y-15453904D01*
X24987619Y-15168190D02*
X23987619Y-15168190D01*
X23987619Y-15168190D02*
X24130476Y-15263428D01*
X24130476Y-15263428D02*
X24225714Y-15358666D01*
X24225714Y-15358666D02*
X24273333Y-15453904D01*
X24082857Y-14501523D02*
X24035238Y-14453904D01*
X24035238Y-14453904D02*
X23987619Y-14358666D01*
X23987619Y-14358666D02*
X23987619Y-14120571D01*
X23987619Y-14120571D02*
X24035238Y-14025333D01*
X24035238Y-14025333D02*
X24082857Y-13977714D01*
X24082857Y-13977714D02*
X24178095Y-13930095D01*
X24178095Y-13930095D02*
X24273333Y-13930095D01*
X24273333Y-13930095D02*
X24416190Y-13977714D01*
X24416190Y-13977714D02*
X24987619Y-14549142D01*
X24987619Y-14549142D02*
X24987619Y-13930095D01*
X24987619Y-17462476D02*
X24987619Y-18033904D01*
X24987619Y-17748190D02*
X23987619Y-17748190D01*
X23987619Y-17748190D02*
X24130476Y-17843428D01*
X24130476Y-17843428D02*
X24225714Y-17938666D01*
X24225714Y-17938666D02*
X24273333Y-18033904D01*
X23987619Y-17129142D02*
X23987619Y-16510095D01*
X23987619Y-16510095D02*
X24368571Y-16843428D01*
X24368571Y-16843428D02*
X24368571Y-16700571D01*
X24368571Y-16700571D02*
X24416190Y-16605333D01*
X24416190Y-16605333D02*
X24463809Y-16557714D01*
X24463809Y-16557714D02*
X24559047Y-16510095D01*
X24559047Y-16510095D02*
X24797142Y-16510095D01*
X24797142Y-16510095D02*
X24892380Y-16557714D01*
X24892380Y-16557714D02*
X24940000Y-16605333D01*
X24940000Y-16605333D02*
X24987619Y-16700571D01*
X24987619Y-16700571D02*
X24987619Y-16986285D01*
X24987619Y-16986285D02*
X24940000Y-17081523D01*
X24940000Y-17081523D02*
X24892380Y-17129142D01*
D11*
%TO.C,G\u002A\u002A\u002A*%
G36*
X118012315Y-9798596D02*
G01*
X118080583Y-9803095D01*
X118123496Y-9811117D01*
X118142486Y-9820432D01*
X118150102Y-9829591D01*
X118156215Y-9845381D01*
X118160986Y-9871241D01*
X118164578Y-9910612D01*
X118167150Y-9966931D01*
X118168866Y-10043638D01*
X118169886Y-10144173D01*
X118170373Y-10271976D01*
X118170488Y-10416372D01*
X118170820Y-10578839D01*
X118170946Y-10710640D01*
X118169564Y-10814958D01*
X118165372Y-10894976D01*
X118157068Y-10953875D01*
X118143350Y-10994840D01*
X118122915Y-11021053D01*
X118094461Y-11035696D01*
X118056686Y-11041954D01*
X118008288Y-11043007D01*
X117947963Y-11042040D01*
X117914596Y-11041792D01*
X117830369Y-11040895D01*
X117772621Y-11037483D01*
X117733994Y-11030478D01*
X117707131Y-11018798D01*
X117693998Y-11009422D01*
X117654022Y-10977051D01*
X117654022Y-10417360D01*
X117654140Y-10263994D01*
X117654617Y-10140929D01*
X117655636Y-10044598D01*
X117657380Y-9971436D01*
X117660030Y-9917877D01*
X117663770Y-9880354D01*
X117668783Y-9855302D01*
X117675252Y-9839155D01*
X117683359Y-9828348D01*
X117684260Y-9827430D01*
X117702296Y-9814182D01*
X117729194Y-9805381D01*
X117771396Y-9800181D01*
X117835345Y-9797737D01*
X117914490Y-9797192D01*
X118012315Y-9798596D01*
G37*
G36*
X93062711Y-9773249D02*
G01*
X93125959Y-9778112D01*
X93167635Y-9787116D01*
X93190054Y-9798152D01*
X93227688Y-9824512D01*
X93227688Y-13429143D01*
X93227672Y-13843041D01*
X93227615Y-14224398D01*
X93227509Y-14574537D01*
X93227343Y-14894783D01*
X93227109Y-15186460D01*
X93226796Y-15450892D01*
X93226394Y-15689404D01*
X93225894Y-15903321D01*
X93225287Y-16093967D01*
X93224562Y-16262666D01*
X93223709Y-16410743D01*
X93222720Y-16539522D01*
X93221584Y-16650327D01*
X93220292Y-16744484D01*
X93218834Y-16823316D01*
X93217200Y-16888148D01*
X93215380Y-16940305D01*
X93213365Y-16981110D01*
X93211146Y-17011889D01*
X93208712Y-17033965D01*
X93206053Y-17048663D01*
X93203161Y-17057309D01*
X93201079Y-17060382D01*
X93170931Y-17073469D01*
X93116068Y-17082721D01*
X93044824Y-17088162D01*
X92965532Y-17089818D01*
X92886524Y-17087713D01*
X92816134Y-17081872D01*
X92762695Y-17072320D01*
X92734540Y-17059082D01*
X92734462Y-17058989D01*
X92731755Y-17051552D01*
X92729259Y-17035186D01*
X92726966Y-17008633D01*
X92724868Y-16970634D01*
X92722957Y-16919932D01*
X92721225Y-16855268D01*
X92719664Y-16775384D01*
X92718265Y-16679021D01*
X92717021Y-16564921D01*
X92715924Y-16431826D01*
X92714965Y-16278478D01*
X92714137Y-16103617D01*
X92713431Y-15905987D01*
X92712840Y-15684329D01*
X92712354Y-15437384D01*
X92711967Y-15163894D01*
X92711670Y-14862600D01*
X92711455Y-14532246D01*
X92711314Y-14171571D01*
X92711239Y-13779319D01*
X92711222Y-13433760D01*
X92711222Y-9836534D01*
X92751198Y-9804163D01*
X92774600Y-9789266D01*
X92805485Y-9779672D01*
X92851209Y-9774300D01*
X92919130Y-9772071D01*
X92971796Y-9771792D01*
X93062711Y-9773249D01*
G37*
G36*
X118002582Y-11787525D02*
G01*
X118062670Y-11790109D01*
X118101771Y-11795486D01*
X118126314Y-11804531D01*
X118142464Y-11817825D01*
X118146227Y-11823828D01*
X118149640Y-11834173D01*
X118152719Y-11850447D01*
X118155482Y-11874232D01*
X118157946Y-11907112D01*
X118160127Y-11950672D01*
X118162042Y-12006496D01*
X118163709Y-12076167D01*
X118165143Y-12161269D01*
X118166364Y-12263387D01*
X118167386Y-12384104D01*
X118168228Y-12525005D01*
X118168905Y-12687672D01*
X118169436Y-12873691D01*
X118169837Y-13084645D01*
X118170125Y-13322119D01*
X118170317Y-13587694D01*
X118170430Y-13882957D01*
X118170481Y-14209492D01*
X118170488Y-14435138D01*
X118170382Y-14833199D01*
X118170062Y-15197629D01*
X118169526Y-15528665D01*
X118168773Y-15826543D01*
X118167802Y-16091498D01*
X118166611Y-16323766D01*
X118165198Y-16523583D01*
X118163562Y-16691184D01*
X118161701Y-16826806D01*
X118159613Y-16930685D01*
X118157297Y-17003055D01*
X118154752Y-17044154D01*
X118152959Y-17054238D01*
X118142904Y-17067782D01*
X118125929Y-17076999D01*
X118096163Y-17082706D01*
X118047736Y-17085721D01*
X117974775Y-17086864D01*
X117917966Y-17086991D01*
X117825303Y-17086329D01*
X117760704Y-17083893D01*
X117718386Y-17079010D01*
X117692562Y-17071008D01*
X117677448Y-17059214D01*
X117677262Y-17058991D01*
X117674040Y-17050714D01*
X117671098Y-17032996D01*
X117668419Y-17004338D01*
X117665987Y-16963244D01*
X117663784Y-16908214D01*
X117661795Y-16837751D01*
X117660003Y-16750355D01*
X117658391Y-16644529D01*
X117656942Y-16518775D01*
X117655641Y-16371594D01*
X117654470Y-16201487D01*
X117653414Y-16006958D01*
X117652454Y-15786507D01*
X117651576Y-15538635D01*
X117650762Y-15261846D01*
X117649995Y-14954641D01*
X117649260Y-14615521D01*
X117649041Y-14506291D01*
X117648535Y-14215359D01*
X117648179Y-13932959D01*
X117647968Y-13661019D01*
X117647898Y-13401468D01*
X117647966Y-13156232D01*
X117648167Y-12927239D01*
X117648497Y-12716416D01*
X117648953Y-12525692D01*
X117649531Y-12356995D01*
X117650227Y-12212250D01*
X117651037Y-12093388D01*
X117651957Y-12002334D01*
X117652984Y-11941016D01*
X117654112Y-11911363D01*
X117654281Y-11909828D01*
X117663281Y-11861535D01*
X117677880Y-11827835D01*
X117703603Y-11806124D01*
X117745976Y-11793795D01*
X117810522Y-11788245D01*
X117902767Y-11786867D01*
X117915073Y-11786859D01*
X118002582Y-11787525D01*
G37*
G36*
X90874622Y-9772495D02*
G01*
X90931301Y-9775333D01*
X90968271Y-9781406D01*
X90992605Y-9791809D01*
X91009422Y-9805659D01*
X91013289Y-9809858D01*
X91016850Y-9815307D01*
X91020118Y-9823361D01*
X91023105Y-9835374D01*
X91025823Y-9852701D01*
X91028286Y-9876695D01*
X91030505Y-9908711D01*
X91032494Y-9950102D01*
X91034265Y-10002224D01*
X91035832Y-10066430D01*
X91037205Y-10144075D01*
X91038399Y-10236513D01*
X91039425Y-10345097D01*
X91040296Y-10471183D01*
X91041026Y-10616124D01*
X91041626Y-10781275D01*
X91042110Y-10967990D01*
X91042489Y-11177622D01*
X91042776Y-11411527D01*
X91042985Y-11671059D01*
X91043128Y-11957571D01*
X91043217Y-12272418D01*
X91043265Y-12616955D01*
X91043284Y-12992535D01*
X91043288Y-13400512D01*
X91043288Y-13436648D01*
X91043271Y-13850100D01*
X91043215Y-14231011D01*
X91043108Y-14580708D01*
X91042942Y-14900514D01*
X91042707Y-15191758D01*
X91042393Y-15455764D01*
X91041991Y-15693859D01*
X91041489Y-15907368D01*
X91040880Y-16097616D01*
X91040153Y-16265931D01*
X91039298Y-16413638D01*
X91038306Y-16542061D01*
X91037167Y-16652529D01*
X91035871Y-16746365D01*
X91034409Y-16824897D01*
X91032770Y-16889450D01*
X91030945Y-16941349D01*
X91028925Y-16981921D01*
X91026699Y-17012491D01*
X91024257Y-17034385D01*
X91021591Y-17048930D01*
X91018690Y-17057450D01*
X91016679Y-17060382D01*
X90986531Y-17073469D01*
X90931668Y-17082721D01*
X90860424Y-17088162D01*
X90781132Y-17089818D01*
X90702124Y-17087713D01*
X90631734Y-17081872D01*
X90578295Y-17072320D01*
X90550140Y-17059082D01*
X90550062Y-17058989D01*
X90547355Y-17051552D01*
X90544859Y-17035186D01*
X90542566Y-17008632D01*
X90540468Y-16970634D01*
X90538557Y-16919932D01*
X90536825Y-16855268D01*
X90535264Y-16775383D01*
X90533865Y-16679020D01*
X90532621Y-16564920D01*
X90531524Y-16431825D01*
X90530565Y-16278477D01*
X90529737Y-16103617D01*
X90529031Y-15905986D01*
X90528440Y-15684328D01*
X90527954Y-15437383D01*
X90527567Y-15163893D01*
X90527270Y-14862599D01*
X90527055Y-14532245D01*
X90526914Y-14171570D01*
X90526839Y-13779317D01*
X90526822Y-13433759D01*
X90526822Y-9836533D01*
X90566798Y-9804163D01*
X90589889Y-9789417D01*
X90620309Y-9779862D01*
X90665313Y-9774449D01*
X90732155Y-9772133D01*
X90791164Y-9771792D01*
X90874622Y-9772495D01*
G37*
G36*
X78823106Y-11788313D02*
G01*
X78890481Y-11793922D01*
X78936344Y-11806350D01*
X78964806Y-11828214D01*
X78979980Y-11862131D01*
X78985979Y-11910718D01*
X78986914Y-11976594D01*
X78986756Y-12028532D01*
X78986887Y-12100215D01*
X78984682Y-12155437D01*
X78976242Y-12196342D01*
X78957671Y-12225077D01*
X78925070Y-12243786D01*
X78874542Y-12254616D01*
X78802188Y-12259710D01*
X78704110Y-12261216D01*
X78576412Y-12261278D01*
X78563888Y-12261286D01*
X78409511Y-12262688D01*
X78282991Y-12267229D01*
X78178394Y-12275846D01*
X78089781Y-12289476D01*
X78011215Y-12309056D01*
X77936761Y-12335522D01*
X77860482Y-12369811D01*
X77853081Y-12373432D01*
X77712780Y-12461019D01*
X77588607Y-12576474D01*
X77483005Y-12716690D01*
X77398414Y-12878557D01*
X77349568Y-13014525D01*
X77344952Y-13031915D01*
X77340808Y-13052467D01*
X77337100Y-13078083D01*
X77333792Y-13110665D01*
X77330848Y-13152117D01*
X77328233Y-13204341D01*
X77325911Y-13269239D01*
X77323845Y-13348715D01*
X77322001Y-13444669D01*
X77320341Y-13559006D01*
X77318831Y-13693629D01*
X77317435Y-13850439D01*
X77316116Y-14031338D01*
X77314838Y-14238231D01*
X77313567Y-14473019D01*
X77312266Y-14737604D01*
X77310898Y-15033890D01*
X77310702Y-15077528D01*
X77309346Y-15376689D01*
X77308090Y-15643822D01*
X77306896Y-15880765D01*
X77305724Y-16089356D01*
X77304537Y-16271434D01*
X77303295Y-16428837D01*
X77301961Y-16563403D01*
X77300495Y-16676970D01*
X77298859Y-16771377D01*
X77297014Y-16848463D01*
X77294922Y-16910064D01*
X77292544Y-16958020D01*
X77289842Y-16994168D01*
X77286776Y-17020348D01*
X77283309Y-17038397D01*
X77279402Y-17050154D01*
X77275016Y-17057456D01*
X77270112Y-17062142D01*
X77269019Y-17062962D01*
X77235018Y-17075101D01*
X77177186Y-17083433D01*
X77104089Y-17088007D01*
X77024289Y-17088870D01*
X76946354Y-17086072D01*
X76878846Y-17079661D01*
X76830332Y-17069684D01*
X76812032Y-17060382D01*
X76808455Y-17054438D01*
X76805210Y-17043059D01*
X76802281Y-17024682D01*
X76799651Y-16997742D01*
X76797306Y-16960674D01*
X76795229Y-16911916D01*
X76793405Y-16849901D01*
X76791817Y-16773067D01*
X76790450Y-16679850D01*
X76789288Y-16568683D01*
X76788314Y-16438005D01*
X76787514Y-16286250D01*
X76786871Y-16111854D01*
X76786369Y-15913254D01*
X76785992Y-15688884D01*
X76785725Y-15437180D01*
X76785552Y-15156580D01*
X76785457Y-14845517D01*
X76785423Y-14502429D01*
X76785422Y-14438340D01*
X76785434Y-14091507D01*
X76785482Y-13776948D01*
X76785585Y-13493069D01*
X76785762Y-13238278D01*
X76786031Y-13010979D01*
X76786411Y-12809582D01*
X76786922Y-12632491D01*
X76787582Y-12478115D01*
X76788410Y-12344860D01*
X76789424Y-12231132D01*
X76790643Y-12135339D01*
X76792087Y-12055887D01*
X76793774Y-11991183D01*
X76795722Y-11939633D01*
X76797951Y-11899645D01*
X76800480Y-11869626D01*
X76803327Y-11847981D01*
X76806511Y-11833119D01*
X76810050Y-11823445D01*
X76813965Y-11817366D01*
X76816389Y-11814883D01*
X76836843Y-11802186D01*
X76868956Y-11793874D01*
X76919083Y-11789161D01*
X76993577Y-11787261D01*
X77040756Y-11787118D01*
X77119647Y-11788291D01*
X77186770Y-11791276D01*
X77234457Y-11795606D01*
X77254263Y-11800163D01*
X77276892Y-11825442D01*
X77293173Y-11870641D01*
X77303736Y-11939424D01*
X77309211Y-12035452D01*
X77310356Y-12126628D01*
X77311575Y-12226474D01*
X77315632Y-12294573D01*
X77323121Y-12332970D01*
X77334638Y-12343711D01*
X77350779Y-12328840D01*
X77363182Y-12308006D01*
X77396467Y-12260364D01*
X77449421Y-12200516D01*
X77514288Y-12136121D01*
X77583308Y-12074841D01*
X77648725Y-12024335D01*
X77654481Y-12020367D01*
X77767872Y-11949453D01*
X77880242Y-11893442D01*
X77997405Y-11850911D01*
X78125179Y-11820435D01*
X78269379Y-11800591D01*
X78435820Y-11789956D01*
X78607365Y-11787081D01*
X78730104Y-11786905D01*
X78823106Y-11788313D01*
G37*
G36*
X54268951Y-9752948D02*
G01*
X54285731Y-9757552D01*
X54327027Y-9761459D01*
X54394160Y-9764697D01*
X54488449Y-9767292D01*
X54611217Y-9769271D01*
X54763783Y-9770663D01*
X54947467Y-9771493D01*
X55163590Y-9771791D01*
X55181876Y-9771792D01*
X56075956Y-9771792D01*
X56075956Y-10365257D01*
X56075956Y-10958722D01*
X57921145Y-12185980D01*
X59766335Y-13413237D01*
X62484639Y-11600981D01*
X62759304Y-11417895D01*
X63026429Y-11239891D01*
X63284651Y-11067876D01*
X63532607Y-10902756D01*
X63768933Y-10745436D01*
X63992266Y-10596823D01*
X64201243Y-10457824D01*
X64394501Y-10329343D01*
X64570676Y-10212287D01*
X64728405Y-10107561D01*
X64866325Y-10016073D01*
X64983073Y-9938728D01*
X65077285Y-9876431D01*
X65147598Y-9830090D01*
X65192650Y-9800610D01*
X65211076Y-9788896D01*
X65211449Y-9788725D01*
X65212265Y-9805401D01*
X65213059Y-9854395D01*
X65213828Y-9934159D01*
X65214569Y-10043145D01*
X65215278Y-10179806D01*
X65215951Y-10342593D01*
X65216584Y-10529957D01*
X65217175Y-10740352D01*
X65217719Y-10972228D01*
X65218212Y-11224037D01*
X65218652Y-11494232D01*
X65219034Y-11781264D01*
X65219355Y-12083585D01*
X65219612Y-12399647D01*
X65219800Y-12727902D01*
X65219915Y-13066802D01*
X65219956Y-13414799D01*
X65219956Y-13419926D01*
X65220035Y-13892928D01*
X65220272Y-14333481D01*
X65220666Y-14741480D01*
X65221218Y-15116823D01*
X65221925Y-15459405D01*
X65222789Y-15769125D01*
X65223808Y-16045879D01*
X65224982Y-16289564D01*
X65226311Y-16500077D01*
X65227794Y-16677314D01*
X65229430Y-16821173D01*
X65231220Y-16931551D01*
X65233162Y-17008344D01*
X65235256Y-17051450D01*
X65236889Y-17061591D01*
X65253262Y-17085499D01*
X65246831Y-17110625D01*
X65224178Y-17120858D01*
X65206886Y-17111618D01*
X65163028Y-17084592D01*
X65094191Y-17040823D01*
X65001960Y-16981352D01*
X64887921Y-16907223D01*
X64753658Y-16819476D01*
X64600758Y-16719154D01*
X64430806Y-16607299D01*
X64245388Y-16484954D01*
X64046089Y-16353160D01*
X63834495Y-16212959D01*
X63612191Y-16065394D01*
X63380764Y-15911506D01*
X63141798Y-15752339D01*
X63129200Y-15743940D01*
X61063867Y-14367023D01*
X57686173Y-15718158D01*
X57362601Y-15847558D01*
X57047407Y-15973541D01*
X56742031Y-16095535D01*
X56447910Y-16212967D01*
X56166484Y-16325264D01*
X55899190Y-16431855D01*
X55647469Y-16532166D01*
X55412758Y-16625627D01*
X55196497Y-16711663D01*
X55000123Y-16789704D01*
X54825076Y-16859176D01*
X54672795Y-16919507D01*
X54544718Y-16970125D01*
X54442283Y-17010458D01*
X54366930Y-17039932D01*
X54320097Y-17057977D01*
X54303223Y-17064018D01*
X54303196Y-17064009D01*
X54316521Y-17054233D01*
X54356676Y-17026597D01*
X54422300Y-16982011D01*
X54512034Y-16921387D01*
X54624519Y-16845634D01*
X54758394Y-16755664D01*
X54912301Y-16652387D01*
X55084879Y-16536715D01*
X55274770Y-16409557D01*
X55480613Y-16271825D01*
X55701049Y-16124430D01*
X55934719Y-15968282D01*
X56180263Y-15804292D01*
X56436321Y-15633370D01*
X56701534Y-15456429D01*
X56974543Y-15274377D01*
X56998831Y-15258185D01*
X58375950Y-14340143D01*
X61163597Y-14340143D01*
X61180019Y-14351989D01*
X61221861Y-14380684D01*
X61286514Y-14424488D01*
X61371364Y-14481662D01*
X61473802Y-14550465D01*
X61591216Y-14629159D01*
X61720994Y-14716003D01*
X61860527Y-14809257D01*
X62007202Y-14907182D01*
X62158408Y-15008038D01*
X62311535Y-15110086D01*
X62463971Y-15211584D01*
X62613104Y-15310795D01*
X62756325Y-15405978D01*
X62891021Y-15495393D01*
X63014581Y-15577300D01*
X63124395Y-15649960D01*
X63217851Y-15711634D01*
X63292338Y-15760580D01*
X63345245Y-15795060D01*
X63373961Y-15813334D01*
X63378456Y-15815853D01*
X63380566Y-15799564D01*
X63382567Y-15752115D01*
X63384428Y-15676211D01*
X63386123Y-15574559D01*
X63387620Y-15449865D01*
X63388892Y-15304836D01*
X63389909Y-15142177D01*
X63390642Y-14964594D01*
X63391063Y-14774794D01*
X63391156Y-14631658D01*
X63390979Y-14434681D01*
X63390469Y-14247940D01*
X63389653Y-14074143D01*
X63388563Y-13916001D01*
X63387225Y-13776224D01*
X63385669Y-13657520D01*
X63383925Y-13562599D01*
X63382022Y-13494172D01*
X63379987Y-13454948D01*
X63378456Y-13446310D01*
X63359226Y-13452425D01*
X63312115Y-13469961D01*
X63240165Y-13497690D01*
X63146422Y-13534383D01*
X63033930Y-13578810D01*
X62905732Y-13629745D01*
X62764874Y-13685958D01*
X62614399Y-13746220D01*
X62457353Y-13809303D01*
X62296779Y-13873979D01*
X62135721Y-13939018D01*
X61977224Y-14003193D01*
X61824333Y-14065274D01*
X61680091Y-14124034D01*
X61547544Y-14178243D01*
X61429734Y-14226673D01*
X61329708Y-14268095D01*
X61250508Y-14301281D01*
X61195179Y-14325002D01*
X61166766Y-14338030D01*
X61163597Y-14340143D01*
X58375950Y-14340143D01*
X59699751Y-13457645D01*
X56960753Y-11631806D01*
X56684948Y-11447847D01*
X56416716Y-11268736D01*
X56157416Y-11095388D01*
X55908407Y-10928719D01*
X55671045Y-10769643D01*
X55446689Y-10619077D01*
X55236697Y-10477935D01*
X55042427Y-10347133D01*
X54865236Y-10227586D01*
X54706483Y-10120210D01*
X54567525Y-10025919D01*
X54449720Y-9945630D01*
X54354427Y-9880258D01*
X54283003Y-9830717D01*
X54236806Y-9797924D01*
X54217194Y-9782794D01*
X54216585Y-9781991D01*
X54222829Y-9753611D01*
X54246575Y-9742788D01*
X54268951Y-9752948D01*
G37*
G36*
X87294684Y-11795377D02*
G01*
X87444248Y-11795631D01*
X87566950Y-11796241D01*
X87666292Y-11797357D01*
X87745775Y-11799130D01*
X87808902Y-11801713D01*
X87859176Y-11805257D01*
X87900098Y-11809912D01*
X87935171Y-11815832D01*
X87967896Y-11823166D01*
X88001776Y-11832067D01*
X88008775Y-11833987D01*
X88221553Y-11907285D01*
X88409321Y-12003378D01*
X88572472Y-12122663D01*
X88711400Y-12265536D01*
X88826496Y-12432392D01*
X88918152Y-12623628D01*
X88980345Y-12814703D01*
X89019755Y-12963725D01*
X89019755Y-14436925D01*
X89019744Y-14694007D01*
X89019676Y-14919530D01*
X89019496Y-15115801D01*
X89019152Y-15285129D01*
X89018590Y-15429821D01*
X89017757Y-15552184D01*
X89016597Y-15654526D01*
X89015060Y-15739155D01*
X89013089Y-15808379D01*
X89010633Y-15864504D01*
X89007637Y-15909840D01*
X89004048Y-15946692D01*
X88999813Y-15977370D01*
X88994877Y-16004180D01*
X88989187Y-16029430D01*
X88982690Y-16055429D01*
X88982136Y-16057601D01*
X88914349Y-16262691D01*
X88820841Y-16450613D01*
X88703671Y-16618257D01*
X88564904Y-16762509D01*
X88460956Y-16844464D01*
X88331907Y-16920802D01*
X88180516Y-16987064D01*
X88017801Y-17039012D01*
X87876756Y-17069084D01*
X87825287Y-17074296D01*
X87745289Y-17078530D01*
X87641570Y-17081808D01*
X87518935Y-17084153D01*
X87382192Y-17085589D01*
X87236148Y-17086138D01*
X87085609Y-17085825D01*
X86935382Y-17084672D01*
X86790274Y-17082702D01*
X86655093Y-17079938D01*
X86534644Y-17076404D01*
X86433735Y-17072122D01*
X86357172Y-17067117D01*
X86310422Y-17061537D01*
X86097191Y-17005923D01*
X85905100Y-16924132D01*
X85734868Y-16817000D01*
X85587212Y-16685367D01*
X85462852Y-16530072D01*
X85362507Y-16351952D01*
X85286895Y-16151847D01*
X85236734Y-15930595D01*
X85219158Y-15788089D01*
X85215726Y-15730538D01*
X85212672Y-15642857D01*
X85209997Y-15528698D01*
X85207702Y-15391716D01*
X85205790Y-15235565D01*
X85204261Y-15063900D01*
X85203116Y-14880373D01*
X85202358Y-14688640D01*
X85201988Y-14492355D01*
X85201994Y-14428458D01*
X85734689Y-14428458D01*
X85734736Y-14677556D01*
X85734910Y-14895170D01*
X85735259Y-15083681D01*
X85735829Y-15245471D01*
X85736671Y-15382921D01*
X85737830Y-15498414D01*
X85739356Y-15594331D01*
X85741296Y-15673054D01*
X85743698Y-15736965D01*
X85746610Y-15788446D01*
X85750081Y-15829878D01*
X85754157Y-15863644D01*
X85758887Y-15892125D01*
X85764319Y-15917703D01*
X85764699Y-15919324D01*
X85820404Y-16094475D01*
X85899276Y-16244945D01*
X86001040Y-16370496D01*
X86125422Y-16470888D01*
X86272148Y-16545884D01*
X86440941Y-16595245D01*
X86564422Y-16613677D01*
X86616301Y-16616939D01*
X86696372Y-16619532D01*
X86798967Y-16621389D01*
X86918417Y-16622441D01*
X87049053Y-16622619D01*
X87185206Y-16621856D01*
X87216356Y-16621543D01*
X87365294Y-16619748D01*
X87484884Y-16617756D01*
X87579645Y-16615272D01*
X87654095Y-16611998D01*
X87712755Y-16607638D01*
X87760141Y-16601896D01*
X87800773Y-16594475D01*
X87839170Y-16585077D01*
X87859767Y-16579307D01*
X87987460Y-16535438D01*
X88092881Y-16481772D01*
X88187464Y-16411791D01*
X88241078Y-16361938D01*
X88327931Y-16256389D01*
X88401907Y-16128004D01*
X88457473Y-15987004D01*
X88471806Y-15935525D01*
X88476067Y-15912332D01*
X88479799Y-15878103D01*
X88483032Y-15830804D01*
X88485799Y-15768401D01*
X88488129Y-15688859D01*
X88490054Y-15590142D01*
X88491604Y-15470218D01*
X88492810Y-15327051D01*
X88493704Y-15158606D01*
X88494316Y-14962850D01*
X88494677Y-14737747D01*
X88494818Y-14481263D01*
X88494822Y-14419991D01*
X88494822Y-12997592D01*
X88450087Y-12866461D01*
X88378848Y-12702954D01*
X88285399Y-12565012D01*
X88169703Y-12452603D01*
X88031722Y-12365693D01*
X87871418Y-12304250D01*
X87799073Y-12286377D01*
X87742417Y-12278461D01*
X87657388Y-12271936D01*
X87549448Y-12266801D01*
X87424062Y-12263057D01*
X87286694Y-12260703D01*
X87142807Y-12259739D01*
X86997867Y-12260166D01*
X86857336Y-12261984D01*
X86726679Y-12265191D01*
X86611360Y-12269790D01*
X86516842Y-12275779D01*
X86448590Y-12283158D01*
X86430438Y-12286377D01*
X86262880Y-12337011D01*
X86117537Y-12413206D01*
X85994419Y-12514952D01*
X85893538Y-12642238D01*
X85814904Y-12795052D01*
X85764666Y-12948493D01*
X85759197Y-12971890D01*
X85754432Y-12998162D01*
X85750322Y-13029671D01*
X85746819Y-13068779D01*
X85743877Y-13117851D01*
X85741446Y-13179248D01*
X85739480Y-13255334D01*
X85737930Y-13348470D01*
X85736748Y-13461020D01*
X85735887Y-13595347D01*
X85735298Y-13753814D01*
X85734934Y-13938783D01*
X85734747Y-14152617D01*
X85734690Y-14397678D01*
X85734689Y-14428458D01*
X85201994Y-14428458D01*
X85202006Y-14295170D01*
X85202415Y-14100742D01*
X85203216Y-13912722D01*
X85204410Y-13734766D01*
X85205999Y-13570528D01*
X85207984Y-13423663D01*
X85210366Y-13297822D01*
X85213147Y-13196662D01*
X85216329Y-13123835D01*
X85218119Y-13098639D01*
X85247205Y-12883376D01*
X85295120Y-12692352D01*
X85363686Y-12520516D01*
X85454727Y-12362818D01*
X85512483Y-12283542D01*
X85646821Y-12139130D01*
X85806074Y-12016632D01*
X85988369Y-11917239D01*
X86191835Y-11842139D01*
X86218835Y-11834472D01*
X86253715Y-11825138D01*
X86286549Y-11817419D01*
X86320843Y-11811162D01*
X86360106Y-11806212D01*
X86407843Y-11802418D01*
X86467563Y-11799626D01*
X86542772Y-11797682D01*
X86636977Y-11796433D01*
X86753686Y-11795727D01*
X86896406Y-11795409D01*
X87068644Y-11795327D01*
X87114756Y-11795325D01*
X87294684Y-11795377D01*
G37*
G36*
X104018535Y-10719868D02*
G01*
X104054679Y-10720059D01*
X104141599Y-10720836D01*
X104201711Y-10723821D01*
X104242052Y-10729990D01*
X104269661Y-10740322D01*
X104287512Y-10752406D01*
X104327488Y-10784754D01*
X104332389Y-11264640D01*
X104334027Y-11406464D01*
X104335873Y-11518166D01*
X104338173Y-11603492D01*
X104341173Y-11666187D01*
X104345119Y-11709997D01*
X104350257Y-11738665D01*
X104356831Y-11755939D01*
X104365089Y-11765562D01*
X104365259Y-11765692D01*
X104381183Y-11771412D01*
X104414081Y-11776097D01*
X104466472Y-11779826D01*
X104540873Y-11782675D01*
X104639804Y-11784723D01*
X104765782Y-11786048D01*
X104921325Y-11786726D01*
X105050391Y-11786859D01*
X105226465Y-11786607D01*
X105371643Y-11786487D01*
X105488885Y-11787455D01*
X105581151Y-11790465D01*
X105651401Y-11796472D01*
X105702597Y-11806431D01*
X105737697Y-11821297D01*
X105759663Y-11842025D01*
X105771455Y-11869569D01*
X105776033Y-11904886D01*
X105776357Y-11948929D01*
X105775389Y-12002653D01*
X105775288Y-12020689D01*
X105773120Y-12113808D01*
X105766301Y-12177219D01*
X105754360Y-12214820D01*
X105751265Y-12219656D01*
X105743916Y-12227907D01*
X105732951Y-12234688D01*
X105715160Y-12240171D01*
X105687336Y-12244530D01*
X105646270Y-12247937D01*
X105588752Y-12250567D01*
X105511575Y-12252593D01*
X105411530Y-12254188D01*
X105285407Y-12255525D01*
X105129999Y-12256777D01*
X105053812Y-12257330D01*
X104856032Y-12259187D01*
X104691753Y-12261703D01*
X104560616Y-12264889D01*
X104462263Y-12268758D01*
X104396333Y-12273323D01*
X104362468Y-12278594D01*
X104358168Y-12280570D01*
X104354498Y-12288957D01*
X104351234Y-12308828D01*
X104348356Y-12341909D01*
X104345841Y-12389926D01*
X104343668Y-12454604D01*
X104341816Y-12537671D01*
X104340263Y-12640852D01*
X104338987Y-12765873D01*
X104337967Y-12914461D01*
X104337182Y-13088342D01*
X104336610Y-13289241D01*
X104336229Y-13518884D01*
X104336018Y-13779000D01*
X104335955Y-14061150D01*
X104335934Y-14353087D01*
X104335944Y-14613212D01*
X104336099Y-14843579D01*
X104336509Y-15046242D01*
X104337287Y-15223254D01*
X104338543Y-15376671D01*
X104340391Y-15508547D01*
X104342941Y-15620935D01*
X104346306Y-15715889D01*
X104350597Y-15795465D01*
X104355926Y-15861715D01*
X104362406Y-15916695D01*
X104370146Y-15962457D01*
X104379261Y-16001058D01*
X104389860Y-16034550D01*
X104402057Y-16064987D01*
X104415962Y-16094425D01*
X104431688Y-16124917D01*
X104449347Y-16158517D01*
X104450181Y-16160121D01*
X104535556Y-16288459D01*
X104647722Y-16399736D01*
X104782697Y-16491027D01*
X104936498Y-16559407D01*
X105031715Y-16587168D01*
X105095229Y-16598078D01*
X105187769Y-16607853D01*
X105304504Y-16616099D01*
X105440602Y-16622421D01*
X105478955Y-16623713D01*
X105600915Y-16628021D01*
X105693197Y-16632610D01*
X105759992Y-16637893D01*
X105805487Y-16644284D01*
X105833873Y-16652196D01*
X105847255Y-16660052D01*
X105861147Y-16677660D01*
X105870014Y-16705884D01*
X105874875Y-16751538D01*
X105876748Y-16821437D01*
X105876888Y-16858391D01*
X105877178Y-16927727D01*
X105875509Y-16981469D01*
X105868071Y-17021572D01*
X105851055Y-17049986D01*
X105820650Y-17068664D01*
X105773048Y-17079558D01*
X105704438Y-17084621D01*
X105611011Y-17085805D01*
X105488958Y-17085061D01*
X105435288Y-17084685D01*
X105322830Y-17083707D01*
X105219742Y-17082256D01*
X105131550Y-17080452D01*
X105063780Y-17078420D01*
X105021958Y-17076280D01*
X105013288Y-17075351D01*
X104781266Y-17022522D01*
X104571924Y-16945053D01*
X104385714Y-16843327D01*
X104223088Y-16717728D01*
X104084494Y-16568639D01*
X103970386Y-16396444D01*
X103881213Y-16201528D01*
X103841019Y-16077940D01*
X103835057Y-16056450D01*
X103829749Y-16035387D01*
X103825046Y-16012725D01*
X103820901Y-15986439D01*
X103817264Y-15954505D01*
X103814089Y-15914897D01*
X103811326Y-15865592D01*
X103808927Y-15804563D01*
X103806844Y-15729786D01*
X103805028Y-15639237D01*
X103803433Y-15530890D01*
X103802008Y-15402721D01*
X103800707Y-15252704D01*
X103799480Y-15078816D01*
X103798280Y-14879030D01*
X103797058Y-14651322D01*
X103795766Y-14393668D01*
X103794450Y-14123658D01*
X103793135Y-13877957D01*
X103791627Y-13641628D01*
X103789955Y-13416891D01*
X103788145Y-13205965D01*
X103786226Y-13011073D01*
X103784223Y-12834433D01*
X103782164Y-12678267D01*
X103780076Y-12544796D01*
X103777987Y-12436240D01*
X103775923Y-12354819D01*
X103773912Y-12302754D01*
X103771981Y-12282266D01*
X103771922Y-12282159D01*
X103757714Y-12274576D01*
X103724074Y-12268865D01*
X103667822Y-12264845D01*
X103585779Y-12262333D01*
X103474763Y-12261146D01*
X103402509Y-12260992D01*
X103272292Y-12260425D01*
X103171645Y-12258354D01*
X103096287Y-12254220D01*
X103041934Y-12247465D01*
X103004305Y-12237533D01*
X102979117Y-12223865D01*
X102962086Y-12205904D01*
X102960381Y-12203424D01*
X102955011Y-12179310D01*
X102950749Y-12129725D01*
X102948173Y-12063062D01*
X102947681Y-12019692D01*
X102947511Y-11948363D01*
X102949830Y-11893298D01*
X102958509Y-11852398D01*
X102977414Y-11823562D01*
X103010415Y-11804691D01*
X103061380Y-11793685D01*
X103134177Y-11788443D01*
X103232675Y-11786867D01*
X103360743Y-11786855D01*
X103376597Y-11786859D01*
X103497190Y-11786636D01*
X103588458Y-11785729D01*
X103654940Y-11783775D01*
X103701178Y-11780414D01*
X103731709Y-11775285D01*
X103751075Y-11768026D01*
X103763816Y-11758277D01*
X103766064Y-11755892D01*
X103774440Y-11743320D01*
X103780988Y-11723707D01*
X103785926Y-11693164D01*
X103789470Y-11647803D01*
X103791841Y-11583738D01*
X103793255Y-11497079D01*
X103793931Y-11383940D01*
X103794088Y-11256359D01*
X103793820Y-11107273D01*
X103794132Y-10988588D01*
X103796699Y-10896858D01*
X103803197Y-10828634D01*
X103815301Y-10780469D01*
X103834685Y-10748916D01*
X103863026Y-10730527D01*
X103901997Y-10721854D01*
X103953275Y-10719450D01*
X104018535Y-10719868D01*
G37*
G36*
X110630370Y-11788299D02*
G01*
X110698694Y-11792944D01*
X110742573Y-11801279D01*
X110763152Y-11810893D01*
X110767554Y-11814703D01*
X110771549Y-11820451D01*
X110775158Y-11829737D01*
X110778405Y-11844159D01*
X110781312Y-11865314D01*
X110783902Y-11894803D01*
X110786197Y-11934222D01*
X110788220Y-11985171D01*
X110789995Y-12049249D01*
X110791543Y-12128053D01*
X110792887Y-12223183D01*
X110794049Y-12336236D01*
X110795054Y-12468813D01*
X110795923Y-12622510D01*
X110796679Y-12798926D01*
X110797344Y-12999661D01*
X110797942Y-13226312D01*
X110798494Y-13480477D01*
X110799025Y-13763757D01*
X110799556Y-14077749D01*
X110800094Y-14414392D01*
X110800610Y-14773053D01*
X110800966Y-15099235D01*
X110801153Y-15394326D01*
X110801162Y-15659712D01*
X110800984Y-15896782D01*
X110800608Y-16106923D01*
X110800028Y-16291522D01*
X110799232Y-16451967D01*
X110798212Y-16589644D01*
X110796958Y-16705943D01*
X110795462Y-16802249D01*
X110793714Y-16879950D01*
X110791705Y-16940434D01*
X110789426Y-16985089D01*
X110786867Y-17015301D01*
X110784019Y-17032458D01*
X110782692Y-17036191D01*
X110772367Y-17053867D01*
X110758488Y-17065951D01*
X110734905Y-17073697D01*
X110695467Y-17078362D01*
X110634026Y-17081201D01*
X110551949Y-17083298D01*
X110453460Y-17085357D01*
X110382099Y-17083295D01*
X110333503Y-17072518D01*
X110303308Y-17048433D01*
X110287153Y-17006445D01*
X110280674Y-16941962D01*
X110279508Y-16850390D01*
X110279555Y-16796500D01*
X110278351Y-16691194D01*
X110274058Y-16617856D01*
X110265659Y-16574651D01*
X110252133Y-16559744D01*
X110232462Y-16571298D01*
X110205626Y-16607481D01*
X110189327Y-16634025D01*
X110106185Y-16744525D01*
X109995282Y-16846011D01*
X109862364Y-16934412D01*
X109713174Y-17005655D01*
X109619155Y-17038198D01*
X109584782Y-17048020D01*
X109551433Y-17056019D01*
X109515231Y-17062409D01*
X109472294Y-17067400D01*
X109418744Y-17071206D01*
X109350701Y-17074039D01*
X109264285Y-17076110D01*
X109155616Y-17077632D01*
X109020815Y-17078817D01*
X108857155Y-17079871D01*
X108712145Y-17080521D01*
X108576519Y-17080735D01*
X108454317Y-17080537D01*
X108349577Y-17079949D01*
X108266336Y-17078994D01*
X108208632Y-17077697D01*
X108180504Y-17076080D01*
X108179822Y-17075969D01*
X107957189Y-17020920D01*
X107756617Y-16940258D01*
X107578179Y-16834022D01*
X107421947Y-16702253D01*
X107340471Y-16612858D01*
X107275812Y-16521788D01*
X107211035Y-16407537D01*
X107151151Y-16280399D01*
X107101173Y-16150671D01*
X107076686Y-16070991D01*
X107037553Y-15927058D01*
X107032367Y-13897214D01*
X107031616Y-13590027D01*
X107031029Y-13314924D01*
X107030625Y-13070121D01*
X107030421Y-12853835D01*
X107030437Y-12664284D01*
X107030689Y-12499685D01*
X107031198Y-12358254D01*
X107031980Y-12238209D01*
X107033054Y-12137767D01*
X107034438Y-12055145D01*
X107036151Y-11988560D01*
X107038211Y-11936230D01*
X107040636Y-11896370D01*
X107043444Y-11867199D01*
X107046653Y-11846932D01*
X107050283Y-11833789D01*
X107053559Y-11827115D01*
X107066502Y-11809970D01*
X107082940Y-11798541D01*
X107109359Y-11791672D01*
X107152244Y-11788207D01*
X107218082Y-11786991D01*
X107279509Y-11786859D01*
X107377314Y-11788265D01*
X107446024Y-11792804D01*
X107490309Y-11800960D01*
X107511952Y-11810888D01*
X107516918Y-11815218D01*
X107521370Y-11821763D01*
X107525345Y-11832344D01*
X107528883Y-11848777D01*
X107532019Y-11872881D01*
X107534792Y-11906474D01*
X107537241Y-11951375D01*
X107539402Y-12009401D01*
X107541313Y-12082372D01*
X107543013Y-12172105D01*
X107544539Y-12280419D01*
X107545928Y-12409131D01*
X107547220Y-12560061D01*
X107548451Y-12735026D01*
X107549660Y-12935845D01*
X107550883Y-13164335D01*
X107552160Y-13422316D01*
X107553527Y-13711605D01*
X107554118Y-13838654D01*
X107555568Y-14143928D01*
X107556950Y-14417209D01*
X107558301Y-14660368D01*
X107559652Y-14875278D01*
X107561038Y-15063813D01*
X107562493Y-15227844D01*
X107564050Y-15369244D01*
X107565743Y-15489886D01*
X107567605Y-15591643D01*
X107569670Y-15676386D01*
X107571973Y-15745990D01*
X107574546Y-15802325D01*
X107577423Y-15847266D01*
X107580638Y-15882684D01*
X107584224Y-15910452D01*
X107588216Y-15932443D01*
X107592062Y-15948398D01*
X107646835Y-16100674D01*
X107723548Y-16239629D01*
X107818228Y-16360007D01*
X107926898Y-16456548D01*
X108017673Y-16511366D01*
X108078023Y-16539826D01*
X108133353Y-16562882D01*
X108188101Y-16581091D01*
X108246709Y-16595007D01*
X108313615Y-16605186D01*
X108393260Y-16612184D01*
X108490084Y-16616556D01*
X108608528Y-16618857D01*
X108753030Y-16619643D01*
X108882555Y-16619569D01*
X109034798Y-16619129D01*
X109157570Y-16618297D01*
X109255265Y-16616829D01*
X109332280Y-16614483D01*
X109393008Y-16611016D01*
X109441846Y-16606184D01*
X109483188Y-16599745D01*
X109521430Y-16591455D01*
X109556510Y-16582298D01*
X109735027Y-16518669D01*
X109888450Y-16432371D01*
X110017238Y-16322965D01*
X110121847Y-16190011D01*
X110202733Y-16033070D01*
X110240980Y-15924163D01*
X110245469Y-15907212D01*
X110249494Y-15886847D01*
X110253086Y-15861185D01*
X110256277Y-15828342D01*
X110259097Y-15786436D01*
X110261578Y-15733584D01*
X110263750Y-15667903D01*
X110265646Y-15587510D01*
X110267295Y-15490522D01*
X110268730Y-15375056D01*
X110269981Y-15239229D01*
X110271079Y-15081158D01*
X110272056Y-14898960D01*
X110272943Y-14690753D01*
X110273771Y-14454653D01*
X110274572Y-14188777D01*
X110275375Y-13891243D01*
X110275516Y-13836532D01*
X110276326Y-13533401D01*
X110277129Y-13262332D01*
X110277957Y-13021522D01*
X110278837Y-12809165D01*
X110279799Y-12623459D01*
X110280872Y-12462599D01*
X110282085Y-12324781D01*
X110283467Y-12208200D01*
X110285048Y-12111053D01*
X110286856Y-12031536D01*
X110288921Y-11967845D01*
X110291272Y-11918175D01*
X110293937Y-11880722D01*
X110296947Y-11853682D01*
X110300329Y-11835251D01*
X110304114Y-11823625D01*
X110308116Y-11817233D01*
X110324764Y-11803897D01*
X110350256Y-11795059D01*
X110391013Y-11789853D01*
X110453453Y-11787411D01*
X110532943Y-11786859D01*
X110630370Y-11788299D01*
G37*
G36*
X73341225Y-10398570D02*
G01*
X73416491Y-10399748D01*
X73469189Y-10402529D01*
X73504968Y-10407581D01*
X73529476Y-10415572D01*
X73548362Y-10427172D01*
X73559675Y-10436425D01*
X73566327Y-10444640D01*
X73575005Y-10460213D01*
X73586152Y-10484477D01*
X73600212Y-10518765D01*
X73617627Y-10564411D01*
X73638841Y-10622746D01*
X73664296Y-10695105D01*
X73694436Y-10782820D01*
X73729703Y-10887224D01*
X73770542Y-11009649D01*
X73817394Y-11151430D01*
X73870703Y-11313898D01*
X73930912Y-11498387D01*
X73998465Y-11706230D01*
X74073803Y-11938759D01*
X74157371Y-12197308D01*
X74249611Y-12483209D01*
X74350967Y-12797796D01*
X74461881Y-13142401D01*
X74543299Y-13395525D01*
X74643073Y-13705795D01*
X74741133Y-14010769D01*
X74836881Y-14308579D01*
X74929717Y-14597359D01*
X75019040Y-14875243D01*
X75104252Y-15140362D01*
X75184751Y-15390851D01*
X75259939Y-15624843D01*
X75329215Y-15840471D01*
X75391979Y-16035868D01*
X75447633Y-16209167D01*
X75495575Y-16358501D01*
X75535206Y-16482004D01*
X75565927Y-16577809D01*
X75587137Y-16644049D01*
X75593219Y-16663087D01*
X75634338Y-16791523D01*
X75664905Y-16891062D01*
X75683662Y-16965376D01*
X75689353Y-17018135D01*
X75680721Y-17053009D01*
X75656509Y-17073668D01*
X75615460Y-17083782D01*
X75556317Y-17087022D01*
X75477824Y-17087057D01*
X75448052Y-17086991D01*
X75355379Y-17086413D01*
X75290442Y-17084179D01*
X75247122Y-17079540D01*
X75219300Y-17071748D01*
X75200858Y-17060053D01*
X75196799Y-17056234D01*
X75184968Y-17033758D01*
X75163296Y-16980968D01*
X75132445Y-16899746D01*
X75093073Y-16791975D01*
X75045842Y-16659539D01*
X74991410Y-16504321D01*
X74930439Y-16328204D01*
X74863587Y-16133071D01*
X74791516Y-15920805D01*
X74714885Y-15693289D01*
X74634354Y-15452406D01*
X74628887Y-15435991D01*
X74589420Y-15317458D01*
X73223621Y-15313124D01*
X73011841Y-15312507D01*
X72810112Y-15312025D01*
X72620957Y-15311677D01*
X72446900Y-15311464D01*
X72290467Y-15311386D01*
X72154180Y-15311441D01*
X72040565Y-15311630D01*
X71952146Y-15311952D01*
X71891446Y-15312407D01*
X71860991Y-15312995D01*
X71857822Y-15313292D01*
X71852489Y-15331997D01*
X71837320Y-15379060D01*
X71813563Y-15450840D01*
X71782464Y-15543692D01*
X71745270Y-15653974D01*
X71703228Y-15778043D01*
X71657585Y-15912256D01*
X71609587Y-16052969D01*
X71560482Y-16196540D01*
X71511515Y-16339326D01*
X71463935Y-16477682D01*
X71418987Y-16607968D01*
X71377919Y-16726538D01*
X71341977Y-16829751D01*
X71312408Y-16913963D01*
X71290459Y-16975531D01*
X71277377Y-17010813D01*
X71274649Y-17017273D01*
X71248802Y-17054761D01*
X71222064Y-17076473D01*
X71194097Y-17080951D01*
X71142183Y-17084148D01*
X71074242Y-17086077D01*
X70998197Y-17086752D01*
X70921970Y-17086185D01*
X70853482Y-17084391D01*
X70800655Y-17081383D01*
X70771412Y-17077174D01*
X70768445Y-17075702D01*
X70759313Y-17051283D01*
X70757156Y-17027469D01*
X70762255Y-17008460D01*
X70777154Y-16959082D01*
X70801256Y-16881198D01*
X70833964Y-16776669D01*
X70874680Y-16647358D01*
X70922807Y-16495128D01*
X70977748Y-16321839D01*
X71038905Y-16129356D01*
X71105681Y-15919539D01*
X71177479Y-15694252D01*
X71253701Y-15455355D01*
X71333751Y-15204713D01*
X71417030Y-14944186D01*
X71458777Y-14813691D01*
X72014256Y-14813691D01*
X72018983Y-14817866D01*
X72037682Y-14821490D01*
X72072284Y-14824597D01*
X72124719Y-14827219D01*
X72196919Y-14829391D01*
X72290816Y-14831146D01*
X72408340Y-14832518D01*
X72551424Y-14833541D01*
X72721998Y-14834248D01*
X72921995Y-14834672D01*
X73153344Y-14834849D01*
X73229422Y-14834858D01*
X73465959Y-14834780D01*
X73670766Y-14834519D01*
X73845976Y-14834034D01*
X73993727Y-14833282D01*
X74116152Y-14832223D01*
X74215389Y-14830814D01*
X74293572Y-14829016D01*
X74352836Y-14826785D01*
X74395318Y-14824082D01*
X74423152Y-14820863D01*
X74438474Y-14817089D01*
X74443419Y-14812716D01*
X74443208Y-14811306D01*
X74437076Y-14792398D01*
X74421470Y-14743193D01*
X74397027Y-14665715D01*
X74364380Y-14561989D01*
X74324166Y-14434040D01*
X74277021Y-14283892D01*
X74223578Y-14113571D01*
X74164475Y-13925102D01*
X74100346Y-13720508D01*
X74031827Y-13501816D01*
X73959553Y-13271051D01*
X73884160Y-13030236D01*
X73837422Y-12880906D01*
X73760461Y-12635470D01*
X73686080Y-12399214D01*
X73614924Y-12174134D01*
X73547635Y-11962221D01*
X73484857Y-11765471D01*
X73427232Y-11585876D01*
X73375404Y-11425430D01*
X73330016Y-11286127D01*
X73291710Y-11169959D01*
X73261129Y-11078921D01*
X73238918Y-11015006D01*
X73225718Y-10980207D01*
X73222349Y-10974128D01*
X73215082Y-10989990D01*
X73198500Y-11036228D01*
X73173238Y-11110846D01*
X73139935Y-11211850D01*
X73099226Y-11337244D01*
X73051748Y-11485032D01*
X72998139Y-11653220D01*
X72939035Y-11839811D01*
X72875073Y-12042812D01*
X72806890Y-12260225D01*
X72735123Y-12490057D01*
X72660408Y-12730312D01*
X72612967Y-12883361D01*
X72536765Y-13129471D01*
X72463292Y-13366711D01*
X72393175Y-13593055D01*
X72327042Y-13806484D01*
X72265519Y-14004972D01*
X72209236Y-14186497D01*
X72158818Y-14349036D01*
X72114894Y-14490565D01*
X72078092Y-14609062D01*
X72049037Y-14702503D01*
X72028359Y-14768865D01*
X72016685Y-14806125D01*
X72014256Y-14813691D01*
X71458777Y-14813691D01*
X71502942Y-14675637D01*
X71590889Y-14400929D01*
X71680274Y-14121924D01*
X71770500Y-13840483D01*
X71860969Y-13558469D01*
X71951084Y-13277746D01*
X72040247Y-13000173D01*
X72127863Y-12727614D01*
X72213332Y-12461932D01*
X72296058Y-12204987D01*
X72375444Y-11958644D01*
X72450892Y-11724763D01*
X72521805Y-11505207D01*
X72587585Y-11301839D01*
X72647636Y-11116520D01*
X72701360Y-10951113D01*
X72748160Y-10807480D01*
X72787438Y-10687483D01*
X72818597Y-10592986D01*
X72841040Y-10525848D01*
X72854170Y-10487934D01*
X72857005Y-10480626D01*
X72873658Y-10452290D01*
X72897090Y-10431201D01*
X72932065Y-10416327D01*
X72983349Y-10406639D01*
X73055705Y-10401107D01*
X73153899Y-10398701D01*
X73237742Y-10398325D01*
X73341225Y-10398570D01*
G37*
G36*
X80387502Y-11787233D02*
G01*
X80457509Y-11791424D01*
X80505680Y-11804035D01*
X80536092Y-11829669D01*
X80552824Y-11872931D01*
X80559951Y-11938424D01*
X80561553Y-12030750D01*
X80561556Y-12091659D01*
X80562595Y-12177768D01*
X80565456Y-12249624D01*
X80569755Y-12301329D01*
X80575107Y-12326982D01*
X80577003Y-12328725D01*
X80593399Y-12315849D01*
X80623212Y-12281655D01*
X80660762Y-12232801D01*
X80671454Y-12218011D01*
X80784914Y-12087799D01*
X80923301Y-11978779D01*
X81083769Y-11892763D01*
X81263473Y-11831563D01*
X81287967Y-11825555D01*
X81326084Y-11817494D01*
X81367386Y-11810974D01*
X81415791Y-11805839D01*
X81475217Y-11801933D01*
X81549580Y-11799097D01*
X81642798Y-11797176D01*
X81758790Y-11796012D01*
X81901473Y-11795449D01*
X82043222Y-11795325D01*
X82206057Y-11795393D01*
X82339015Y-11795737D01*
X82446084Y-11796565D01*
X82531253Y-11798087D01*
X82598513Y-11800511D01*
X82651851Y-11804047D01*
X82695257Y-11808904D01*
X82732721Y-11815290D01*
X82768230Y-11823416D01*
X82805775Y-11833489D01*
X82813689Y-11835702D01*
X83020470Y-11908662D01*
X83202820Y-12004917D01*
X83361402Y-12125015D01*
X83496874Y-12269504D01*
X83609899Y-12438931D01*
X83660566Y-12538248D01*
X83713134Y-12665289D01*
X83751723Y-12792923D01*
X83779410Y-12932999D01*
X83795243Y-13056859D01*
X83798275Y-13102599D01*
X83801021Y-13177722D01*
X83803484Y-13279627D01*
X83805666Y-13405713D01*
X83807572Y-13553377D01*
X83809203Y-13720021D01*
X83810563Y-13903042D01*
X83811654Y-14099838D01*
X83812480Y-14307810D01*
X83813042Y-14524355D01*
X83813344Y-14746872D01*
X83813390Y-14972760D01*
X83813180Y-15199418D01*
X83812720Y-15424244D01*
X83812010Y-15644638D01*
X83811055Y-15857998D01*
X83809857Y-16061723D01*
X83808419Y-16253212D01*
X83806744Y-16429863D01*
X83804834Y-16589076D01*
X83802693Y-16728248D01*
X83800324Y-16844780D01*
X83797728Y-16936069D01*
X83794910Y-16999515D01*
X83791871Y-17032516D01*
X83790868Y-17036191D01*
X83780659Y-17053793D01*
X83766964Y-17065832D01*
X83743670Y-17073531D01*
X83704664Y-17078116D01*
X83643832Y-17080810D01*
X83558285Y-17082774D01*
X83475254Y-17083147D01*
X83403249Y-17081059D01*
X83349752Y-17076891D01*
X83322244Y-17071026D01*
X83321689Y-17070698D01*
X83317798Y-17065129D01*
X83314281Y-17052512D01*
X83311110Y-17031099D01*
X83308254Y-16999139D01*
X83305683Y-16954883D01*
X83303367Y-16896583D01*
X83301277Y-16822487D01*
X83299383Y-16730849D01*
X83297655Y-16619917D01*
X83296062Y-16487943D01*
X83294576Y-16333177D01*
X83293166Y-16153870D01*
X83291802Y-15948273D01*
X83290455Y-15714636D01*
X83289094Y-15451211D01*
X83287690Y-15156247D01*
X83287211Y-15051382D01*
X83285827Y-14748700D01*
X83284543Y-14477976D01*
X83283320Y-14237302D01*
X83282119Y-14024771D01*
X83280899Y-13838474D01*
X83279621Y-13676502D01*
X83278246Y-13536949D01*
X83276735Y-13417906D01*
X83275047Y-13317465D01*
X83273144Y-13233717D01*
X83270986Y-13164754D01*
X83268533Y-13108670D01*
X83265746Y-13063555D01*
X83262586Y-13027501D01*
X83259012Y-12998600D01*
X83254986Y-12974945D01*
X83250468Y-12954628D01*
X83245418Y-12935739D01*
X83243279Y-12928288D01*
X83178464Y-12753893D01*
X83092869Y-12606191D01*
X82986255Y-12484950D01*
X82858386Y-12389939D01*
X82709023Y-12320925D01*
X82585089Y-12286577D01*
X82523073Y-12277729D01*
X82433161Y-12270623D01*
X82321278Y-12265254D01*
X82193351Y-12261616D01*
X82055305Y-12259705D01*
X81913066Y-12259517D01*
X81772560Y-12261045D01*
X81639712Y-12264285D01*
X81520447Y-12269232D01*
X81420692Y-12275881D01*
X81346373Y-12284228D01*
X81327075Y-12287628D01*
X81149154Y-12339662D01*
X80991358Y-12418397D01*
X80855073Y-12522591D01*
X80741681Y-12651002D01*
X80652567Y-12802389D01*
X80599274Y-12940543D01*
X80594990Y-12956884D01*
X80591131Y-12977888D01*
X80587663Y-13005410D01*
X80584554Y-13041304D01*
X80581771Y-13087425D01*
X80579280Y-13145628D01*
X80577050Y-13217766D01*
X80575046Y-13305695D01*
X80573237Y-13411268D01*
X80571589Y-13536340D01*
X80570069Y-13682766D01*
X80568645Y-13852401D01*
X80567283Y-14047098D01*
X80565951Y-14268712D01*
X80564615Y-14519098D01*
X80563243Y-14800111D01*
X80562175Y-15031230D01*
X80560715Y-15340779D01*
X80559281Y-15618137D01*
X80557846Y-15864983D01*
X80556384Y-16082993D01*
X80554868Y-16273843D01*
X80553271Y-16439211D01*
X80551567Y-16580772D01*
X80549728Y-16700205D01*
X80547729Y-16799185D01*
X80545541Y-16879390D01*
X80543139Y-16942496D01*
X80540496Y-16990180D01*
X80537585Y-17024120D01*
X80534380Y-17045990D01*
X80530853Y-17057470D01*
X80529849Y-17058997D01*
X80514481Y-17071087D01*
X80488192Y-17079218D01*
X80445072Y-17084101D01*
X80379206Y-17086451D01*
X80297976Y-17086991D01*
X80210274Y-17086618D01*
X80150124Y-17084825D01*
X80111212Y-17080600D01*
X80087224Y-17072933D01*
X80071848Y-17060813D01*
X80062983Y-17049357D01*
X80059421Y-17041743D01*
X80056192Y-17028512D01*
X80053277Y-17008088D01*
X80050663Y-16978898D01*
X80048333Y-16939369D01*
X80046270Y-16887927D01*
X80044460Y-16822998D01*
X80042886Y-16743010D01*
X80041532Y-16646388D01*
X80040383Y-16531558D01*
X80039422Y-16396947D01*
X80038634Y-16240982D01*
X80038003Y-16062089D01*
X80037513Y-15858694D01*
X80037149Y-15629224D01*
X80036893Y-15372105D01*
X80036731Y-15085763D01*
X80036646Y-14768626D01*
X80036622Y-14436925D01*
X80036648Y-14089031D01*
X80036737Y-13773431D01*
X80036903Y-13488550D01*
X80037164Y-13232815D01*
X80037534Y-13004652D01*
X80038031Y-12802488D01*
X80038669Y-12624748D01*
X80039465Y-12469860D01*
X80040434Y-12336250D01*
X80041593Y-12222345D01*
X80042957Y-12126569D01*
X80044542Y-12047351D01*
X80046365Y-11983116D01*
X80048440Y-11932291D01*
X80050784Y-11893303D01*
X80053412Y-11864577D01*
X80056341Y-11844540D01*
X80059587Y-11831618D01*
X80062983Y-11824493D01*
X80076328Y-11808508D01*
X80094054Y-11797822D01*
X80122600Y-11791377D01*
X80168401Y-11788112D01*
X80237896Y-11786968D01*
X80291583Y-11786859D01*
X80387502Y-11787233D01*
G37*
G36*
X121761305Y-11795374D02*
G01*
X121909762Y-11795625D01*
X122031501Y-11796238D01*
X122130096Y-11797371D01*
X122209121Y-11799182D01*
X122272149Y-11801831D01*
X122322756Y-11805477D01*
X122364514Y-11810277D01*
X122400999Y-11816390D01*
X122435785Y-11823976D01*
X122472445Y-11833192D01*
X122480022Y-11835168D01*
X122673155Y-11899735D01*
X122851643Y-11987456D01*
X123010623Y-12095309D01*
X123145232Y-12220270D01*
X123195434Y-12279828D01*
X123283716Y-12404463D01*
X123353887Y-12530432D01*
X123411390Y-12668870D01*
X123457535Y-12815920D01*
X123464066Y-12840070D01*
X123469780Y-12864121D01*
X123474743Y-12890432D01*
X123479022Y-12921363D01*
X123482682Y-12959275D01*
X123485788Y-13006526D01*
X123488407Y-13065477D01*
X123490604Y-13138487D01*
X123492446Y-13227916D01*
X123493998Y-13336125D01*
X123495325Y-13465472D01*
X123496495Y-13618318D01*
X123497572Y-13797022D01*
X123498623Y-14003945D01*
X123499714Y-14241446D01*
X123500168Y-14343791D01*
X123501291Y-14610664D01*
X123502083Y-14846068D01*
X123502437Y-15052400D01*
X123502247Y-15232056D01*
X123501404Y-15387433D01*
X123499801Y-15520928D01*
X123497331Y-15634938D01*
X123493888Y-15731860D01*
X123489362Y-15814091D01*
X123483649Y-15884026D01*
X123476639Y-15944064D01*
X123468225Y-15996600D01*
X123458301Y-16044032D01*
X123446760Y-16088757D01*
X123433493Y-16133171D01*
X123418394Y-16179671D01*
X123417933Y-16181058D01*
X123336222Y-16378974D01*
X123230318Y-16553370D01*
X123099953Y-16704500D01*
X122944859Y-16832621D01*
X122764770Y-16937986D01*
X122559419Y-17020851D01*
X122527377Y-17031061D01*
X122378422Y-17077040D01*
X121641822Y-17080030D01*
X121485256Y-17080497D01*
X121337721Y-17080615D01*
X121202978Y-17080404D01*
X121084787Y-17079884D01*
X120986908Y-17079077D01*
X120913102Y-17078001D01*
X120867129Y-17076678D01*
X120854422Y-17075767D01*
X120717737Y-17047923D01*
X120574471Y-17004228D01*
X120435452Y-16948858D01*
X120311512Y-16885989D01*
X120236355Y-16837448D01*
X120087961Y-16711289D01*
X119963290Y-16566650D01*
X119860801Y-16400972D01*
X119778953Y-16211700D01*
X119716205Y-15996274D01*
X119708209Y-15960925D01*
X119703928Y-15923960D01*
X119700064Y-15856292D01*
X119696617Y-15761079D01*
X119693589Y-15641481D01*
X119690979Y-15500659D01*
X119688787Y-15341772D01*
X119687015Y-15167980D01*
X119685662Y-14982443D01*
X119684729Y-14788321D01*
X119684217Y-14588773D01*
X119684125Y-14386960D01*
X119684454Y-14186041D01*
X119685113Y-14013109D01*
X120204496Y-14013109D01*
X120205020Y-14241375D01*
X120206113Y-14500494D01*
X120206518Y-14580858D01*
X120207767Y-14824668D01*
X120208939Y-15037164D01*
X120210220Y-15220895D01*
X120211794Y-15378412D01*
X120213849Y-15512266D01*
X120216569Y-15625008D01*
X120220141Y-15719187D01*
X120224749Y-15797355D01*
X120230580Y-15862062D01*
X120237819Y-15915859D01*
X120246651Y-15961297D01*
X120257264Y-16000925D01*
X120269841Y-16037295D01*
X120284569Y-16072958D01*
X120301634Y-16110463D01*
X120320852Y-16151569D01*
X120372679Y-16240753D01*
X120443050Y-16331767D01*
X120522667Y-16414117D01*
X120602233Y-16477313D01*
X120618471Y-16487407D01*
X120753170Y-16550008D01*
X120908842Y-16593895D01*
X121032222Y-16612735D01*
X121108114Y-16618126D01*
X121207349Y-16621799D01*
X121324579Y-16623854D01*
X121454460Y-16624394D01*
X121591644Y-16623519D01*
X121730785Y-16621330D01*
X121866538Y-16617930D01*
X121993555Y-16613418D01*
X122106491Y-16607897D01*
X122200000Y-16601467D01*
X122268735Y-16594230D01*
X122299237Y-16588740D01*
X122440948Y-16543417D01*
X122561002Y-16481847D01*
X122669991Y-16398136D01*
X122709858Y-16360144D01*
X122800499Y-16256733D01*
X122868677Y-16147185D01*
X122920589Y-16020571D01*
X122941021Y-15952458D01*
X122946423Y-15930712D01*
X122951141Y-15906100D01*
X122955220Y-15876310D01*
X122958707Y-15839032D01*
X122961648Y-15791955D01*
X122964088Y-15732769D01*
X122966073Y-15659163D01*
X122967649Y-15568826D01*
X122968861Y-15459448D01*
X122969757Y-15328719D01*
X122970381Y-15174327D01*
X122970779Y-14993962D01*
X122970997Y-14785314D01*
X122971082Y-14546071D01*
X122971088Y-14436925D01*
X122971045Y-14184171D01*
X122970885Y-13962979D01*
X122970563Y-13771042D01*
X122970033Y-13606055D01*
X122969251Y-13465713D01*
X122968169Y-13347709D01*
X122966744Y-13249739D01*
X122964930Y-13169496D01*
X122962680Y-13104674D01*
X122959951Y-13052970D01*
X122956696Y-13012076D01*
X122952869Y-12979688D01*
X122948426Y-12953499D01*
X122943321Y-12931205D01*
X122941260Y-12923498D01*
X122881339Y-12760897D01*
X122797794Y-12617291D01*
X122693222Y-12495959D01*
X122570214Y-12400185D01*
X122495472Y-12359512D01*
X122440250Y-12334929D01*
X122386820Y-12314791D01*
X122331117Y-12298659D01*
X122269078Y-12286099D01*
X122196641Y-12276672D01*
X122109741Y-12269944D01*
X122004316Y-12265477D01*
X121876302Y-12262834D01*
X121721636Y-12261580D01*
X121581030Y-12261286D01*
X121422162Y-12261371D01*
X121292984Y-12261934D01*
X121189323Y-12263166D01*
X121107002Y-12265259D01*
X121041848Y-12268407D01*
X120989685Y-12272799D01*
X120946338Y-12278630D01*
X120907634Y-12286091D01*
X120875687Y-12293751D01*
X120709966Y-12349776D01*
X120569885Y-12427275D01*
X120453682Y-12527825D01*
X120359591Y-12653003D01*
X120285849Y-12804385D01*
X120276491Y-12829292D01*
X120262916Y-12869720D01*
X120251029Y-12912938D01*
X120240738Y-12961286D01*
X120231949Y-13017102D01*
X120224568Y-13082725D01*
X120218503Y-13160492D01*
X120213659Y-13252744D01*
X120209943Y-13361818D01*
X120207263Y-13490052D01*
X120205524Y-13639787D01*
X120204632Y-13813359D01*
X120204496Y-14013109D01*
X119685113Y-14013109D01*
X119685204Y-13989176D01*
X119686376Y-13799525D01*
X119687971Y-13620248D01*
X119689987Y-13454505D01*
X119692427Y-13305457D01*
X119695290Y-13176261D01*
X119698577Y-13070078D01*
X119702288Y-12990068D01*
X119706423Y-12939392D01*
X119707841Y-12929859D01*
X119763590Y-12708397D01*
X119844984Y-12508446D01*
X119951349Y-12330757D01*
X120082010Y-12176079D01*
X120236293Y-12045163D01*
X120413523Y-11938760D01*
X120613024Y-11857618D01*
X120693555Y-11833826D01*
X120729157Y-11824589D01*
X120762872Y-11816961D01*
X120798246Y-11810787D01*
X120838826Y-11805914D01*
X120888157Y-11802188D01*
X120949785Y-11799456D01*
X121027256Y-11797564D01*
X121124116Y-11796358D01*
X121243911Y-11795686D01*
X121390188Y-11795393D01*
X121566491Y-11795326D01*
X121582555Y-11795325D01*
X121761305Y-11795374D01*
G37*
G36*
X115871911Y-9773249D02*
G01*
X115935159Y-9778112D01*
X115976835Y-9787116D01*
X115999254Y-9798152D01*
X116036888Y-9824512D01*
X116036888Y-13429143D01*
X116036872Y-13843041D01*
X116036815Y-14224398D01*
X116036709Y-14574537D01*
X116036543Y-14894783D01*
X116036309Y-15186460D01*
X116035996Y-15450892D01*
X116035594Y-15689404D01*
X116035094Y-15903321D01*
X116034487Y-16093967D01*
X116033762Y-16262666D01*
X116032909Y-16410743D01*
X116031920Y-16539522D01*
X116030784Y-16650327D01*
X116029492Y-16744484D01*
X116028034Y-16823316D01*
X116026400Y-16888148D01*
X116024580Y-16940305D01*
X116022565Y-16981110D01*
X116020346Y-17011889D01*
X116017912Y-17033965D01*
X116015253Y-17048663D01*
X116012361Y-17057309D01*
X116010279Y-17060382D01*
X115980241Y-17073385D01*
X115925482Y-17082605D01*
X115854328Y-17088061D01*
X115775108Y-17089770D01*
X115696148Y-17087753D01*
X115625776Y-17082026D01*
X115572319Y-17072609D01*
X115544105Y-17059520D01*
X115543955Y-17059343D01*
X115532990Y-17032400D01*
X115524586Y-16979518D01*
X115518440Y-16897985D01*
X115514560Y-16796876D01*
X115511270Y-16712110D01*
X115506674Y-16640956D01*
X115501308Y-16589501D01*
X115495706Y-16563833D01*
X115493913Y-16562058D01*
X115477093Y-16574890D01*
X115449301Y-16607799D01*
X115429153Y-16635547D01*
X115314924Y-16771932D01*
X115175527Y-16886115D01*
X115011954Y-16977397D01*
X114860236Y-17034747D01*
X114824407Y-17045556D01*
X114791259Y-17054354D01*
X114756891Y-17061372D01*
X114717406Y-17066842D01*
X114668907Y-17070993D01*
X114607494Y-17074059D01*
X114529270Y-17076271D01*
X114430336Y-17077859D01*
X114306795Y-17079054D01*
X114154748Y-17080090D01*
X114089555Y-17080484D01*
X113942056Y-17080935D01*
X113801788Y-17080551D01*
X113673191Y-17079404D01*
X113560700Y-17077567D01*
X113468753Y-17075112D01*
X113401787Y-17072111D01*
X113364239Y-17068637D01*
X113364197Y-17068629D01*
X113175646Y-17021096D01*
X112992947Y-16946534D01*
X112824500Y-16848989D01*
X112691870Y-16744752D01*
X112560240Y-16605741D01*
X112453580Y-16451078D01*
X112370756Y-16278147D01*
X112310633Y-16084329D01*
X112272078Y-15867006D01*
X112260574Y-15749258D01*
X112257197Y-15684950D01*
X112254227Y-15590707D01*
X112251662Y-15470339D01*
X112249502Y-15327656D01*
X112247749Y-15166471D01*
X112246400Y-14990592D01*
X112245456Y-14803832D01*
X112244916Y-14610000D01*
X112244797Y-14436925D01*
X112785688Y-14436925D01*
X112785720Y-14685764D01*
X112785852Y-14903117D01*
X112786133Y-15091362D01*
X112786618Y-15252880D01*
X112787356Y-15390050D01*
X112788401Y-15505253D01*
X112789804Y-15600867D01*
X112791617Y-15679273D01*
X112793891Y-15742851D01*
X112796679Y-15793979D01*
X112800032Y-15835039D01*
X112804001Y-15868409D01*
X112808640Y-15896469D01*
X112813999Y-15921600D01*
X112818401Y-15939480D01*
X112875752Y-16107916D01*
X112955340Y-16254399D01*
X113055576Y-16376765D01*
X113174869Y-16472852D01*
X113236360Y-16507962D01*
X113302282Y-16539083D01*
X113367493Y-16564448D01*
X113436169Y-16584545D01*
X113512485Y-16599858D01*
X113600617Y-16610872D01*
X113704741Y-16618075D01*
X113829032Y-16621951D01*
X113977666Y-16622985D01*
X114154819Y-16621664D01*
X114208088Y-16620967D01*
X114365102Y-16618226D01*
X114492218Y-16614700D01*
X114593402Y-16610159D01*
X114672619Y-16604373D01*
X114733833Y-16597110D01*
X114781010Y-16588141D01*
X114783565Y-16587523D01*
X114945782Y-16533999D01*
X115093749Y-16457945D01*
X115220049Y-16363379D01*
X115249642Y-16335021D01*
X115342056Y-16228372D01*
X115410142Y-16117141D01*
X115460354Y-15989778D01*
X115478458Y-15925611D01*
X115484552Y-15900593D01*
X115489859Y-15874806D01*
X115494432Y-15845846D01*
X115498327Y-15811307D01*
X115501595Y-15768786D01*
X115504291Y-15715877D01*
X115506470Y-15650177D01*
X115508184Y-15569280D01*
X115509487Y-15470783D01*
X115510433Y-15352280D01*
X115511076Y-15211368D01*
X115511470Y-15045641D01*
X115511668Y-14852695D01*
X115511724Y-14630126D01*
X115511705Y-14438449D01*
X115511652Y-14182018D01*
X115511493Y-13957056D01*
X115511078Y-13761167D01*
X115510255Y-13591952D01*
X115508874Y-13447016D01*
X115506782Y-13323962D01*
X115503831Y-13220390D01*
X115499867Y-13133905D01*
X115494741Y-13062109D01*
X115488301Y-13002606D01*
X115480397Y-12952998D01*
X115470877Y-12910888D01*
X115459590Y-12873878D01*
X115446386Y-12839572D01*
X115431112Y-12805573D01*
X115413620Y-12769484D01*
X115405539Y-12753054D01*
X115325398Y-12626793D01*
X115217869Y-12514258D01*
X115087834Y-12418895D01*
X114940177Y-12344153D01*
X114779779Y-12293478D01*
X114744232Y-12286084D01*
X114679685Y-12277629D01*
X114587968Y-12270798D01*
X114474888Y-12265591D01*
X114346251Y-12262004D01*
X114207864Y-12260035D01*
X114065534Y-12259682D01*
X113925067Y-12260943D01*
X113792270Y-12263816D01*
X113672949Y-12268298D01*
X113572911Y-12274388D01*
X113497963Y-12282082D01*
X113471488Y-12286577D01*
X113306773Y-12337025D01*
X113162707Y-12414116D01*
X113040113Y-12517039D01*
X112939810Y-12644981D01*
X112862619Y-12797133D01*
X112819139Y-12931485D01*
X112813092Y-12956323D01*
X112807819Y-12981969D01*
X112803269Y-13010808D01*
X112799388Y-13045226D01*
X112796122Y-13087607D01*
X112793420Y-13140336D01*
X112791227Y-13205798D01*
X112789492Y-13286379D01*
X112788161Y-13384462D01*
X112787180Y-13502433D01*
X112786498Y-13642677D01*
X112786060Y-13807580D01*
X112785815Y-13999526D01*
X112785709Y-14220899D01*
X112785688Y-14436925D01*
X112244797Y-14436925D01*
X112244781Y-14412908D01*
X112245050Y-14216366D01*
X112245722Y-14024186D01*
X112246798Y-13840176D01*
X112248277Y-13668150D01*
X112250158Y-13511916D01*
X112252443Y-13375287D01*
X112255129Y-13262072D01*
X112258217Y-13176083D01*
X112260769Y-13132117D01*
X112280848Y-12946978D01*
X112311975Y-12785800D01*
X112356271Y-12639877D01*
X112412922Y-12506525D01*
X112515547Y-12332192D01*
X112643972Y-12179238D01*
X112796945Y-12048667D01*
X112973216Y-11941483D01*
X113171533Y-11858689D01*
X113251355Y-11834127D01*
X113287297Y-11824437D01*
X113321608Y-11816553D01*
X113358136Y-11810288D01*
X113400734Y-11805457D01*
X113453250Y-11801874D01*
X113519536Y-11799354D01*
X113603441Y-11797711D01*
X113708817Y-11796760D01*
X113839514Y-11796316D01*
X113999381Y-11796192D01*
X114038755Y-11796189D01*
X114205656Y-11796271D01*
X114342530Y-11796640D01*
X114453216Y-11797476D01*
X114541554Y-11798965D01*
X114611382Y-11801288D01*
X114666541Y-11804629D01*
X114710870Y-11809170D01*
X114748208Y-11815094D01*
X114782395Y-11822584D01*
X114817269Y-11831823D01*
X114823479Y-11833563D01*
X114905771Y-11859900D01*
X114992986Y-11892764D01*
X115064969Y-11924449D01*
X115151605Y-11975859D01*
X115242067Y-12044234D01*
X115327090Y-12121354D01*
X115397411Y-12199004D01*
X115434892Y-12252581D01*
X115462908Y-12295633D01*
X115486222Y-12323237D01*
X115495311Y-12328725D01*
X115498340Y-12312069D01*
X115501235Y-12263203D01*
X115503969Y-12183787D01*
X115506514Y-12075479D01*
X115508844Y-11939936D01*
X115510930Y-11778817D01*
X115512746Y-11593779D01*
X115514265Y-11386481D01*
X115515459Y-11158581D01*
X115515764Y-11082624D01*
X115520422Y-9836522D01*
X115560398Y-9804157D01*
X115583804Y-9789263D01*
X115614698Y-9779670D01*
X115660437Y-9774299D01*
X115728377Y-9772070D01*
X115780996Y-9771792D01*
X115871911Y-9773249D01*
G37*
G36*
X99951121Y-10406831D02*
G01*
X100116079Y-10407027D01*
X100253555Y-10407498D01*
X100366742Y-10408363D01*
X100458831Y-10409741D01*
X100533016Y-10411751D01*
X100592489Y-10414510D01*
X100640442Y-10418137D01*
X100680067Y-10422752D01*
X100714557Y-10428472D01*
X100747104Y-10435416D01*
X100780901Y-10443703D01*
X100786339Y-10445085D01*
X100997493Y-10514839D01*
X101187553Y-10610587D01*
X101355390Y-10731208D01*
X101499875Y-10875579D01*
X101619881Y-11042579D01*
X101714278Y-11231086D01*
X101780216Y-11433062D01*
X101794725Y-11499303D01*
X101805770Y-11571588D01*
X101814018Y-11656836D01*
X101820134Y-11761964D01*
X101824784Y-11893890D01*
X101824869Y-11896925D01*
X101828377Y-12021476D01*
X101829213Y-12116224D01*
X101824587Y-12185237D01*
X101811712Y-12232577D01*
X101787798Y-12262311D01*
X101750056Y-12278503D01*
X101695697Y-12285219D01*
X101621933Y-12286523D01*
X101557661Y-12286392D01*
X101468952Y-12285657D01*
X101407701Y-12282900D01*
X101367518Y-12277295D01*
X101342015Y-12268015D01*
X101327025Y-12256537D01*
X101316188Y-12241529D01*
X101307774Y-12217799D01*
X101301217Y-12180550D01*
X101295947Y-12124985D01*
X101291396Y-12046305D01*
X101286995Y-11939713D01*
X101285897Y-11909404D01*
X101279975Y-11773284D01*
X101272117Y-11664302D01*
X101260960Y-11575731D01*
X101245147Y-11500848D01*
X101223315Y-11432926D01*
X101194105Y-11365242D01*
X101163675Y-11305167D01*
X101076652Y-11176458D01*
X100963335Y-11068184D01*
X100825303Y-10981541D01*
X100664129Y-10917720D01*
X100644488Y-10911984D01*
X100615816Y-10904607D01*
X100584611Y-10898488D01*
X100547565Y-10893511D01*
X100501369Y-10889561D01*
X100442715Y-10886521D01*
X100368295Y-10884277D01*
X100274799Y-10882714D01*
X100158920Y-10881714D01*
X100017350Y-10881163D01*
X99846779Y-10880946D01*
X99755488Y-10880925D01*
X99570118Y-10881026D01*
X99415306Y-10881406D01*
X99287744Y-10882180D01*
X99184122Y-10883464D01*
X99101133Y-10885373D01*
X99035468Y-10888023D01*
X98983819Y-10891530D01*
X98942877Y-10896010D01*
X98909334Y-10901577D01*
X98879882Y-10908347D01*
X98866488Y-10911984D01*
X98703597Y-10973569D01*
X98563830Y-11059883D01*
X98447155Y-11170960D01*
X98353537Y-11306836D01*
X98282943Y-11467544D01*
X98264857Y-11525458D01*
X98255592Y-11564917D01*
X98248066Y-11614267D01*
X98241999Y-11677780D01*
X98237112Y-11759728D01*
X98233127Y-11864384D01*
X98229765Y-11996021D01*
X98227896Y-12091659D01*
X98225528Y-12230290D01*
X98224132Y-12339727D01*
X98223942Y-12424634D01*
X98225188Y-12489676D01*
X98228103Y-12539517D01*
X98232919Y-12578821D01*
X98239869Y-12612254D01*
X98249184Y-12644478D01*
X98256525Y-12666712D01*
X98311446Y-12792513D01*
X98387865Y-12904609D01*
X98488867Y-13006099D01*
X98617536Y-13100079D01*
X98776956Y-13189648D01*
X98777340Y-13189841D01*
X98856431Y-13227200D01*
X98940685Y-13261788D01*
X99034251Y-13294805D01*
X99141278Y-13327448D01*
X99265913Y-13360916D01*
X99412306Y-13396405D01*
X99584604Y-13435115D01*
X99747022Y-13469867D01*
X99916825Y-13506351D01*
X100083671Y-13543612D01*
X100242733Y-13580481D01*
X100389188Y-13615787D01*
X100518209Y-13648361D01*
X100624971Y-13677032D01*
X100704649Y-13700631D01*
X100721039Y-13706031D01*
X100960548Y-13801958D01*
X101174813Y-13918690D01*
X101366476Y-14057816D01*
X101484347Y-14165132D01*
X101611730Y-14309896D01*
X101709246Y-14462990D01*
X101780849Y-14631008D01*
X101799287Y-14690228D01*
X101809972Y-14728949D01*
X101818498Y-14765287D01*
X101825101Y-14803534D01*
X101830016Y-14847986D01*
X101833481Y-14902938D01*
X101835731Y-14972685D01*
X101837001Y-15061521D01*
X101837527Y-15173740D01*
X101837546Y-15313639D01*
X101837454Y-15385191D01*
X101837097Y-15539528D01*
X101836376Y-15664312D01*
X101835056Y-15763858D01*
X101832902Y-15842479D01*
X101829677Y-15904490D01*
X101825146Y-15954204D01*
X101819074Y-15995935D01*
X101811224Y-16033997D01*
X101801361Y-16072704D01*
X101799522Y-16079458D01*
X101726192Y-16287575D01*
X101626437Y-16475130D01*
X101501538Y-16640824D01*
X101352772Y-16783355D01*
X101181419Y-16901425D01*
X100988759Y-16993733D01*
X100855763Y-17038434D01*
X100825330Y-17046890D01*
X100796078Y-17054028D01*
X100764919Y-17059977D01*
X100728769Y-17064863D01*
X100684541Y-17068813D01*
X100629152Y-17071955D01*
X100559514Y-17074415D01*
X100472543Y-17076320D01*
X100365152Y-17077797D01*
X100234258Y-17078974D01*
X100076773Y-17079977D01*
X99889612Y-17080933D01*
X99814755Y-17081289D01*
X99613715Y-17082154D01*
X99443413Y-17082649D01*
X99300723Y-17082693D01*
X99182517Y-17082207D01*
X99085669Y-17081110D01*
X99007050Y-17079324D01*
X98943535Y-17076768D01*
X98891995Y-17073363D01*
X98849305Y-17069028D01*
X98812337Y-17063684D01*
X98777964Y-17057251D01*
X98764888Y-17054495D01*
X98551782Y-16993264D01*
X98360525Y-16906400D01*
X98191488Y-16794188D01*
X98045040Y-16656916D01*
X97921552Y-16494870D01*
X97832848Y-16333458D01*
X97780259Y-16206942D01*
X97740131Y-16076548D01*
X97711353Y-15935962D01*
X97692816Y-15778865D01*
X97683410Y-15598943D01*
X97681678Y-15472978D01*
X97682609Y-15359994D01*
X97686494Y-15275894D01*
X97694164Y-15215763D01*
X97706451Y-15174684D01*
X97724187Y-15147741D01*
X97738723Y-15135684D01*
X97762231Y-15130752D01*
X97812110Y-15126698D01*
X97880870Y-15123961D01*
X97955112Y-15122984D01*
X98051149Y-15124194D01*
X98118878Y-15129391D01*
X98163792Y-15140484D01*
X98191387Y-15159380D01*
X98207156Y-15187990D01*
X98213690Y-15212809D01*
X98216555Y-15241067D01*
X98219847Y-15297055D01*
X98223290Y-15374644D01*
X98226612Y-15467705D01*
X98229357Y-15562991D01*
X98234230Y-15703647D01*
X98241738Y-15817237D01*
X98253219Y-15910538D01*
X98270008Y-15990328D01*
X98293442Y-16063383D01*
X98324859Y-16136478D01*
X98353917Y-16194358D01*
X98435787Y-16318883D01*
X98540150Y-16421282D01*
X98669010Y-16503030D01*
X98824376Y-16565604D01*
X98880812Y-16582032D01*
X98919347Y-16591557D01*
X98959371Y-16599331D01*
X99005034Y-16605605D01*
X99060484Y-16610631D01*
X99129867Y-16614660D01*
X99217334Y-16617944D01*
X99327031Y-16620734D01*
X99463107Y-16623283D01*
X99594622Y-16625330D01*
X99828785Y-16627666D01*
X100031771Y-16627192D01*
X100206166Y-16623763D01*
X100354555Y-16617231D01*
X100479522Y-16607451D01*
X100583653Y-16594277D01*
X100669533Y-16577561D01*
X100727893Y-16561194D01*
X100881280Y-16494138D01*
X101012822Y-16401559D01*
X101121472Y-16284664D01*
X101206183Y-16144660D01*
X101265907Y-15982753D01*
X101279771Y-15925575D01*
X101291552Y-15851061D01*
X101301500Y-15750628D01*
X101309373Y-15632187D01*
X101314927Y-15503649D01*
X101317920Y-15372924D01*
X101318109Y-15247924D01*
X101315252Y-15136560D01*
X101309106Y-15046741D01*
X101307236Y-15030234D01*
X101271236Y-14861996D01*
X101207049Y-14711580D01*
X101113970Y-14577949D01*
X100991294Y-14460068D01*
X100855810Y-14367065D01*
X100775566Y-14320369D01*
X100701206Y-14279238D01*
X100629301Y-14242569D01*
X100556419Y-14209259D01*
X100479128Y-14178203D01*
X100393999Y-14148297D01*
X100297599Y-14118439D01*
X100186498Y-14087524D01*
X100057264Y-14054449D01*
X99906466Y-14018109D01*
X99730674Y-13977403D01*
X99526456Y-13931224D01*
X99442222Y-13912356D01*
X99252778Y-13869510D01*
X99092452Y-13831949D01*
X98957142Y-13798367D01*
X98842747Y-13767457D01*
X98745165Y-13737915D01*
X98660295Y-13708434D01*
X98584036Y-13677708D01*
X98512286Y-13644431D01*
X98440943Y-13607297D01*
X98383888Y-13575358D01*
X98194159Y-13452294D01*
X98035537Y-13317751D01*
X97906771Y-13170237D01*
X97806610Y-13008263D01*
X97733800Y-12830339D01*
X97720488Y-12785925D01*
X97710108Y-12729628D01*
X97701594Y-12645135D01*
X97694955Y-12538067D01*
X97690201Y-12414046D01*
X97687342Y-12278691D01*
X97686387Y-12137624D01*
X97687346Y-11996465D01*
X97690229Y-11860834D01*
X97695046Y-11736352D01*
X97701806Y-11628640D01*
X97710520Y-11543319D01*
X97718248Y-11497825D01*
X97782080Y-11278900D01*
X97870512Y-11083205D01*
X97983357Y-10910937D01*
X98120429Y-10762288D01*
X98281543Y-10637455D01*
X98466513Y-10536632D01*
X98675152Y-10460013D01*
X98722555Y-10446859D01*
X98756963Y-10437977D01*
X98789035Y-10430516D01*
X98821958Y-10424351D01*
X98858923Y-10419359D01*
X98903116Y-10415415D01*
X98957728Y-10412397D01*
X99025948Y-10410181D01*
X99110963Y-10408642D01*
X99215962Y-10407658D01*
X99344135Y-10407104D01*
X99498670Y-10406858D01*
X99682756Y-10406794D01*
X99755488Y-10406792D01*
X99951121Y-10406831D01*
G37*
%TD*%
M02*
