%TF.GenerationSoftware,KiCad,Pcbnew,10.0.1*%
%TF.CreationDate,2026-06-18T06:39:21+08:00*%
%TF.ProjectId,RhythmGameControllerKiCad,52687974-686d-4476-916d-65436f6e7472,rev?*%
%TF.SameCoordinates,Original*%
%TF.FileFunction,Paste,Bot*%
%TF.FilePolarity,Positive*%
%FSLAX46Y46*%
G04 Gerber Fmt 4.6, Leading zero omitted, Abs format (unit mm)*
G04 Created by KiCad (PCBNEW 10.0.1) date 2026-06-18 06:39:21*
%MOMM*%
%LPD*%
G01*
G04 APERTURE LIST*
G04 Aperture macros list*
%AMRoundRect*
0 Rectangle with rounded corners*
0 $1 Rounding radius*
0 $2 $3 $4 $5 $6 $7 $8 $9 X,Y pos of 4 corners*
0 Add a 4 corners polygon primitive as box body*
4,1,4,$2,$3,$4,$5,$6,$7,$8,$9,$2,$3,0*
0 Add four circle primitives for the rounded corners*
1,1,$1+$1,$2,$3*
1,1,$1+$1,$4,$5*
1,1,$1+$1,$6,$7*
1,1,$1+$1,$8,$9*
0 Add four rect primitives between the rounded corners*
20,1,$1+$1,$2,$3,$4,$5,0*
20,1,$1+$1,$4,$5,$6,$7,0*
20,1,$1+$1,$6,$7,$8,$9,0*
20,1,$1+$1,$8,$9,$2,$3,0*%
G04 Aperture macros list end*
%ADD10RoundRect,0.250000X1.025000X1.000000X-1.025000X1.000000X-1.025000X-1.000000X1.025000X-1.000000X0*%
%ADD11RoundRect,0.250000X-0.300000X0.300000X-0.300000X-0.300000X0.300000X-0.300000X0.300000X0.300000X0*%
G04 APERTURE END LIST*
D10*
%TO.C,REFMX*%
X73438600Y-90957400D03*
X60511600Y-93497400D03*
%TD*%
D11*
%TO.C,diode<*%
X60484600Y-101504400D03*
X60484600Y-98704400D03*
%TD*%
D10*
%TO.C,REFMX*%
X116313800Y-90957400D03*
X103386800Y-93497400D03*
%TD*%
D11*
%TO.C,diode<*%
X44152400Y-60833000D03*
X44152400Y-63633000D03*
%TD*%
%TO.C,diode<*%
X25009900Y-41696950D03*
X25009900Y-44496950D03*
%TD*%
D10*
%TO.C,REFMX*%
X100999200Y-55372000D03*
X113926200Y-52832000D03*
%TD*%
D11*
%TO.C,diode<*%
X63202400Y-60833000D03*
X63202400Y-63633000D03*
%TD*%
D10*
%TO.C,REFMX*%
X120083700Y-55372000D03*
X133010700Y-52832000D03*
%TD*%
D11*
%TO.C,diode<*%
X120472200Y-60830000D03*
X120472200Y-63630000D03*
%TD*%
D10*
%TO.C,REFMX*%
X62848400Y-55372000D03*
X75775400Y-52832000D03*
%TD*%
D11*
%TO.C,diode<*%
X139573000Y-41783000D03*
X139573000Y-44583000D03*
%TD*%
D10*
%TO.C,REFMX*%
X5698400Y-36271200D03*
X18625400Y-33731200D03*
%TD*%
D11*
%TO.C,diode<*%
X6052400Y-60833000D03*
X6052400Y-63633000D03*
%TD*%
%TO.C,diode<*%
X25102400Y-60833000D03*
X25102400Y-63633000D03*
%TD*%
%TO.C,diode<*%
X139522200Y-60830000D03*
X139522200Y-63630000D03*
%TD*%
%TO.C,diode<*%
X101422200Y-60830000D03*
X101422200Y-63630000D03*
%TD*%
D10*
%TO.C,REFMX*%
X8222100Y-93472000D03*
X21149100Y-90932000D03*
%TD*%
D11*
%TO.C,diode<*%
X96476400Y-79883000D03*
X96476400Y-82683000D03*
%TD*%
D10*
%TO.C,REFMX*%
X158218200Y-55372000D03*
X171145200Y-52832000D03*
%TD*%
D11*
%TO.C,diode<*%
X5959900Y-41696950D03*
X5959900Y-44496950D03*
%TD*%
D10*
%TO.C,REFMX*%
X24748400Y-55372000D03*
X37675400Y-52832000D03*
%TD*%
D11*
%TO.C,diode<*%
X8465400Y-98679000D03*
X8465400Y-101479000D03*
%TD*%
D10*
%TO.C,REFMX*%
X139150000Y-36322000D03*
X152077000Y-33782000D03*
%TD*%
%TO.C,REFMX*%
X67674400Y-74422000D03*
X80601400Y-71882000D03*
%TD*%
%TO.C,REFMX*%
X96249400Y-74422000D03*
X109176400Y-71882000D03*
%TD*%
D11*
%TO.C,diode<*%
X67774400Y-79883000D03*
X67774400Y-82683000D03*
%TD*%
%TO.C,diode<*%
X158572200Y-60830000D03*
X158572200Y-63630000D03*
%TD*%
%TO.C,diode<*%
X158623000Y-41783000D03*
X158623000Y-44583000D03*
%TD*%
D10*
%TO.C,REFMX*%
X158234500Y-36322000D03*
X171161500Y-33782000D03*
%TD*%
%TO.C,REFMX*%
X5698400Y-55372000D03*
X18625400Y-52832000D03*
%TD*%
D11*
%TO.C,diode<*%
X103486800Y-98704400D03*
X103486800Y-101504400D03*
%TD*%
D10*
%TO.C,REFMX*%
X139133700Y-55372000D03*
X152060700Y-52832000D03*
%TD*%
%TO.C,REFMX*%
X43832900Y-55372000D03*
X56759900Y-52832000D03*
%TD*%
%TO.C,REFMX*%
X24713900Y-36271200D03*
X37640900Y-33731200D03*
%TD*%
M02*
