%TF.GenerationSoftware,KiCad,Pcbnew,10.0.1*%
%TF.CreationDate,2026-06-18T06:39:21+08:00*%
%TF.ProjectId,RhythmGameControllerKiCad,52687974-686d-4476-916d-65436f6e7472,rev?*%
%TF.SameCoordinates,Original*%
%TF.FileFunction,Legend,Bot*%
%TF.FilePolarity,Positive*%
%FSLAX46Y46*%
G04 Gerber Fmt 4.6, Leading zero omitted, Abs format (unit mm)*
G04 Created by KiCad (PCBNEW 10.0.1) date 2026-06-18 06:39:21*
%MOMM*%
%LPD*%
G01*
G04 APERTURE LIST*
%ADD10C,0.100000*%
%ADD11C,0.150000*%
%ADD12C,0.200000*%
%ADD13C,0.120000*%
%ADD14C,0.000000*%
G04 APERTURE END LIST*
D10*
G36*
X140674034Y-15704641D02*
G01*
X140674034Y-15302129D01*
X140643259Y-15209805D01*
X140550936Y-15179030D01*
X140226581Y-15179030D01*
X140134257Y-15209805D01*
X140103483Y-15302129D01*
X140103483Y-15671424D01*
X140054143Y-16097677D01*
X139922421Y-16398779D01*
X139717254Y-16608234D01*
X139426010Y-16741126D01*
X139017579Y-16790545D01*
X137853518Y-16790545D01*
X137446168Y-16740878D01*
X137155218Y-16607150D01*
X136949808Y-16395938D01*
X136817662Y-16091650D01*
X136768102Y-15660189D01*
X136768102Y-15190266D01*
X136813765Y-14882635D01*
X136945780Y-14629840D01*
X137171103Y-14417970D01*
X137605492Y-14181690D01*
X138145144Y-14014969D01*
X139292108Y-13757537D01*
X139662878Y-13640681D01*
X139987134Y-13476535D01*
X140271033Y-13265143D01*
X140492579Y-13002635D01*
X140626853Y-12687077D01*
X140674034Y-12302338D01*
X140674034Y-11686846D01*
X140622805Y-11211782D01*
X140479467Y-10830923D01*
X140249051Y-10523273D01*
X139941303Y-10292038D01*
X139563688Y-10148803D01*
X139096225Y-10097802D01*
X137797830Y-10097802D01*
X137330050Y-10148825D01*
X136952465Y-10292079D01*
X136645004Y-10523273D01*
X136414303Y-10830961D01*
X136270812Y-11211820D01*
X136219533Y-11686846D01*
X136219533Y-12000454D01*
X136250308Y-12092778D01*
X136342631Y-12123552D01*
X136667474Y-12123552D01*
X136759798Y-12092778D01*
X136790573Y-12000454D01*
X136790573Y-11720552D01*
X136839901Y-11294259D01*
X136971585Y-10993150D01*
X137176673Y-10783710D01*
X137467779Y-10650839D01*
X137875988Y-10601431D01*
X139028814Y-10601431D01*
X139430438Y-10651116D01*
X139718201Y-10785221D01*
X139922208Y-10997867D01*
X140053957Y-11305492D01*
X140103483Y-11743022D01*
X140103483Y-12302338D01*
X140058776Y-12564295D01*
X139924420Y-12793833D01*
X139683649Y-13001653D01*
X139300922Y-13187993D01*
X138726442Y-13343301D01*
X137579477Y-13600733D01*
X137209681Y-13725960D01*
X136885187Y-13901100D01*
X136600063Y-14126832D01*
X136379986Y-14403749D01*
X136244909Y-14741077D01*
X136197063Y-15156560D01*
X136197063Y-15704641D01*
X136248342Y-16180008D01*
X136391837Y-16561195D01*
X136622534Y-16869191D01*
X136930246Y-17100140D01*
X137307860Y-17243223D01*
X137775360Y-17294174D01*
X139096225Y-17294174D01*
X139563725Y-17243223D01*
X139941340Y-17100140D01*
X140249051Y-16869191D01*
X140479463Y-16561232D01*
X140622805Y-16180046D01*
X140674034Y-15704641D01*
G37*
G36*
X134203553Y-12089847D02*
G01*
X134885967Y-12089847D01*
X134979250Y-12060996D01*
X135009065Y-11977984D01*
X135009065Y-11709317D01*
X134978291Y-11616993D01*
X134885967Y-11586218D01*
X134203553Y-11586218D01*
X134127675Y-11561021D01*
X134102436Y-11485590D01*
X134102436Y-10578961D01*
X134070773Y-10477255D01*
X133979338Y-10444627D01*
X133654983Y-10444627D01*
X133563548Y-10477255D01*
X133531885Y-10578961D01*
X133531885Y-11485590D01*
X133506728Y-11561061D01*
X133431257Y-11586218D01*
X132099156Y-11586218D01*
X132006832Y-11616993D01*
X131976058Y-11709317D01*
X131976058Y-11977984D01*
X132005873Y-12060996D01*
X132099156Y-12089847D01*
X133431257Y-12089847D01*
X133506728Y-12115004D01*
X133531885Y-12190475D01*
X133531885Y-15715876D01*
X133496317Y-16047087D01*
X133397765Y-16306543D01*
X133240747Y-16510642D01*
X133030459Y-16661092D01*
X132763624Y-16756164D01*
X132423999Y-16790545D01*
X131987293Y-16790545D01*
X131894969Y-16821319D01*
X131864195Y-16913643D01*
X131864195Y-17171075D01*
X131894969Y-17263399D01*
X131987293Y-17294174D01*
X132468451Y-17294174D01*
X132944846Y-17244622D01*
X133334101Y-17105155D01*
X133654983Y-16880426D01*
X133898689Y-16577837D01*
X134048946Y-16204163D01*
X134102436Y-15738347D01*
X134102436Y-12190475D01*
X134127675Y-12115044D01*
X134203553Y-12089847D01*
G37*
G36*
X128337816Y-17294174D02*
G01*
X129076407Y-17294174D01*
X129536402Y-17243224D01*
X129906631Y-17100221D01*
X130207251Y-16869191D01*
X130431114Y-16562091D01*
X130570926Y-16180913D01*
X130620998Y-15704641D01*
X130620998Y-11720552D01*
X130591328Y-11617815D01*
X130509135Y-11586218D01*
X130184781Y-11586218D01*
X130093345Y-11618846D01*
X130061682Y-11720552D01*
X130061682Y-15682659D01*
X130028479Y-16023517D01*
X129936966Y-16290478D01*
X129793015Y-16499896D01*
X129595770Y-16656199D01*
X129340493Y-16754759D01*
X129009484Y-16790545D01*
X128282129Y-16790545D01*
X127934692Y-16755723D01*
X127658159Y-16658960D01*
X127437049Y-16505269D01*
X127270597Y-16296069D01*
X127166691Y-16031164D01*
X127129303Y-15693894D01*
X127129303Y-11720552D01*
X127097640Y-11618846D01*
X127006204Y-11586218D01*
X126681361Y-11586218D01*
X126599168Y-11617815D01*
X126569498Y-11720552D01*
X126569498Y-17159840D01*
X126599168Y-17262577D01*
X126681361Y-17294174D01*
X127006204Y-17294174D01*
X127097640Y-17261546D01*
X127129303Y-17159840D01*
X127129303Y-16712387D01*
X127173755Y-16712387D01*
X127346847Y-16957965D01*
X127586476Y-17136426D01*
X127908242Y-17251628D01*
X128337816Y-17294174D01*
G37*
G36*
X121458600Y-9457731D02*
G01*
X121488270Y-9560468D01*
X121488270Y-12168005D01*
X121533211Y-12168005D01*
X121716305Y-11921273D01*
X121962264Y-11742637D01*
X122285282Y-11628163D01*
X122708507Y-11586218D01*
X123458333Y-11586218D01*
X123917961Y-11637205D01*
X124288041Y-11780350D01*
X124588689Y-12011689D01*
X124812839Y-12318517D01*
X124952801Y-12699368D01*
X125002924Y-13175262D01*
X125002924Y-15704641D01*
X124952801Y-16180875D01*
X124812836Y-16562054D01*
X124588689Y-16869191D01*
X124288079Y-17100244D01*
X123917999Y-17243236D01*
X123458333Y-17294174D01*
X122708507Y-17294174D01*
X122285282Y-17252229D01*
X121962264Y-17137755D01*
X121716305Y-16959119D01*
X121533211Y-16712387D01*
X121488270Y-16712387D01*
X121488270Y-17159840D01*
X121458600Y-17262577D01*
X121376407Y-17294174D01*
X121052052Y-17294174D01*
X120960617Y-17261546D01*
X120928954Y-17159840D01*
X120928954Y-13186497D01*
X121488270Y-13186497D01*
X121488270Y-15693894D01*
X121525708Y-16031125D01*
X121629766Y-16296031D01*
X121796504Y-16505269D01*
X122017605Y-16658981D01*
X122293990Y-16755734D01*
X122641096Y-16790545D01*
X123390922Y-16790545D01*
X123721930Y-16754759D01*
X123977207Y-16656199D01*
X124174453Y-16499896D01*
X124318404Y-16290478D01*
X124409917Y-16023517D01*
X124443120Y-15682659D01*
X124443120Y-13197732D01*
X124409905Y-12856881D01*
X124318385Y-12590103D01*
X124174453Y-12380984D01*
X123977168Y-12224396D01*
X123721889Y-12125683D01*
X123390922Y-12089847D01*
X122641096Y-12089847D01*
X122293990Y-12124658D01*
X122017605Y-12221411D01*
X121796504Y-12375123D01*
X121629807Y-12584075D01*
X121525731Y-12848949D01*
X121488270Y-13186497D01*
X120928954Y-13186497D01*
X120928954Y-9560468D01*
X120960617Y-9458762D01*
X121052052Y-9426134D01*
X121376407Y-9426134D01*
X121458600Y-9457731D01*
G37*
G36*
X119191899Y-10645883D02*
G01*
X119191899Y-9571703D01*
X119163048Y-9478420D01*
X119080035Y-9448605D01*
X118744446Y-9448605D01*
X118661030Y-9478464D01*
X118632094Y-9571703D01*
X118632094Y-10645883D01*
X118661853Y-10748573D01*
X118744446Y-10780217D01*
X119080035Y-10780217D01*
X119162228Y-10748620D01*
X119191899Y-10645883D01*
G37*
G36*
X119191899Y-17159840D02*
G01*
X119191899Y-11720552D01*
X119162228Y-11617815D01*
X119080035Y-11586218D01*
X118755192Y-11586218D01*
X118663757Y-11618846D01*
X118632094Y-11720552D01*
X118632094Y-17159840D01*
X118661853Y-17262530D01*
X118744446Y-17294174D01*
X119080035Y-17294174D01*
X119162228Y-17262577D01*
X119191899Y-17159840D01*
G37*
G36*
X115915482Y-11637342D02*
G01*
X116291131Y-11780655D01*
X116595597Y-12011689D01*
X116822878Y-12318928D01*
X116964529Y-12699783D01*
X117015206Y-13175262D01*
X117015206Y-15704641D01*
X116964529Y-16180460D01*
X116822874Y-16561643D01*
X116595597Y-16869191D01*
X116291168Y-17099939D01*
X115915519Y-17243100D01*
X115448144Y-17294174D01*
X114485827Y-17294174D01*
X114018010Y-17243200D01*
X113640425Y-17100099D01*
X113333001Y-16869191D01*
X113102305Y-16561195D01*
X112958809Y-16180008D01*
X112907530Y-15704641D01*
X112907530Y-13186497D01*
X113467335Y-13186497D01*
X113467335Y-15693894D01*
X113501224Y-16033906D01*
X113594518Y-16298728D01*
X113741375Y-16505269D01*
X113941448Y-16658648D01*
X114198710Y-16755444D01*
X114530280Y-16790545D01*
X115403204Y-16790545D01*
X115734665Y-16755315D01*
X115989921Y-16658441D01*
X116186735Y-16505269D01*
X116330497Y-16299153D01*
X116422083Y-16034344D01*
X116455402Y-15693894D01*
X116455402Y-13186497D01*
X116422061Y-12845721D01*
X116330457Y-12580949D01*
X116186735Y-12375123D01*
X115989921Y-12221951D01*
X115734665Y-12125077D01*
X115403204Y-12089847D01*
X114530280Y-12089847D01*
X114198710Y-12124948D01*
X113941448Y-12221744D01*
X113741375Y-12375123D01*
X113594558Y-12581375D01*
X113501246Y-12846161D01*
X113467335Y-13186497D01*
X112907530Y-13186497D01*
X112907530Y-13175262D01*
X112958809Y-12700236D01*
X113102301Y-12319377D01*
X113333001Y-12011689D01*
X113640462Y-11780495D01*
X114018047Y-11637241D01*
X114485827Y-11586218D01*
X115448144Y-11586218D01*
X115915482Y-11637342D01*
G37*
G36*
X108226499Y-10129399D02*
G01*
X108256169Y-10232136D01*
X108256169Y-17159840D01*
X108226499Y-17262577D01*
X108144306Y-17294174D01*
X107819952Y-17294174D01*
X107728516Y-17261546D01*
X107696853Y-17159840D01*
X107696853Y-14439952D01*
X107669851Y-14365362D01*
X107584990Y-14339324D01*
X105816672Y-14339324D01*
X104495807Y-17159840D01*
X104417353Y-17260625D01*
X104294550Y-17294174D01*
X103947237Y-17294174D01*
X103855424Y-17261043D01*
X103869079Y-17159840D01*
X105201180Y-14339324D01*
X105201180Y-14294871D01*
X104854967Y-14185052D01*
X104569131Y-14014046D01*
X104333629Y-13780007D01*
X104160638Y-13495869D01*
X104052834Y-13157187D01*
X104014648Y-12750280D01*
X104014648Y-11709317D01*
X104573964Y-11709317D01*
X104573964Y-12761515D01*
X104608494Y-13101372D01*
X104703665Y-13366173D01*
X104853867Y-13572889D01*
X105057504Y-13726494D01*
X105316945Y-13823204D01*
X105648633Y-13858165D01*
X107584990Y-13858165D01*
X107669851Y-13832127D01*
X107696853Y-13757537D01*
X107696853Y-10702059D01*
X107669851Y-10627470D01*
X107584990Y-10601431D01*
X105648633Y-10601431D01*
X105317422Y-10636999D01*
X105057966Y-10735551D01*
X104853867Y-10892568D01*
X104703457Y-11102568D01*
X104608368Y-11369368D01*
X104573964Y-11709317D01*
X104014648Y-11709317D01*
X104014648Y-11686846D01*
X104065927Y-11211820D01*
X104209419Y-10830961D01*
X104440119Y-10523273D01*
X104747569Y-10292057D01*
X105125006Y-10148814D01*
X105592457Y-10097802D01*
X108144306Y-10097802D01*
X108226499Y-10129399D01*
G37*
G36*
X101952750Y-17294174D02*
G01*
X102277105Y-17294174D01*
X102359698Y-17262530D01*
X102389456Y-17159840D01*
X102389456Y-9560468D01*
X102359698Y-9457778D01*
X102277105Y-9426134D01*
X101952750Y-9426134D01*
X101861315Y-9458762D01*
X101829652Y-9560468D01*
X101829652Y-12168005D01*
X101784711Y-12168005D01*
X101601885Y-11920683D01*
X101357591Y-11742095D01*
X101038170Y-11627956D01*
X100621138Y-11586218D01*
X99882059Y-11586218D01*
X99422431Y-11637205D01*
X99052351Y-11780350D01*
X98751703Y-12011689D01*
X98527552Y-12318517D01*
X98387590Y-12699368D01*
X98337467Y-13175262D01*
X98337467Y-17159840D01*
X98367226Y-17262530D01*
X98449819Y-17294174D01*
X98774174Y-17294174D01*
X98865609Y-17261546D01*
X98897272Y-17159840D01*
X98897272Y-13197732D01*
X98930486Y-12856881D01*
X99022007Y-12590103D01*
X99165939Y-12380984D01*
X99363224Y-12224396D01*
X99618503Y-12125683D01*
X99949470Y-12089847D01*
X100676825Y-12089847D01*
X101024263Y-12124668D01*
X101300796Y-12221432D01*
X101521906Y-12375123D01*
X101688316Y-12584037D01*
X101792240Y-12848909D01*
X101829652Y-13186497D01*
X101829652Y-17159840D01*
X101861315Y-17261546D01*
X101952750Y-17294174D01*
G37*
G36*
X96446539Y-18995569D02*
G01*
X96860287Y-18995569D01*
X96952610Y-18964795D01*
X96983385Y-18872471D01*
X96983385Y-18603804D01*
X96952610Y-18511480D01*
X96860287Y-18480705D01*
X96558403Y-18480705D01*
X96237223Y-18455123D01*
X95987363Y-18385451D01*
X95772027Y-18254372D01*
X95573615Y-18032764D01*
X95338165Y-17629763D01*
X95080733Y-16991801D01*
X95293713Y-16991801D01*
X95393070Y-16959395D01*
X95450517Y-16857467D01*
X97230070Y-11720552D01*
X97229384Y-11619151D01*
X97140189Y-11586218D01*
X96793364Y-11586218D01*
X96703394Y-11617682D01*
X96647795Y-11720552D01*
X95002576Y-16521878D01*
X94957635Y-16521878D01*
X93312415Y-11720552D01*
X93257115Y-11617731D01*
X93166846Y-11586218D01*
X92831257Y-11586218D01*
X92739213Y-11619430D01*
X92730629Y-11720552D01*
X94817928Y-17786567D01*
X95125674Y-18335137D01*
X95365027Y-18621558D01*
X95656911Y-18824533D01*
X96011688Y-18950699D01*
X96446539Y-18995569D01*
G37*
G36*
X91334048Y-12089847D02*
G01*
X92016463Y-12089847D01*
X92109745Y-12060996D01*
X92139561Y-11977984D01*
X92139561Y-11709317D01*
X92108786Y-11616993D01*
X92016463Y-11586218D01*
X91334048Y-11586218D01*
X91258170Y-11561021D01*
X91232931Y-11485590D01*
X91232931Y-10578961D01*
X91201268Y-10477255D01*
X91109833Y-10444627D01*
X90785479Y-10444627D01*
X90694043Y-10477255D01*
X90662380Y-10578961D01*
X90662380Y-11485590D01*
X90637223Y-11561061D01*
X90561752Y-11586218D01*
X89229652Y-11586218D01*
X89137328Y-11616993D01*
X89106553Y-11709317D01*
X89106553Y-11977984D01*
X89136369Y-12060996D01*
X89229652Y-12089847D01*
X90561752Y-12089847D01*
X90637223Y-12115004D01*
X90662380Y-12190475D01*
X90662380Y-15715876D01*
X90626813Y-16047087D01*
X90528260Y-16306543D01*
X90371243Y-16510642D01*
X90160954Y-16661092D01*
X89894119Y-16756164D01*
X89554495Y-16790545D01*
X89117788Y-16790545D01*
X89025465Y-16821319D01*
X88994690Y-16913643D01*
X88994690Y-17171075D01*
X89025465Y-17263399D01*
X89117788Y-17294174D01*
X89598947Y-17294174D01*
X90075342Y-17244622D01*
X90464597Y-17105155D01*
X90785479Y-16880426D01*
X91029184Y-16577837D01*
X91179441Y-16204163D01*
X91232931Y-15738347D01*
X91232931Y-12190475D01*
X91258170Y-12115044D01*
X91334048Y-12089847D01*
G37*
G36*
X87259100Y-17294174D02*
G01*
X87583455Y-17294174D01*
X87666048Y-17262530D01*
X87695807Y-17159840D01*
X87695807Y-9560468D01*
X87666048Y-9457778D01*
X87583455Y-9426134D01*
X87259100Y-9426134D01*
X87167665Y-9458762D01*
X87136002Y-9560468D01*
X87136002Y-12168005D01*
X87091061Y-12168005D01*
X86908236Y-11920683D01*
X86663942Y-11742095D01*
X86344521Y-11627956D01*
X85927488Y-11586218D01*
X85188409Y-11586218D01*
X84728781Y-11637205D01*
X84358701Y-11780350D01*
X84058054Y-12011689D01*
X83833903Y-12318517D01*
X83693941Y-12699368D01*
X83643818Y-13175262D01*
X83643818Y-17159840D01*
X83673576Y-17262530D01*
X83756169Y-17294174D01*
X84080524Y-17294174D01*
X84171959Y-17261546D01*
X84203622Y-17159840D01*
X84203622Y-13197732D01*
X84236837Y-12856881D01*
X84328357Y-12590103D01*
X84472289Y-12380984D01*
X84669574Y-12224396D01*
X84924853Y-12125683D01*
X85255821Y-12089847D01*
X85983176Y-12089847D01*
X86330613Y-12124668D01*
X86607146Y-12221432D01*
X86828256Y-12375123D01*
X86994667Y-12584037D01*
X87098590Y-12848909D01*
X87136002Y-13186497D01*
X87136002Y-17159840D01*
X87167665Y-17261546D01*
X87259100Y-17294174D01*
G37*
G36*
X81584851Y-17294174D02*
G01*
X81909205Y-17294174D01*
X81991798Y-17262530D01*
X82021557Y-17159840D01*
X82021557Y-11720552D01*
X81991798Y-11617862D01*
X81909205Y-11586218D01*
X81584851Y-11586218D01*
X81493415Y-11618846D01*
X81461752Y-11720552D01*
X81461752Y-12168005D01*
X81416811Y-12168005D01*
X81228876Y-11920997D01*
X80979182Y-11742266D01*
X80653924Y-11627979D01*
X80230768Y-11586218D01*
X79771592Y-11586218D01*
X79297734Y-11639831D01*
X78926135Y-11788919D01*
X78633064Y-12028329D01*
X78406274Y-12369749D01*
X78268784Y-12131118D01*
X78080809Y-11936714D01*
X77835723Y-11782101D01*
X77424482Y-11634571D01*
X77007251Y-11586218D01*
X76593015Y-11586218D01*
X76125826Y-11637488D01*
X75752505Y-11780892D01*
X75451913Y-12011689D01*
X75227762Y-12318517D01*
X75087800Y-12699368D01*
X75037677Y-13175262D01*
X75037677Y-17159840D01*
X75069340Y-17261546D01*
X75160775Y-17294174D01*
X75485130Y-17294174D01*
X75576565Y-17261546D01*
X75608228Y-17159840D01*
X75608228Y-13197732D01*
X75641812Y-12849285D01*
X75733637Y-12581159D01*
X75876895Y-12375123D01*
X76073709Y-12221951D01*
X76328965Y-12125077D01*
X76660426Y-12089847D01*
X77074174Y-12089847D01*
X77419996Y-12126868D01*
X77698698Y-12230634D01*
X77925116Y-12397593D01*
X78095517Y-12620597D01*
X78200800Y-12893729D01*
X78238235Y-13231438D01*
X78238235Y-17159840D01*
X78269898Y-17261546D01*
X78361333Y-17294174D01*
X78686176Y-17294174D01*
X78777612Y-17261546D01*
X78809275Y-17159840D01*
X78809275Y-13197732D01*
X78842859Y-12849285D01*
X78934684Y-12581159D01*
X79077942Y-12375123D01*
X79274755Y-12221951D01*
X79530012Y-12125077D01*
X79861473Y-12089847D01*
X80308926Y-12089847D01*
X80656363Y-12124668D01*
X80932896Y-12221432D01*
X81154006Y-12375123D01*
X81320417Y-12584037D01*
X81424340Y-12848909D01*
X81461752Y-13186497D01*
X81461752Y-17159840D01*
X81493415Y-17261546D01*
X81584851Y-17294174D01*
G37*
G36*
X73378818Y-9457778D02*
G01*
X73408577Y-9560468D01*
X73408577Y-17159840D01*
X73378818Y-17262530D01*
X73296225Y-17294174D01*
X70901180Y-17294174D01*
X70433816Y-17243089D01*
X70058346Y-17099921D01*
X69754215Y-16869191D01*
X69526939Y-16561643D01*
X69385284Y-16180460D01*
X69334606Y-15704641D01*
X69334606Y-13097104D01*
X69893922Y-13097104D01*
X69893922Y-15682659D01*
X69928111Y-16030291D01*
X70021786Y-16298473D01*
X70168451Y-16505269D01*
X70368524Y-16658648D01*
X70625786Y-16755444D01*
X70957356Y-16790545D01*
X72736909Y-16790545D01*
X72821770Y-16764506D01*
X72848772Y-16689917D01*
X72848772Y-13097104D01*
X72811361Y-12759516D01*
X72707437Y-12494644D01*
X72541026Y-12285730D01*
X72319916Y-12132039D01*
X72043384Y-12035275D01*
X71695946Y-12000454D01*
X70957356Y-12000454D01*
X70625786Y-12035555D01*
X70368524Y-12132351D01*
X70168451Y-12285730D01*
X70021352Y-12492021D01*
X69927886Y-12756808D01*
X69893922Y-13097104D01*
X69334606Y-13097104D01*
X69334606Y-13074634D01*
X69385019Y-12606737D01*
X69526425Y-12229302D01*
X69754215Y-11922296D01*
X70058383Y-11691280D01*
X70433854Y-11547960D01*
X70901180Y-11496825D01*
X71640259Y-11496825D01*
X72057291Y-11538564D01*
X72376712Y-11652703D01*
X72621006Y-11831291D01*
X72803832Y-12078612D01*
X72848772Y-12078612D01*
X72848772Y-9560468D01*
X72880436Y-9458762D01*
X72971871Y-9426134D01*
X73296225Y-9426134D01*
X73378818Y-9457778D01*
G37*
G36*
X66777729Y-11637342D02*
G01*
X67153378Y-11780655D01*
X67457844Y-12011689D01*
X67685125Y-12318928D01*
X67826776Y-12699783D01*
X67877453Y-13175262D01*
X67877453Y-15704641D01*
X67826776Y-16180460D01*
X67685121Y-16561643D01*
X67457844Y-16869191D01*
X67153415Y-17099939D01*
X66777766Y-17243100D01*
X66310391Y-17294174D01*
X65348075Y-17294174D01*
X64880257Y-17243200D01*
X64502672Y-17100099D01*
X64195248Y-16869191D01*
X63964552Y-16561195D01*
X63821056Y-16180008D01*
X63769777Y-15704641D01*
X63769777Y-13186497D01*
X64329582Y-13186497D01*
X64329582Y-15693894D01*
X64363471Y-16033906D01*
X64456765Y-16298728D01*
X64603622Y-16505269D01*
X64803695Y-16658648D01*
X65060957Y-16755444D01*
X65392527Y-16790545D01*
X66265451Y-16790545D01*
X66596912Y-16755315D01*
X66852168Y-16658441D01*
X67048982Y-16505269D01*
X67192744Y-16299153D01*
X67284330Y-16034344D01*
X67317649Y-15693894D01*
X67317649Y-13186497D01*
X67284308Y-12845721D01*
X67192705Y-12580949D01*
X67048982Y-12375123D01*
X66852168Y-12221951D01*
X66596912Y-12125077D01*
X66265451Y-12089847D01*
X65392527Y-12089847D01*
X65060957Y-12124948D01*
X64803695Y-12221744D01*
X64603622Y-12375123D01*
X64456805Y-12581375D01*
X64363493Y-12846161D01*
X64329582Y-13186497D01*
X63769777Y-13186497D01*
X63769777Y-13175262D01*
X63821056Y-12700236D01*
X63964548Y-12319377D01*
X64195248Y-12011689D01*
X64502709Y-11780495D01*
X64880294Y-11637241D01*
X65348075Y-11586218D01*
X66310391Y-11586218D01*
X66777729Y-11637342D01*
G37*
G36*
X61228531Y-11637342D02*
G01*
X61604181Y-11780655D01*
X61908647Y-12011689D01*
X62135927Y-12318928D01*
X62277579Y-12699783D01*
X62328256Y-13175262D01*
X62328256Y-15704641D01*
X62277579Y-16180460D01*
X62135923Y-16561643D01*
X61908647Y-16869191D01*
X61604218Y-17099939D01*
X61228569Y-17243100D01*
X60761194Y-17294174D01*
X60045074Y-17294174D01*
X59615499Y-17251628D01*
X59293733Y-17136426D01*
X59054105Y-16957965D01*
X58881012Y-16712387D01*
X58836072Y-16712387D01*
X58836072Y-17159840D01*
X58804409Y-17261546D01*
X58712973Y-17294174D01*
X58388619Y-17294174D01*
X58306426Y-17262577D01*
X58276756Y-17159840D01*
X58276756Y-12190475D01*
X58836072Y-12190475D01*
X58836072Y-15693894D01*
X58873460Y-16031164D01*
X58977366Y-16296069D01*
X59143818Y-16505269D01*
X59364928Y-16658960D01*
X59641461Y-16755723D01*
X59988898Y-16790545D01*
X60716253Y-16790545D01*
X61047262Y-16754759D01*
X61302539Y-16656199D01*
X61499784Y-16499896D01*
X61643735Y-16290478D01*
X61735248Y-16023517D01*
X61768451Y-15682659D01*
X61768451Y-13197732D01*
X61735237Y-12856881D01*
X61643716Y-12590103D01*
X61499784Y-12380984D01*
X61302500Y-12224396D01*
X61047221Y-12125683D01*
X60716253Y-12089847D01*
X58947935Y-12089847D01*
X58863074Y-12115885D01*
X58836072Y-12190475D01*
X58276756Y-12190475D01*
X58276756Y-11720552D01*
X58306426Y-11617815D01*
X58388619Y-11586218D01*
X60761194Y-11586218D01*
X61228531Y-11637342D01*
G37*
G36*
X56160147Y-17294174D02*
G01*
X56484502Y-17294174D01*
X56567095Y-17262530D01*
X56596853Y-17159840D01*
X56596853Y-11720552D01*
X56567095Y-11617862D01*
X56484502Y-11586218D01*
X56160147Y-11586218D01*
X56068712Y-11618846D01*
X56037049Y-11720552D01*
X56037049Y-12190475D01*
X55992108Y-12190475D01*
X55830320Y-11976669D01*
X55555890Y-11770866D01*
X55217344Y-11635137D01*
X54783594Y-11586218D01*
X54346888Y-11586218D01*
X54254564Y-11616993D01*
X54223790Y-11709317D01*
X54223790Y-11977984D01*
X54254521Y-12067459D01*
X54346888Y-12089847D01*
X54872987Y-12089847D01*
X55224040Y-12130149D01*
X55504042Y-12243096D01*
X55729303Y-12425925D01*
X55895626Y-12666492D01*
X55999769Y-12963371D01*
X56037049Y-13332066D01*
X56037049Y-17159840D01*
X56068712Y-17261546D01*
X56160147Y-17294174D01*
G37*
G36*
X49662926Y-9457731D02*
G01*
X49692597Y-9560468D01*
X49692597Y-12168005D01*
X49737537Y-12168005D01*
X49920632Y-11921273D01*
X50166590Y-11742637D01*
X50489608Y-11628163D01*
X50912834Y-11586218D01*
X51662659Y-11586218D01*
X52122288Y-11637205D01*
X52492368Y-11780350D01*
X52793015Y-12011689D01*
X53017166Y-12318517D01*
X53157128Y-12699368D01*
X53207251Y-13175262D01*
X53207251Y-15704641D01*
X53157128Y-16180875D01*
X53017163Y-16562054D01*
X52793015Y-16869191D01*
X52492405Y-17100244D01*
X52122325Y-17243236D01*
X51662659Y-17294174D01*
X50912834Y-17294174D01*
X50489608Y-17252229D01*
X50166590Y-17137755D01*
X49920632Y-16959119D01*
X49737537Y-16712387D01*
X49692597Y-16712387D01*
X49692597Y-17159840D01*
X49662926Y-17262577D01*
X49580733Y-17294174D01*
X49256379Y-17294174D01*
X49164944Y-17261546D01*
X49133280Y-17159840D01*
X49133280Y-13186497D01*
X49692597Y-13186497D01*
X49692597Y-15693894D01*
X49730035Y-16031125D01*
X49834093Y-16296031D01*
X50000831Y-16505269D01*
X50221932Y-16658981D01*
X50498317Y-16755734D01*
X50845423Y-16790545D01*
X51595248Y-16790545D01*
X51926257Y-16754759D01*
X52181534Y-16656199D01*
X52378779Y-16499896D01*
X52522730Y-16290478D01*
X52614243Y-16023517D01*
X52647446Y-15682659D01*
X52647446Y-13197732D01*
X52614232Y-12856881D01*
X52522711Y-12590103D01*
X52378779Y-12380984D01*
X52181495Y-12224396D01*
X51926216Y-12125683D01*
X51595248Y-12089847D01*
X50845423Y-12089847D01*
X50498317Y-12124658D01*
X50221932Y-12221411D01*
X50000831Y-12375123D01*
X49834134Y-12584075D01*
X49730058Y-12848949D01*
X49692597Y-13186497D01*
X49133280Y-13186497D01*
X49133280Y-9560468D01*
X49164944Y-9458762D01*
X49256379Y-9426134D01*
X49580733Y-9426134D01*
X49662926Y-9457731D01*
G37*
G36*
X44902994Y-11451885D02*
G01*
X44902994Y-11205688D01*
X44870341Y-11075804D01*
X44768661Y-10970726D01*
X43358403Y-10175960D01*
X43242211Y-10116840D01*
X43123441Y-10097802D01*
X42832303Y-10097802D01*
X42740868Y-10130430D01*
X42709205Y-10232136D01*
X42709205Y-17159840D01*
X42740868Y-17261546D01*
X42832303Y-17294174D01*
X43157146Y-17294174D01*
X43239339Y-17262577D01*
X43269010Y-17159840D01*
X43269010Y-10702059D01*
X44712973Y-11518807D01*
X44827620Y-11567037D01*
X44881195Y-11544685D01*
X44902994Y-11451885D01*
G37*
D11*
X34980190Y-24457819D02*
X34980190Y-23457819D01*
X34980190Y-23457819D02*
X34646857Y-24172104D01*
X34646857Y-24172104D02*
X34313524Y-23457819D01*
X34313524Y-23457819D02*
X34313524Y-24457819D01*
X33932571Y-23457819D02*
X33313524Y-23457819D01*
X33313524Y-23457819D02*
X33646857Y-23838771D01*
X33646857Y-23838771D02*
X33504000Y-23838771D01*
X33504000Y-23838771D02*
X33408762Y-23886390D01*
X33408762Y-23886390D02*
X33361143Y-23934009D01*
X33361143Y-23934009D02*
X33313524Y-24029247D01*
X33313524Y-24029247D02*
X33313524Y-24267342D01*
X33313524Y-24267342D02*
X33361143Y-24362580D01*
X33361143Y-24362580D02*
X33408762Y-24410200D01*
X33408762Y-24410200D02*
X33504000Y-24457819D01*
X33504000Y-24457819D02*
X33789714Y-24457819D01*
X33789714Y-24457819D02*
X33884952Y-24410200D01*
X33884952Y-24410200D02*
X33932571Y-24362580D01*
X33123048Y-24553057D02*
X32361143Y-24553057D01*
X31551619Y-24362580D02*
X31599238Y-24410200D01*
X31599238Y-24410200D02*
X31742095Y-24457819D01*
X31742095Y-24457819D02*
X31837333Y-24457819D01*
X31837333Y-24457819D02*
X31980190Y-24410200D01*
X31980190Y-24410200D02*
X32075428Y-24314961D01*
X32075428Y-24314961D02*
X32123047Y-24219723D01*
X32123047Y-24219723D02*
X32170666Y-24029247D01*
X32170666Y-24029247D02*
X32170666Y-23886390D01*
X32170666Y-23886390D02*
X32123047Y-23695914D01*
X32123047Y-23695914D02*
X32075428Y-23600676D01*
X32075428Y-23600676D02*
X31980190Y-23505438D01*
X31980190Y-23505438D02*
X31837333Y-23457819D01*
X31837333Y-23457819D02*
X31742095Y-23457819D01*
X31742095Y-23457819D02*
X31599238Y-23505438D01*
X31599238Y-23505438D02*
X31551619Y-23553057D01*
X30694476Y-24457819D02*
X30694476Y-23934009D01*
X30694476Y-23934009D02*
X30742095Y-23838771D01*
X30742095Y-23838771D02*
X30837333Y-23791152D01*
X30837333Y-23791152D02*
X31027809Y-23791152D01*
X31027809Y-23791152D02*
X31123047Y-23838771D01*
X30694476Y-24410200D02*
X30789714Y-24457819D01*
X30789714Y-24457819D02*
X31027809Y-24457819D01*
X31027809Y-24457819D02*
X31123047Y-24410200D01*
X31123047Y-24410200D02*
X31170666Y-24314961D01*
X31170666Y-24314961D02*
X31170666Y-24219723D01*
X31170666Y-24219723D02*
X31123047Y-24124485D01*
X31123047Y-24124485D02*
X31027809Y-24076866D01*
X31027809Y-24076866D02*
X30789714Y-24076866D01*
X30789714Y-24076866D02*
X30694476Y-24029247D01*
X30265904Y-24410200D02*
X30170666Y-24457819D01*
X30170666Y-24457819D02*
X29980190Y-24457819D01*
X29980190Y-24457819D02*
X29884952Y-24410200D01*
X29884952Y-24410200D02*
X29837333Y-24314961D01*
X29837333Y-24314961D02*
X29837333Y-24267342D01*
X29837333Y-24267342D02*
X29884952Y-24172104D01*
X29884952Y-24172104D02*
X29980190Y-24124485D01*
X29980190Y-24124485D02*
X30123047Y-24124485D01*
X30123047Y-24124485D02*
X30218285Y-24076866D01*
X30218285Y-24076866D02*
X30265904Y-23981628D01*
X30265904Y-23981628D02*
X30265904Y-23934009D01*
X30265904Y-23934009D02*
X30218285Y-23838771D01*
X30218285Y-23838771D02*
X30123047Y-23791152D01*
X30123047Y-23791152D02*
X29980190Y-23791152D01*
X29980190Y-23791152D02*
X29884952Y-23838771D01*
X29027809Y-24410200D02*
X29123047Y-24457819D01*
X29123047Y-24457819D02*
X29313523Y-24457819D01*
X29313523Y-24457819D02*
X29408761Y-24410200D01*
X29408761Y-24410200D02*
X29456380Y-24314961D01*
X29456380Y-24314961D02*
X29456380Y-23934009D01*
X29456380Y-23934009D02*
X29408761Y-23838771D01*
X29408761Y-23838771D02*
X29313523Y-23791152D01*
X29313523Y-23791152D02*
X29123047Y-23791152D01*
X29123047Y-23791152D02*
X29027809Y-23838771D01*
X29027809Y-23838771D02*
X28980190Y-23934009D01*
X28980190Y-23934009D02*
X28980190Y-24029247D01*
X28980190Y-24029247D02*
X29456380Y-24124485D01*
X59034419Y-98001209D02*
X58034419Y-98001209D01*
X58986800Y-98001209D02*
X59034419Y-97905971D01*
X59034419Y-97905971D02*
X59034419Y-97715495D01*
X59034419Y-97715495D02*
X58986800Y-97620257D01*
X58986800Y-97620257D02*
X58939180Y-97572638D01*
X58939180Y-97572638D02*
X58843942Y-97525019D01*
X58843942Y-97525019D02*
X58558228Y-97525019D01*
X58558228Y-97525019D02*
X58462990Y-97572638D01*
X58462990Y-97572638D02*
X58415371Y-97620257D01*
X58415371Y-97620257D02*
X58367752Y-97715495D01*
X58367752Y-97715495D02*
X58367752Y-97905971D01*
X58367752Y-97905971D02*
X58415371Y-98001209D01*
X59034419Y-98477400D02*
X58367752Y-98477400D01*
X58034419Y-98477400D02*
X58082038Y-98429781D01*
X58082038Y-98429781D02*
X58129657Y-98477400D01*
X58129657Y-98477400D02*
X58082038Y-98525019D01*
X58082038Y-98525019D02*
X58034419Y-98477400D01*
X58034419Y-98477400D02*
X58129657Y-98477400D01*
X59034419Y-99096447D02*
X58986800Y-99001209D01*
X58986800Y-99001209D02*
X58939180Y-98953590D01*
X58939180Y-98953590D02*
X58843942Y-98905971D01*
X58843942Y-98905971D02*
X58558228Y-98905971D01*
X58558228Y-98905971D02*
X58462990Y-98953590D01*
X58462990Y-98953590D02*
X58415371Y-99001209D01*
X58415371Y-99001209D02*
X58367752Y-99096447D01*
X58367752Y-99096447D02*
X58367752Y-99239304D01*
X58367752Y-99239304D02*
X58415371Y-99334542D01*
X58415371Y-99334542D02*
X58462990Y-99382161D01*
X58462990Y-99382161D02*
X58558228Y-99429780D01*
X58558228Y-99429780D02*
X58843942Y-99429780D01*
X58843942Y-99429780D02*
X58939180Y-99382161D01*
X58939180Y-99382161D02*
X58986800Y-99334542D01*
X58986800Y-99334542D02*
X59034419Y-99239304D01*
X59034419Y-99239304D02*
X59034419Y-99096447D01*
X59034419Y-100286923D02*
X58034419Y-100286923D01*
X58986800Y-100286923D02*
X59034419Y-100191685D01*
X59034419Y-100191685D02*
X59034419Y-100001209D01*
X59034419Y-100001209D02*
X58986800Y-99905971D01*
X58986800Y-99905971D02*
X58939180Y-99858352D01*
X58939180Y-99858352D02*
X58843942Y-99810733D01*
X58843942Y-99810733D02*
X58558228Y-99810733D01*
X58558228Y-99810733D02*
X58462990Y-99858352D01*
X58462990Y-99858352D02*
X58415371Y-99905971D01*
X58415371Y-99905971D02*
X58367752Y-100001209D01*
X58367752Y-100001209D02*
X58367752Y-100191685D01*
X58367752Y-100191685D02*
X58415371Y-100286923D01*
X58986800Y-101144066D02*
X59034419Y-101048828D01*
X59034419Y-101048828D02*
X59034419Y-100858352D01*
X59034419Y-100858352D02*
X58986800Y-100763114D01*
X58986800Y-100763114D02*
X58891561Y-100715495D01*
X58891561Y-100715495D02*
X58510609Y-100715495D01*
X58510609Y-100715495D02*
X58415371Y-100763114D01*
X58415371Y-100763114D02*
X58367752Y-100858352D01*
X58367752Y-100858352D02*
X58367752Y-101048828D01*
X58367752Y-101048828D02*
X58415371Y-101144066D01*
X58415371Y-101144066D02*
X58510609Y-101191685D01*
X58510609Y-101191685D02*
X58605847Y-101191685D01*
X58605847Y-101191685D02*
X58701085Y-100715495D01*
X58367752Y-102382162D02*
X58653466Y-101620257D01*
X58653466Y-101620257D02*
X58939180Y-102382162D01*
X150523809Y-92304819D02*
X150523809Y-91304819D01*
X150523809Y-91304819D02*
X150190476Y-92019104D01*
X150190476Y-92019104D02*
X149857143Y-91304819D01*
X149857143Y-91304819D02*
X149857143Y-92304819D01*
X149476190Y-91304819D02*
X148857143Y-91304819D01*
X148857143Y-91304819D02*
X149190476Y-91685771D01*
X149190476Y-91685771D02*
X149047619Y-91685771D01*
X149047619Y-91685771D02*
X148952381Y-91733390D01*
X148952381Y-91733390D02*
X148904762Y-91781009D01*
X148904762Y-91781009D02*
X148857143Y-91876247D01*
X148857143Y-91876247D02*
X148857143Y-92114342D01*
X148857143Y-92114342D02*
X148904762Y-92209580D01*
X148904762Y-92209580D02*
X148952381Y-92257200D01*
X148952381Y-92257200D02*
X149047619Y-92304819D01*
X149047619Y-92304819D02*
X149333333Y-92304819D01*
X149333333Y-92304819D02*
X149428571Y-92257200D01*
X149428571Y-92257200D02*
X149476190Y-92209580D01*
X148666667Y-92400057D02*
X147904762Y-92400057D01*
X147666666Y-92304819D02*
X147666666Y-91304819D01*
X147666666Y-91304819D02*
X147285714Y-91304819D01*
X147285714Y-91304819D02*
X147190476Y-91352438D01*
X147190476Y-91352438D02*
X147142857Y-91400057D01*
X147142857Y-91400057D02*
X147095238Y-91495295D01*
X147095238Y-91495295D02*
X147095238Y-91638152D01*
X147095238Y-91638152D02*
X147142857Y-91733390D01*
X147142857Y-91733390D02*
X147190476Y-91781009D01*
X147190476Y-91781009D02*
X147285714Y-91828628D01*
X147285714Y-91828628D02*
X147666666Y-91828628D01*
X146523809Y-92304819D02*
X146619047Y-92257200D01*
X146619047Y-92257200D02*
X146666666Y-92161961D01*
X146666666Y-92161961D02*
X146666666Y-91304819D01*
X145714285Y-92304819D02*
X145714285Y-91781009D01*
X145714285Y-91781009D02*
X145761904Y-91685771D01*
X145761904Y-91685771D02*
X145857142Y-91638152D01*
X145857142Y-91638152D02*
X146047618Y-91638152D01*
X146047618Y-91638152D02*
X146142856Y-91685771D01*
X145714285Y-92257200D02*
X145809523Y-92304819D01*
X145809523Y-92304819D02*
X146047618Y-92304819D01*
X146047618Y-92304819D02*
X146142856Y-92257200D01*
X146142856Y-92257200D02*
X146190475Y-92161961D01*
X146190475Y-92161961D02*
X146190475Y-92066723D01*
X146190475Y-92066723D02*
X146142856Y-91971485D01*
X146142856Y-91971485D02*
X146047618Y-91923866D01*
X146047618Y-91923866D02*
X145809523Y-91923866D01*
X145809523Y-91923866D02*
X145714285Y-91876247D01*
X145380951Y-91638152D02*
X144999999Y-91638152D01*
X145238094Y-91304819D02*
X145238094Y-92161961D01*
X145238094Y-92161961D02*
X145190475Y-92257200D01*
X145190475Y-92257200D02*
X145095237Y-92304819D01*
X145095237Y-92304819D02*
X144999999Y-92304819D01*
X144285713Y-92257200D02*
X144380951Y-92304819D01*
X144380951Y-92304819D02*
X144571427Y-92304819D01*
X144571427Y-92304819D02*
X144666665Y-92257200D01*
X144666665Y-92257200D02*
X144714284Y-92161961D01*
X144714284Y-92161961D02*
X144714284Y-91781009D01*
X144714284Y-91781009D02*
X144666665Y-91685771D01*
X144666665Y-91685771D02*
X144571427Y-91638152D01*
X144571427Y-91638152D02*
X144380951Y-91638152D01*
X144380951Y-91638152D02*
X144285713Y-91685771D01*
X144285713Y-91685771D02*
X144238094Y-91781009D01*
X144238094Y-91781009D02*
X144238094Y-91876247D01*
X144238094Y-91876247D02*
X144714284Y-91971485D01*
X143809522Y-91923866D02*
X143047618Y-91923866D01*
X143428570Y-92304819D02*
X143428570Y-91542914D01*
X141999999Y-92209580D02*
X142047618Y-92257200D01*
X142047618Y-92257200D02*
X142190475Y-92304819D01*
X142190475Y-92304819D02*
X142285713Y-92304819D01*
X142285713Y-92304819D02*
X142428570Y-92257200D01*
X142428570Y-92257200D02*
X142523808Y-92161961D01*
X142523808Y-92161961D02*
X142571427Y-92066723D01*
X142571427Y-92066723D02*
X142619046Y-91876247D01*
X142619046Y-91876247D02*
X142619046Y-91733390D01*
X142619046Y-91733390D02*
X142571427Y-91542914D01*
X142571427Y-91542914D02*
X142523808Y-91447676D01*
X142523808Y-91447676D02*
X142428570Y-91352438D01*
X142428570Y-91352438D02*
X142285713Y-91304819D01*
X142285713Y-91304819D02*
X142190475Y-91304819D01*
X142190475Y-91304819D02*
X142047618Y-91352438D01*
X142047618Y-91352438D02*
X141999999Y-91400057D01*
X141142856Y-92304819D02*
X141142856Y-91781009D01*
X141142856Y-91781009D02*
X141190475Y-91685771D01*
X141190475Y-91685771D02*
X141285713Y-91638152D01*
X141285713Y-91638152D02*
X141476189Y-91638152D01*
X141476189Y-91638152D02*
X141571427Y-91685771D01*
X141142856Y-92257200D02*
X141238094Y-92304819D01*
X141238094Y-92304819D02*
X141476189Y-92304819D01*
X141476189Y-92304819D02*
X141571427Y-92257200D01*
X141571427Y-92257200D02*
X141619046Y-92161961D01*
X141619046Y-92161961D02*
X141619046Y-92066723D01*
X141619046Y-92066723D02*
X141571427Y-91971485D01*
X141571427Y-91971485D02*
X141476189Y-91923866D01*
X141476189Y-91923866D02*
X141238094Y-91923866D01*
X141238094Y-91923866D02*
X141142856Y-91876247D01*
X140714284Y-92257200D02*
X140619046Y-92304819D01*
X140619046Y-92304819D02*
X140428570Y-92304819D01*
X140428570Y-92304819D02*
X140333332Y-92257200D01*
X140333332Y-92257200D02*
X140285713Y-92161961D01*
X140285713Y-92161961D02*
X140285713Y-92114342D01*
X140285713Y-92114342D02*
X140333332Y-92019104D01*
X140333332Y-92019104D02*
X140428570Y-91971485D01*
X140428570Y-91971485D02*
X140571427Y-91971485D01*
X140571427Y-91971485D02*
X140666665Y-91923866D01*
X140666665Y-91923866D02*
X140714284Y-91828628D01*
X140714284Y-91828628D02*
X140714284Y-91781009D01*
X140714284Y-91781009D02*
X140666665Y-91685771D01*
X140666665Y-91685771D02*
X140571427Y-91638152D01*
X140571427Y-91638152D02*
X140428570Y-91638152D01*
X140428570Y-91638152D02*
X140333332Y-91685771D01*
X139476189Y-92257200D02*
X139571427Y-92304819D01*
X139571427Y-92304819D02*
X139761903Y-92304819D01*
X139761903Y-92304819D02*
X139857141Y-92257200D01*
X139857141Y-92257200D02*
X139904760Y-92161961D01*
X139904760Y-92161961D02*
X139904760Y-91781009D01*
X139904760Y-91781009D02*
X139857141Y-91685771D01*
X139857141Y-91685771D02*
X139761903Y-91638152D01*
X139761903Y-91638152D02*
X139571427Y-91638152D01*
X139571427Y-91638152D02*
X139476189Y-91685771D01*
X139476189Y-91685771D02*
X139428570Y-91781009D01*
X139428570Y-91781009D02*
X139428570Y-91876247D01*
X139428570Y-91876247D02*
X139904760Y-91971485D01*
X159119047Y-73304819D02*
X159119047Y-72304819D01*
X159119047Y-72304819D02*
X158785714Y-73019104D01*
X158785714Y-73019104D02*
X158452381Y-72304819D01*
X158452381Y-72304819D02*
X158452381Y-73304819D01*
X158071428Y-72304819D02*
X157452381Y-72304819D01*
X157452381Y-72304819D02*
X157785714Y-72685771D01*
X157785714Y-72685771D02*
X157642857Y-72685771D01*
X157642857Y-72685771D02*
X157547619Y-72733390D01*
X157547619Y-72733390D02*
X157500000Y-72781009D01*
X157500000Y-72781009D02*
X157452381Y-72876247D01*
X157452381Y-72876247D02*
X157452381Y-73114342D01*
X157452381Y-73114342D02*
X157500000Y-73209580D01*
X157500000Y-73209580D02*
X157547619Y-73257200D01*
X157547619Y-73257200D02*
X157642857Y-73304819D01*
X157642857Y-73304819D02*
X157928571Y-73304819D01*
X157928571Y-73304819D02*
X158023809Y-73257200D01*
X158023809Y-73257200D02*
X158071428Y-73209580D01*
X157261905Y-73400057D02*
X156500000Y-73400057D01*
X156261904Y-73304819D02*
X156261904Y-72304819D01*
X156261904Y-72304819D02*
X155880952Y-72304819D01*
X155880952Y-72304819D02*
X155785714Y-72352438D01*
X155785714Y-72352438D02*
X155738095Y-72400057D01*
X155738095Y-72400057D02*
X155690476Y-72495295D01*
X155690476Y-72495295D02*
X155690476Y-72638152D01*
X155690476Y-72638152D02*
X155738095Y-72733390D01*
X155738095Y-72733390D02*
X155785714Y-72781009D01*
X155785714Y-72781009D02*
X155880952Y-72828628D01*
X155880952Y-72828628D02*
X156261904Y-72828628D01*
X155119047Y-73304819D02*
X155214285Y-73257200D01*
X155214285Y-73257200D02*
X155261904Y-73161961D01*
X155261904Y-73161961D02*
X155261904Y-72304819D01*
X154309523Y-73304819D02*
X154309523Y-72781009D01*
X154309523Y-72781009D02*
X154357142Y-72685771D01*
X154357142Y-72685771D02*
X154452380Y-72638152D01*
X154452380Y-72638152D02*
X154642856Y-72638152D01*
X154642856Y-72638152D02*
X154738094Y-72685771D01*
X154309523Y-73257200D02*
X154404761Y-73304819D01*
X154404761Y-73304819D02*
X154642856Y-73304819D01*
X154642856Y-73304819D02*
X154738094Y-73257200D01*
X154738094Y-73257200D02*
X154785713Y-73161961D01*
X154785713Y-73161961D02*
X154785713Y-73066723D01*
X154785713Y-73066723D02*
X154738094Y-72971485D01*
X154738094Y-72971485D02*
X154642856Y-72923866D01*
X154642856Y-72923866D02*
X154404761Y-72923866D01*
X154404761Y-72923866D02*
X154309523Y-72876247D01*
X153976189Y-72638152D02*
X153595237Y-72638152D01*
X153833332Y-72304819D02*
X153833332Y-73161961D01*
X153833332Y-73161961D02*
X153785713Y-73257200D01*
X153785713Y-73257200D02*
X153690475Y-73304819D01*
X153690475Y-73304819D02*
X153595237Y-73304819D01*
X152880951Y-73257200D02*
X152976189Y-73304819D01*
X152976189Y-73304819D02*
X153166665Y-73304819D01*
X153166665Y-73304819D02*
X153261903Y-73257200D01*
X153261903Y-73257200D02*
X153309522Y-73161961D01*
X153309522Y-73161961D02*
X153309522Y-72781009D01*
X153309522Y-72781009D02*
X153261903Y-72685771D01*
X153261903Y-72685771D02*
X153166665Y-72638152D01*
X153166665Y-72638152D02*
X152976189Y-72638152D01*
X152976189Y-72638152D02*
X152880951Y-72685771D01*
X152880951Y-72685771D02*
X152833332Y-72781009D01*
X152833332Y-72781009D02*
X152833332Y-72876247D01*
X152833332Y-72876247D02*
X153309522Y-72971485D01*
X50119047Y-36304819D02*
X50119047Y-35304819D01*
X50119047Y-35304819D02*
X49785714Y-36019104D01*
X49785714Y-36019104D02*
X49452381Y-35304819D01*
X49452381Y-35304819D02*
X49452381Y-36304819D01*
X49071428Y-35304819D02*
X48452381Y-35304819D01*
X48452381Y-35304819D02*
X48785714Y-35685771D01*
X48785714Y-35685771D02*
X48642857Y-35685771D01*
X48642857Y-35685771D02*
X48547619Y-35733390D01*
X48547619Y-35733390D02*
X48500000Y-35781009D01*
X48500000Y-35781009D02*
X48452381Y-35876247D01*
X48452381Y-35876247D02*
X48452381Y-36114342D01*
X48452381Y-36114342D02*
X48500000Y-36209580D01*
X48500000Y-36209580D02*
X48547619Y-36257200D01*
X48547619Y-36257200D02*
X48642857Y-36304819D01*
X48642857Y-36304819D02*
X48928571Y-36304819D01*
X48928571Y-36304819D02*
X49023809Y-36257200D01*
X49023809Y-36257200D02*
X49071428Y-36209580D01*
X48261905Y-36400057D02*
X47500000Y-36400057D01*
X47261904Y-36304819D02*
X47261904Y-35304819D01*
X47261904Y-35304819D02*
X46880952Y-35304819D01*
X46880952Y-35304819D02*
X46785714Y-35352438D01*
X46785714Y-35352438D02*
X46738095Y-35400057D01*
X46738095Y-35400057D02*
X46690476Y-35495295D01*
X46690476Y-35495295D02*
X46690476Y-35638152D01*
X46690476Y-35638152D02*
X46738095Y-35733390D01*
X46738095Y-35733390D02*
X46785714Y-35781009D01*
X46785714Y-35781009D02*
X46880952Y-35828628D01*
X46880952Y-35828628D02*
X47261904Y-35828628D01*
X46119047Y-36304819D02*
X46214285Y-36257200D01*
X46214285Y-36257200D02*
X46261904Y-36161961D01*
X46261904Y-36161961D02*
X46261904Y-35304819D01*
X45309523Y-36304819D02*
X45309523Y-35781009D01*
X45309523Y-35781009D02*
X45357142Y-35685771D01*
X45357142Y-35685771D02*
X45452380Y-35638152D01*
X45452380Y-35638152D02*
X45642856Y-35638152D01*
X45642856Y-35638152D02*
X45738094Y-35685771D01*
X45309523Y-36257200D02*
X45404761Y-36304819D01*
X45404761Y-36304819D02*
X45642856Y-36304819D01*
X45642856Y-36304819D02*
X45738094Y-36257200D01*
X45738094Y-36257200D02*
X45785713Y-36161961D01*
X45785713Y-36161961D02*
X45785713Y-36066723D01*
X45785713Y-36066723D02*
X45738094Y-35971485D01*
X45738094Y-35971485D02*
X45642856Y-35923866D01*
X45642856Y-35923866D02*
X45404761Y-35923866D01*
X45404761Y-35923866D02*
X45309523Y-35876247D01*
X44976189Y-35638152D02*
X44595237Y-35638152D01*
X44833332Y-35304819D02*
X44833332Y-36161961D01*
X44833332Y-36161961D02*
X44785713Y-36257200D01*
X44785713Y-36257200D02*
X44690475Y-36304819D01*
X44690475Y-36304819D02*
X44595237Y-36304819D01*
X43880951Y-36257200D02*
X43976189Y-36304819D01*
X43976189Y-36304819D02*
X44166665Y-36304819D01*
X44166665Y-36304819D02*
X44261903Y-36257200D01*
X44261903Y-36257200D02*
X44309522Y-36161961D01*
X44309522Y-36161961D02*
X44309522Y-35781009D01*
X44309522Y-35781009D02*
X44261903Y-35685771D01*
X44261903Y-35685771D02*
X44166665Y-35638152D01*
X44166665Y-35638152D02*
X43976189Y-35638152D01*
X43976189Y-35638152D02*
X43880951Y-35685771D01*
X43880951Y-35685771D02*
X43833332Y-35781009D01*
X43833332Y-35781009D02*
X43833332Y-35876247D01*
X43833332Y-35876247D02*
X44309522Y-35971485D01*
X133119047Y-36304819D02*
X133119047Y-35304819D01*
X133119047Y-35304819D02*
X132785714Y-36019104D01*
X132785714Y-36019104D02*
X132452381Y-35304819D01*
X132452381Y-35304819D02*
X132452381Y-36304819D01*
X132071428Y-35304819D02*
X131452381Y-35304819D01*
X131452381Y-35304819D02*
X131785714Y-35685771D01*
X131785714Y-35685771D02*
X131642857Y-35685771D01*
X131642857Y-35685771D02*
X131547619Y-35733390D01*
X131547619Y-35733390D02*
X131500000Y-35781009D01*
X131500000Y-35781009D02*
X131452381Y-35876247D01*
X131452381Y-35876247D02*
X131452381Y-36114342D01*
X131452381Y-36114342D02*
X131500000Y-36209580D01*
X131500000Y-36209580D02*
X131547619Y-36257200D01*
X131547619Y-36257200D02*
X131642857Y-36304819D01*
X131642857Y-36304819D02*
X131928571Y-36304819D01*
X131928571Y-36304819D02*
X132023809Y-36257200D01*
X132023809Y-36257200D02*
X132071428Y-36209580D01*
X131261905Y-36400057D02*
X130500000Y-36400057D01*
X130261904Y-36304819D02*
X130261904Y-35304819D01*
X130261904Y-35304819D02*
X129880952Y-35304819D01*
X129880952Y-35304819D02*
X129785714Y-35352438D01*
X129785714Y-35352438D02*
X129738095Y-35400057D01*
X129738095Y-35400057D02*
X129690476Y-35495295D01*
X129690476Y-35495295D02*
X129690476Y-35638152D01*
X129690476Y-35638152D02*
X129738095Y-35733390D01*
X129738095Y-35733390D02*
X129785714Y-35781009D01*
X129785714Y-35781009D02*
X129880952Y-35828628D01*
X129880952Y-35828628D02*
X130261904Y-35828628D01*
X129119047Y-36304819D02*
X129214285Y-36257200D01*
X129214285Y-36257200D02*
X129261904Y-36161961D01*
X129261904Y-36161961D02*
X129261904Y-35304819D01*
X128309523Y-36304819D02*
X128309523Y-35781009D01*
X128309523Y-35781009D02*
X128357142Y-35685771D01*
X128357142Y-35685771D02*
X128452380Y-35638152D01*
X128452380Y-35638152D02*
X128642856Y-35638152D01*
X128642856Y-35638152D02*
X128738094Y-35685771D01*
X128309523Y-36257200D02*
X128404761Y-36304819D01*
X128404761Y-36304819D02*
X128642856Y-36304819D01*
X128642856Y-36304819D02*
X128738094Y-36257200D01*
X128738094Y-36257200D02*
X128785713Y-36161961D01*
X128785713Y-36161961D02*
X128785713Y-36066723D01*
X128785713Y-36066723D02*
X128738094Y-35971485D01*
X128738094Y-35971485D02*
X128642856Y-35923866D01*
X128642856Y-35923866D02*
X128404761Y-35923866D01*
X128404761Y-35923866D02*
X128309523Y-35876247D01*
X127976189Y-35638152D02*
X127595237Y-35638152D01*
X127833332Y-35304819D02*
X127833332Y-36161961D01*
X127833332Y-36161961D02*
X127785713Y-36257200D01*
X127785713Y-36257200D02*
X127690475Y-36304819D01*
X127690475Y-36304819D02*
X127595237Y-36304819D01*
X126880951Y-36257200D02*
X126976189Y-36304819D01*
X126976189Y-36304819D02*
X127166665Y-36304819D01*
X127166665Y-36304819D02*
X127261903Y-36257200D01*
X127261903Y-36257200D02*
X127309522Y-36161961D01*
X127309522Y-36161961D02*
X127309522Y-35781009D01*
X127309522Y-35781009D02*
X127261903Y-35685771D01*
X127261903Y-35685771D02*
X127166665Y-35638152D01*
X127166665Y-35638152D02*
X126976189Y-35638152D01*
X126976189Y-35638152D02*
X126880951Y-35685771D01*
X126880951Y-35685771D02*
X126833332Y-35781009D01*
X126833332Y-35781009D02*
X126833332Y-35876247D01*
X126833332Y-35876247D02*
X127309522Y-35971485D01*
D12*
X832619Y-1666612D02*
X832619Y-1761850D01*
X832619Y-1761850D02*
X880238Y-1857088D01*
X880238Y-1857088D02*
X927857Y-1904707D01*
X927857Y-1904707D02*
X1023095Y-1952326D01*
X1023095Y-1952326D02*
X1213571Y-1999945D01*
X1213571Y-1999945D02*
X1451666Y-1999945D01*
X1451666Y-1999945D02*
X1642142Y-1952326D01*
X1642142Y-1952326D02*
X1737380Y-1904707D01*
X1737380Y-1904707D02*
X1785000Y-1857088D01*
X1785000Y-1857088D02*
X1832619Y-1761850D01*
X1832619Y-1761850D02*
X1832619Y-1666612D01*
X1832619Y-1666612D02*
X1785000Y-1571374D01*
X1785000Y-1571374D02*
X1737380Y-1523755D01*
X1737380Y-1523755D02*
X1642142Y-1476136D01*
X1642142Y-1476136D02*
X1451666Y-1428517D01*
X1451666Y-1428517D02*
X1213571Y-1428517D01*
X1213571Y-1428517D02*
X1023095Y-1476136D01*
X1023095Y-1476136D02*
X927857Y-1523755D01*
X927857Y-1523755D02*
X880238Y-1571374D01*
X880238Y-1571374D02*
X832619Y-1666612D01*
X832619Y-22916961D02*
X832619Y-22440771D01*
X832619Y-22440771D02*
X1308809Y-22393152D01*
X1308809Y-22393152D02*
X1261190Y-22440771D01*
X1261190Y-22440771D02*
X1213571Y-22536009D01*
X1213571Y-22536009D02*
X1213571Y-22774104D01*
X1213571Y-22774104D02*
X1261190Y-22869342D01*
X1261190Y-22869342D02*
X1308809Y-22916961D01*
X1308809Y-22916961D02*
X1404047Y-22964580D01*
X1404047Y-22964580D02*
X1642142Y-22964580D01*
X1642142Y-22964580D02*
X1737380Y-22916961D01*
X1737380Y-22916961D02*
X1785000Y-22869342D01*
X1785000Y-22869342D02*
X1832619Y-22774104D01*
X1832619Y-22774104D02*
X1832619Y-22536009D01*
X1832619Y-22536009D02*
X1785000Y-22440771D01*
X1785000Y-22440771D02*
X1737380Y-22393152D01*
X832619Y-23250295D02*
X1832619Y-23583628D01*
X1832619Y-23583628D02*
X832619Y-23916961D01*
X4372619Y-1999945D02*
X4372619Y-1428517D01*
X4372619Y-1714231D02*
X3372619Y-1714231D01*
X3372619Y-1714231D02*
X3515476Y-1618993D01*
X3515476Y-1618993D02*
X3610714Y-1523755D01*
X3610714Y-1523755D02*
X3658333Y-1428517D01*
X3420238Y-22964580D02*
X3372619Y-22869342D01*
X3372619Y-22869342D02*
X3372619Y-22726485D01*
X3372619Y-22726485D02*
X3420238Y-22583628D01*
X3420238Y-22583628D02*
X3515476Y-22488390D01*
X3515476Y-22488390D02*
X3610714Y-22440771D01*
X3610714Y-22440771D02*
X3801190Y-22393152D01*
X3801190Y-22393152D02*
X3944047Y-22393152D01*
X3944047Y-22393152D02*
X4134523Y-22440771D01*
X4134523Y-22440771D02*
X4229761Y-22488390D01*
X4229761Y-22488390D02*
X4325000Y-22583628D01*
X4325000Y-22583628D02*
X4372619Y-22726485D01*
X4372619Y-22726485D02*
X4372619Y-22821723D01*
X4372619Y-22821723D02*
X4325000Y-22964580D01*
X4325000Y-22964580D02*
X4277380Y-23012199D01*
X4277380Y-23012199D02*
X3944047Y-23012199D01*
X3944047Y-23012199D02*
X3944047Y-22821723D01*
X4372619Y-23440771D02*
X3372619Y-23440771D01*
X3372619Y-23440771D02*
X4372619Y-24012199D01*
X4372619Y-24012199D02*
X3372619Y-24012199D01*
X4372619Y-24488390D02*
X3372619Y-24488390D01*
X3372619Y-24488390D02*
X3372619Y-24726485D01*
X3372619Y-24726485D02*
X3420238Y-24869342D01*
X3420238Y-24869342D02*
X3515476Y-24964580D01*
X3515476Y-24964580D02*
X3610714Y-25012199D01*
X3610714Y-25012199D02*
X3801190Y-25059818D01*
X3801190Y-25059818D02*
X3944047Y-25059818D01*
X3944047Y-25059818D02*
X4134523Y-25012199D01*
X4134523Y-25012199D02*
X4229761Y-24964580D01*
X4229761Y-24964580D02*
X4325000Y-24869342D01*
X4325000Y-24869342D02*
X4372619Y-24726485D01*
X4372619Y-24726485D02*
X4372619Y-24488390D01*
X6007857Y-1428517D02*
X5960238Y-1476136D01*
X5960238Y-1476136D02*
X5912619Y-1571374D01*
X5912619Y-1571374D02*
X5912619Y-1809469D01*
X5912619Y-1809469D02*
X5960238Y-1904707D01*
X5960238Y-1904707D02*
X6007857Y-1952326D01*
X6007857Y-1952326D02*
X6103095Y-1999945D01*
X6103095Y-1999945D02*
X6198333Y-1999945D01*
X6198333Y-1999945D02*
X6341190Y-1952326D01*
X6341190Y-1952326D02*
X6912619Y-1380898D01*
X6912619Y-1380898D02*
X6912619Y-1999945D01*
X5912619Y-22345533D02*
X5912619Y-22964580D01*
X5912619Y-22964580D02*
X6293571Y-22631247D01*
X6293571Y-22631247D02*
X6293571Y-22774104D01*
X6293571Y-22774104D02*
X6341190Y-22869342D01*
X6341190Y-22869342D02*
X6388809Y-22916961D01*
X6388809Y-22916961D02*
X6484047Y-22964580D01*
X6484047Y-22964580D02*
X6722142Y-22964580D01*
X6722142Y-22964580D02*
X6817380Y-22916961D01*
X6817380Y-22916961D02*
X6865000Y-22869342D01*
X6865000Y-22869342D02*
X6912619Y-22774104D01*
X6912619Y-22774104D02*
X6912619Y-22488390D01*
X6912619Y-22488390D02*
X6865000Y-22393152D01*
X6865000Y-22393152D02*
X6817380Y-22345533D01*
X5912619Y-23250295D02*
X6912619Y-23583628D01*
X6912619Y-23583628D02*
X5912619Y-23916961D01*
X5912619Y-24155057D02*
X5912619Y-24774104D01*
X5912619Y-24774104D02*
X6293571Y-24440771D01*
X6293571Y-24440771D02*
X6293571Y-24583628D01*
X6293571Y-24583628D02*
X6341190Y-24678866D01*
X6341190Y-24678866D02*
X6388809Y-24726485D01*
X6388809Y-24726485D02*
X6484047Y-24774104D01*
X6484047Y-24774104D02*
X6722142Y-24774104D01*
X6722142Y-24774104D02*
X6817380Y-24726485D01*
X6817380Y-24726485D02*
X6865000Y-24678866D01*
X6865000Y-24678866D02*
X6912619Y-24583628D01*
X6912619Y-24583628D02*
X6912619Y-24297914D01*
X6912619Y-24297914D02*
X6865000Y-24202676D01*
X6865000Y-24202676D02*
X6817380Y-24155057D01*
X8452619Y-1380898D02*
X8452619Y-1999945D01*
X8452619Y-1999945D02*
X8833571Y-1666612D01*
X8833571Y-1666612D02*
X8833571Y-1809469D01*
X8833571Y-1809469D02*
X8881190Y-1904707D01*
X8881190Y-1904707D02*
X8928809Y-1952326D01*
X8928809Y-1952326D02*
X9024047Y-1999945D01*
X9024047Y-1999945D02*
X9262142Y-1999945D01*
X9262142Y-1999945D02*
X9357380Y-1952326D01*
X9357380Y-1952326D02*
X9405000Y-1904707D01*
X9405000Y-1904707D02*
X9452619Y-1809469D01*
X9452619Y-1809469D02*
X9452619Y-1523755D01*
X9452619Y-1523755D02*
X9405000Y-1428517D01*
X9405000Y-1428517D02*
X9357380Y-1380898D01*
X8547857Y-22393152D02*
X8500238Y-22440771D01*
X8500238Y-22440771D02*
X8452619Y-22536009D01*
X8452619Y-22536009D02*
X8452619Y-22774104D01*
X8452619Y-22774104D02*
X8500238Y-22869342D01*
X8500238Y-22869342D02*
X8547857Y-22916961D01*
X8547857Y-22916961D02*
X8643095Y-22964580D01*
X8643095Y-22964580D02*
X8738333Y-22964580D01*
X8738333Y-22964580D02*
X8881190Y-22916961D01*
X8881190Y-22916961D02*
X9452619Y-22345533D01*
X9452619Y-22345533D02*
X9452619Y-22964580D01*
X9452619Y-23440771D02*
X9452619Y-23631247D01*
X9452619Y-23631247D02*
X9405000Y-23726485D01*
X9405000Y-23726485D02*
X9357380Y-23774104D01*
X9357380Y-23774104D02*
X9214523Y-23869342D01*
X9214523Y-23869342D02*
X9024047Y-23916961D01*
X9024047Y-23916961D02*
X8643095Y-23916961D01*
X8643095Y-23916961D02*
X8547857Y-23869342D01*
X8547857Y-23869342D02*
X8500238Y-23821723D01*
X8500238Y-23821723D02*
X8452619Y-23726485D01*
X8452619Y-23726485D02*
X8452619Y-23536009D01*
X8452619Y-23536009D02*
X8500238Y-23440771D01*
X8500238Y-23440771D02*
X8547857Y-23393152D01*
X8547857Y-23393152D02*
X8643095Y-23345533D01*
X8643095Y-23345533D02*
X8881190Y-23345533D01*
X8881190Y-23345533D02*
X8976428Y-23393152D01*
X8976428Y-23393152D02*
X9024047Y-23440771D01*
X9024047Y-23440771D02*
X9071666Y-23536009D01*
X9071666Y-23536009D02*
X9071666Y-23726485D01*
X9071666Y-23726485D02*
X9024047Y-23821723D01*
X9024047Y-23821723D02*
X8976428Y-23869342D01*
X8976428Y-23869342D02*
X8881190Y-23916961D01*
X11325952Y-1904707D02*
X11992619Y-1904707D01*
X10945000Y-1666612D02*
X11659285Y-1428517D01*
X11659285Y-1428517D02*
X11659285Y-2047564D01*
X11087857Y-22393152D02*
X11040238Y-22440771D01*
X11040238Y-22440771D02*
X10992619Y-22536009D01*
X10992619Y-22536009D02*
X10992619Y-22774104D01*
X10992619Y-22774104D02*
X11040238Y-22869342D01*
X11040238Y-22869342D02*
X11087857Y-22916961D01*
X11087857Y-22916961D02*
X11183095Y-22964580D01*
X11183095Y-22964580D02*
X11278333Y-22964580D01*
X11278333Y-22964580D02*
X11421190Y-22916961D01*
X11421190Y-22916961D02*
X11992619Y-22345533D01*
X11992619Y-22345533D02*
X11992619Y-22964580D01*
X11421190Y-23536009D02*
X11373571Y-23440771D01*
X11373571Y-23440771D02*
X11325952Y-23393152D01*
X11325952Y-23393152D02*
X11230714Y-23345533D01*
X11230714Y-23345533D02*
X11183095Y-23345533D01*
X11183095Y-23345533D02*
X11087857Y-23393152D01*
X11087857Y-23393152D02*
X11040238Y-23440771D01*
X11040238Y-23440771D02*
X10992619Y-23536009D01*
X10992619Y-23536009D02*
X10992619Y-23726485D01*
X10992619Y-23726485D02*
X11040238Y-23821723D01*
X11040238Y-23821723D02*
X11087857Y-23869342D01*
X11087857Y-23869342D02*
X11183095Y-23916961D01*
X11183095Y-23916961D02*
X11230714Y-23916961D01*
X11230714Y-23916961D02*
X11325952Y-23869342D01*
X11325952Y-23869342D02*
X11373571Y-23821723D01*
X11373571Y-23821723D02*
X11421190Y-23726485D01*
X11421190Y-23726485D02*
X11421190Y-23536009D01*
X11421190Y-23536009D02*
X11468809Y-23440771D01*
X11468809Y-23440771D02*
X11516428Y-23393152D01*
X11516428Y-23393152D02*
X11611666Y-23345533D01*
X11611666Y-23345533D02*
X11802142Y-23345533D01*
X11802142Y-23345533D02*
X11897380Y-23393152D01*
X11897380Y-23393152D02*
X11945000Y-23440771D01*
X11945000Y-23440771D02*
X11992619Y-23536009D01*
X11992619Y-23536009D02*
X11992619Y-23726485D01*
X11992619Y-23726485D02*
X11945000Y-23821723D01*
X11945000Y-23821723D02*
X11897380Y-23869342D01*
X11897380Y-23869342D02*
X11802142Y-23916961D01*
X11802142Y-23916961D02*
X11611666Y-23916961D01*
X11611666Y-23916961D02*
X11516428Y-23869342D01*
X11516428Y-23869342D02*
X11468809Y-23821723D01*
X11468809Y-23821723D02*
X11421190Y-23726485D01*
X13532619Y-1952326D02*
X13532619Y-1476136D01*
X13532619Y-1476136D02*
X14008809Y-1428517D01*
X14008809Y-1428517D02*
X13961190Y-1476136D01*
X13961190Y-1476136D02*
X13913571Y-1571374D01*
X13913571Y-1571374D02*
X13913571Y-1809469D01*
X13913571Y-1809469D02*
X13961190Y-1904707D01*
X13961190Y-1904707D02*
X14008809Y-1952326D01*
X14008809Y-1952326D02*
X14104047Y-1999945D01*
X14104047Y-1999945D02*
X14342142Y-1999945D01*
X14342142Y-1999945D02*
X14437380Y-1952326D01*
X14437380Y-1952326D02*
X14485000Y-1904707D01*
X14485000Y-1904707D02*
X14532619Y-1809469D01*
X14532619Y-1809469D02*
X14532619Y-1571374D01*
X14532619Y-1571374D02*
X14485000Y-1476136D01*
X14485000Y-1476136D02*
X14437380Y-1428517D01*
X13627857Y-22393152D02*
X13580238Y-22440771D01*
X13580238Y-22440771D02*
X13532619Y-22536009D01*
X13532619Y-22536009D02*
X13532619Y-22774104D01*
X13532619Y-22774104D02*
X13580238Y-22869342D01*
X13580238Y-22869342D02*
X13627857Y-22916961D01*
X13627857Y-22916961D02*
X13723095Y-22964580D01*
X13723095Y-22964580D02*
X13818333Y-22964580D01*
X13818333Y-22964580D02*
X13961190Y-22916961D01*
X13961190Y-22916961D02*
X14532619Y-22345533D01*
X14532619Y-22345533D02*
X14532619Y-22964580D01*
X13532619Y-23297914D02*
X13532619Y-23964580D01*
X13532619Y-23964580D02*
X14532619Y-23536009D01*
X16072619Y-1904707D02*
X16072619Y-1714231D01*
X16072619Y-1714231D02*
X16120238Y-1618993D01*
X16120238Y-1618993D02*
X16167857Y-1571374D01*
X16167857Y-1571374D02*
X16310714Y-1476136D01*
X16310714Y-1476136D02*
X16501190Y-1428517D01*
X16501190Y-1428517D02*
X16882142Y-1428517D01*
X16882142Y-1428517D02*
X16977380Y-1476136D01*
X16977380Y-1476136D02*
X17025000Y-1523755D01*
X17025000Y-1523755D02*
X17072619Y-1618993D01*
X17072619Y-1618993D02*
X17072619Y-1809469D01*
X17072619Y-1809469D02*
X17025000Y-1904707D01*
X17025000Y-1904707D02*
X16977380Y-1952326D01*
X16977380Y-1952326D02*
X16882142Y-1999945D01*
X16882142Y-1999945D02*
X16644047Y-1999945D01*
X16644047Y-1999945D02*
X16548809Y-1952326D01*
X16548809Y-1952326D02*
X16501190Y-1904707D01*
X16501190Y-1904707D02*
X16453571Y-1809469D01*
X16453571Y-1809469D02*
X16453571Y-1618993D01*
X16453571Y-1618993D02*
X16501190Y-1523755D01*
X16501190Y-1523755D02*
X16548809Y-1476136D01*
X16548809Y-1476136D02*
X16644047Y-1428517D01*
X16168849Y-22384054D02*
X16121230Y-22431673D01*
X16121230Y-22431673D02*
X16073611Y-22526911D01*
X16073611Y-22526911D02*
X16073611Y-22765006D01*
X16073611Y-22765006D02*
X16121230Y-22860244D01*
X16121230Y-22860244D02*
X16168849Y-22907863D01*
X16168849Y-22907863D02*
X16264087Y-22955482D01*
X16264087Y-22955482D02*
X16359325Y-22955482D01*
X16359325Y-22955482D02*
X16502182Y-22907863D01*
X16502182Y-22907863D02*
X17073611Y-22336435D01*
X17073611Y-22336435D02*
X17073611Y-22955482D01*
X16073611Y-23812625D02*
X16073611Y-23622149D01*
X16073611Y-23622149D02*
X16121230Y-23526911D01*
X16121230Y-23526911D02*
X16168849Y-23479292D01*
X16168849Y-23479292D02*
X16311706Y-23384054D01*
X16311706Y-23384054D02*
X16502182Y-23336435D01*
X16502182Y-23336435D02*
X16883134Y-23336435D01*
X16883134Y-23336435D02*
X16978372Y-23384054D01*
X16978372Y-23384054D02*
X17025992Y-23431673D01*
X17025992Y-23431673D02*
X17073611Y-23526911D01*
X17073611Y-23526911D02*
X17073611Y-23717387D01*
X17073611Y-23717387D02*
X17025992Y-23812625D01*
X17025992Y-23812625D02*
X16978372Y-23860244D01*
X16978372Y-23860244D02*
X16883134Y-23907863D01*
X16883134Y-23907863D02*
X16645039Y-23907863D01*
X16645039Y-23907863D02*
X16549801Y-23860244D01*
X16549801Y-23860244D02*
X16502182Y-23812625D01*
X16502182Y-23812625D02*
X16454563Y-23717387D01*
X16454563Y-23717387D02*
X16454563Y-23526911D01*
X16454563Y-23526911D02*
X16502182Y-23431673D01*
X16502182Y-23431673D02*
X16549801Y-23384054D01*
X16549801Y-23384054D02*
X16645039Y-23336435D01*
X18612619Y-1380898D02*
X18612619Y-2047564D01*
X18612619Y-2047564D02*
X19612619Y-1618993D01*
X19612619Y-22964580D02*
X19612619Y-22393152D01*
X19612619Y-22678866D02*
X18612619Y-22678866D01*
X18612619Y-22678866D02*
X18755476Y-22583628D01*
X18755476Y-22583628D02*
X18850714Y-22488390D01*
X18850714Y-22488390D02*
X18898333Y-22393152D01*
X18612619Y-23869342D02*
X18612619Y-23393152D01*
X18612619Y-23393152D02*
X19088809Y-23345533D01*
X19088809Y-23345533D02*
X19041190Y-23393152D01*
X19041190Y-23393152D02*
X18993571Y-23488390D01*
X18993571Y-23488390D02*
X18993571Y-23726485D01*
X18993571Y-23726485D02*
X19041190Y-23821723D01*
X19041190Y-23821723D02*
X19088809Y-23869342D01*
X19088809Y-23869342D02*
X19184047Y-23916961D01*
X19184047Y-23916961D02*
X19422142Y-23916961D01*
X19422142Y-23916961D02*
X19517380Y-23869342D01*
X19517380Y-23869342D02*
X19565000Y-23821723D01*
X19565000Y-23821723D02*
X19612619Y-23726485D01*
X19612619Y-23726485D02*
X19612619Y-23488390D01*
X19612619Y-23488390D02*
X19565000Y-23393152D01*
X19565000Y-23393152D02*
X19517380Y-23345533D01*
X21581190Y-1618993D02*
X21533571Y-1523755D01*
X21533571Y-1523755D02*
X21485952Y-1476136D01*
X21485952Y-1476136D02*
X21390714Y-1428517D01*
X21390714Y-1428517D02*
X21343095Y-1428517D01*
X21343095Y-1428517D02*
X21247857Y-1476136D01*
X21247857Y-1476136D02*
X21200238Y-1523755D01*
X21200238Y-1523755D02*
X21152619Y-1618993D01*
X21152619Y-1618993D02*
X21152619Y-1809469D01*
X21152619Y-1809469D02*
X21200238Y-1904707D01*
X21200238Y-1904707D02*
X21247857Y-1952326D01*
X21247857Y-1952326D02*
X21343095Y-1999945D01*
X21343095Y-1999945D02*
X21390714Y-1999945D01*
X21390714Y-1999945D02*
X21485952Y-1952326D01*
X21485952Y-1952326D02*
X21533571Y-1904707D01*
X21533571Y-1904707D02*
X21581190Y-1809469D01*
X21581190Y-1809469D02*
X21581190Y-1618993D01*
X21581190Y-1618993D02*
X21628809Y-1523755D01*
X21628809Y-1523755D02*
X21676428Y-1476136D01*
X21676428Y-1476136D02*
X21771666Y-1428517D01*
X21771666Y-1428517D02*
X21962142Y-1428517D01*
X21962142Y-1428517D02*
X22057380Y-1476136D01*
X22057380Y-1476136D02*
X22105000Y-1523755D01*
X22105000Y-1523755D02*
X22152619Y-1618993D01*
X22152619Y-1618993D02*
X22152619Y-1809469D01*
X22152619Y-1809469D02*
X22105000Y-1904707D01*
X22105000Y-1904707D02*
X22057380Y-1952326D01*
X22057380Y-1952326D02*
X21962142Y-1999945D01*
X21962142Y-1999945D02*
X21771666Y-1999945D01*
X21771666Y-1999945D02*
X21676428Y-1952326D01*
X21676428Y-1952326D02*
X21628809Y-1904707D01*
X21628809Y-1904707D02*
X21581190Y-1809469D01*
X22152619Y-22964580D02*
X22152619Y-22393152D01*
X22152619Y-22678866D02*
X21152619Y-22678866D01*
X21152619Y-22678866D02*
X21295476Y-22583628D01*
X21295476Y-22583628D02*
X21390714Y-22488390D01*
X21390714Y-22488390D02*
X21438333Y-22393152D01*
X21485952Y-23821723D02*
X22152619Y-23821723D01*
X21105000Y-23583628D02*
X21819285Y-23345533D01*
X21819285Y-23345533D02*
X21819285Y-23964580D01*
X24987619Y-6921524D02*
X24987619Y-7112000D01*
X24987619Y-7112000D02*
X24940000Y-7207238D01*
X24940000Y-7207238D02*
X24892380Y-7254857D01*
X24892380Y-7254857D02*
X24749523Y-7350095D01*
X24749523Y-7350095D02*
X24559047Y-7397714D01*
X24559047Y-7397714D02*
X24178095Y-7397714D01*
X24178095Y-7397714D02*
X24082857Y-7350095D01*
X24082857Y-7350095D02*
X24035238Y-7302476D01*
X24035238Y-7302476D02*
X23987619Y-7207238D01*
X23987619Y-7207238D02*
X23987619Y-7016762D01*
X23987619Y-7016762D02*
X24035238Y-6921524D01*
X24035238Y-6921524D02*
X24082857Y-6873905D01*
X24082857Y-6873905D02*
X24178095Y-6826286D01*
X24178095Y-6826286D02*
X24416190Y-6826286D01*
X24416190Y-6826286D02*
X24511428Y-6873905D01*
X24511428Y-6873905D02*
X24559047Y-6921524D01*
X24559047Y-6921524D02*
X24606666Y-7016762D01*
X24606666Y-7016762D02*
X24606666Y-7207238D01*
X24606666Y-7207238D02*
X24559047Y-7302476D01*
X24559047Y-7302476D02*
X24511428Y-7350095D01*
X24511428Y-7350095D02*
X24416190Y-7397714D01*
X24987619Y-9461523D02*
X24987619Y-8890095D01*
X24987619Y-9175809D02*
X23987619Y-9175809D01*
X23987619Y-9175809D02*
X24130476Y-9080571D01*
X24130476Y-9080571D02*
X24225714Y-8985333D01*
X24225714Y-8985333D02*
X24273333Y-8890095D01*
X23987619Y-10080571D02*
X23987619Y-10175809D01*
X23987619Y-10175809D02*
X24035238Y-10271047D01*
X24035238Y-10271047D02*
X24082857Y-10318666D01*
X24082857Y-10318666D02*
X24178095Y-10366285D01*
X24178095Y-10366285D02*
X24368571Y-10413904D01*
X24368571Y-10413904D02*
X24606666Y-10413904D01*
X24606666Y-10413904D02*
X24797142Y-10366285D01*
X24797142Y-10366285D02*
X24892380Y-10318666D01*
X24892380Y-10318666D02*
X24940000Y-10271047D01*
X24940000Y-10271047D02*
X24987619Y-10175809D01*
X24987619Y-10175809D02*
X24987619Y-10080571D01*
X24987619Y-10080571D02*
X24940000Y-9985333D01*
X24940000Y-9985333D02*
X24892380Y-9937714D01*
X24892380Y-9937714D02*
X24797142Y-9890095D01*
X24797142Y-9890095D02*
X24606666Y-9842476D01*
X24606666Y-9842476D02*
X24368571Y-9842476D01*
X24368571Y-9842476D02*
X24178095Y-9890095D01*
X24178095Y-9890095D02*
X24082857Y-9937714D01*
X24082857Y-9937714D02*
X24035238Y-9985333D01*
X24035238Y-9985333D02*
X23987619Y-10080571D01*
X24987619Y-12001523D02*
X24987619Y-11430095D01*
X24987619Y-11715809D02*
X23987619Y-11715809D01*
X23987619Y-11715809D02*
X24130476Y-11620571D01*
X24130476Y-11620571D02*
X24225714Y-11525333D01*
X24225714Y-11525333D02*
X24273333Y-11430095D01*
X24987619Y-12953904D02*
X24987619Y-12382476D01*
X24987619Y-12668190D02*
X23987619Y-12668190D01*
X23987619Y-12668190D02*
X24130476Y-12572952D01*
X24130476Y-12572952D02*
X24225714Y-12477714D01*
X24225714Y-12477714D02*
X24273333Y-12382476D01*
X24987619Y-14541523D02*
X24987619Y-13970095D01*
X24987619Y-14255809D02*
X23987619Y-14255809D01*
X23987619Y-14255809D02*
X24130476Y-14160571D01*
X24130476Y-14160571D02*
X24225714Y-14065333D01*
X24225714Y-14065333D02*
X24273333Y-13970095D01*
X24082857Y-14922476D02*
X24035238Y-14970095D01*
X24035238Y-14970095D02*
X23987619Y-15065333D01*
X23987619Y-15065333D02*
X23987619Y-15303428D01*
X23987619Y-15303428D02*
X24035238Y-15398666D01*
X24035238Y-15398666D02*
X24082857Y-15446285D01*
X24082857Y-15446285D02*
X24178095Y-15493904D01*
X24178095Y-15493904D02*
X24273333Y-15493904D01*
X24273333Y-15493904D02*
X24416190Y-15446285D01*
X24416190Y-15446285D02*
X24987619Y-14874857D01*
X24987619Y-14874857D02*
X24987619Y-15493904D01*
X24987619Y-17041523D02*
X24987619Y-16470095D01*
X24987619Y-16755809D02*
X23987619Y-16755809D01*
X23987619Y-16755809D02*
X24130476Y-16660571D01*
X24130476Y-16660571D02*
X24225714Y-16565333D01*
X24225714Y-16565333D02*
X24273333Y-16470095D01*
X23987619Y-17374857D02*
X23987619Y-17993904D01*
X23987619Y-17993904D02*
X24368571Y-17660571D01*
X24368571Y-17660571D02*
X24368571Y-17803428D01*
X24368571Y-17803428D02*
X24416190Y-17898666D01*
X24416190Y-17898666D02*
X24463809Y-17946285D01*
X24463809Y-17946285D02*
X24559047Y-17993904D01*
X24559047Y-17993904D02*
X24797142Y-17993904D01*
X24797142Y-17993904D02*
X24892380Y-17946285D01*
X24892380Y-17946285D02*
X24940000Y-17898666D01*
X24940000Y-17898666D02*
X24987619Y-17803428D01*
X24987619Y-17803428D02*
X24987619Y-17517714D01*
X24987619Y-17517714D02*
X24940000Y-17422476D01*
X24940000Y-17422476D02*
X24892380Y-17374857D01*
D11*
X167980190Y-24457819D02*
X167980190Y-23457819D01*
X167980190Y-23457819D02*
X167646857Y-24172104D01*
X167646857Y-24172104D02*
X167313524Y-23457819D01*
X167313524Y-23457819D02*
X167313524Y-24457819D01*
X166932571Y-23457819D02*
X166313524Y-23457819D01*
X166313524Y-23457819D02*
X166646857Y-23838771D01*
X166646857Y-23838771D02*
X166504000Y-23838771D01*
X166504000Y-23838771D02*
X166408762Y-23886390D01*
X166408762Y-23886390D02*
X166361143Y-23934009D01*
X166361143Y-23934009D02*
X166313524Y-24029247D01*
X166313524Y-24029247D02*
X166313524Y-24267342D01*
X166313524Y-24267342D02*
X166361143Y-24362580D01*
X166361143Y-24362580D02*
X166408762Y-24410200D01*
X166408762Y-24410200D02*
X166504000Y-24457819D01*
X166504000Y-24457819D02*
X166789714Y-24457819D01*
X166789714Y-24457819D02*
X166884952Y-24410200D01*
X166884952Y-24410200D02*
X166932571Y-24362580D01*
X166123048Y-24553057D02*
X165361143Y-24553057D01*
X164551619Y-24362580D02*
X164599238Y-24410200D01*
X164599238Y-24410200D02*
X164742095Y-24457819D01*
X164742095Y-24457819D02*
X164837333Y-24457819D01*
X164837333Y-24457819D02*
X164980190Y-24410200D01*
X164980190Y-24410200D02*
X165075428Y-24314961D01*
X165075428Y-24314961D02*
X165123047Y-24219723D01*
X165123047Y-24219723D02*
X165170666Y-24029247D01*
X165170666Y-24029247D02*
X165170666Y-23886390D01*
X165170666Y-23886390D02*
X165123047Y-23695914D01*
X165123047Y-23695914D02*
X165075428Y-23600676D01*
X165075428Y-23600676D02*
X164980190Y-23505438D01*
X164980190Y-23505438D02*
X164837333Y-23457819D01*
X164837333Y-23457819D02*
X164742095Y-23457819D01*
X164742095Y-23457819D02*
X164599238Y-23505438D01*
X164599238Y-23505438D02*
X164551619Y-23553057D01*
X163694476Y-24457819D02*
X163694476Y-23934009D01*
X163694476Y-23934009D02*
X163742095Y-23838771D01*
X163742095Y-23838771D02*
X163837333Y-23791152D01*
X163837333Y-23791152D02*
X164027809Y-23791152D01*
X164027809Y-23791152D02*
X164123047Y-23838771D01*
X163694476Y-24410200D02*
X163789714Y-24457819D01*
X163789714Y-24457819D02*
X164027809Y-24457819D01*
X164027809Y-24457819D02*
X164123047Y-24410200D01*
X164123047Y-24410200D02*
X164170666Y-24314961D01*
X164170666Y-24314961D02*
X164170666Y-24219723D01*
X164170666Y-24219723D02*
X164123047Y-24124485D01*
X164123047Y-24124485D02*
X164027809Y-24076866D01*
X164027809Y-24076866D02*
X163789714Y-24076866D01*
X163789714Y-24076866D02*
X163694476Y-24029247D01*
X163265904Y-24410200D02*
X163170666Y-24457819D01*
X163170666Y-24457819D02*
X162980190Y-24457819D01*
X162980190Y-24457819D02*
X162884952Y-24410200D01*
X162884952Y-24410200D02*
X162837333Y-24314961D01*
X162837333Y-24314961D02*
X162837333Y-24267342D01*
X162837333Y-24267342D02*
X162884952Y-24172104D01*
X162884952Y-24172104D02*
X162980190Y-24124485D01*
X162980190Y-24124485D02*
X163123047Y-24124485D01*
X163123047Y-24124485D02*
X163218285Y-24076866D01*
X163218285Y-24076866D02*
X163265904Y-23981628D01*
X163265904Y-23981628D02*
X163265904Y-23934009D01*
X163265904Y-23934009D02*
X163218285Y-23838771D01*
X163218285Y-23838771D02*
X163123047Y-23791152D01*
X163123047Y-23791152D02*
X162980190Y-23791152D01*
X162980190Y-23791152D02*
X162884952Y-23838771D01*
X162027809Y-24410200D02*
X162123047Y-24457819D01*
X162123047Y-24457819D02*
X162313523Y-24457819D01*
X162313523Y-24457819D02*
X162408761Y-24410200D01*
X162408761Y-24410200D02*
X162456380Y-24314961D01*
X162456380Y-24314961D02*
X162456380Y-23934009D01*
X162456380Y-23934009D02*
X162408761Y-23838771D01*
X162408761Y-23838771D02*
X162313523Y-23791152D01*
X162313523Y-23791152D02*
X162123047Y-23791152D01*
X162123047Y-23791152D02*
X162027809Y-23838771D01*
X162027809Y-23838771D02*
X161980190Y-23934009D01*
X161980190Y-23934009D02*
X161980190Y-24029247D01*
X161980190Y-24029247D02*
X162456380Y-24124485D01*
X25119047Y-73304819D02*
X25119047Y-72304819D01*
X25119047Y-72304819D02*
X24785714Y-73019104D01*
X24785714Y-73019104D02*
X24452381Y-72304819D01*
X24452381Y-72304819D02*
X24452381Y-73304819D01*
X24071428Y-72304819D02*
X23452381Y-72304819D01*
X23452381Y-72304819D02*
X23785714Y-72685771D01*
X23785714Y-72685771D02*
X23642857Y-72685771D01*
X23642857Y-72685771D02*
X23547619Y-72733390D01*
X23547619Y-72733390D02*
X23500000Y-72781009D01*
X23500000Y-72781009D02*
X23452381Y-72876247D01*
X23452381Y-72876247D02*
X23452381Y-73114342D01*
X23452381Y-73114342D02*
X23500000Y-73209580D01*
X23500000Y-73209580D02*
X23547619Y-73257200D01*
X23547619Y-73257200D02*
X23642857Y-73304819D01*
X23642857Y-73304819D02*
X23928571Y-73304819D01*
X23928571Y-73304819D02*
X24023809Y-73257200D01*
X24023809Y-73257200D02*
X24071428Y-73209580D01*
X23261905Y-73400057D02*
X22500000Y-73400057D01*
X22261904Y-73304819D02*
X22261904Y-72304819D01*
X22261904Y-72304819D02*
X21880952Y-72304819D01*
X21880952Y-72304819D02*
X21785714Y-72352438D01*
X21785714Y-72352438D02*
X21738095Y-72400057D01*
X21738095Y-72400057D02*
X21690476Y-72495295D01*
X21690476Y-72495295D02*
X21690476Y-72638152D01*
X21690476Y-72638152D02*
X21738095Y-72733390D01*
X21738095Y-72733390D02*
X21785714Y-72781009D01*
X21785714Y-72781009D02*
X21880952Y-72828628D01*
X21880952Y-72828628D02*
X22261904Y-72828628D01*
X21119047Y-73304819D02*
X21214285Y-73257200D01*
X21214285Y-73257200D02*
X21261904Y-73161961D01*
X21261904Y-73161961D02*
X21261904Y-72304819D01*
X20309523Y-73304819D02*
X20309523Y-72781009D01*
X20309523Y-72781009D02*
X20357142Y-72685771D01*
X20357142Y-72685771D02*
X20452380Y-72638152D01*
X20452380Y-72638152D02*
X20642856Y-72638152D01*
X20642856Y-72638152D02*
X20738094Y-72685771D01*
X20309523Y-73257200D02*
X20404761Y-73304819D01*
X20404761Y-73304819D02*
X20642856Y-73304819D01*
X20642856Y-73304819D02*
X20738094Y-73257200D01*
X20738094Y-73257200D02*
X20785713Y-73161961D01*
X20785713Y-73161961D02*
X20785713Y-73066723D01*
X20785713Y-73066723D02*
X20738094Y-72971485D01*
X20738094Y-72971485D02*
X20642856Y-72923866D01*
X20642856Y-72923866D02*
X20404761Y-72923866D01*
X20404761Y-72923866D02*
X20309523Y-72876247D01*
X19976189Y-72638152D02*
X19595237Y-72638152D01*
X19833332Y-72304819D02*
X19833332Y-73161961D01*
X19833332Y-73161961D02*
X19785713Y-73257200D01*
X19785713Y-73257200D02*
X19690475Y-73304819D01*
X19690475Y-73304819D02*
X19595237Y-73304819D01*
X18880951Y-73257200D02*
X18976189Y-73304819D01*
X18976189Y-73304819D02*
X19166665Y-73304819D01*
X19166665Y-73304819D02*
X19261903Y-73257200D01*
X19261903Y-73257200D02*
X19309522Y-73161961D01*
X19309522Y-73161961D02*
X19309522Y-72781009D01*
X19309522Y-72781009D02*
X19261903Y-72685771D01*
X19261903Y-72685771D02*
X19166665Y-72638152D01*
X19166665Y-72638152D02*
X18976189Y-72638152D01*
X18976189Y-72638152D02*
X18880951Y-72685771D01*
X18880951Y-72685771D02*
X18833332Y-72781009D01*
X18833332Y-72781009D02*
X18833332Y-72876247D01*
X18833332Y-72876247D02*
X19309522Y-72971485D01*
X92171447Y-53304819D02*
X92171447Y-52304819D01*
X92171447Y-52304819D02*
X91838114Y-53019104D01*
X91838114Y-53019104D02*
X91504781Y-52304819D01*
X91504781Y-52304819D02*
X91504781Y-53304819D01*
X91123828Y-52304819D02*
X90504781Y-52304819D01*
X90504781Y-52304819D02*
X90838114Y-52685771D01*
X90838114Y-52685771D02*
X90695257Y-52685771D01*
X90695257Y-52685771D02*
X90600019Y-52733390D01*
X90600019Y-52733390D02*
X90552400Y-52781009D01*
X90552400Y-52781009D02*
X90504781Y-52876247D01*
X90504781Y-52876247D02*
X90504781Y-53114342D01*
X90504781Y-53114342D02*
X90552400Y-53209580D01*
X90552400Y-53209580D02*
X90600019Y-53257200D01*
X90600019Y-53257200D02*
X90695257Y-53304819D01*
X90695257Y-53304819D02*
X90980971Y-53304819D01*
X90980971Y-53304819D02*
X91076209Y-53257200D01*
X91076209Y-53257200D02*
X91123828Y-53209580D01*
X90314305Y-53400057D02*
X89552400Y-53400057D01*
X89314304Y-53304819D02*
X89314304Y-52304819D01*
X89314304Y-52304819D02*
X88933352Y-52304819D01*
X88933352Y-52304819D02*
X88838114Y-52352438D01*
X88838114Y-52352438D02*
X88790495Y-52400057D01*
X88790495Y-52400057D02*
X88742876Y-52495295D01*
X88742876Y-52495295D02*
X88742876Y-52638152D01*
X88742876Y-52638152D02*
X88790495Y-52733390D01*
X88790495Y-52733390D02*
X88838114Y-52781009D01*
X88838114Y-52781009D02*
X88933352Y-52828628D01*
X88933352Y-52828628D02*
X89314304Y-52828628D01*
X88171447Y-53304819D02*
X88266685Y-53257200D01*
X88266685Y-53257200D02*
X88314304Y-53161961D01*
X88314304Y-53161961D02*
X88314304Y-52304819D01*
X87361923Y-53304819D02*
X87361923Y-52781009D01*
X87361923Y-52781009D02*
X87409542Y-52685771D01*
X87409542Y-52685771D02*
X87504780Y-52638152D01*
X87504780Y-52638152D02*
X87695256Y-52638152D01*
X87695256Y-52638152D02*
X87790494Y-52685771D01*
X87361923Y-53257200D02*
X87457161Y-53304819D01*
X87457161Y-53304819D02*
X87695256Y-53304819D01*
X87695256Y-53304819D02*
X87790494Y-53257200D01*
X87790494Y-53257200D02*
X87838113Y-53161961D01*
X87838113Y-53161961D02*
X87838113Y-53066723D01*
X87838113Y-53066723D02*
X87790494Y-52971485D01*
X87790494Y-52971485D02*
X87695256Y-52923866D01*
X87695256Y-52923866D02*
X87457161Y-52923866D01*
X87457161Y-52923866D02*
X87361923Y-52876247D01*
X87028589Y-52638152D02*
X86647637Y-52638152D01*
X86885732Y-52304819D02*
X86885732Y-53161961D01*
X86885732Y-53161961D02*
X86838113Y-53257200D01*
X86838113Y-53257200D02*
X86742875Y-53304819D01*
X86742875Y-53304819D02*
X86647637Y-53304819D01*
X85933351Y-53257200D02*
X86028589Y-53304819D01*
X86028589Y-53304819D02*
X86219065Y-53304819D01*
X86219065Y-53304819D02*
X86314303Y-53257200D01*
X86314303Y-53257200D02*
X86361922Y-53161961D01*
X86361922Y-53161961D02*
X86361922Y-52781009D01*
X86361922Y-52781009D02*
X86314303Y-52685771D01*
X86314303Y-52685771D02*
X86219065Y-52638152D01*
X86219065Y-52638152D02*
X86028589Y-52638152D01*
X86028589Y-52638152D02*
X85933351Y-52685771D01*
X85933351Y-52685771D02*
X85885732Y-52781009D01*
X85885732Y-52781009D02*
X85885732Y-52876247D01*
X85885732Y-52876247D02*
X86361922Y-52971485D01*
X40523809Y-92304819D02*
X40523809Y-91304819D01*
X40523809Y-91304819D02*
X40190476Y-92019104D01*
X40190476Y-92019104D02*
X39857143Y-91304819D01*
X39857143Y-91304819D02*
X39857143Y-92304819D01*
X39476190Y-91304819D02*
X38857143Y-91304819D01*
X38857143Y-91304819D02*
X39190476Y-91685771D01*
X39190476Y-91685771D02*
X39047619Y-91685771D01*
X39047619Y-91685771D02*
X38952381Y-91733390D01*
X38952381Y-91733390D02*
X38904762Y-91781009D01*
X38904762Y-91781009D02*
X38857143Y-91876247D01*
X38857143Y-91876247D02*
X38857143Y-92114342D01*
X38857143Y-92114342D02*
X38904762Y-92209580D01*
X38904762Y-92209580D02*
X38952381Y-92257200D01*
X38952381Y-92257200D02*
X39047619Y-92304819D01*
X39047619Y-92304819D02*
X39333333Y-92304819D01*
X39333333Y-92304819D02*
X39428571Y-92257200D01*
X39428571Y-92257200D02*
X39476190Y-92209580D01*
X38666667Y-92400057D02*
X37904762Y-92400057D01*
X37666666Y-92304819D02*
X37666666Y-91304819D01*
X37666666Y-91304819D02*
X37285714Y-91304819D01*
X37285714Y-91304819D02*
X37190476Y-91352438D01*
X37190476Y-91352438D02*
X37142857Y-91400057D01*
X37142857Y-91400057D02*
X37095238Y-91495295D01*
X37095238Y-91495295D02*
X37095238Y-91638152D01*
X37095238Y-91638152D02*
X37142857Y-91733390D01*
X37142857Y-91733390D02*
X37190476Y-91781009D01*
X37190476Y-91781009D02*
X37285714Y-91828628D01*
X37285714Y-91828628D02*
X37666666Y-91828628D01*
X36523809Y-92304819D02*
X36619047Y-92257200D01*
X36619047Y-92257200D02*
X36666666Y-92161961D01*
X36666666Y-92161961D02*
X36666666Y-91304819D01*
X35714285Y-92304819D02*
X35714285Y-91781009D01*
X35714285Y-91781009D02*
X35761904Y-91685771D01*
X35761904Y-91685771D02*
X35857142Y-91638152D01*
X35857142Y-91638152D02*
X36047618Y-91638152D01*
X36047618Y-91638152D02*
X36142856Y-91685771D01*
X35714285Y-92257200D02*
X35809523Y-92304819D01*
X35809523Y-92304819D02*
X36047618Y-92304819D01*
X36047618Y-92304819D02*
X36142856Y-92257200D01*
X36142856Y-92257200D02*
X36190475Y-92161961D01*
X36190475Y-92161961D02*
X36190475Y-92066723D01*
X36190475Y-92066723D02*
X36142856Y-91971485D01*
X36142856Y-91971485D02*
X36047618Y-91923866D01*
X36047618Y-91923866D02*
X35809523Y-91923866D01*
X35809523Y-91923866D02*
X35714285Y-91876247D01*
X35380951Y-91638152D02*
X34999999Y-91638152D01*
X35238094Y-91304819D02*
X35238094Y-92161961D01*
X35238094Y-92161961D02*
X35190475Y-92257200D01*
X35190475Y-92257200D02*
X35095237Y-92304819D01*
X35095237Y-92304819D02*
X34999999Y-92304819D01*
X34285713Y-92257200D02*
X34380951Y-92304819D01*
X34380951Y-92304819D02*
X34571427Y-92304819D01*
X34571427Y-92304819D02*
X34666665Y-92257200D01*
X34666665Y-92257200D02*
X34714284Y-92161961D01*
X34714284Y-92161961D02*
X34714284Y-91781009D01*
X34714284Y-91781009D02*
X34666665Y-91685771D01*
X34666665Y-91685771D02*
X34571427Y-91638152D01*
X34571427Y-91638152D02*
X34380951Y-91638152D01*
X34380951Y-91638152D02*
X34285713Y-91685771D01*
X34285713Y-91685771D02*
X34238094Y-91781009D01*
X34238094Y-91781009D02*
X34238094Y-91876247D01*
X34238094Y-91876247D02*
X34714284Y-91971485D01*
X33809522Y-91923866D02*
X33047618Y-91923866D01*
X33428570Y-92304819D02*
X33428570Y-91542914D01*
X31999999Y-92209580D02*
X32047618Y-92257200D01*
X32047618Y-92257200D02*
X32190475Y-92304819D01*
X32190475Y-92304819D02*
X32285713Y-92304819D01*
X32285713Y-92304819D02*
X32428570Y-92257200D01*
X32428570Y-92257200D02*
X32523808Y-92161961D01*
X32523808Y-92161961D02*
X32571427Y-92066723D01*
X32571427Y-92066723D02*
X32619046Y-91876247D01*
X32619046Y-91876247D02*
X32619046Y-91733390D01*
X32619046Y-91733390D02*
X32571427Y-91542914D01*
X32571427Y-91542914D02*
X32523808Y-91447676D01*
X32523808Y-91447676D02*
X32428570Y-91352438D01*
X32428570Y-91352438D02*
X32285713Y-91304819D01*
X32285713Y-91304819D02*
X32190475Y-91304819D01*
X32190475Y-91304819D02*
X32047618Y-91352438D01*
X32047618Y-91352438D02*
X31999999Y-91400057D01*
X31142856Y-92304819D02*
X31142856Y-91781009D01*
X31142856Y-91781009D02*
X31190475Y-91685771D01*
X31190475Y-91685771D02*
X31285713Y-91638152D01*
X31285713Y-91638152D02*
X31476189Y-91638152D01*
X31476189Y-91638152D02*
X31571427Y-91685771D01*
X31142856Y-92257200D02*
X31238094Y-92304819D01*
X31238094Y-92304819D02*
X31476189Y-92304819D01*
X31476189Y-92304819D02*
X31571427Y-92257200D01*
X31571427Y-92257200D02*
X31619046Y-92161961D01*
X31619046Y-92161961D02*
X31619046Y-92066723D01*
X31619046Y-92066723D02*
X31571427Y-91971485D01*
X31571427Y-91971485D02*
X31476189Y-91923866D01*
X31476189Y-91923866D02*
X31238094Y-91923866D01*
X31238094Y-91923866D02*
X31142856Y-91876247D01*
X30714284Y-92257200D02*
X30619046Y-92304819D01*
X30619046Y-92304819D02*
X30428570Y-92304819D01*
X30428570Y-92304819D02*
X30333332Y-92257200D01*
X30333332Y-92257200D02*
X30285713Y-92161961D01*
X30285713Y-92161961D02*
X30285713Y-92114342D01*
X30285713Y-92114342D02*
X30333332Y-92019104D01*
X30333332Y-92019104D02*
X30428570Y-91971485D01*
X30428570Y-91971485D02*
X30571427Y-91971485D01*
X30571427Y-91971485D02*
X30666665Y-91923866D01*
X30666665Y-91923866D02*
X30714284Y-91828628D01*
X30714284Y-91828628D02*
X30714284Y-91781009D01*
X30714284Y-91781009D02*
X30666665Y-91685771D01*
X30666665Y-91685771D02*
X30571427Y-91638152D01*
X30571427Y-91638152D02*
X30428570Y-91638152D01*
X30428570Y-91638152D02*
X30333332Y-91685771D01*
X29476189Y-92257200D02*
X29571427Y-92304819D01*
X29571427Y-92304819D02*
X29761903Y-92304819D01*
X29761903Y-92304819D02*
X29857141Y-92257200D01*
X29857141Y-92257200D02*
X29904760Y-92161961D01*
X29904760Y-92161961D02*
X29904760Y-91781009D01*
X29904760Y-91781009D02*
X29857141Y-91685771D01*
X29857141Y-91685771D02*
X29761903Y-91638152D01*
X29761903Y-91638152D02*
X29571427Y-91638152D01*
X29571427Y-91638152D02*
X29476189Y-91685771D01*
X29476189Y-91685771D02*
X29428570Y-91781009D01*
X29428570Y-91781009D02*
X29428570Y-91876247D01*
X29428570Y-91876247D02*
X29904760Y-91971485D01*
X42702219Y-60129809D02*
X41702219Y-60129809D01*
X42654600Y-60129809D02*
X42702219Y-60034571D01*
X42702219Y-60034571D02*
X42702219Y-59844095D01*
X42702219Y-59844095D02*
X42654600Y-59748857D01*
X42654600Y-59748857D02*
X42606980Y-59701238D01*
X42606980Y-59701238D02*
X42511742Y-59653619D01*
X42511742Y-59653619D02*
X42226028Y-59653619D01*
X42226028Y-59653619D02*
X42130790Y-59701238D01*
X42130790Y-59701238D02*
X42083171Y-59748857D01*
X42083171Y-59748857D02*
X42035552Y-59844095D01*
X42035552Y-59844095D02*
X42035552Y-60034571D01*
X42035552Y-60034571D02*
X42083171Y-60129809D01*
X42702219Y-60606000D02*
X42035552Y-60606000D01*
X41702219Y-60606000D02*
X41749838Y-60558381D01*
X41749838Y-60558381D02*
X41797457Y-60606000D01*
X41797457Y-60606000D02*
X41749838Y-60653619D01*
X41749838Y-60653619D02*
X41702219Y-60606000D01*
X41702219Y-60606000D02*
X41797457Y-60606000D01*
X42702219Y-61225047D02*
X42654600Y-61129809D01*
X42654600Y-61129809D02*
X42606980Y-61082190D01*
X42606980Y-61082190D02*
X42511742Y-61034571D01*
X42511742Y-61034571D02*
X42226028Y-61034571D01*
X42226028Y-61034571D02*
X42130790Y-61082190D01*
X42130790Y-61082190D02*
X42083171Y-61129809D01*
X42083171Y-61129809D02*
X42035552Y-61225047D01*
X42035552Y-61225047D02*
X42035552Y-61367904D01*
X42035552Y-61367904D02*
X42083171Y-61463142D01*
X42083171Y-61463142D02*
X42130790Y-61510761D01*
X42130790Y-61510761D02*
X42226028Y-61558380D01*
X42226028Y-61558380D02*
X42511742Y-61558380D01*
X42511742Y-61558380D02*
X42606980Y-61510761D01*
X42606980Y-61510761D02*
X42654600Y-61463142D01*
X42654600Y-61463142D02*
X42702219Y-61367904D01*
X42702219Y-61367904D02*
X42702219Y-61225047D01*
X42702219Y-62415523D02*
X41702219Y-62415523D01*
X42654600Y-62415523D02*
X42702219Y-62320285D01*
X42702219Y-62320285D02*
X42702219Y-62129809D01*
X42702219Y-62129809D02*
X42654600Y-62034571D01*
X42654600Y-62034571D02*
X42606980Y-61986952D01*
X42606980Y-61986952D02*
X42511742Y-61939333D01*
X42511742Y-61939333D02*
X42226028Y-61939333D01*
X42226028Y-61939333D02*
X42130790Y-61986952D01*
X42130790Y-61986952D02*
X42083171Y-62034571D01*
X42083171Y-62034571D02*
X42035552Y-62129809D01*
X42035552Y-62129809D02*
X42035552Y-62320285D01*
X42035552Y-62320285D02*
X42083171Y-62415523D01*
X42654600Y-63272666D02*
X42702219Y-63177428D01*
X42702219Y-63177428D02*
X42702219Y-62986952D01*
X42702219Y-62986952D02*
X42654600Y-62891714D01*
X42654600Y-62891714D02*
X42559361Y-62844095D01*
X42559361Y-62844095D02*
X42178409Y-62844095D01*
X42178409Y-62844095D02*
X42083171Y-62891714D01*
X42083171Y-62891714D02*
X42035552Y-62986952D01*
X42035552Y-62986952D02*
X42035552Y-63177428D01*
X42035552Y-63177428D02*
X42083171Y-63272666D01*
X42083171Y-63272666D02*
X42178409Y-63320285D01*
X42178409Y-63320285D02*
X42273647Y-63320285D01*
X42273647Y-63320285D02*
X42368885Y-62844095D01*
X42035552Y-64510762D02*
X42321266Y-63748857D01*
X42321266Y-63748857D02*
X42606980Y-64510762D01*
X23559719Y-40993759D02*
X22559719Y-40993759D01*
X23512100Y-40993759D02*
X23559719Y-40898521D01*
X23559719Y-40898521D02*
X23559719Y-40708045D01*
X23559719Y-40708045D02*
X23512100Y-40612807D01*
X23512100Y-40612807D02*
X23464480Y-40565188D01*
X23464480Y-40565188D02*
X23369242Y-40517569D01*
X23369242Y-40517569D02*
X23083528Y-40517569D01*
X23083528Y-40517569D02*
X22988290Y-40565188D01*
X22988290Y-40565188D02*
X22940671Y-40612807D01*
X22940671Y-40612807D02*
X22893052Y-40708045D01*
X22893052Y-40708045D02*
X22893052Y-40898521D01*
X22893052Y-40898521D02*
X22940671Y-40993759D01*
X23559719Y-41469950D02*
X22893052Y-41469950D01*
X22559719Y-41469950D02*
X22607338Y-41422331D01*
X22607338Y-41422331D02*
X22654957Y-41469950D01*
X22654957Y-41469950D02*
X22607338Y-41517569D01*
X22607338Y-41517569D02*
X22559719Y-41469950D01*
X22559719Y-41469950D02*
X22654957Y-41469950D01*
X23559719Y-42088997D02*
X23512100Y-41993759D01*
X23512100Y-41993759D02*
X23464480Y-41946140D01*
X23464480Y-41946140D02*
X23369242Y-41898521D01*
X23369242Y-41898521D02*
X23083528Y-41898521D01*
X23083528Y-41898521D02*
X22988290Y-41946140D01*
X22988290Y-41946140D02*
X22940671Y-41993759D01*
X22940671Y-41993759D02*
X22893052Y-42088997D01*
X22893052Y-42088997D02*
X22893052Y-42231854D01*
X22893052Y-42231854D02*
X22940671Y-42327092D01*
X22940671Y-42327092D02*
X22988290Y-42374711D01*
X22988290Y-42374711D02*
X23083528Y-42422330D01*
X23083528Y-42422330D02*
X23369242Y-42422330D01*
X23369242Y-42422330D02*
X23464480Y-42374711D01*
X23464480Y-42374711D02*
X23512100Y-42327092D01*
X23512100Y-42327092D02*
X23559719Y-42231854D01*
X23559719Y-42231854D02*
X23559719Y-42088997D01*
X23559719Y-43279473D02*
X22559719Y-43279473D01*
X23512100Y-43279473D02*
X23559719Y-43184235D01*
X23559719Y-43184235D02*
X23559719Y-42993759D01*
X23559719Y-42993759D02*
X23512100Y-42898521D01*
X23512100Y-42898521D02*
X23464480Y-42850902D01*
X23464480Y-42850902D02*
X23369242Y-42803283D01*
X23369242Y-42803283D02*
X23083528Y-42803283D01*
X23083528Y-42803283D02*
X22988290Y-42850902D01*
X22988290Y-42850902D02*
X22940671Y-42898521D01*
X22940671Y-42898521D02*
X22893052Y-42993759D01*
X22893052Y-42993759D02*
X22893052Y-43184235D01*
X22893052Y-43184235D02*
X22940671Y-43279473D01*
X23512100Y-44136616D02*
X23559719Y-44041378D01*
X23559719Y-44041378D02*
X23559719Y-43850902D01*
X23559719Y-43850902D02*
X23512100Y-43755664D01*
X23512100Y-43755664D02*
X23416861Y-43708045D01*
X23416861Y-43708045D02*
X23035909Y-43708045D01*
X23035909Y-43708045D02*
X22940671Y-43755664D01*
X22940671Y-43755664D02*
X22893052Y-43850902D01*
X22893052Y-43850902D02*
X22893052Y-44041378D01*
X22893052Y-44041378D02*
X22940671Y-44136616D01*
X22940671Y-44136616D02*
X23035909Y-44184235D01*
X23035909Y-44184235D02*
X23131147Y-44184235D01*
X23131147Y-44184235D02*
X23226385Y-43708045D01*
X22893052Y-45374712D02*
X23178766Y-44612807D01*
X23178766Y-44612807D02*
X23464480Y-45374712D01*
X61752219Y-60129809D02*
X60752219Y-60129809D01*
X61704600Y-60129809D02*
X61752219Y-60034571D01*
X61752219Y-60034571D02*
X61752219Y-59844095D01*
X61752219Y-59844095D02*
X61704600Y-59748857D01*
X61704600Y-59748857D02*
X61656980Y-59701238D01*
X61656980Y-59701238D02*
X61561742Y-59653619D01*
X61561742Y-59653619D02*
X61276028Y-59653619D01*
X61276028Y-59653619D02*
X61180790Y-59701238D01*
X61180790Y-59701238D02*
X61133171Y-59748857D01*
X61133171Y-59748857D02*
X61085552Y-59844095D01*
X61085552Y-59844095D02*
X61085552Y-60034571D01*
X61085552Y-60034571D02*
X61133171Y-60129809D01*
X61752219Y-60606000D02*
X61085552Y-60606000D01*
X60752219Y-60606000D02*
X60799838Y-60558381D01*
X60799838Y-60558381D02*
X60847457Y-60606000D01*
X60847457Y-60606000D02*
X60799838Y-60653619D01*
X60799838Y-60653619D02*
X60752219Y-60606000D01*
X60752219Y-60606000D02*
X60847457Y-60606000D01*
X61752219Y-61225047D02*
X61704600Y-61129809D01*
X61704600Y-61129809D02*
X61656980Y-61082190D01*
X61656980Y-61082190D02*
X61561742Y-61034571D01*
X61561742Y-61034571D02*
X61276028Y-61034571D01*
X61276028Y-61034571D02*
X61180790Y-61082190D01*
X61180790Y-61082190D02*
X61133171Y-61129809D01*
X61133171Y-61129809D02*
X61085552Y-61225047D01*
X61085552Y-61225047D02*
X61085552Y-61367904D01*
X61085552Y-61367904D02*
X61133171Y-61463142D01*
X61133171Y-61463142D02*
X61180790Y-61510761D01*
X61180790Y-61510761D02*
X61276028Y-61558380D01*
X61276028Y-61558380D02*
X61561742Y-61558380D01*
X61561742Y-61558380D02*
X61656980Y-61510761D01*
X61656980Y-61510761D02*
X61704600Y-61463142D01*
X61704600Y-61463142D02*
X61752219Y-61367904D01*
X61752219Y-61367904D02*
X61752219Y-61225047D01*
X61752219Y-62415523D02*
X60752219Y-62415523D01*
X61704600Y-62415523D02*
X61752219Y-62320285D01*
X61752219Y-62320285D02*
X61752219Y-62129809D01*
X61752219Y-62129809D02*
X61704600Y-62034571D01*
X61704600Y-62034571D02*
X61656980Y-61986952D01*
X61656980Y-61986952D02*
X61561742Y-61939333D01*
X61561742Y-61939333D02*
X61276028Y-61939333D01*
X61276028Y-61939333D02*
X61180790Y-61986952D01*
X61180790Y-61986952D02*
X61133171Y-62034571D01*
X61133171Y-62034571D02*
X61085552Y-62129809D01*
X61085552Y-62129809D02*
X61085552Y-62320285D01*
X61085552Y-62320285D02*
X61133171Y-62415523D01*
X61704600Y-63272666D02*
X61752219Y-63177428D01*
X61752219Y-63177428D02*
X61752219Y-62986952D01*
X61752219Y-62986952D02*
X61704600Y-62891714D01*
X61704600Y-62891714D02*
X61609361Y-62844095D01*
X61609361Y-62844095D02*
X61228409Y-62844095D01*
X61228409Y-62844095D02*
X61133171Y-62891714D01*
X61133171Y-62891714D02*
X61085552Y-62986952D01*
X61085552Y-62986952D02*
X61085552Y-63177428D01*
X61085552Y-63177428D02*
X61133171Y-63272666D01*
X61133171Y-63272666D02*
X61228409Y-63320285D01*
X61228409Y-63320285D02*
X61323647Y-63320285D01*
X61323647Y-63320285D02*
X61418885Y-62844095D01*
X61085552Y-64510762D02*
X61371266Y-63748857D01*
X61371266Y-63748857D02*
X61656980Y-64510762D01*
X119022019Y-60126809D02*
X118022019Y-60126809D01*
X118974400Y-60126809D02*
X119022019Y-60031571D01*
X119022019Y-60031571D02*
X119022019Y-59841095D01*
X119022019Y-59841095D02*
X118974400Y-59745857D01*
X118974400Y-59745857D02*
X118926780Y-59698238D01*
X118926780Y-59698238D02*
X118831542Y-59650619D01*
X118831542Y-59650619D02*
X118545828Y-59650619D01*
X118545828Y-59650619D02*
X118450590Y-59698238D01*
X118450590Y-59698238D02*
X118402971Y-59745857D01*
X118402971Y-59745857D02*
X118355352Y-59841095D01*
X118355352Y-59841095D02*
X118355352Y-60031571D01*
X118355352Y-60031571D02*
X118402971Y-60126809D01*
X119022019Y-60603000D02*
X118355352Y-60603000D01*
X118022019Y-60603000D02*
X118069638Y-60555381D01*
X118069638Y-60555381D02*
X118117257Y-60603000D01*
X118117257Y-60603000D02*
X118069638Y-60650619D01*
X118069638Y-60650619D02*
X118022019Y-60603000D01*
X118022019Y-60603000D02*
X118117257Y-60603000D01*
X119022019Y-61222047D02*
X118974400Y-61126809D01*
X118974400Y-61126809D02*
X118926780Y-61079190D01*
X118926780Y-61079190D02*
X118831542Y-61031571D01*
X118831542Y-61031571D02*
X118545828Y-61031571D01*
X118545828Y-61031571D02*
X118450590Y-61079190D01*
X118450590Y-61079190D02*
X118402971Y-61126809D01*
X118402971Y-61126809D02*
X118355352Y-61222047D01*
X118355352Y-61222047D02*
X118355352Y-61364904D01*
X118355352Y-61364904D02*
X118402971Y-61460142D01*
X118402971Y-61460142D02*
X118450590Y-61507761D01*
X118450590Y-61507761D02*
X118545828Y-61555380D01*
X118545828Y-61555380D02*
X118831542Y-61555380D01*
X118831542Y-61555380D02*
X118926780Y-61507761D01*
X118926780Y-61507761D02*
X118974400Y-61460142D01*
X118974400Y-61460142D02*
X119022019Y-61364904D01*
X119022019Y-61364904D02*
X119022019Y-61222047D01*
X119022019Y-62412523D02*
X118022019Y-62412523D01*
X118974400Y-62412523D02*
X119022019Y-62317285D01*
X119022019Y-62317285D02*
X119022019Y-62126809D01*
X119022019Y-62126809D02*
X118974400Y-62031571D01*
X118974400Y-62031571D02*
X118926780Y-61983952D01*
X118926780Y-61983952D02*
X118831542Y-61936333D01*
X118831542Y-61936333D02*
X118545828Y-61936333D01*
X118545828Y-61936333D02*
X118450590Y-61983952D01*
X118450590Y-61983952D02*
X118402971Y-62031571D01*
X118402971Y-62031571D02*
X118355352Y-62126809D01*
X118355352Y-62126809D02*
X118355352Y-62317285D01*
X118355352Y-62317285D02*
X118402971Y-62412523D01*
X118974400Y-63269666D02*
X119022019Y-63174428D01*
X119022019Y-63174428D02*
X119022019Y-62983952D01*
X119022019Y-62983952D02*
X118974400Y-62888714D01*
X118974400Y-62888714D02*
X118879161Y-62841095D01*
X118879161Y-62841095D02*
X118498209Y-62841095D01*
X118498209Y-62841095D02*
X118402971Y-62888714D01*
X118402971Y-62888714D02*
X118355352Y-62983952D01*
X118355352Y-62983952D02*
X118355352Y-63174428D01*
X118355352Y-63174428D02*
X118402971Y-63269666D01*
X118402971Y-63269666D02*
X118498209Y-63317285D01*
X118498209Y-63317285D02*
X118593447Y-63317285D01*
X118593447Y-63317285D02*
X118688685Y-62841095D01*
X118355352Y-64507762D02*
X118641066Y-63745857D01*
X118641066Y-63745857D02*
X118926780Y-64507762D01*
X138122819Y-41079809D02*
X137122819Y-41079809D01*
X138075200Y-41079809D02*
X138122819Y-40984571D01*
X138122819Y-40984571D02*
X138122819Y-40794095D01*
X138122819Y-40794095D02*
X138075200Y-40698857D01*
X138075200Y-40698857D02*
X138027580Y-40651238D01*
X138027580Y-40651238D02*
X137932342Y-40603619D01*
X137932342Y-40603619D02*
X137646628Y-40603619D01*
X137646628Y-40603619D02*
X137551390Y-40651238D01*
X137551390Y-40651238D02*
X137503771Y-40698857D01*
X137503771Y-40698857D02*
X137456152Y-40794095D01*
X137456152Y-40794095D02*
X137456152Y-40984571D01*
X137456152Y-40984571D02*
X137503771Y-41079809D01*
X138122819Y-41556000D02*
X137456152Y-41556000D01*
X137122819Y-41556000D02*
X137170438Y-41508381D01*
X137170438Y-41508381D02*
X137218057Y-41556000D01*
X137218057Y-41556000D02*
X137170438Y-41603619D01*
X137170438Y-41603619D02*
X137122819Y-41556000D01*
X137122819Y-41556000D02*
X137218057Y-41556000D01*
X138122819Y-42175047D02*
X138075200Y-42079809D01*
X138075200Y-42079809D02*
X138027580Y-42032190D01*
X138027580Y-42032190D02*
X137932342Y-41984571D01*
X137932342Y-41984571D02*
X137646628Y-41984571D01*
X137646628Y-41984571D02*
X137551390Y-42032190D01*
X137551390Y-42032190D02*
X137503771Y-42079809D01*
X137503771Y-42079809D02*
X137456152Y-42175047D01*
X137456152Y-42175047D02*
X137456152Y-42317904D01*
X137456152Y-42317904D02*
X137503771Y-42413142D01*
X137503771Y-42413142D02*
X137551390Y-42460761D01*
X137551390Y-42460761D02*
X137646628Y-42508380D01*
X137646628Y-42508380D02*
X137932342Y-42508380D01*
X137932342Y-42508380D02*
X138027580Y-42460761D01*
X138027580Y-42460761D02*
X138075200Y-42413142D01*
X138075200Y-42413142D02*
X138122819Y-42317904D01*
X138122819Y-42317904D02*
X138122819Y-42175047D01*
X138122819Y-43365523D02*
X137122819Y-43365523D01*
X138075200Y-43365523D02*
X138122819Y-43270285D01*
X138122819Y-43270285D02*
X138122819Y-43079809D01*
X138122819Y-43079809D02*
X138075200Y-42984571D01*
X138075200Y-42984571D02*
X138027580Y-42936952D01*
X138027580Y-42936952D02*
X137932342Y-42889333D01*
X137932342Y-42889333D02*
X137646628Y-42889333D01*
X137646628Y-42889333D02*
X137551390Y-42936952D01*
X137551390Y-42936952D02*
X137503771Y-42984571D01*
X137503771Y-42984571D02*
X137456152Y-43079809D01*
X137456152Y-43079809D02*
X137456152Y-43270285D01*
X137456152Y-43270285D02*
X137503771Y-43365523D01*
X138075200Y-44222666D02*
X138122819Y-44127428D01*
X138122819Y-44127428D02*
X138122819Y-43936952D01*
X138122819Y-43936952D02*
X138075200Y-43841714D01*
X138075200Y-43841714D02*
X137979961Y-43794095D01*
X137979961Y-43794095D02*
X137599009Y-43794095D01*
X137599009Y-43794095D02*
X137503771Y-43841714D01*
X137503771Y-43841714D02*
X137456152Y-43936952D01*
X137456152Y-43936952D02*
X137456152Y-44127428D01*
X137456152Y-44127428D02*
X137503771Y-44222666D01*
X137503771Y-44222666D02*
X137599009Y-44270285D01*
X137599009Y-44270285D02*
X137694247Y-44270285D01*
X137694247Y-44270285D02*
X137789485Y-43794095D01*
X137456152Y-45460762D02*
X137741866Y-44698857D01*
X137741866Y-44698857D02*
X138027580Y-45460762D01*
X4602219Y-60129809D02*
X3602219Y-60129809D01*
X4554600Y-60129809D02*
X4602219Y-60034571D01*
X4602219Y-60034571D02*
X4602219Y-59844095D01*
X4602219Y-59844095D02*
X4554600Y-59748857D01*
X4554600Y-59748857D02*
X4506980Y-59701238D01*
X4506980Y-59701238D02*
X4411742Y-59653619D01*
X4411742Y-59653619D02*
X4126028Y-59653619D01*
X4126028Y-59653619D02*
X4030790Y-59701238D01*
X4030790Y-59701238D02*
X3983171Y-59748857D01*
X3983171Y-59748857D02*
X3935552Y-59844095D01*
X3935552Y-59844095D02*
X3935552Y-60034571D01*
X3935552Y-60034571D02*
X3983171Y-60129809D01*
X4602219Y-60606000D02*
X3935552Y-60606000D01*
X3602219Y-60606000D02*
X3649838Y-60558381D01*
X3649838Y-60558381D02*
X3697457Y-60606000D01*
X3697457Y-60606000D02*
X3649838Y-60653619D01*
X3649838Y-60653619D02*
X3602219Y-60606000D01*
X3602219Y-60606000D02*
X3697457Y-60606000D01*
X4602219Y-61225047D02*
X4554600Y-61129809D01*
X4554600Y-61129809D02*
X4506980Y-61082190D01*
X4506980Y-61082190D02*
X4411742Y-61034571D01*
X4411742Y-61034571D02*
X4126028Y-61034571D01*
X4126028Y-61034571D02*
X4030790Y-61082190D01*
X4030790Y-61082190D02*
X3983171Y-61129809D01*
X3983171Y-61129809D02*
X3935552Y-61225047D01*
X3935552Y-61225047D02*
X3935552Y-61367904D01*
X3935552Y-61367904D02*
X3983171Y-61463142D01*
X3983171Y-61463142D02*
X4030790Y-61510761D01*
X4030790Y-61510761D02*
X4126028Y-61558380D01*
X4126028Y-61558380D02*
X4411742Y-61558380D01*
X4411742Y-61558380D02*
X4506980Y-61510761D01*
X4506980Y-61510761D02*
X4554600Y-61463142D01*
X4554600Y-61463142D02*
X4602219Y-61367904D01*
X4602219Y-61367904D02*
X4602219Y-61225047D01*
X4602219Y-62415523D02*
X3602219Y-62415523D01*
X4554600Y-62415523D02*
X4602219Y-62320285D01*
X4602219Y-62320285D02*
X4602219Y-62129809D01*
X4602219Y-62129809D02*
X4554600Y-62034571D01*
X4554600Y-62034571D02*
X4506980Y-61986952D01*
X4506980Y-61986952D02*
X4411742Y-61939333D01*
X4411742Y-61939333D02*
X4126028Y-61939333D01*
X4126028Y-61939333D02*
X4030790Y-61986952D01*
X4030790Y-61986952D02*
X3983171Y-62034571D01*
X3983171Y-62034571D02*
X3935552Y-62129809D01*
X3935552Y-62129809D02*
X3935552Y-62320285D01*
X3935552Y-62320285D02*
X3983171Y-62415523D01*
X4554600Y-63272666D02*
X4602219Y-63177428D01*
X4602219Y-63177428D02*
X4602219Y-62986952D01*
X4602219Y-62986952D02*
X4554600Y-62891714D01*
X4554600Y-62891714D02*
X4459361Y-62844095D01*
X4459361Y-62844095D02*
X4078409Y-62844095D01*
X4078409Y-62844095D02*
X3983171Y-62891714D01*
X3983171Y-62891714D02*
X3935552Y-62986952D01*
X3935552Y-62986952D02*
X3935552Y-63177428D01*
X3935552Y-63177428D02*
X3983171Y-63272666D01*
X3983171Y-63272666D02*
X4078409Y-63320285D01*
X4078409Y-63320285D02*
X4173647Y-63320285D01*
X4173647Y-63320285D02*
X4268885Y-62844095D01*
X3935552Y-64510762D02*
X4221266Y-63748857D01*
X4221266Y-63748857D02*
X4506980Y-64510762D01*
X23652219Y-60129809D02*
X22652219Y-60129809D01*
X23604600Y-60129809D02*
X23652219Y-60034571D01*
X23652219Y-60034571D02*
X23652219Y-59844095D01*
X23652219Y-59844095D02*
X23604600Y-59748857D01*
X23604600Y-59748857D02*
X23556980Y-59701238D01*
X23556980Y-59701238D02*
X23461742Y-59653619D01*
X23461742Y-59653619D02*
X23176028Y-59653619D01*
X23176028Y-59653619D02*
X23080790Y-59701238D01*
X23080790Y-59701238D02*
X23033171Y-59748857D01*
X23033171Y-59748857D02*
X22985552Y-59844095D01*
X22985552Y-59844095D02*
X22985552Y-60034571D01*
X22985552Y-60034571D02*
X23033171Y-60129809D01*
X23652219Y-60606000D02*
X22985552Y-60606000D01*
X22652219Y-60606000D02*
X22699838Y-60558381D01*
X22699838Y-60558381D02*
X22747457Y-60606000D01*
X22747457Y-60606000D02*
X22699838Y-60653619D01*
X22699838Y-60653619D02*
X22652219Y-60606000D01*
X22652219Y-60606000D02*
X22747457Y-60606000D01*
X23652219Y-61225047D02*
X23604600Y-61129809D01*
X23604600Y-61129809D02*
X23556980Y-61082190D01*
X23556980Y-61082190D02*
X23461742Y-61034571D01*
X23461742Y-61034571D02*
X23176028Y-61034571D01*
X23176028Y-61034571D02*
X23080790Y-61082190D01*
X23080790Y-61082190D02*
X23033171Y-61129809D01*
X23033171Y-61129809D02*
X22985552Y-61225047D01*
X22985552Y-61225047D02*
X22985552Y-61367904D01*
X22985552Y-61367904D02*
X23033171Y-61463142D01*
X23033171Y-61463142D02*
X23080790Y-61510761D01*
X23080790Y-61510761D02*
X23176028Y-61558380D01*
X23176028Y-61558380D02*
X23461742Y-61558380D01*
X23461742Y-61558380D02*
X23556980Y-61510761D01*
X23556980Y-61510761D02*
X23604600Y-61463142D01*
X23604600Y-61463142D02*
X23652219Y-61367904D01*
X23652219Y-61367904D02*
X23652219Y-61225047D01*
X23652219Y-62415523D02*
X22652219Y-62415523D01*
X23604600Y-62415523D02*
X23652219Y-62320285D01*
X23652219Y-62320285D02*
X23652219Y-62129809D01*
X23652219Y-62129809D02*
X23604600Y-62034571D01*
X23604600Y-62034571D02*
X23556980Y-61986952D01*
X23556980Y-61986952D02*
X23461742Y-61939333D01*
X23461742Y-61939333D02*
X23176028Y-61939333D01*
X23176028Y-61939333D02*
X23080790Y-61986952D01*
X23080790Y-61986952D02*
X23033171Y-62034571D01*
X23033171Y-62034571D02*
X22985552Y-62129809D01*
X22985552Y-62129809D02*
X22985552Y-62320285D01*
X22985552Y-62320285D02*
X23033171Y-62415523D01*
X23604600Y-63272666D02*
X23652219Y-63177428D01*
X23652219Y-63177428D02*
X23652219Y-62986952D01*
X23652219Y-62986952D02*
X23604600Y-62891714D01*
X23604600Y-62891714D02*
X23509361Y-62844095D01*
X23509361Y-62844095D02*
X23128409Y-62844095D01*
X23128409Y-62844095D02*
X23033171Y-62891714D01*
X23033171Y-62891714D02*
X22985552Y-62986952D01*
X22985552Y-62986952D02*
X22985552Y-63177428D01*
X22985552Y-63177428D02*
X23033171Y-63272666D01*
X23033171Y-63272666D02*
X23128409Y-63320285D01*
X23128409Y-63320285D02*
X23223647Y-63320285D01*
X23223647Y-63320285D02*
X23318885Y-62844095D01*
X22985552Y-64510762D02*
X23271266Y-63748857D01*
X23271266Y-63748857D02*
X23556980Y-64510762D01*
X138072019Y-60126809D02*
X137072019Y-60126809D01*
X138024400Y-60126809D02*
X138072019Y-60031571D01*
X138072019Y-60031571D02*
X138072019Y-59841095D01*
X138072019Y-59841095D02*
X138024400Y-59745857D01*
X138024400Y-59745857D02*
X137976780Y-59698238D01*
X137976780Y-59698238D02*
X137881542Y-59650619D01*
X137881542Y-59650619D02*
X137595828Y-59650619D01*
X137595828Y-59650619D02*
X137500590Y-59698238D01*
X137500590Y-59698238D02*
X137452971Y-59745857D01*
X137452971Y-59745857D02*
X137405352Y-59841095D01*
X137405352Y-59841095D02*
X137405352Y-60031571D01*
X137405352Y-60031571D02*
X137452971Y-60126809D01*
X138072019Y-60603000D02*
X137405352Y-60603000D01*
X137072019Y-60603000D02*
X137119638Y-60555381D01*
X137119638Y-60555381D02*
X137167257Y-60603000D01*
X137167257Y-60603000D02*
X137119638Y-60650619D01*
X137119638Y-60650619D02*
X137072019Y-60603000D01*
X137072019Y-60603000D02*
X137167257Y-60603000D01*
X138072019Y-61222047D02*
X138024400Y-61126809D01*
X138024400Y-61126809D02*
X137976780Y-61079190D01*
X137976780Y-61079190D02*
X137881542Y-61031571D01*
X137881542Y-61031571D02*
X137595828Y-61031571D01*
X137595828Y-61031571D02*
X137500590Y-61079190D01*
X137500590Y-61079190D02*
X137452971Y-61126809D01*
X137452971Y-61126809D02*
X137405352Y-61222047D01*
X137405352Y-61222047D02*
X137405352Y-61364904D01*
X137405352Y-61364904D02*
X137452971Y-61460142D01*
X137452971Y-61460142D02*
X137500590Y-61507761D01*
X137500590Y-61507761D02*
X137595828Y-61555380D01*
X137595828Y-61555380D02*
X137881542Y-61555380D01*
X137881542Y-61555380D02*
X137976780Y-61507761D01*
X137976780Y-61507761D02*
X138024400Y-61460142D01*
X138024400Y-61460142D02*
X138072019Y-61364904D01*
X138072019Y-61364904D02*
X138072019Y-61222047D01*
X138072019Y-62412523D02*
X137072019Y-62412523D01*
X138024400Y-62412523D02*
X138072019Y-62317285D01*
X138072019Y-62317285D02*
X138072019Y-62126809D01*
X138072019Y-62126809D02*
X138024400Y-62031571D01*
X138024400Y-62031571D02*
X137976780Y-61983952D01*
X137976780Y-61983952D02*
X137881542Y-61936333D01*
X137881542Y-61936333D02*
X137595828Y-61936333D01*
X137595828Y-61936333D02*
X137500590Y-61983952D01*
X137500590Y-61983952D02*
X137452971Y-62031571D01*
X137452971Y-62031571D02*
X137405352Y-62126809D01*
X137405352Y-62126809D02*
X137405352Y-62317285D01*
X137405352Y-62317285D02*
X137452971Y-62412523D01*
X138024400Y-63269666D02*
X138072019Y-63174428D01*
X138072019Y-63174428D02*
X138072019Y-62983952D01*
X138072019Y-62983952D02*
X138024400Y-62888714D01*
X138024400Y-62888714D02*
X137929161Y-62841095D01*
X137929161Y-62841095D02*
X137548209Y-62841095D01*
X137548209Y-62841095D02*
X137452971Y-62888714D01*
X137452971Y-62888714D02*
X137405352Y-62983952D01*
X137405352Y-62983952D02*
X137405352Y-63174428D01*
X137405352Y-63174428D02*
X137452971Y-63269666D01*
X137452971Y-63269666D02*
X137548209Y-63317285D01*
X137548209Y-63317285D02*
X137643447Y-63317285D01*
X137643447Y-63317285D02*
X137738685Y-62841095D01*
X137405352Y-64507762D02*
X137691066Y-63745857D01*
X137691066Y-63745857D02*
X137976780Y-64507762D01*
X99972019Y-60126809D02*
X98972019Y-60126809D01*
X99924400Y-60126809D02*
X99972019Y-60031571D01*
X99972019Y-60031571D02*
X99972019Y-59841095D01*
X99972019Y-59841095D02*
X99924400Y-59745857D01*
X99924400Y-59745857D02*
X99876780Y-59698238D01*
X99876780Y-59698238D02*
X99781542Y-59650619D01*
X99781542Y-59650619D02*
X99495828Y-59650619D01*
X99495828Y-59650619D02*
X99400590Y-59698238D01*
X99400590Y-59698238D02*
X99352971Y-59745857D01*
X99352971Y-59745857D02*
X99305352Y-59841095D01*
X99305352Y-59841095D02*
X99305352Y-60031571D01*
X99305352Y-60031571D02*
X99352971Y-60126809D01*
X99972019Y-60603000D02*
X99305352Y-60603000D01*
X98972019Y-60603000D02*
X99019638Y-60555381D01*
X99019638Y-60555381D02*
X99067257Y-60603000D01*
X99067257Y-60603000D02*
X99019638Y-60650619D01*
X99019638Y-60650619D02*
X98972019Y-60603000D01*
X98972019Y-60603000D02*
X99067257Y-60603000D01*
X99972019Y-61222047D02*
X99924400Y-61126809D01*
X99924400Y-61126809D02*
X99876780Y-61079190D01*
X99876780Y-61079190D02*
X99781542Y-61031571D01*
X99781542Y-61031571D02*
X99495828Y-61031571D01*
X99495828Y-61031571D02*
X99400590Y-61079190D01*
X99400590Y-61079190D02*
X99352971Y-61126809D01*
X99352971Y-61126809D02*
X99305352Y-61222047D01*
X99305352Y-61222047D02*
X99305352Y-61364904D01*
X99305352Y-61364904D02*
X99352971Y-61460142D01*
X99352971Y-61460142D02*
X99400590Y-61507761D01*
X99400590Y-61507761D02*
X99495828Y-61555380D01*
X99495828Y-61555380D02*
X99781542Y-61555380D01*
X99781542Y-61555380D02*
X99876780Y-61507761D01*
X99876780Y-61507761D02*
X99924400Y-61460142D01*
X99924400Y-61460142D02*
X99972019Y-61364904D01*
X99972019Y-61364904D02*
X99972019Y-61222047D01*
X99972019Y-62412523D02*
X98972019Y-62412523D01*
X99924400Y-62412523D02*
X99972019Y-62317285D01*
X99972019Y-62317285D02*
X99972019Y-62126809D01*
X99972019Y-62126809D02*
X99924400Y-62031571D01*
X99924400Y-62031571D02*
X99876780Y-61983952D01*
X99876780Y-61983952D02*
X99781542Y-61936333D01*
X99781542Y-61936333D02*
X99495828Y-61936333D01*
X99495828Y-61936333D02*
X99400590Y-61983952D01*
X99400590Y-61983952D02*
X99352971Y-62031571D01*
X99352971Y-62031571D02*
X99305352Y-62126809D01*
X99305352Y-62126809D02*
X99305352Y-62317285D01*
X99305352Y-62317285D02*
X99352971Y-62412523D01*
X99924400Y-63269666D02*
X99972019Y-63174428D01*
X99972019Y-63174428D02*
X99972019Y-62983952D01*
X99972019Y-62983952D02*
X99924400Y-62888714D01*
X99924400Y-62888714D02*
X99829161Y-62841095D01*
X99829161Y-62841095D02*
X99448209Y-62841095D01*
X99448209Y-62841095D02*
X99352971Y-62888714D01*
X99352971Y-62888714D02*
X99305352Y-62983952D01*
X99305352Y-62983952D02*
X99305352Y-63174428D01*
X99305352Y-63174428D02*
X99352971Y-63269666D01*
X99352971Y-63269666D02*
X99448209Y-63317285D01*
X99448209Y-63317285D02*
X99543447Y-63317285D01*
X99543447Y-63317285D02*
X99638685Y-62841095D01*
X99305352Y-64507762D02*
X99591066Y-63745857D01*
X99591066Y-63745857D02*
X99876780Y-64507762D01*
X95026219Y-79179809D02*
X94026219Y-79179809D01*
X94978600Y-79179809D02*
X95026219Y-79084571D01*
X95026219Y-79084571D02*
X95026219Y-78894095D01*
X95026219Y-78894095D02*
X94978600Y-78798857D01*
X94978600Y-78798857D02*
X94930980Y-78751238D01*
X94930980Y-78751238D02*
X94835742Y-78703619D01*
X94835742Y-78703619D02*
X94550028Y-78703619D01*
X94550028Y-78703619D02*
X94454790Y-78751238D01*
X94454790Y-78751238D02*
X94407171Y-78798857D01*
X94407171Y-78798857D02*
X94359552Y-78894095D01*
X94359552Y-78894095D02*
X94359552Y-79084571D01*
X94359552Y-79084571D02*
X94407171Y-79179809D01*
X95026219Y-79656000D02*
X94359552Y-79656000D01*
X94026219Y-79656000D02*
X94073838Y-79608381D01*
X94073838Y-79608381D02*
X94121457Y-79656000D01*
X94121457Y-79656000D02*
X94073838Y-79703619D01*
X94073838Y-79703619D02*
X94026219Y-79656000D01*
X94026219Y-79656000D02*
X94121457Y-79656000D01*
X95026219Y-80275047D02*
X94978600Y-80179809D01*
X94978600Y-80179809D02*
X94930980Y-80132190D01*
X94930980Y-80132190D02*
X94835742Y-80084571D01*
X94835742Y-80084571D02*
X94550028Y-80084571D01*
X94550028Y-80084571D02*
X94454790Y-80132190D01*
X94454790Y-80132190D02*
X94407171Y-80179809D01*
X94407171Y-80179809D02*
X94359552Y-80275047D01*
X94359552Y-80275047D02*
X94359552Y-80417904D01*
X94359552Y-80417904D02*
X94407171Y-80513142D01*
X94407171Y-80513142D02*
X94454790Y-80560761D01*
X94454790Y-80560761D02*
X94550028Y-80608380D01*
X94550028Y-80608380D02*
X94835742Y-80608380D01*
X94835742Y-80608380D02*
X94930980Y-80560761D01*
X94930980Y-80560761D02*
X94978600Y-80513142D01*
X94978600Y-80513142D02*
X95026219Y-80417904D01*
X95026219Y-80417904D02*
X95026219Y-80275047D01*
X95026219Y-81465523D02*
X94026219Y-81465523D01*
X94978600Y-81465523D02*
X95026219Y-81370285D01*
X95026219Y-81370285D02*
X95026219Y-81179809D01*
X95026219Y-81179809D02*
X94978600Y-81084571D01*
X94978600Y-81084571D02*
X94930980Y-81036952D01*
X94930980Y-81036952D02*
X94835742Y-80989333D01*
X94835742Y-80989333D02*
X94550028Y-80989333D01*
X94550028Y-80989333D02*
X94454790Y-81036952D01*
X94454790Y-81036952D02*
X94407171Y-81084571D01*
X94407171Y-81084571D02*
X94359552Y-81179809D01*
X94359552Y-81179809D02*
X94359552Y-81370285D01*
X94359552Y-81370285D02*
X94407171Y-81465523D01*
X94978600Y-82322666D02*
X95026219Y-82227428D01*
X95026219Y-82227428D02*
X95026219Y-82036952D01*
X95026219Y-82036952D02*
X94978600Y-81941714D01*
X94978600Y-81941714D02*
X94883361Y-81894095D01*
X94883361Y-81894095D02*
X94502409Y-81894095D01*
X94502409Y-81894095D02*
X94407171Y-81941714D01*
X94407171Y-81941714D02*
X94359552Y-82036952D01*
X94359552Y-82036952D02*
X94359552Y-82227428D01*
X94359552Y-82227428D02*
X94407171Y-82322666D01*
X94407171Y-82322666D02*
X94502409Y-82370285D01*
X94502409Y-82370285D02*
X94597647Y-82370285D01*
X94597647Y-82370285D02*
X94692885Y-81894095D01*
X94359552Y-83560762D02*
X94645266Y-82798857D01*
X94645266Y-82798857D02*
X94930980Y-83560762D01*
X4509719Y-40993759D02*
X3509719Y-40993759D01*
X4462100Y-40993759D02*
X4509719Y-40898521D01*
X4509719Y-40898521D02*
X4509719Y-40708045D01*
X4509719Y-40708045D02*
X4462100Y-40612807D01*
X4462100Y-40612807D02*
X4414480Y-40565188D01*
X4414480Y-40565188D02*
X4319242Y-40517569D01*
X4319242Y-40517569D02*
X4033528Y-40517569D01*
X4033528Y-40517569D02*
X3938290Y-40565188D01*
X3938290Y-40565188D02*
X3890671Y-40612807D01*
X3890671Y-40612807D02*
X3843052Y-40708045D01*
X3843052Y-40708045D02*
X3843052Y-40898521D01*
X3843052Y-40898521D02*
X3890671Y-40993759D01*
X4509719Y-41469950D02*
X3843052Y-41469950D01*
X3509719Y-41469950D02*
X3557338Y-41422331D01*
X3557338Y-41422331D02*
X3604957Y-41469950D01*
X3604957Y-41469950D02*
X3557338Y-41517569D01*
X3557338Y-41517569D02*
X3509719Y-41469950D01*
X3509719Y-41469950D02*
X3604957Y-41469950D01*
X4509719Y-42088997D02*
X4462100Y-41993759D01*
X4462100Y-41993759D02*
X4414480Y-41946140D01*
X4414480Y-41946140D02*
X4319242Y-41898521D01*
X4319242Y-41898521D02*
X4033528Y-41898521D01*
X4033528Y-41898521D02*
X3938290Y-41946140D01*
X3938290Y-41946140D02*
X3890671Y-41993759D01*
X3890671Y-41993759D02*
X3843052Y-42088997D01*
X3843052Y-42088997D02*
X3843052Y-42231854D01*
X3843052Y-42231854D02*
X3890671Y-42327092D01*
X3890671Y-42327092D02*
X3938290Y-42374711D01*
X3938290Y-42374711D02*
X4033528Y-42422330D01*
X4033528Y-42422330D02*
X4319242Y-42422330D01*
X4319242Y-42422330D02*
X4414480Y-42374711D01*
X4414480Y-42374711D02*
X4462100Y-42327092D01*
X4462100Y-42327092D02*
X4509719Y-42231854D01*
X4509719Y-42231854D02*
X4509719Y-42088997D01*
X4509719Y-43279473D02*
X3509719Y-43279473D01*
X4462100Y-43279473D02*
X4509719Y-43184235D01*
X4509719Y-43184235D02*
X4509719Y-42993759D01*
X4509719Y-42993759D02*
X4462100Y-42898521D01*
X4462100Y-42898521D02*
X4414480Y-42850902D01*
X4414480Y-42850902D02*
X4319242Y-42803283D01*
X4319242Y-42803283D02*
X4033528Y-42803283D01*
X4033528Y-42803283D02*
X3938290Y-42850902D01*
X3938290Y-42850902D02*
X3890671Y-42898521D01*
X3890671Y-42898521D02*
X3843052Y-42993759D01*
X3843052Y-42993759D02*
X3843052Y-43184235D01*
X3843052Y-43184235D02*
X3890671Y-43279473D01*
X4462100Y-44136616D02*
X4509719Y-44041378D01*
X4509719Y-44041378D02*
X4509719Y-43850902D01*
X4509719Y-43850902D02*
X4462100Y-43755664D01*
X4462100Y-43755664D02*
X4366861Y-43708045D01*
X4366861Y-43708045D02*
X3985909Y-43708045D01*
X3985909Y-43708045D02*
X3890671Y-43755664D01*
X3890671Y-43755664D02*
X3843052Y-43850902D01*
X3843052Y-43850902D02*
X3843052Y-44041378D01*
X3843052Y-44041378D02*
X3890671Y-44136616D01*
X3890671Y-44136616D02*
X3985909Y-44184235D01*
X3985909Y-44184235D02*
X4081147Y-44184235D01*
X4081147Y-44184235D02*
X4176385Y-43708045D01*
X3843052Y-45374712D02*
X4128766Y-44612807D01*
X4128766Y-44612807D02*
X4414480Y-45374712D01*
X7015219Y-97975809D02*
X6015219Y-97975809D01*
X6967600Y-97975809D02*
X7015219Y-97880571D01*
X7015219Y-97880571D02*
X7015219Y-97690095D01*
X7015219Y-97690095D02*
X6967600Y-97594857D01*
X6967600Y-97594857D02*
X6919980Y-97547238D01*
X6919980Y-97547238D02*
X6824742Y-97499619D01*
X6824742Y-97499619D02*
X6539028Y-97499619D01*
X6539028Y-97499619D02*
X6443790Y-97547238D01*
X6443790Y-97547238D02*
X6396171Y-97594857D01*
X6396171Y-97594857D02*
X6348552Y-97690095D01*
X6348552Y-97690095D02*
X6348552Y-97880571D01*
X6348552Y-97880571D02*
X6396171Y-97975809D01*
X7015219Y-98452000D02*
X6348552Y-98452000D01*
X6015219Y-98452000D02*
X6062838Y-98404381D01*
X6062838Y-98404381D02*
X6110457Y-98452000D01*
X6110457Y-98452000D02*
X6062838Y-98499619D01*
X6062838Y-98499619D02*
X6015219Y-98452000D01*
X6015219Y-98452000D02*
X6110457Y-98452000D01*
X7015219Y-99071047D02*
X6967600Y-98975809D01*
X6967600Y-98975809D02*
X6919980Y-98928190D01*
X6919980Y-98928190D02*
X6824742Y-98880571D01*
X6824742Y-98880571D02*
X6539028Y-98880571D01*
X6539028Y-98880571D02*
X6443790Y-98928190D01*
X6443790Y-98928190D02*
X6396171Y-98975809D01*
X6396171Y-98975809D02*
X6348552Y-99071047D01*
X6348552Y-99071047D02*
X6348552Y-99213904D01*
X6348552Y-99213904D02*
X6396171Y-99309142D01*
X6396171Y-99309142D02*
X6443790Y-99356761D01*
X6443790Y-99356761D02*
X6539028Y-99404380D01*
X6539028Y-99404380D02*
X6824742Y-99404380D01*
X6824742Y-99404380D02*
X6919980Y-99356761D01*
X6919980Y-99356761D02*
X6967600Y-99309142D01*
X6967600Y-99309142D02*
X7015219Y-99213904D01*
X7015219Y-99213904D02*
X7015219Y-99071047D01*
X7015219Y-100261523D02*
X6015219Y-100261523D01*
X6967600Y-100261523D02*
X7015219Y-100166285D01*
X7015219Y-100166285D02*
X7015219Y-99975809D01*
X7015219Y-99975809D02*
X6967600Y-99880571D01*
X6967600Y-99880571D02*
X6919980Y-99832952D01*
X6919980Y-99832952D02*
X6824742Y-99785333D01*
X6824742Y-99785333D02*
X6539028Y-99785333D01*
X6539028Y-99785333D02*
X6443790Y-99832952D01*
X6443790Y-99832952D02*
X6396171Y-99880571D01*
X6396171Y-99880571D02*
X6348552Y-99975809D01*
X6348552Y-99975809D02*
X6348552Y-100166285D01*
X6348552Y-100166285D02*
X6396171Y-100261523D01*
X6967600Y-101118666D02*
X7015219Y-101023428D01*
X7015219Y-101023428D02*
X7015219Y-100832952D01*
X7015219Y-100832952D02*
X6967600Y-100737714D01*
X6967600Y-100737714D02*
X6872361Y-100690095D01*
X6872361Y-100690095D02*
X6491409Y-100690095D01*
X6491409Y-100690095D02*
X6396171Y-100737714D01*
X6396171Y-100737714D02*
X6348552Y-100832952D01*
X6348552Y-100832952D02*
X6348552Y-101023428D01*
X6348552Y-101023428D02*
X6396171Y-101118666D01*
X6396171Y-101118666D02*
X6491409Y-101166285D01*
X6491409Y-101166285D02*
X6586647Y-101166285D01*
X6586647Y-101166285D02*
X6681885Y-100690095D01*
X6348552Y-102356762D02*
X6634266Y-101594857D01*
X6634266Y-101594857D02*
X6919980Y-102356762D01*
X66324219Y-79179809D02*
X65324219Y-79179809D01*
X66276600Y-79179809D02*
X66324219Y-79084571D01*
X66324219Y-79084571D02*
X66324219Y-78894095D01*
X66324219Y-78894095D02*
X66276600Y-78798857D01*
X66276600Y-78798857D02*
X66228980Y-78751238D01*
X66228980Y-78751238D02*
X66133742Y-78703619D01*
X66133742Y-78703619D02*
X65848028Y-78703619D01*
X65848028Y-78703619D02*
X65752790Y-78751238D01*
X65752790Y-78751238D02*
X65705171Y-78798857D01*
X65705171Y-78798857D02*
X65657552Y-78894095D01*
X65657552Y-78894095D02*
X65657552Y-79084571D01*
X65657552Y-79084571D02*
X65705171Y-79179809D01*
X66324219Y-79656000D02*
X65657552Y-79656000D01*
X65324219Y-79656000D02*
X65371838Y-79608381D01*
X65371838Y-79608381D02*
X65419457Y-79656000D01*
X65419457Y-79656000D02*
X65371838Y-79703619D01*
X65371838Y-79703619D02*
X65324219Y-79656000D01*
X65324219Y-79656000D02*
X65419457Y-79656000D01*
X66324219Y-80275047D02*
X66276600Y-80179809D01*
X66276600Y-80179809D02*
X66228980Y-80132190D01*
X66228980Y-80132190D02*
X66133742Y-80084571D01*
X66133742Y-80084571D02*
X65848028Y-80084571D01*
X65848028Y-80084571D02*
X65752790Y-80132190D01*
X65752790Y-80132190D02*
X65705171Y-80179809D01*
X65705171Y-80179809D02*
X65657552Y-80275047D01*
X65657552Y-80275047D02*
X65657552Y-80417904D01*
X65657552Y-80417904D02*
X65705171Y-80513142D01*
X65705171Y-80513142D02*
X65752790Y-80560761D01*
X65752790Y-80560761D02*
X65848028Y-80608380D01*
X65848028Y-80608380D02*
X66133742Y-80608380D01*
X66133742Y-80608380D02*
X66228980Y-80560761D01*
X66228980Y-80560761D02*
X66276600Y-80513142D01*
X66276600Y-80513142D02*
X66324219Y-80417904D01*
X66324219Y-80417904D02*
X66324219Y-80275047D01*
X66324219Y-81465523D02*
X65324219Y-81465523D01*
X66276600Y-81465523D02*
X66324219Y-81370285D01*
X66324219Y-81370285D02*
X66324219Y-81179809D01*
X66324219Y-81179809D02*
X66276600Y-81084571D01*
X66276600Y-81084571D02*
X66228980Y-81036952D01*
X66228980Y-81036952D02*
X66133742Y-80989333D01*
X66133742Y-80989333D02*
X65848028Y-80989333D01*
X65848028Y-80989333D02*
X65752790Y-81036952D01*
X65752790Y-81036952D02*
X65705171Y-81084571D01*
X65705171Y-81084571D02*
X65657552Y-81179809D01*
X65657552Y-81179809D02*
X65657552Y-81370285D01*
X65657552Y-81370285D02*
X65705171Y-81465523D01*
X66276600Y-82322666D02*
X66324219Y-82227428D01*
X66324219Y-82227428D02*
X66324219Y-82036952D01*
X66324219Y-82036952D02*
X66276600Y-81941714D01*
X66276600Y-81941714D02*
X66181361Y-81894095D01*
X66181361Y-81894095D02*
X65800409Y-81894095D01*
X65800409Y-81894095D02*
X65705171Y-81941714D01*
X65705171Y-81941714D02*
X65657552Y-82036952D01*
X65657552Y-82036952D02*
X65657552Y-82227428D01*
X65657552Y-82227428D02*
X65705171Y-82322666D01*
X65705171Y-82322666D02*
X65800409Y-82370285D01*
X65800409Y-82370285D02*
X65895647Y-82370285D01*
X65895647Y-82370285D02*
X65990885Y-81894095D01*
X65657552Y-83560762D02*
X65943266Y-82798857D01*
X65943266Y-82798857D02*
X66228980Y-83560762D01*
X157122019Y-60126809D02*
X156122019Y-60126809D01*
X157074400Y-60126809D02*
X157122019Y-60031571D01*
X157122019Y-60031571D02*
X157122019Y-59841095D01*
X157122019Y-59841095D02*
X157074400Y-59745857D01*
X157074400Y-59745857D02*
X157026780Y-59698238D01*
X157026780Y-59698238D02*
X156931542Y-59650619D01*
X156931542Y-59650619D02*
X156645828Y-59650619D01*
X156645828Y-59650619D02*
X156550590Y-59698238D01*
X156550590Y-59698238D02*
X156502971Y-59745857D01*
X156502971Y-59745857D02*
X156455352Y-59841095D01*
X156455352Y-59841095D02*
X156455352Y-60031571D01*
X156455352Y-60031571D02*
X156502971Y-60126809D01*
X157122019Y-60603000D02*
X156455352Y-60603000D01*
X156122019Y-60603000D02*
X156169638Y-60555381D01*
X156169638Y-60555381D02*
X156217257Y-60603000D01*
X156217257Y-60603000D02*
X156169638Y-60650619D01*
X156169638Y-60650619D02*
X156122019Y-60603000D01*
X156122019Y-60603000D02*
X156217257Y-60603000D01*
X157122019Y-61222047D02*
X157074400Y-61126809D01*
X157074400Y-61126809D02*
X157026780Y-61079190D01*
X157026780Y-61079190D02*
X156931542Y-61031571D01*
X156931542Y-61031571D02*
X156645828Y-61031571D01*
X156645828Y-61031571D02*
X156550590Y-61079190D01*
X156550590Y-61079190D02*
X156502971Y-61126809D01*
X156502971Y-61126809D02*
X156455352Y-61222047D01*
X156455352Y-61222047D02*
X156455352Y-61364904D01*
X156455352Y-61364904D02*
X156502971Y-61460142D01*
X156502971Y-61460142D02*
X156550590Y-61507761D01*
X156550590Y-61507761D02*
X156645828Y-61555380D01*
X156645828Y-61555380D02*
X156931542Y-61555380D01*
X156931542Y-61555380D02*
X157026780Y-61507761D01*
X157026780Y-61507761D02*
X157074400Y-61460142D01*
X157074400Y-61460142D02*
X157122019Y-61364904D01*
X157122019Y-61364904D02*
X157122019Y-61222047D01*
X157122019Y-62412523D02*
X156122019Y-62412523D01*
X157074400Y-62412523D02*
X157122019Y-62317285D01*
X157122019Y-62317285D02*
X157122019Y-62126809D01*
X157122019Y-62126809D02*
X157074400Y-62031571D01*
X157074400Y-62031571D02*
X157026780Y-61983952D01*
X157026780Y-61983952D02*
X156931542Y-61936333D01*
X156931542Y-61936333D02*
X156645828Y-61936333D01*
X156645828Y-61936333D02*
X156550590Y-61983952D01*
X156550590Y-61983952D02*
X156502971Y-62031571D01*
X156502971Y-62031571D02*
X156455352Y-62126809D01*
X156455352Y-62126809D02*
X156455352Y-62317285D01*
X156455352Y-62317285D02*
X156502971Y-62412523D01*
X157074400Y-63269666D02*
X157122019Y-63174428D01*
X157122019Y-63174428D02*
X157122019Y-62983952D01*
X157122019Y-62983952D02*
X157074400Y-62888714D01*
X157074400Y-62888714D02*
X156979161Y-62841095D01*
X156979161Y-62841095D02*
X156598209Y-62841095D01*
X156598209Y-62841095D02*
X156502971Y-62888714D01*
X156502971Y-62888714D02*
X156455352Y-62983952D01*
X156455352Y-62983952D02*
X156455352Y-63174428D01*
X156455352Y-63174428D02*
X156502971Y-63269666D01*
X156502971Y-63269666D02*
X156598209Y-63317285D01*
X156598209Y-63317285D02*
X156693447Y-63317285D01*
X156693447Y-63317285D02*
X156788685Y-62841095D01*
X156455352Y-64507762D02*
X156741066Y-63745857D01*
X156741066Y-63745857D02*
X157026780Y-64507762D01*
X157172819Y-41079809D02*
X156172819Y-41079809D01*
X157125200Y-41079809D02*
X157172819Y-40984571D01*
X157172819Y-40984571D02*
X157172819Y-40794095D01*
X157172819Y-40794095D02*
X157125200Y-40698857D01*
X157125200Y-40698857D02*
X157077580Y-40651238D01*
X157077580Y-40651238D02*
X156982342Y-40603619D01*
X156982342Y-40603619D02*
X156696628Y-40603619D01*
X156696628Y-40603619D02*
X156601390Y-40651238D01*
X156601390Y-40651238D02*
X156553771Y-40698857D01*
X156553771Y-40698857D02*
X156506152Y-40794095D01*
X156506152Y-40794095D02*
X156506152Y-40984571D01*
X156506152Y-40984571D02*
X156553771Y-41079809D01*
X157172819Y-41556000D02*
X156506152Y-41556000D01*
X156172819Y-41556000D02*
X156220438Y-41508381D01*
X156220438Y-41508381D02*
X156268057Y-41556000D01*
X156268057Y-41556000D02*
X156220438Y-41603619D01*
X156220438Y-41603619D02*
X156172819Y-41556000D01*
X156172819Y-41556000D02*
X156268057Y-41556000D01*
X157172819Y-42175047D02*
X157125200Y-42079809D01*
X157125200Y-42079809D02*
X157077580Y-42032190D01*
X157077580Y-42032190D02*
X156982342Y-41984571D01*
X156982342Y-41984571D02*
X156696628Y-41984571D01*
X156696628Y-41984571D02*
X156601390Y-42032190D01*
X156601390Y-42032190D02*
X156553771Y-42079809D01*
X156553771Y-42079809D02*
X156506152Y-42175047D01*
X156506152Y-42175047D02*
X156506152Y-42317904D01*
X156506152Y-42317904D02*
X156553771Y-42413142D01*
X156553771Y-42413142D02*
X156601390Y-42460761D01*
X156601390Y-42460761D02*
X156696628Y-42508380D01*
X156696628Y-42508380D02*
X156982342Y-42508380D01*
X156982342Y-42508380D02*
X157077580Y-42460761D01*
X157077580Y-42460761D02*
X157125200Y-42413142D01*
X157125200Y-42413142D02*
X157172819Y-42317904D01*
X157172819Y-42317904D02*
X157172819Y-42175047D01*
X157172819Y-43365523D02*
X156172819Y-43365523D01*
X157125200Y-43365523D02*
X157172819Y-43270285D01*
X157172819Y-43270285D02*
X157172819Y-43079809D01*
X157172819Y-43079809D02*
X157125200Y-42984571D01*
X157125200Y-42984571D02*
X157077580Y-42936952D01*
X157077580Y-42936952D02*
X156982342Y-42889333D01*
X156982342Y-42889333D02*
X156696628Y-42889333D01*
X156696628Y-42889333D02*
X156601390Y-42936952D01*
X156601390Y-42936952D02*
X156553771Y-42984571D01*
X156553771Y-42984571D02*
X156506152Y-43079809D01*
X156506152Y-43079809D02*
X156506152Y-43270285D01*
X156506152Y-43270285D02*
X156553771Y-43365523D01*
X157125200Y-44222666D02*
X157172819Y-44127428D01*
X157172819Y-44127428D02*
X157172819Y-43936952D01*
X157172819Y-43936952D02*
X157125200Y-43841714D01*
X157125200Y-43841714D02*
X157029961Y-43794095D01*
X157029961Y-43794095D02*
X156649009Y-43794095D01*
X156649009Y-43794095D02*
X156553771Y-43841714D01*
X156553771Y-43841714D02*
X156506152Y-43936952D01*
X156506152Y-43936952D02*
X156506152Y-44127428D01*
X156506152Y-44127428D02*
X156553771Y-44222666D01*
X156553771Y-44222666D02*
X156649009Y-44270285D01*
X156649009Y-44270285D02*
X156744247Y-44270285D01*
X156744247Y-44270285D02*
X156839485Y-43794095D01*
X156506152Y-45460762D02*
X156791866Y-44698857D01*
X156791866Y-44698857D02*
X157077580Y-45460762D01*
X102036619Y-98001209D02*
X101036619Y-98001209D01*
X101989000Y-98001209D02*
X102036619Y-97905971D01*
X102036619Y-97905971D02*
X102036619Y-97715495D01*
X102036619Y-97715495D02*
X101989000Y-97620257D01*
X101989000Y-97620257D02*
X101941380Y-97572638D01*
X101941380Y-97572638D02*
X101846142Y-97525019D01*
X101846142Y-97525019D02*
X101560428Y-97525019D01*
X101560428Y-97525019D02*
X101465190Y-97572638D01*
X101465190Y-97572638D02*
X101417571Y-97620257D01*
X101417571Y-97620257D02*
X101369952Y-97715495D01*
X101369952Y-97715495D02*
X101369952Y-97905971D01*
X101369952Y-97905971D02*
X101417571Y-98001209D01*
X102036619Y-98477400D02*
X101369952Y-98477400D01*
X101036619Y-98477400D02*
X101084238Y-98429781D01*
X101084238Y-98429781D02*
X101131857Y-98477400D01*
X101131857Y-98477400D02*
X101084238Y-98525019D01*
X101084238Y-98525019D02*
X101036619Y-98477400D01*
X101036619Y-98477400D02*
X101131857Y-98477400D01*
X102036619Y-99096447D02*
X101989000Y-99001209D01*
X101989000Y-99001209D02*
X101941380Y-98953590D01*
X101941380Y-98953590D02*
X101846142Y-98905971D01*
X101846142Y-98905971D02*
X101560428Y-98905971D01*
X101560428Y-98905971D02*
X101465190Y-98953590D01*
X101465190Y-98953590D02*
X101417571Y-99001209D01*
X101417571Y-99001209D02*
X101369952Y-99096447D01*
X101369952Y-99096447D02*
X101369952Y-99239304D01*
X101369952Y-99239304D02*
X101417571Y-99334542D01*
X101417571Y-99334542D02*
X101465190Y-99382161D01*
X101465190Y-99382161D02*
X101560428Y-99429780D01*
X101560428Y-99429780D02*
X101846142Y-99429780D01*
X101846142Y-99429780D02*
X101941380Y-99382161D01*
X101941380Y-99382161D02*
X101989000Y-99334542D01*
X101989000Y-99334542D02*
X102036619Y-99239304D01*
X102036619Y-99239304D02*
X102036619Y-99096447D01*
X102036619Y-100286923D02*
X101036619Y-100286923D01*
X101989000Y-100286923D02*
X102036619Y-100191685D01*
X102036619Y-100191685D02*
X102036619Y-100001209D01*
X102036619Y-100001209D02*
X101989000Y-99905971D01*
X101989000Y-99905971D02*
X101941380Y-99858352D01*
X101941380Y-99858352D02*
X101846142Y-99810733D01*
X101846142Y-99810733D02*
X101560428Y-99810733D01*
X101560428Y-99810733D02*
X101465190Y-99858352D01*
X101465190Y-99858352D02*
X101417571Y-99905971D01*
X101417571Y-99905971D02*
X101369952Y-100001209D01*
X101369952Y-100001209D02*
X101369952Y-100191685D01*
X101369952Y-100191685D02*
X101417571Y-100286923D01*
X101989000Y-101144066D02*
X102036619Y-101048828D01*
X102036619Y-101048828D02*
X102036619Y-100858352D01*
X102036619Y-100858352D02*
X101989000Y-100763114D01*
X101989000Y-100763114D02*
X101893761Y-100715495D01*
X101893761Y-100715495D02*
X101512809Y-100715495D01*
X101512809Y-100715495D02*
X101417571Y-100763114D01*
X101417571Y-100763114D02*
X101369952Y-100858352D01*
X101369952Y-100858352D02*
X101369952Y-101048828D01*
X101369952Y-101048828D02*
X101417571Y-101144066D01*
X101417571Y-101144066D02*
X101512809Y-101191685D01*
X101512809Y-101191685D02*
X101608047Y-101191685D01*
X101608047Y-101191685D02*
X101703285Y-100715495D01*
X101369952Y-102382162D02*
X101655666Y-101620257D01*
X101655666Y-101620257D02*
X101941380Y-102382162D01*
%TO.C,diode<*%
D13*
X61484600Y-97894400D02*
X61484600Y-101754400D01*
X59484600Y-97894400D02*
X61484600Y-97894400D01*
X59484600Y-97894400D02*
X59484600Y-101754400D01*
X43152400Y-60023000D02*
X43152400Y-63883000D01*
X43152400Y-60023000D02*
X45152400Y-60023000D01*
X45152400Y-60023000D02*
X45152400Y-63883000D01*
X24009900Y-40886950D02*
X24009900Y-44746950D01*
X24009900Y-40886950D02*
X26009900Y-40886950D01*
X26009900Y-40886950D02*
X26009900Y-44746950D01*
X62202400Y-60023000D02*
X62202400Y-63883000D01*
X62202400Y-60023000D02*
X64202400Y-60023000D01*
X64202400Y-60023000D02*
X64202400Y-63883000D01*
X119472200Y-60020000D02*
X119472200Y-63880000D01*
X119472200Y-60020000D02*
X121472200Y-60020000D01*
X121472200Y-60020000D02*
X121472200Y-63880000D01*
X138573000Y-40973000D02*
X138573000Y-44833000D01*
X138573000Y-40973000D02*
X140573000Y-40973000D01*
X140573000Y-40973000D02*
X140573000Y-44833000D01*
D14*
%TO.C,G\u002A\u002A\u002A*%
G36*
X151481988Y-15985178D02*
G01*
X151767271Y-16175412D01*
X152064300Y-16373569D01*
X152351286Y-16565121D01*
X152626685Y-16749031D01*
X152888946Y-16924262D01*
X153136523Y-17089777D01*
X153367867Y-17244540D01*
X153581431Y-17387515D01*
X153775666Y-17517664D01*
X153949025Y-17633950D01*
X154099960Y-17735338D01*
X154226923Y-17820790D01*
X154328367Y-17889270D01*
X154402743Y-17939741D01*
X154448504Y-17971165D01*
X154464101Y-17982508D01*
X154457429Y-17983338D01*
X154424612Y-17974501D01*
X154373614Y-17955947D01*
X154360889Y-17950883D01*
X154312969Y-17931751D01*
X154232459Y-17899583D01*
X154121065Y-17855058D01*
X153980491Y-17798857D01*
X153812441Y-17731664D01*
X153618620Y-17654160D01*
X153400733Y-17567025D01*
X153160484Y-17470943D01*
X152899576Y-17366595D01*
X152619716Y-17254662D01*
X152322607Y-17135825D01*
X152009954Y-17010767D01*
X151683461Y-16880170D01*
X151344834Y-16744714D01*
X150995776Y-16605083D01*
X150637991Y-16461957D01*
X146992858Y-15003755D01*
X144570569Y-16618658D01*
X142148278Y-18233561D01*
X142143433Y-16123726D01*
X142142864Y-15842670D01*
X142142308Y-15477035D01*
X142141888Y-15086132D01*
X142141604Y-14676954D01*
X142141555Y-14537229D01*
X144199508Y-14537229D01*
X144199641Y-14723988D01*
X144200059Y-14925366D01*
X144200776Y-15138158D01*
X144205678Y-16366794D01*
X145353491Y-15601517D01*
X145518605Y-15491395D01*
X145698554Y-15371295D01*
X145866992Y-15258788D01*
X146021394Y-15155565D01*
X146159235Y-15063317D01*
X146277990Y-14983735D01*
X146375135Y-14918510D01*
X146448145Y-14869333D01*
X146494494Y-14837895D01*
X146511658Y-14825886D01*
X146509690Y-14824111D01*
X146481227Y-14810281D01*
X146421392Y-14784049D01*
X146333083Y-14746614D01*
X146219202Y-14699170D01*
X146082650Y-14642916D01*
X145926325Y-14579050D01*
X145753130Y-14508767D01*
X145565964Y-14433265D01*
X145367728Y-14353742D01*
X145290721Y-14322961D01*
X145095701Y-14245260D01*
X144912366Y-14172567D01*
X144743675Y-14106036D01*
X144592586Y-14046818D01*
X144462055Y-13996066D01*
X144355038Y-13954929D01*
X144274496Y-13924561D01*
X144223383Y-13906113D01*
X144204658Y-13900739D01*
X144204166Y-13903220D01*
X144202791Y-13934936D01*
X144201641Y-14000507D01*
X144200729Y-14096728D01*
X144200062Y-14220393D01*
X144199652Y-14368296D01*
X144199508Y-14537229D01*
X142141555Y-14537229D01*
X142141458Y-14256492D01*
X142141446Y-13831740D01*
X142141571Y-13409685D01*
X142141832Y-12997321D01*
X142142230Y-12601639D01*
X142142763Y-12229630D01*
X142143433Y-11888286D01*
X142148278Y-9762679D01*
X145134338Y-11753412D01*
X145422633Y-11945581D01*
X145719950Y-12143700D01*
X146007303Y-12335115D01*
X146283142Y-12518795D01*
X146545913Y-12693709D01*
X146794064Y-12858824D01*
X147026044Y-13013109D01*
X147240300Y-13155533D01*
X147435279Y-13285065D01*
X147609430Y-13400673D01*
X147761201Y-13501324D01*
X147889038Y-13585989D01*
X147991390Y-13653634D01*
X148066705Y-13703229D01*
X148113430Y-13733744D01*
X148130014Y-13744144D01*
X148134620Y-13741466D01*
X148166661Y-13720864D01*
X148227629Y-13680945D01*
X148315691Y-13622929D01*
X148429010Y-13548033D01*
X148565750Y-13457476D01*
X148724079Y-13352475D01*
X148902161Y-13234247D01*
X149098160Y-13104013D01*
X149310241Y-12962988D01*
X149536571Y-12812391D01*
X149775312Y-12653441D01*
X150024630Y-12487355D01*
X150282690Y-12315351D01*
X152425751Y-10886559D01*
X152425751Y-10324626D01*
X152425751Y-9762693D01*
X153639237Y-9762693D01*
X153854777Y-9762920D01*
X154067352Y-9763642D01*
X154259130Y-9764825D01*
X154427637Y-9766434D01*
X154570404Y-9768434D01*
X154684957Y-9770790D01*
X154768826Y-9773466D01*
X154819539Y-9776428D01*
X154834624Y-9779642D01*
X154831613Y-9781833D01*
X154802426Y-9801726D01*
X154743607Y-9841310D01*
X154656672Y-9899574D01*
X154543138Y-9975507D01*
X154404523Y-10068098D01*
X154242342Y-10176335D01*
X154058114Y-10299208D01*
X153853354Y-10435705D01*
X153629581Y-10584816D01*
X153388310Y-10745529D01*
X153131060Y-10916835D01*
X152859346Y-11097718D01*
X152574686Y-11287172D01*
X152278598Y-11484184D01*
X151972597Y-11687741D01*
X151658201Y-11896835D01*
X148499875Y-13997079D01*
X149743072Y-14825886D01*
X151481988Y-15985178D01*
G37*
%TO.C,diode<*%
D13*
X5052400Y-60023000D02*
X5052400Y-63883000D01*
X5052400Y-60023000D02*
X7052400Y-60023000D01*
X7052400Y-60023000D02*
X7052400Y-63883000D01*
X24102400Y-60023000D02*
X24102400Y-63883000D01*
X24102400Y-60023000D02*
X26102400Y-60023000D01*
X26102400Y-60023000D02*
X26102400Y-63883000D01*
X138522200Y-60020000D02*
X138522200Y-63880000D01*
X138522200Y-60020000D02*
X140522200Y-60020000D01*
X140522200Y-60020000D02*
X140522200Y-63880000D01*
X100422200Y-60020000D02*
X100422200Y-63880000D01*
X100422200Y-60020000D02*
X102422200Y-60020000D01*
X102422200Y-60020000D02*
X102422200Y-63880000D01*
X95476400Y-79073000D02*
X95476400Y-82933000D01*
X95476400Y-79073000D02*
X97476400Y-79073000D01*
X97476400Y-79073000D02*
X97476400Y-82933000D01*
X4959900Y-40886950D02*
X4959900Y-44746950D01*
X4959900Y-40886950D02*
X6959900Y-40886950D01*
X6959900Y-40886950D02*
X6959900Y-44746950D01*
X7465400Y-97869000D02*
X7465400Y-101729000D01*
X7465400Y-97869000D02*
X9465400Y-97869000D01*
X9465400Y-97869000D02*
X9465400Y-101729000D01*
X66774400Y-79073000D02*
X66774400Y-82933000D01*
X66774400Y-79073000D02*
X68774400Y-79073000D01*
X68774400Y-79073000D02*
X68774400Y-82933000D01*
X157572200Y-60020000D02*
X157572200Y-63880000D01*
X157572200Y-60020000D02*
X159572200Y-60020000D01*
X159572200Y-60020000D02*
X159572200Y-63880000D01*
X157623000Y-40973000D02*
X157623000Y-44833000D01*
X157623000Y-40973000D02*
X159623000Y-40973000D01*
X159623000Y-40973000D02*
X159623000Y-44833000D01*
X102486800Y-97894400D02*
X102486800Y-101754400D01*
X102486800Y-97894400D02*
X104486800Y-97894400D01*
X104486800Y-97894400D02*
X104486800Y-101754400D01*
%TD*%
M02*
