%TF.GenerationSoftware,KiCad,Pcbnew,10.0.1*%
%TF.CreationDate,2026-06-18T06:39:21+08:00*%
%TF.ProjectId,RhythmGameControllerKiCad,52687974-686d-4476-916d-65436f6e7472,rev?*%
%TF.SameCoordinates,Original*%
%TF.FileFunction,Soldermask,Top*%
%TF.FilePolarity,Negative*%
%FSLAX46Y46*%
G04 Gerber Fmt 4.6, Leading zero omitted, Abs format (unit mm)*
G04 Created by KiCad (PCBNEW 10.0.1) date 2026-06-18 06:39:21*
%MOMM*%
%LPD*%
G01*
G04 APERTURE LIST*
%ADD10C,3.200000*%
%ADD11C,3.600000*%
%ADD12C,3.048000*%
%ADD13C,3.987800*%
%ADD14C,1.750000*%
%ADD15C,4.000000*%
%ADD16O,1.500000X2.500000*%
%ADD17O,2.500000X1.500000*%
G04 APERTURE END LIST*
D10*
%TO.C,M3_Case*%
X32000000Y-21000000D03*
%TD*%
D11*
%TO.C,REFMX*%
X70136600Y-90957400D03*
X63786600Y-93497400D03*
D12*
X79534600Y-89052400D03*
D13*
X79534600Y-104262400D03*
D14*
X72676600Y-96037400D03*
D15*
X67596600Y-96037400D03*
D14*
X62516600Y-96037400D03*
D12*
X55658600Y-89052400D03*
D13*
X55658600Y-104262400D03*
%TD*%
D11*
%TO.C,REFMX*%
X113011800Y-90957400D03*
X106661800Y-93497400D03*
D12*
X122409800Y-89052400D03*
D13*
X122409800Y-104262400D03*
D14*
X115551800Y-96037400D03*
D15*
X110471800Y-96037400D03*
D14*
X105391800Y-96037400D03*
D12*
X98533800Y-89052400D03*
D13*
X98533800Y-104262400D03*
%TD*%
D10*
%TO.C,M3_Plate+Case*%
X145000000Y-96000000D03*
%TD*%
%TO.C,M3_Plate*%
X156000000Y-77000000D03*
%TD*%
%TO.C,M3_Plate*%
X47000000Y-40000000D03*
%TD*%
%TO.C,M3_Plate*%
X130000000Y-40000000D03*
%TD*%
D16*
%TO.C,U?*%
X1380400Y-4072000D03*
X3920400Y-4072000D03*
X6460400Y-4072000D03*
X9000400Y-4072000D03*
X11540400Y-4072000D03*
X14080400Y-4072000D03*
X16620400Y-4072000D03*
X19160400Y-4072000D03*
X21700400Y-4072000D03*
D17*
X22200400Y-7112000D03*
X22200400Y-9652000D03*
X22200400Y-12192000D03*
X22200400Y-14732000D03*
X22200400Y-17272000D03*
D16*
X21700400Y-20312000D03*
X19160400Y-20312000D03*
X16620400Y-20312000D03*
X14080400Y-20312000D03*
X11540400Y-20312000D03*
X9000400Y-20312000D03*
X6460400Y-20312000D03*
X3920400Y-20312000D03*
X1380400Y-20312000D03*
%TD*%
D10*
%TO.C,M3_Case*%
X165000000Y-21000000D03*
%TD*%
%TO.C,M3_Plate*%
X22000000Y-77000000D03*
%TD*%
%TO.C,M3_Plate*%
X89052400Y-57000000D03*
%TD*%
%TO.C,M3_Plate+Case*%
X35000000Y-96000000D03*
%TD*%
D14*
%TO.C,REFMX*%
X103004200Y-57912000D03*
D15*
X108084200Y-57912000D03*
D14*
X113164200Y-57912000D03*
D11*
X104274200Y-55372000D03*
X110624200Y-52832000D03*
%TD*%
D14*
%TO.C,REFMX*%
X122088700Y-57912000D03*
D15*
X127168700Y-57912000D03*
D14*
X132248700Y-57912000D03*
D11*
X123358700Y-55372000D03*
X129708700Y-52832000D03*
%TD*%
D14*
%TO.C,REFMX*%
X64853400Y-57912000D03*
D15*
X69933400Y-57912000D03*
D14*
X75013400Y-57912000D03*
D11*
X66123400Y-55372000D03*
X72473400Y-52832000D03*
%TD*%
D14*
%TO.C,REFMX*%
X7703400Y-38811200D03*
D15*
X12783400Y-38811200D03*
D14*
X17863400Y-38811200D03*
D11*
X8973400Y-36271200D03*
X15323400Y-33731200D03*
%TD*%
D14*
%TO.C,REFMX*%
X10227100Y-96012000D03*
D15*
X15307100Y-96012000D03*
D14*
X20387100Y-96012000D03*
D11*
X11497100Y-93472000D03*
X17847100Y-90932000D03*
%TD*%
D14*
%TO.C,REFMX*%
X160223200Y-57912000D03*
D15*
X165303200Y-57912000D03*
D14*
X170383200Y-57912000D03*
D11*
X161493200Y-55372000D03*
X167843200Y-52832000D03*
%TD*%
D14*
%TO.C,REFMX*%
X26753400Y-57912000D03*
D15*
X31833400Y-57912000D03*
D14*
X36913400Y-57912000D03*
D11*
X28023400Y-55372000D03*
X34373400Y-52832000D03*
%TD*%
D14*
%TO.C,REFMX*%
X141155000Y-38862000D03*
D15*
X146235000Y-38862000D03*
D14*
X151315000Y-38862000D03*
D11*
X142425000Y-36322000D03*
X148775000Y-33782000D03*
%TD*%
D14*
%TO.C,REFMX*%
X69679400Y-76962000D03*
D15*
X74759400Y-76962000D03*
D14*
X79839400Y-76962000D03*
D11*
X70949400Y-74422000D03*
X77299400Y-71882000D03*
%TD*%
D14*
%TO.C,REFMX*%
X98254400Y-76962000D03*
D15*
X103334400Y-76962000D03*
D14*
X108414400Y-76962000D03*
D11*
X99524400Y-74422000D03*
X105874400Y-71882000D03*
%TD*%
D14*
%TO.C,REFMX*%
X160239500Y-38862000D03*
D15*
X165319500Y-38862000D03*
D14*
X170399500Y-38862000D03*
D11*
X161509500Y-36322000D03*
X167859500Y-33782000D03*
%TD*%
D14*
%TO.C,REFMX*%
X7703400Y-57912000D03*
D15*
X12783400Y-57912000D03*
D14*
X17863400Y-57912000D03*
D11*
X8973400Y-55372000D03*
X15323400Y-52832000D03*
%TD*%
D14*
%TO.C,REFMX*%
X141138700Y-57912000D03*
D15*
X146218700Y-57912000D03*
D14*
X151298700Y-57912000D03*
D11*
X142408700Y-55372000D03*
X148758700Y-52832000D03*
%TD*%
D14*
%TO.C,REFMX*%
X45837900Y-57912000D03*
D15*
X50917900Y-57912000D03*
D14*
X55997900Y-57912000D03*
D11*
X47107900Y-55372000D03*
X53457900Y-52832000D03*
%TD*%
D14*
%TO.C,REFMX*%
X26718900Y-38811200D03*
D15*
X31798900Y-38811200D03*
D14*
X36878900Y-38811200D03*
D11*
X27988900Y-36271200D03*
X34338900Y-33731200D03*
%TD*%
M02*
