  0
SECTION
  2
HEADER
  9
$ACADVER
  1
AC1032
  9
$ACADMAINTVER
 90
       55
  9
$DWGCODEPAGE
  3
ISO8859-1
  9
$LASTSAVEDBY
  1
arnol
  9
$REQUIREDVERSIONS
160
                 0
  9
$INSBASE
 10
0.0
 20
0.0
 30
0.0
  9
$EXTMIN
 10
1.000000000000000E+20
 20
1.000000000000000E+20
 30
1.000000000000000E+20
  9
$EXTMAX
 10
-1.000000000000000E+20
 20
-1.000000000000000E+20
 30
-1.000000000000000E+20
  9
$LIMMIN
 10
0.0
 20
0.0
  9
$LIMMAX
 10
420.0
 20
297.0
  9
$ORTHOMODE
 70
     0
  9
$REGENMODE
 70
     1
  9
$FILLMODE
 70
     1
  9
$QTEXTMODE
 70
     0
  9
$MIRRTEXT
 70
     1
  9
$LTSCALE
 40
1.0
  9
$ATTMODE
 70
     1
  9
$TEXTSIZE
 40
2.5
  9
$TRACEWID
 40
1.0
  9
$TEXTSTYLE
  7
Standard
  9
$CLAYER
  8
0
  9
$CELTYPE
  6
ByLayer
  9
$CECOLOR
 62
   256
  9
$CELTSCALE
 40
1.0
  9
$DISPSILH
 70
     0
  9
$DIMSCALE
 40
1.0
  9
$DIMASZ
 40
2.5
  9
$DIMEXO
 40
0.625
  9
$DIMDLI
 40
3.75
  9
$DIMRND
 40
0.0
  9
$DIMDLE
 40
0.0
  9
$DIMEXE
 40
1.25
  9
$DIMTP
 40
0.0
  9
$DIMTM
 40
0.0
  9
$DIMTXT
 40
2.5
  9
$DIMCEN
 40
2.5
  9
$DIMTSZ
 40
0.0
  9
$DIMTOL
 70
     0
  9
$DIMLIM
 70
     0
  9
$DIMTIH
 70
     0
  9
$DIMTOH
 70
     0
  9
$DIMSE1
 70
     0
  9
$DIMSE2
 70
     0
  9
$DIMTAD
 70
     1
  9
$DIMZIN
 70
     8
  9
$DIMBLK
  1

  9
$DIMASO
 70
     1
  9
$DIMSHO
 70
     1
  9
$DIMPOST
  1

  9
$DIMAPOST
  1

  9
$DIMALT
 70
     0
  9
$DIMALTD
 70
     3
  9
$DIMALTF
 40
0.03937007874016
  9
$DIMLFAC
 40
1.0
  9
$DIMTOFL
 70
     1
  9
$DIMTVP
 40
0.0
  9
$DIMTIX
 70
     0
  9
$DIMSOXD
 70
     0
  9
$DIMSAH
 70
     0
  9
$DIMBLK1
  1

  9
$DIMBLK2
  1

  9
$DIMSTYLE
  2
ISO-25
  9
$DIMCLRD
 70
     0
  9
$DIMCLRE
 70
     0
  9
$DIMCLRT
 70
     0
  9
$DIMTFAC
 40
1.0
  9
$DIMGAP
 40
0.625
  9
$DIMJUST
 70
     0
  9
$DIMSD1
 70
     0
  9
$DIMSD2
 70
     0
  9
$DIMTOLJ
 70
     0
  9
$DIMTZIN
 70
     8
  9
$DIMALTZ
 70
     0
  9
$DIMALTTZ
 70
     0
  9
$DIMUPT
 70
     0
  9
$DIMDEC
 70
     2
  9
$DIMTDEC
 70
     2
  9
$DIMALTU
 70
     2
  9
$DIMALTTD
 70
     3
  9
$DIMTXSTY
  7
Standard
  9
$DIMAUNIT
 70
     0
  9
$DIMADEC
 70
     0
  9
$DIMALTRND
 40
0.0
  9
$DIMAZIN
 70
     0
  9
$DIMDSEP
 70
    44
  9
$DIMATFIT
 70
     3
  9
$DIMFRAC
 70
     0
  9
$DIMLDRBLK
  1

  9
$DIMLUNIT
 70
     2
  9
$DIMLWD
 70
    -2
  9
$DIMLWE
 70
    -2
  9
$DIMTMOVE
 70
     0
  9
$DIMFXL
 40
1.0
  9
$DIMFXLON
 70
     0
  9
$DIMJOGANG
 40
0.7853981633974483
  9
$DIMTFILL
 70
     0
  9
$DIMTFILLCLR
 70
     0
  9
$DIMARCSYM
 70
     0
  9
$DIMLTYPE
  6

  9
$DIMLTEX1
  6

  9
$DIMLTEX2
  6

  9
$DIMTXTDIRECTION
 70
     0
  9
$LUNITS
 70
     2
  9
$LUPREC
 70
     4
  9
$SKETCHINC
 40
1.0
  9
$FILLETRAD
 40
0.0
  9
$AUNITS
 70
     0
  9
$AUPREC
 70
     0
  9
$MENU
  1
.
  9
$ELEVATION
 40
0.0
  9
$PELEVATION
 40
0.0
  9
$THICKNESS
 40
0.0
  9
$LIMCHECK
 70
     0
  9
$CHAMFERA
 40
0.0
  9
$CHAMFERB
 40
0.0
  9
$CHAMFERC
 40
0.0
  9
$CHAMFERD
 40
0.0
  9
$SKPOLY
 70
     0
  9
$TDCREATE
 40
2461210.304129132
  9
$TDUCREATE
 40
2461209.970795799
  9
$TDUPDATE
 40
2461210.304129213
  9
$TDUUPDATE
 40
2461209.97079588
  9
$TDINDWG
 40
0.0000000116
  9
$TDUSRTIMER
 40
0.0000000116
  9
$USRTIMER
 70
     1
  9
$ANGBASE
 50
0.0
  9
$ANGDIR
 70
     0
  9
$PDMODE
 70
     0
  9
$PDSIZE
 40
0.0
  9
$PLINEWID
 40
0.0
  9
$SPLFRAME
 70
     0
  9
$SPLINETYPE
 70
     6
  9
$SPLINESEGS
 70
     8
  9
$HANDSEED
  5
1E1
  9
$SURFTAB1
 70
     6
  9
$SURFTAB2
 70
     6
  9
$SURFTYPE
 70
     6
  9
$SURFU
 70
     6
  9
$SURFV
 70
     6
  9
$UCSBASE
  2

  9
$UCSNAME
  2

  9
$UCSORG
 10
0.0
 20
0.0
 30
0.0
  9
$UCSXDIR
 10
1.0
 20
0.0
 30
0.0
  9
$UCSYDIR
 10
0.0
 20
1.0
 30
0.0
  9
$UCSORTHOREF
  2

  9
$UCSORTHOVIEW
 70
     0
  9
$UCSORGTOP
 10
0.0
 20
0.0
 30
0.0
  9
$UCSORGBOTTOM
 10
0.0
 20
0.0
 30
0.0
  9
$UCSORGLEFT
 10
0.0
 20
0.0
 30
0.0
  9
$UCSORGRIGHT
 10
0.0
 20
0.0
 30
0.0
  9
$UCSORGFRONT
 10
0.0
 20
0.0
 30
0.0
  9
$UCSORGBACK
 10
0.0
 20
0.0
 30
0.0
  9
$PUCSBASE
  2

  9
$PUCSNAME
  2

  9
$PUCSORG
 10
0.0
 20
0.0
 30
0.0
  9
$PUCSXDIR
 10
1.0
 20
0.0
 30
0.0
  9
$PUCSYDIR
 10
0.0
 20
1.0
 30
0.0
  9
$PUCSORTHOREF
  2

  9
$PUCSORTHOVIEW
 70
     0
  9
$PUCSORGTOP
 10
0.0
 20
0.0
 30
0.0
  9
$PUCSORGBOTTOM
 10
0.0
 20
0.0
 30
0.0
  9
$PUCSORGLEFT
 10
0.0
 20
0.0
 30
0.0
  9
$PUCSORGRIGHT
 10
0.0
 20
0.0
 30
0.0
  9
$PUCSORGFRONT
 10
0.0
 20
0.0
 30
0.0
  9
$PUCSORGBACK
 10
0.0
 20
0.0
 30
0.0
  9
$USERI1
 70
     0
  9
$USERI2
 70
     0
  9
$USERI3
 70
     0
  9
$USERI4
 70
     0
  9
$USERI5
 70
     0
  9
$USERR1
 40
0.0
  9
$USERR2
 40
0.0
  9
$USERR3
 40
0.0
  9
$USERR4
 40
0.0
  9
$USERR5
 40
0.0
  9
$WORLDVIEW
 70
     1
  9
$SHADEDGE
 70
     3
  9
$SHADEDIF
 70
    70
  9
$TILEMODE
 70
     1
  9
$MAXACTVP
 70
    64
  9
$PINSBASE
 10
0.0
 20
0.0
 30
0.0
  9
$PLIMCHECK
 70
     0
  9
$PEXTMIN
 10
102.0316
 20
197.0276
 30
0.0
  9
$PEXTMAX
 10
0.0
 20
0.0
 30
0.0
  9
$PLIMMIN
 10
-20.0
 20
-7.5
  9
$PLIMMAX
 10
277.0
 20
202.5
  9
$UNITMODE
 70
     0
  9
$VISRETAIN
 70
     1
  9
$PLINEGEN
 70
     0
  9
$PSLTSCALE
 70
     1
  9
$TREEDEPTH
 70
  3020
  9
$CMLSTYLE
  2
Standard
  9
$CMLJUST
 70
     0
  9
$CMLSCALE
 40
20.0
  9
$PROXYGRAPHICS
 70
     1
  9
$MEASUREMENT
 70
     1
  9
$CELWEIGHT
370
    -1
  9
$ENDCAPS
280
     0
  9
$JOINSTYLE
280
     0
  9
$LWDISPLAY
290
     0
  9
$INSUNITS
 70
     4
  9
$HYPERLINKBASE
  1

  9
$STYLESHEET
  1

  9
$XEDIT
290
     1
  9
$CEPSNTYPE
380
     0
  9
$PSTYLEMODE
290
     1
  9
$FINGERPRINTGUID
  2
{6338343e-e90b-4292-b9c5-e51146cd2af1}
  9
$VERSIONGUID
  2
{FAEB1C32-E019-11D5-929B-00C0DF256EC4}
  9
$EXTNAMES
290
     1
  9
$PSVPSCALE
 40
0.0
  9
$OLESTARTUP
290
     0
  9
$SORTENTS
280
   127
  9
$INDEXCTL
280
     0
  9
$HIDETEXT
280
     1
  9
$XCLIPFRAME
280
     2
  9
$HALOGAP
280
     0
  9
$OBSCOLOR
 70
   257
  9
$OBSLTYPE
280
     0
  9
$INTERSECTIONDISPLAY
280
     0
  9
$INTERSECTIONCOLOR
 70
   257
  9
$DIMASSOC
280
     2
  9
$PROJECTNAME
  1

  9
$CAMERADISPLAY
290
     0
  9
$LENSLENGTH
 40
50.0
  9
$CAMERAHEIGHT
 40
0.0
  9
$STEPSPERSEC
 40
2.0
  9
$STEPSIZE
 40
6.0
  9
$3DDWFPREC
 40
2.0
  9
$PSOLWIDTH
 40
5.0
  9
$PSOLHEIGHT
 40
80.0
  9
$LOFTANG1
 40
1.570796326794897
  9
$LOFTANG2
 40
1.570796326794897
  9
$LOFTMAG1
 40
0.0
  9
$LOFTMAG2
 40
0.0
  9
$LOFTPARAM
 70
     7
  9
$LOFTNORMALS
280
     1
  9
$LATITUDE
 40
37.795
  9
$LONGITUDE
 40
-122.394
  9
$NORTHDIRECTION
 40
0.0
  9
$TIMEZONE
 70
 -8000
  9
$LIGHTGLYPHDISPLAY
280
     1
  9
$TILEMODELIGHTSYNCH
280
     1
  9
$CMATERIAL
347
44
  9
$SOLIDHIST
280
     0
  9
$SHOWHIST
280
     1
  9
$DWFFRAME
280
     2
  9
$DGNFRAME
280
     2
  9
$REALWORLDSCALE
290
     1
  9
$INTERFERECOLOR
 62
   256
  9
$CSHADOW
280
     0
  9
$SHADOWPLANELOCATION
 40
0.0
  0
ENDSEC
  0
SECTION
  2
CLASSES
  0
CLASS
  1
ACDBDICTIONARYWDFLT
  2
AcDbDictionaryWithDefault
  3
ObjectDBX Classes
 90
        0
 91
        3
280
     0
281
     0
  0
CLASS
  1
VISUALSTYLE
  2
AcDbVisualStyle
  3
ObjectDBX Classes
 90
     4095
 91
        3
280
     0
281
     0
  0
CLASS
  1
MATERIAL
  2
AcDbMaterial
  3
ObjectDBX Classes
 90
     1153
 91
        3
280
     0
281
     0
  0
CLASS
  1
SCALE
  2
AcDbScale
  3
ObjectDBX Classes
 90
     1153
 91
        3
280
     0
281
     0
  0
CLASS
  1
TABLESTYLE
  2
AcDbTableStyle
  3
ObjectDBX Classes
 90
     4095
 91
        3
280
     0
281
     0
  0
CLASS
  1
MLEADERSTYLE
  2
AcDbMLeaderStyle
  3
ACDB_MLEADERSTYLE_CLASS
 90
     4095
 91
        3
280
     0
281
     0
  0
CLASS
  1
SUN
  2
AcDbSun
  3
SCENEOE
 90
     1153
 91
        3
280
     0
281
     0
  0
CLASS
  1
DICTIONARYVAR
  2
AcDbDictionaryVar
  3
ObjectDBX Classes
 90
        0
 91
        3
280
     0
281
     0
  0
CLASS
  1
CELLSTYLEMAP
  2
AcDbCellStyleMap
  3
ObjectDBX Classes
 90
     1152
 91
        3
280
     0
281
     0
  0
ENDSEC
  0
SECTION
  2
TABLES
  0
TABLE
  2
VPORT
  5
8
330
0
100
AcDbSymbolTable
 70
     1
  0
VPORT
  5
29
330
8
100
AcDbSymbolTableRecord
100
AcDbViewportTableRecord
  2
*Active
 70
     0
 10
0.0
 20
0.0
 11
1.0
 21
1.0
 12
98.51379999999999
 22
51.0158
 13
0.0
 23
0.0
 14
10.0
 24
10.0
 15
10.0
 25
10.0
 16
0.0
 26
0.0
 36
1.0
 17
0.0
 27
0.0
 37
0.0
 40
102.0316
 41
1.972972972850329
 42
50.0
 43
0.0
 44
0.0
 50
0.0
 51
0.0
 71
     0
 72
   100
 73
     1
 74
     3
 75
     0
 76
     0
 77
     0
 78
     0
281
     0
 65
     1
110
0.0
120
0.0
130
0.0
111
1.0
121
0.0
131
0.0
112
0.0
122
1.0
132
0.0
 79
     0
146
0.0
348
2F
 60
     3
 61
     5
292
     1
282
     1
141
0.0
142
0.0
 63
   250
361
5D
  0
ENDTAB
  0
TABLE
  2
LTYPE
  5
5
330
0
100
AcDbSymbolTable
 70
     1
  0
LTYPE
  5
14
330
5
100
AcDbSymbolTableRecord
100
AcDbLinetypeTableRecord
  2
ByBlock
 70
     0
  3

 72
    65
 73
     0
 40
0.0
  0
LTYPE
  5
15
330
5
100
AcDbSymbolTableRecord
100
AcDbLinetypeTableRecord
  2
ByLayer
 70
     0
  3

 72
    65
 73
     0
 40
0.0
  0
LTYPE
  5
16
330
5
100
AcDbSymbolTableRecord
100
AcDbLinetypeTableRecord
  2
Continuous
 70
     0
  3
Solid line
 72
    65
 73
     0
 40
0.0
  0
ENDTAB
  0
TABLE
  2
LAYER
  5
2
330
0
100
AcDbSymbolTable
 70
     2
  0
LAYER
  5
10
330
2
100
AcDbSymbolTableRecord
100
AcDbLayerTableRecord
  2
0
 70
     0
 62
     7
  6
Continuous
370
    -3
390
F
347
46
348
0
  0
LAYER
  5
5E
330
2
100
AcDbSymbolTableRecord
100
AcDbLayerTableRecord
  2
Edge.Cuts
 70
     0
 62
     7
  6
Continuous
370
    -3
390
F
347
46
348
0
  0
ENDTAB
  0
TABLE
  2
STYLE
  5
3
330
0
100
AcDbSymbolTable
 70
     1
  0
STYLE
  5
11
330
3
100
AcDbSymbolTableRecord
100
AcDbTextStyleTableRecord
  2
Standard
 70
     0
 40
0.0
 41
1.0
 50
0.0
 71
     0
 42
2.5
  3
txt
  4

  0
ENDTAB
  0
TABLE
  2
VIEW
  5
6
330
0
100
AcDbSymbolTable
 70
     0
  0
ENDTAB
  0
TABLE
  2
UCS
  5
7
330
0
100
AcDbSymbolTable
 70
     0
  0
ENDTAB
  0
TABLE
  2
APPID
  5
9
330
0
100
AcDbSymbolTable
 70
     1
  0
APPID
  5
12
330
9
100
AcDbSymbolTableRecord
100
AcDbRegAppTableRecord
  2
ACAD
 70
     0
  0
ENDTAB
  0
TABLE
  2
DIMSTYLE
  5
A
330
0
100
AcDbSymbolTable
 70
     1
100
AcDbDimStyleTable
  0
DIMSTYLE
105
27
330
A
100
AcDbSymbolTableRecord
100
AcDbDimStyleTableRecord
  2
ISO-25
 70
     0
 41
2.5
 42
0.625
 43
3.75
 44
1.25
 73
     0
 74
     0
 77
     1
 78
     8
140
2.5
141
2.5
143
0.03937007874016
147
0.625
171
     3
172
     1
178
     0
271
     2
272
     2
274
     3
278
    44
283
     0
284
     8
340
11
  0
ENDTAB
  0
TABLE
  2
BLOCK_RECORD
  5
1
330
0
100
AcDbSymbolTable
 70
     0
  0
BLOCK_RECORD
  5
1F
330
1
100
AcDbSymbolTableRecord
100
AcDbBlockTableRecord
  2
*Model_Space
340
22
 70
     0
280
     1
281
     0
  0
BLOCK_RECORD
  5
1CE
330
1
100
AcDbSymbolTableRecord
100
AcDbBlockTableRecord
  2
*Paper_Space
340
1CF
 70
     0
280
     1
281
     0
  0
ENDTAB
  0
ENDSEC
  0
SECTION
  2
BLOCKS
  0
BLOCK
  5
20
330
1F
100
AcDbEntity
  8
0
100
AcDbBlockBegin
  2
*Model_Space
 70
     0
 10
0.0
 20
0.0
 30
0.0
  3
*Model_Space
  1

  0
ENDBLK
  5
21
330
1F
100
AcDbEntity
  8
0
100
AcDbBlockEnd
  0
BLOCK
  5
1D0
330
1CE
100
AcDbEntity
 67
     1
  8
0
100
AcDbBlockBegin
  2
*Paper_Space
 70
     0
 10
0.0
 20
0.0
 30
0.0
  3
*Paper_Space
  1

  0
ENDBLK
  5
1D1
330
1CE
100
AcDbEntity
 67
     1
  8
0
100
AcDbBlockEnd
  0
ENDSEC
  0
SECTION
  2
ENTITIES
  0
LWPOLYLINE
  5
5F
330
1F
100
AcDbEntity
  8
Edge.Cuts
  6
Continuous
 62
     9
420
 12040119
370
     5
100
AcDbPolyline
 90
        2
 70
     0
 43
0.0
 10
83.739734
 20
29.359994
 10
83.766794
 20
29.33293400000001
  0
LWPOLYLINE
  5
60
330
1F
100
AcDbEntity
  8
Edge.Cuts
  6
Continuous
 62
     9
420
 12040119
370
     5
100
AcDbPolyline
 90
        2
 70
     0
 43
0.0
 10
83.766794
 20
29.33293400000001
 10
83.7706
 20
29.3138
  0
LWPOLYLINE
  5
61
330
1F
100
AcDbEntity
  8
Edge.Cuts
  6
Continuous
 62
     9
420
 12040119
370
     5
100
AcDbPolyline
 90
        2
 70
     0
 43
0.0
 10
83.7706
 20
29.3138
 10
83.7706
 20
15.3138
  0
LWPOLYLINE
  5
62
330
1F
100
AcDbEntity
  8
Edge.Cuts
  6
Continuous
 62
     9
420
 12040119
370
     5
100
AcDbPolyline
 90
        2
 70
     0
 43
0.0
 10
83.7706
 20
15.3138
 10
83.766794
 20
15.29466599999999
  0
LWPOLYLINE
  5
63
330
1F
100
AcDbEntity
  8
Edge.Cuts
  6
Continuous
 62
     9
420
 12040119
370
     5
100
AcDbPolyline
 90
        2
 70
     0
 43
0.0
 10
83.766794
 20
15.29466599999999
 10
83.739734
 20
15.267606
  0
LWPOLYLINE
  5
64
330
1F
100
AcDbEntity
  8
Edge.Cuts
  6
Continuous
 62
     9
420
 12040119
370
     5
100
AcDbPolyline
 90
        2
 70
     0
 43
0.0
 10
83.739734
 20
15.267606
 10
83.7206
 20
15.2638
  0
LWPOLYLINE
  5
65
330
1F
100
AcDbEntity
  8
Edge.Cuts
  6
Continuous
 62
     9
420
 12040119
370
     5
100
AcDbPolyline
 90
        2
 70
     0
 43
0.0
 10
83.7206
 20
15.2638
 10
69.7206
 20
15.2638
  0
LWPOLYLINE
  5
66
330
1F
100
AcDbEntity
  8
Edge.Cuts
  6
Continuous
 62
     9
420
 12040119
370
     5
100
AcDbPolyline
 90
        2
 70
     0
 43
0.0
 10
69.7206
 20
15.2638
 10
69.701466
 20
15.267606
  0
LWPOLYLINE
  5
67
330
1F
100
AcDbEntity
  8
Edge.Cuts
  6
Continuous
 62
     9
420
 12040119
370
     5
100
AcDbPolyline
 90
        2
 70
     0
 43
0.0
 10
69.701466
 20
15.267606
 10
69.67440599999999
 20
15.29466599999999
  0
LWPOLYLINE
  5
68
330
1F
100
AcDbEntity
  8
Edge.Cuts
  6
Continuous
 62
     9
420
 12040119
370
     5
100
AcDbPolyline
 90
        2
 70
     0
 43
0.0
 10
69.67440599999999
 20
15.29466599999999
 10
69.67060000000001
 20
15.3138
  0
LWPOLYLINE
  5
69
330
1F
100
AcDbEntity
  8
Edge.Cuts
  6
Continuous
 62
     9
420
 12040119
370
     5
100
AcDbPolyline
 90
        2
 70
     0
 43
0.0
 10
69.67060000000001
 20
15.3138
 10
69.67060000000001
 20
29.3138
  0
LWPOLYLINE
  5
6A
330
1F
100
AcDbEntity
  8
Edge.Cuts
  6
Continuous
 62
     9
420
 12040119
370
     5
100
AcDbPolyline
 90
        2
 70
     0
 43
0.0
 10
69.67060000000001
 20
29.3138
 10
69.67440599999999
 20
29.33293400000001
  0
LWPOLYLINE
  5
6B
330
1F
100
AcDbEntity
  8
Edge.Cuts
  6
Continuous
 62
     9
420
 12040119
370
     5
100
AcDbPolyline
 90
        2
 70
     0
 43
0.0
 10
69.67440599999999
 20
29.33293400000001
 10
69.701466
 20
29.359994
  0
LWPOLYLINE
  5
6C
330
1F
100
AcDbEntity
  8
Edge.Cuts
  6
Continuous
 62
     9
420
 12040119
370
     5
100
AcDbPolyline
 90
        2
 70
     0
 43
0.0
 10
69.701466
 20
29.359994
 10
69.7206
 20
29.3638
  0
LWPOLYLINE
  5
6D
330
1F
100
AcDbEntity
  8
Edge.Cuts
  6
Continuous
 62
     9
420
 12040119
370
     5
100
AcDbPolyline
 90
        2
 70
     0
 43
0.0
 10
69.7206
 20
29.3638
 10
83.7206
 20
29.3638
  0
LWPOLYLINE
  5
6E
330
1F
100
AcDbEntity
  8
Edge.Cuts
  6
Continuous
 62
     9
420
 12040119
370
     5
100
AcDbPolyline
 90
        2
 70
     0
 43
0.0
 10
83.7206
 20
29.3638
 10
83.739734
 20
29.359994
  0
LWPOLYLINE
  5
6F
330
1F
100
AcDbEntity
  8
Edge.Cuts
  6
Continuous
 62
     9
420
 12040119
370
     5
100
AcDbPolyline
 90
        2
 70
     0
 43
0.0
 10
69.7706
 20
29.2638
 10
69.7706
 20
15.3638
  0
LWPOLYLINE
  5
70
330
1F
100
AcDbEntity
  8
Edge.Cuts
  6
Continuous
 62
     9
420
 12040119
370
     5
100
AcDbPolyline
 90
        2
 70
     0
 43
0.0
 10
69.7706
 20
15.3638
 10
83.6706
 20
15.3638
  0
LWPOLYLINE
  5
71
330
1F
100
AcDbEntity
  8
Edge.Cuts
  6
Continuous
 62
     9
420
 12040119
370
     5
100
AcDbPolyline
 90
        2
 70
     0
 43
0.0
 10
83.6706
 20
15.3638
 10
83.6706
 20
29.2638
  0
LWPOLYLINE
  5
72
330
1F
100
AcDbEntity
  8
Edge.Cuts
  6
Continuous
 62
     9
420
 12040119
370
     5
100
AcDbPolyline
 90
        2
 70
     0
 43
0.0
 10
83.6706
 20
29.2638
 10
69.7706
 20
29.2638
  0
LWPOLYLINE
  5
73
330
1F
100
AcDbEntity
  8
Edge.Cuts
  6
Continuous
 62
     9
420
 12040119
370
     5
100
AcDbPolyline
 90
        2
 70
     0
 43
0.0
 10
126.614934
 20
29.359994
 10
126.641994
 20
29.33293400000001
  0
LWPOLYLINE
  5
74
330
1F
100
AcDbEntity
  8
Edge.Cuts
  6
Continuous
 62
     9
420
 12040119
370
     5
100
AcDbPolyline
 90
        2
 70
     0
 43
0.0
 10
126.641994
 20
29.33293400000001
 10
126.6458
 20
29.3138
  0
LWPOLYLINE
  5
75
330
1F
100
AcDbEntity
  8
Edge.Cuts
  6
Continuous
 62
     9
420
 12040119
370
     5
100
AcDbPolyline
 90
        2
 70
     0
 43
0.0
 10
126.6458
 20
29.3138
 10
126.6458
 20
15.3138
  0
LWPOLYLINE
  5
76
330
1F
100
AcDbEntity
  8
Edge.Cuts
  6
Continuous
 62
     9
420
 12040119
370
     5
100
AcDbPolyline
 90
        2
 70
     0
 43
0.0
 10
126.6458
 20
15.3138
 10
126.641994
 20
15.29466599999999
  0
LWPOLYLINE
  5
77
330
1F
100
AcDbEntity
  8
Edge.Cuts
  6
Continuous
 62
     9
420
 12040119
370
     5
100
AcDbPolyline
 90
        2
 70
     0
 43
0.0
 10
126.641994
 20
15.29466599999999
 10
126.614934
 20
15.267606
  0
LWPOLYLINE
  5
78
330
1F
100
AcDbEntity
  8
Edge.Cuts
  6
Continuous
 62
     9
420
 12040119
370
     5
100
AcDbPolyline
 90
        2
 70
     0
 43
0.0
 10
126.614934
 20
15.267606
 10
126.5958
 20
15.2638
  0
LWPOLYLINE
  5
79
330
1F
100
AcDbEntity
  8
Edge.Cuts
  6
Continuous
 62
     9
420
 12040119
370
     5
100
AcDbPolyline
 90
        2
 70
     0
 43
0.0
 10
126.5958
 20
15.2638
 10
112.5958
 20
15.2638
  0
LWPOLYLINE
  5
7A
330
1F
100
AcDbEntity
  8
Edge.Cuts
  6
Continuous
 62
     9
420
 12040119
370
     5
100
AcDbPolyline
 90
        2
 70
     0
 43
0.0
 10
112.5958
 20
15.2638
 10
112.576666
 20
15.267606
  0
LWPOLYLINE
  5
7B
330
1F
100
AcDbEntity
  8
Edge.Cuts
  6
Continuous
 62
     9
420
 12040119
370
     5
100
AcDbPolyline
 90
        2
 70
     0
 43
0.0
 10
112.576666
 20
15.267606
 10
112.549606
 20
15.29466599999999
  0
LWPOLYLINE
  5
7C
330
1F
100
AcDbEntity
  8
Edge.Cuts
  6
Continuous
 62
     9
420
 12040119
370
     5
100
AcDbPolyline
 90
        2
 70
     0
 43
0.0
 10
112.549606
 20
15.29466599999999
 10
112.5458
 20
15.3138
  0
LWPOLYLINE
  5
7D
330
1F
100
AcDbEntity
  8
Edge.Cuts
  6
Continuous
 62
     9
420
 12040119
370
     5
100
AcDbPolyline
 90
        2
 70
     0
 43
0.0
 10
112.5458
 20
15.3138
 10
112.5458
 20
29.3138
  0
LWPOLYLINE
  5
7E
330
1F
100
AcDbEntity
  8
Edge.Cuts
  6
Continuous
 62
     9
420
 12040119
370
     5
100
AcDbPolyline
 90
        2
 70
     0
 43
0.0
 10
112.5458
 20
29.3138
 10
112.549606
 20
29.33293400000001
  0
LWPOLYLINE
  5
7F
330
1F
100
AcDbEntity
  8
Edge.Cuts
  6
Continuous
 62
     9
420
 12040119
370
     5
100
AcDbPolyline
 90
        2
 70
     0
 43
0.0
 10
112.549606
 20
29.33293400000001
 10
112.576666
 20
29.359994
  0
LWPOLYLINE
  5
80
330
1F
100
AcDbEntity
  8
Edge.Cuts
  6
Continuous
 62
     9
420
 12040119
370
     5
100
AcDbPolyline
 90
        2
 70
     0
 43
0.0
 10
112.576666
 20
29.359994
 10
112.5958
 20
29.3638
  0
LWPOLYLINE
  5
81
330
1F
100
AcDbEntity
  8
Edge.Cuts
  6
Continuous
 62
     9
420
 12040119
370
     5
100
AcDbPolyline
 90
        2
 70
     0
 43
0.0
 10
112.5958
 20
29.3638
 10
126.5958
 20
29.3638
  0
LWPOLYLINE
  5
82
330
1F
100
AcDbEntity
  8
Edge.Cuts
  6
Continuous
 62
     9
420
 12040119
370
     5
100
AcDbPolyline
 90
        2
 70
     0
 43
0.0
 10
126.5958
 20
29.3638
 10
126.614934
 20
29.359994
  0
LWPOLYLINE
  5
83
330
1F
100
AcDbEntity
  8
Edge.Cuts
  6
Continuous
 62
     9
420
 12040119
370
     5
100
AcDbPolyline
 90
        2
 70
     0
 43
0.0
 10
112.6458
 20
29.2638
 10
112.6458
 20
15.3638
  0
LWPOLYLINE
  5
84
330
1F
100
AcDbEntity
  8
Edge.Cuts
  6
Continuous
 62
     9
420
 12040119
370
     5
100
AcDbPolyline
 90
        2
 70
     0
 43
0.0
 10
112.6458
 20
15.3638
 10
126.5458
 20
15.3638
  0
LWPOLYLINE
  5
85
330
1F
100
AcDbEntity
  8
Edge.Cuts
  6
Continuous
 62
     9
420
 12040119
370
     5
100
AcDbPolyline
 90
        2
 70
     0
 43
0.0
 10
126.5458
 20
15.3638
 10
126.5458
 20
29.2638
  0
LWPOLYLINE
  5
86
330
1F
100
AcDbEntity
  8
Edge.Cuts
  6
Continuous
 62
     9
420
 12040119
370
     5
100
AcDbPolyline
 90
        2
 70
     0
 43
0.0
 10
126.5458
 20
29.2638
 10
112.6458
 20
29.2638
  0
LWPOLYLINE
  5
87
330
1F
100
AcDbEntity
  8
Edge.Cuts
  6
Continuous
 62
     9
420
 12040119
370
     5
100
AcDbPolyline
 90
        2
 70
     0
 43
0.0
 10
31.415734
 20
29.410794
 10
31.442794
 20
29.38373399999999
  0
LWPOLYLINE
  5
88
330
1F
100
AcDbEntity
  8
Edge.Cuts
  6
Continuous
 62
     9
420
 12040119
370
     5
100
AcDbPolyline
 90
        2
 70
     0
 43
0.0
 10
31.442794
 20
29.38373399999999
 10
31.4466
 20
29.3646
  0
LWPOLYLINE
  5
89
330
1F
100
AcDbEntity
  8
Edge.Cuts
  6
Continuous
 62
     9
420
 12040119
370
     5
100
AcDbPolyline
 90
        2
 70
     0
 43
0.0
 10
31.4466
 20
29.3646
 10
31.4466
 20
15.3646
  0
LWPOLYLINE
  5
8A
330
1F
100
AcDbEntity
  8
Edge.Cuts
  6
Continuous
 62
     9
420
 12040119
370
     5
100
AcDbPolyline
 90
        2
 70
     0
 43
0.0
 10
31.4466
 20
15.3646
 10
31.442794
 20
15.345466
  0
LWPOLYLINE
  5
8B
330
1F
100
AcDbEntity
  8
Edge.Cuts
  6
Continuous
 62
     9
420
 12040119
370
     5
100
AcDbPolyline
 90
        2
 70
     0
 43
0.0
 10
31.442794
 20
15.345466
 10
31.415734
 20
15.318406
  0
LWPOLYLINE
  5
8C
330
1F
100
AcDbEntity
  8
Edge.Cuts
  6
Continuous
 62
     9
420
 12040119
370
     5
100
AcDbPolyline
 90
        2
 70
     0
 43
0.0
 10
31.415734
 20
15.318406
 10
31.3966
 20
15.3146
  0
LWPOLYLINE
  5
8D
330
1F
100
AcDbEntity
  8
Edge.Cuts
  6
Continuous
 62
     9
420
 12040119
370
     5
100
AcDbPolyline
 90
        2
 70
     0
 43
0.0
 10
31.3966
 20
15.3146
 10
17.3966
 20
15.3146
  0
LWPOLYLINE
  5
8E
330
1F
100
AcDbEntity
  8
Edge.Cuts
  6
Continuous
 62
     9
420
 12040119
370
     5
100
AcDbPolyline
 90
        2
 70
     0
 43
0.0
 10
17.3966
 20
15.3146
 10
17.377466
 20
15.318406
  0
LWPOLYLINE
  5
8F
330
1F
100
AcDbEntity
  8
Edge.Cuts
  6
Continuous
 62
     9
420
 12040119
370
     5
100
AcDbPolyline
 90
        2
 70
     0
 43
0.0
 10
17.377466
 20
15.318406
 10
17.350406
 20
15.345466
  0
LWPOLYLINE
  5
90
330
1F
100
AcDbEntity
  8
Edge.Cuts
  6
Continuous
 62
     9
420
 12040119
370
     5
100
AcDbPolyline
 90
        2
 70
     0
 43
0.0
 10
17.350406
 20
15.345466
 10
17.3466
 20
15.3646
  0
LWPOLYLINE
  5
91
330
1F
100
AcDbEntity
  8
Edge.Cuts
  6
Continuous
 62
     9
420
 12040119
370
     5
100
AcDbPolyline
 90
        2
 70
     0
 43
0.0
 10
17.3466
 20
15.3646
 10
17.3466
 20
29.3646
  0
LWPOLYLINE
  5
92
330
1F
100
AcDbEntity
  8
Edge.Cuts
  6
Continuous
 62
     9
420
 12040119
370
     5
100
AcDbPolyline
 90
        2
 70
     0
 43
0.0
 10
17.3466
 20
29.3646
 10
17.350406
 20
29.38373399999999
  0
LWPOLYLINE
  5
93
330
1F
100
AcDbEntity
  8
Edge.Cuts
  6
Continuous
 62
     9
420
 12040119
370
     5
100
AcDbPolyline
 90
        2
 70
     0
 43
0.0
 10
17.350406
 20
29.38373399999999
 10
17.377466
 20
29.410794
  0
LWPOLYLINE
  5
94
330
1F
100
AcDbEntity
  8
Edge.Cuts
  6
Continuous
 62
     9
420
 12040119
370
     5
100
AcDbPolyline
 90
        2
 70
     0
 43
0.0
 10
17.377466
 20
29.410794
 10
17.3966
 20
29.41459999999999
  0
LWPOLYLINE
  5
95
330
1F
100
AcDbEntity
  8
Edge.Cuts
  6
Continuous
 62
     9
420
 12040119
370
     5
100
AcDbPolyline
 90
        2
 70
     0
 43
0.0
 10
17.3966
 20
29.41459999999999
 10
31.3966
 20
29.41459999999999
  0
LWPOLYLINE
  5
96
330
1F
100
AcDbEntity
  8
Edge.Cuts
  6
Continuous
 62
     9
420
 12040119
370
     5
100
AcDbPolyline
 90
        2
 70
     0
 43
0.0
 10
31.3966
 20
29.41459999999999
 10
31.415734
 20
29.410794
  0
LWPOLYLINE
  5
97
330
1F
100
AcDbEntity
  8
Edge.Cuts
  6
Continuous
 62
     9
420
 12040119
370
     5
100
AcDbPolyline
 90
        2
 70
     0
 43
0.0
 10
17.4466
 20
29.3146
 10
17.4466
 20
15.41459999999999
  0
LWPOLYLINE
  5
98
330
1F
100
AcDbEntity
  8
Edge.Cuts
  6
Continuous
 62
     9
420
 12040119
370
     5
100
AcDbPolyline
 90
        2
 70
     0
 43
0.0
 10
17.4466
 20
15.41459999999999
 10
31.3466
 20
15.41459999999999
  0
LWPOLYLINE
  5
99
330
1F
100
AcDbEntity
  8
Edge.Cuts
  6
Continuous
 62
     9
420
 12040119
370
     5
100
AcDbPolyline
 90
        2
 70
     0
 43
0.0
 10
31.3466
 20
15.41459999999999
 10
31.3466
 20
29.3146
  0
LWPOLYLINE
  5
9A
330
1F
100
AcDbEntity
  8
Edge.Cuts
  6
Continuous
 62
     9
420
 12040119
370
     5
100
AcDbPolyline
 90
        2
 70
     0
 43
0.0
 10
31.3466
 20
29.3146
 10
17.4466
 20
29.3146
  0
LWPOLYLINE
  5
9B
330
1F
100
AcDbEntity
  8
Edge.Cuts
  6
Continuous
 62
     9
420
 12040119
370
     5
100
AcDbPolyline
 90
        2
 70
     0
 43
0.0
 10
90.92793399999998
 20
48.409994
 10
90.95499399999999
 20
48.382934
  0
LWPOLYLINE
  5
9C
330
1F
100
AcDbEntity
  8
Edge.Cuts
  6
Continuous
 62
     9
420
 12040119
370
     5
100
AcDbPolyline
 90
        2
 70
     0
 43
0.0
 10
90.95499399999999
 20
48.382934
 10
90.9588
 20
48.36379999999999
  0
LWPOLYLINE
  5
9D
330
1F
100
AcDbEntity
  8
Edge.Cuts
  6
Continuous
 62
     9
420
 12040119
370
     5
100
AcDbPolyline
 90
        2
 70
     0
 43
0.0
 10
90.9588
 20
48.36379999999999
 10
90.9588
 20
34.3638
  0
LWPOLYLINE
  5
9E
330
1F
100
AcDbEntity
  8
Edge.Cuts
  6
Continuous
 62
     9
420
 12040119
370
     5
100
AcDbPolyline
 90
        2
 70
     0
 43
0.0
 10
90.9588
 20
34.3638
 10
90.95499399999999
 20
34.34466599999999
  0
LWPOLYLINE
  5
9F
330
1F
100
AcDbEntity
  8
Edge.Cuts
  6
Continuous
 62
     9
420
 12040119
370
     5
100
AcDbPolyline
 90
        2
 70
     0
 43
0.0
 10
90.95499399999999
 20
34.34466599999999
 10
90.92793399999998
 20
34.317606
  0
LWPOLYLINE
  5
A0
330
1F
100
AcDbEntity
  8
Edge.Cuts
  6
Continuous
 62
     9
420
 12040119
370
     5
100
AcDbPolyline
 90
        2
 70
     0
 43
0.0
 10
90.92793399999998
 20
34.317606
 10
90.9088
 20
34.3138
  0
LWPOLYLINE
  5
A1
330
1F
100
AcDbEntity
  8
Edge.Cuts
  6
Continuous
 62
     9
420
 12040119
370
     5
100
AcDbPolyline
 90
        2
 70
     0
 43
0.0
 10
90.9088
 20
34.3138
 10
76.9088
 20
34.3138
  0
LWPOLYLINE
  5
A2
330
1F
100
AcDbEntity
  8
Edge.Cuts
  6
Continuous
 62
     9
420
 12040119
370
     5
100
AcDbPolyline
 90
        2
 70
     0
 43
0.0
 10
76.9088
 20
34.3138
 10
76.889666
 20
34.317606
  0
LWPOLYLINE
  5
A3
330
1F
100
AcDbEntity
  8
Edge.Cuts
  6
Continuous
 62
     9
420
 12040119
370
     5
100
AcDbPolyline
 90
        2
 70
     0
 43
0.0
 10
76.889666
 20
34.317606
 10
76.862606
 20
34.34466599999999
  0
LWPOLYLINE
  5
A4
330
1F
100
AcDbEntity
  8
Edge.Cuts
  6
Continuous
 62
     9
420
 12040119
370
     5
100
AcDbPolyline
 90
        2
 70
     0
 43
0.0
 10
76.862606
 20
34.34466599999999
 10
76.8588
 20
34.3638
  0
LWPOLYLINE
  5
A5
330
1F
100
AcDbEntity
  8
Edge.Cuts
  6
Continuous
 62
     9
420
 12040119
370
     5
100
AcDbPolyline
 90
        2
 70
     0
 43
0.0
 10
76.8588
 20
34.3638
 10
76.8588
 20
48.36379999999999
  0
LWPOLYLINE
  5
A6
330
1F
100
AcDbEntity
  8
Edge.Cuts
  6
Continuous
 62
     9
420
 12040119
370
     5
100
AcDbPolyline
 90
        2
 70
     0
 43
0.0
 10
76.8588
 20
48.36379999999999
 10
76.862606
 20
48.382934
  0
LWPOLYLINE
  5
A7
330
1F
100
AcDbEntity
  8
Edge.Cuts
  6
Continuous
 62
     9
420
 12040119
370
     5
100
AcDbPolyline
 90
        2
 70
     0
 43
0.0
 10
76.862606
 20
48.382934
 10
76.889666
 20
48.409994
  0
LWPOLYLINE
  5
A8
330
1F
100
AcDbEntity
  8
Edge.Cuts
  6
Continuous
 62
     9
420
 12040119
370
     5
100
AcDbPolyline
 90
        2
 70
     0
 43
0.0
 10
76.889666
 20
48.409994
 10
76.9088
 20
48.41379999999999
  0
LWPOLYLINE
  5
A9
330
1F
100
AcDbEntity
  8
Edge.Cuts
  6
Continuous
 62
     9
420
 12040119
370
     5
100
AcDbPolyline
 90
        2
 70
     0
 43
0.0
 10
76.9088
 20
48.41379999999999
 10
90.9088
 20
48.41379999999999
  0
LWPOLYLINE
  5
AA
330
1F
100
AcDbEntity
  8
Edge.Cuts
  6
Continuous
 62
     9
420
 12040119
370
     5
100
AcDbPolyline
 90
        2
 70
     0
 43
0.0
 10
90.9088
 20
48.41379999999999
 10
90.92793399999998
 20
48.409994
  0
LWPOLYLINE
  5
AB
330
1F
100
AcDbEntity
  8
Edge.Cuts
  6
Continuous
 62
     9
420
 12040119
370
     5
100
AcDbPolyline
 90
        2
 70
     0
 43
0.0
 10
76.9588
 20
48.31380000000001
 10
76.9588
 20
34.41379999999999
  0
LWPOLYLINE
  5
AC
330
1F
100
AcDbEntity
  8
Edge.Cuts
  6
Continuous
 62
     9
420
 12040119
370
     5
100
AcDbPolyline
 90
        2
 70
     0
 43
0.0
 10
76.9588
 20
34.41379999999999
 10
90.85880000000002
 20
34.41379999999999
  0
LWPOLYLINE
  5
AD
330
1F
100
AcDbEntity
  8
Edge.Cuts
  6
Continuous
 62
     9
420
 12040119
370
     5
100
AcDbPolyline
 90
        2
 70
     0
 43
0.0
 10
90.85880000000002
 20
34.41379999999999
 10
90.85880000000002
 20
48.31380000000001
  0
LWPOLYLINE
  5
AE
330
1F
100
AcDbEntity
  8
Edge.Cuts
  6
Continuous
 62
     9
420
 12040119
370
     5
100
AcDbPolyline
 90
        2
 70
     0
 43
0.0
 10
90.85880000000002
 20
48.31380000000001
 10
76.9588
 20
48.31380000000001
  0
LWPOLYLINE
  5
AF
330
1F
100
AcDbEntity
  8
Edge.Cuts
  6
Continuous
 62
     9
420
 12040119
370
     5
100
AcDbPolyline
 90
        2
 70
     0
 43
0.0
 10
119.502934
 20
48.409994
 10
119.529994
 20
48.382934
  0
LWPOLYLINE
  5
B0
330
1F
100
AcDbEntity
  8
Edge.Cuts
  6
Continuous
 62
     9
420
 12040119
370
     5
100
AcDbPolyline
 90
        2
 70
     0
 43
0.0
 10
119.529994
 20
48.382934
 10
119.5338
 20
48.36379999999999
  0
LWPOLYLINE
  5
B1
330
1F
100
AcDbEntity
  8
Edge.Cuts
  6
Continuous
 62
     9
420
 12040119
370
     5
100
AcDbPolyline
 90
        2
 70
     0
 43
0.0
 10
119.5338
 20
48.36379999999999
 10
119.5338
 20
34.3638
  0
LWPOLYLINE
  5
B2
330
1F
100
AcDbEntity
  8
Edge.Cuts
  6
Continuous
 62
     9
420
 12040119
370
     5
100
AcDbPolyline
 90
        2
 70
     0
 43
0.0
 10
119.5338
 20
34.3638
 10
119.529994
 20
34.34466599999999
  0
LWPOLYLINE
  5
B3
330
1F
100
AcDbEntity
  8
Edge.Cuts
  6
Continuous
 62
     9
420
 12040119
370
     5
100
AcDbPolyline
 90
        2
 70
     0
 43
0.0
 10
119.529994
 20
34.34466599999999
 10
119.502934
 20
34.317606
  0
LWPOLYLINE
  5
B4
330
1F
100
AcDbEntity
  8
Edge.Cuts
  6
Continuous
 62
     9
420
 12040119
370
     5
100
AcDbPolyline
 90
        2
 70
     0
 43
0.0
 10
119.502934
 20
34.317606
 10
119.4838
 20
34.3138
  0
LWPOLYLINE
  5
B5
330
1F
100
AcDbEntity
  8
Edge.Cuts
  6
Continuous
 62
     9
420
 12040119
370
     5
100
AcDbPolyline
 90
        2
 70
     0
 43
0.0
 10
119.4838
 20
34.3138
 10
105.4838
 20
34.3138
  0
LWPOLYLINE
  5
B6
330
1F
100
AcDbEntity
  8
Edge.Cuts
  6
Continuous
 62
     9
420
 12040119
370
     5
100
AcDbPolyline
 90
        2
 70
     0
 43
0.0
 10
105.4838
 20
34.3138
 10
105.464666
 20
34.317606
  0
LWPOLYLINE
  5
B7
330
1F
100
AcDbEntity
  8
Edge.Cuts
  6
Continuous
 62
     9
420
 12040119
370
     5
100
AcDbPolyline
 90
        2
 70
     0
 43
0.0
 10
105.464666
 20
34.317606
 10
105.437606
 20
34.34466599999999
  0
LWPOLYLINE
  5
B8
330
1F
100
AcDbEntity
  8
Edge.Cuts
  6
Continuous
 62
     9
420
 12040119
370
     5
100
AcDbPolyline
 90
        2
 70
     0
 43
0.0
 10
105.437606
 20
34.34466599999999
 10
105.4338
 20
34.3638
  0
LWPOLYLINE
  5
B9
330
1F
100
AcDbEntity
  8
Edge.Cuts
  6
Continuous
 62
     9
420
 12040119
370
     5
100
AcDbPolyline
 90
        2
 70
     0
 43
0.0
 10
105.4338
 20
34.3638
 10
105.4338
 20
48.36379999999999
  0
LWPOLYLINE
  5
BA
330
1F
100
AcDbEntity
  8
Edge.Cuts
  6
Continuous
 62
     9
420
 12040119
370
     5
100
AcDbPolyline
 90
        2
 70
     0
 43
0.0
 10
105.4338
 20
48.36379999999999
 10
105.437606
 20
48.382934
  0
LWPOLYLINE
  5
BB
330
1F
100
AcDbEntity
  8
Edge.Cuts
  6
Continuous
 62
     9
420
 12040119
370
     5
100
AcDbPolyline
 90
        2
 70
     0
 43
0.0
 10
105.437606
 20
48.382934
 10
105.464666
 20
48.409994
  0
LWPOLYLINE
  5
BC
330
1F
100
AcDbEntity
  8
Edge.Cuts
  6
Continuous
 62
     9
420
 12040119
370
     5
100
AcDbPolyline
 90
        2
 70
     0
 43
0.0
 10
105.464666
 20
48.409994
 10
105.4838
 20
48.41379999999999
  0
LWPOLYLINE
  5
BD
330
1F
100
AcDbEntity
  8
Edge.Cuts
  6
Continuous
 62
     9
420
 12040119
370
     5
100
AcDbPolyline
 90
        2
 70
     0
 43
0.0
 10
105.4838
 20
48.41379999999999
 10
119.4838
 20
48.41379999999999
  0
LWPOLYLINE
  5
BE
330
1F
100
AcDbEntity
  8
Edge.Cuts
  6
Continuous
 62
     9
420
 12040119
370
     5
100
AcDbPolyline
 90
        2
 70
     0
 43
0.0
 10
119.4838
 20
48.41379999999999
 10
119.502934
 20
48.409994
  0
LWPOLYLINE
  5
BF
330
1F
100
AcDbEntity
  8
Edge.Cuts
  6
Continuous
 62
     9
420
 12040119
370
     5
100
AcDbPolyline
 90
        2
 70
     0
 43
0.0
 10
105.5338
 20
48.31380000000001
 10
105.5338
 20
34.41379999999999
  0
LWPOLYLINE
  5
C0
330
1F
100
AcDbEntity
  8
Edge.Cuts
  6
Continuous
 62
     9
420
 12040119
370
     5
100
AcDbPolyline
 90
        2
 70
     0
 43
0.0
 10
105.5338
 20
34.41379999999999
 10
119.4338
 20
34.41379999999999
  0
LWPOLYLINE
  5
C1
330
1F
100
AcDbEntity
  8
Edge.Cuts
  6
Continuous
 62
     9
420
 12040119
370
     5
100
AcDbPolyline
 90
        2
 70
     0
 43
0.0
 10
119.4338
 20
34.41379999999999
 10
119.4338
 20
48.31380000000001
  0
LWPOLYLINE
  5
C2
330
1F
100
AcDbEntity
  8
Edge.Cuts
  6
Continuous
 62
     9
420
 12040119
370
     5
100
AcDbPolyline
 90
        2
 70
     0
 43
0.0
 10
119.4338
 20
48.31380000000001
 10
105.5338
 20
48.31380000000001
  0
LWPOLYLINE
  5
C3
330
1F
100
AcDbEntity
  8
Edge.Cuts
  6
Continuous
 62
     9
420
 12040119
370
     5
100
AcDbPolyline
 90
        2
 70
     0
 43
0.0
 10
28.901134
 20
67.459994
 10
28.928194
 20
67.43293399999999
  0
LWPOLYLINE
  5
C4
330
1F
100
AcDbEntity
  8
Edge.Cuts
  6
Continuous
 62
     9
420
 12040119
370
     5
100
AcDbPolyline
 90
        2
 70
     0
 43
0.0
 10
28.928194
 20
67.43293399999999
 10
28.93200000000001
 20
67.4138
  0
LWPOLYLINE
  5
C5
330
1F
100
AcDbEntity
  8
Edge.Cuts
  6
Continuous
 62
     9
420
 12040119
370
     5
100
AcDbPolyline
 90
        2
 70
     0
 43
0.0
 10
28.93200000000001
 20
67.4138
 10
28.93200000000001
 20
53.41379999999999
  0
LWPOLYLINE
  5
C6
330
1F
100
AcDbEntity
  8
Edge.Cuts
  6
Continuous
 62
     9
420
 12040119
370
     5
100
AcDbPolyline
 90
        2
 70
     0
 43
0.0
 10
28.93200000000001
 20
53.41379999999999
 10
28.928194
 20
53.39466599999999
  0
LWPOLYLINE
  5
C7
330
1F
100
AcDbEntity
  8
Edge.Cuts
  6
Continuous
 62
     9
420
 12040119
370
     5
100
AcDbPolyline
 90
        2
 70
     0
 43
0.0
 10
28.928194
 20
53.39466599999999
 10
28.901134
 20
53.36760599999999
  0
LWPOLYLINE
  5
C8
330
1F
100
AcDbEntity
  8
Edge.Cuts
  6
Continuous
 62
     9
420
 12040119
370
     5
100
AcDbPolyline
 90
        2
 70
     0
 43
0.0
 10
28.901134
 20
53.36760599999999
 10
28.882
 20
53.3638
  0
LWPOLYLINE
  5
C9
330
1F
100
AcDbEntity
  8
Edge.Cuts
  6
Continuous
 62
     9
420
 12040119
370
     5
100
AcDbPolyline
 90
        2
 70
     0
 43
0.0
 10
28.882
 20
53.3638
 10
14.882
 20
53.3638
  0
LWPOLYLINE
  5
CA
330
1F
100
AcDbEntity
  8
Edge.Cuts
  6
Continuous
 62
     9
420
 12040119
370
     5
100
AcDbPolyline
 90
        2
 70
     0
 43
0.0
 10
14.882
 20
53.3638
 10
14.862866
 20
53.36760599999999
  0
LWPOLYLINE
  5
CB
330
1F
100
AcDbEntity
  8
Edge.Cuts
  6
Continuous
 62
     9
420
 12040119
370
     5
100
AcDbPolyline
 90
        2
 70
     0
 43
0.0
 10
14.862866
 20
53.36760599999999
 10
14.835806
 20
53.39466599999999
  0
LWPOLYLINE
  5
CC
330
1F
100
AcDbEntity
  8
Edge.Cuts
  6
Continuous
 62
     9
420
 12040119
370
     5
100
AcDbPolyline
 90
        2
 70
     0
 43
0.0
 10
14.835806
 20
53.39466599999999
 10
14.832
 20
53.41379999999999
  0
LWPOLYLINE
  5
CD
330
1F
100
AcDbEntity
  8
Edge.Cuts
  6
Continuous
 62
     9
420
 12040119
370
     5
100
AcDbPolyline
 90
        2
 70
     0
 43
0.0
 10
14.832
 20
53.41379999999999
 10
14.832
 20
67.4138
  0
LWPOLYLINE
  5
CE
330
1F
100
AcDbEntity
  8
Edge.Cuts
  6
Continuous
 62
     9
420
 12040119
370
     5
100
AcDbPolyline
 90
        2
 70
     0
 43
0.0
 10
14.832
 20
67.4138
 10
14.835806
 20
67.43293399999999
  0
LWPOLYLINE
  5
CF
330
1F
100
AcDbEntity
  8
Edge.Cuts
  6
Continuous
 62
     9
420
 12040119
370
     5
100
AcDbPolyline
 90
        2
 70
     0
 43
0.0
 10
14.835806
 20
67.43293399999999
 10
14.862866
 20
67.459994
  0
LWPOLYLINE
  5
D0
330
1F
100
AcDbEntity
  8
Edge.Cuts
  6
Continuous
 62
     9
420
 12040119
370
     5
100
AcDbPolyline
 90
        2
 70
     0
 43
0.0
 10
14.862866
 20
67.459994
 10
14.882
 20
67.46379999999999
  0
LWPOLYLINE
  5
D1
330
1F
100
AcDbEntity
  8
Edge.Cuts
  6
Continuous
 62
     9
420
 12040119
370
     5
100
AcDbPolyline
 90
        2
 70
     0
 43
0.0
 10
14.882
 20
67.46379999999999
 10
28.882
 20
67.46379999999999
  0
LWPOLYLINE
  5
D2
330
1F
100
AcDbEntity
  8
Edge.Cuts
  6
Continuous
 62
     9
420
 12040119
370
     5
100
AcDbPolyline
 90
        2
 70
     0
 43
0.0
 10
28.882
 20
67.46379999999999
 10
28.901134
 20
67.459994
  0
LWPOLYLINE
  5
D3
330
1F
100
AcDbEntity
  8
Edge.Cuts
  6
Continuous
 62
     9
420
 12040119
370
     5
100
AcDbPolyline
 90
        2
 70
     0
 43
0.0
 10
14.932
 20
67.3638
 10
14.932
 20
53.4638
  0
LWPOLYLINE
  5
D4
330
1F
100
AcDbEntity
  8
Edge.Cuts
  6
Continuous
 62
     9
420
 12040119
370
     5
100
AcDbPolyline
 90
        2
 70
     0
 43
0.0
 10
14.932
 20
53.4638
 10
28.832
 20
53.4638
  0
LWPOLYLINE
  5
D5
330
1F
100
AcDbEntity
  8
Edge.Cuts
  6
Continuous
 62
     9
420
 12040119
370
     5
100
AcDbPolyline
 90
        2
 70
     0
 43
0.0
 10
28.832
 20
53.4638
 10
28.832
 20
67.3638
  0
LWPOLYLINE
  5
D6
330
1F
100
AcDbEntity
  8
Edge.Cuts
  6
Continuous
 62
     9
420
 12040119
370
     5
100
AcDbPolyline
 90
        2
 70
     0
 43
0.0
 10
28.832
 20
67.3638
 10
14.932
 20
67.3638
  0
LWPOLYLINE
  5
D7
330
1F
100
AcDbEntity
  8
Edge.Cuts
  6
Continuous
 62
     9
420
 12040119
370
     5
100
AcDbPolyline
 90
        2
 70
     0
 43
0.0
 10
47.951134
 20
67.459994
 10
47.97819400000001
 20
67.43293399999999
  0
LWPOLYLINE
  5
D8
330
1F
100
AcDbEntity
  8
Edge.Cuts
  6
Continuous
 62
     9
420
 12040119
370
     5
100
AcDbPolyline
 90
        2
 70
     0
 43
0.0
 10
47.97819400000001
 20
67.43293399999999
 10
47.98199999999999
 20
67.4138
  0
LWPOLYLINE
  5
D9
330
1F
100
AcDbEntity
  8
Edge.Cuts
  6
Continuous
 62
     9
420
 12040119
370
     5
100
AcDbPolyline
 90
        2
 70
     0
 43
0.0
 10
47.98199999999999
 20
67.4138
 10
47.98199999999999
 20
53.41379999999999
  0
LWPOLYLINE
  5
DA
330
1F
100
AcDbEntity
  8
Edge.Cuts
  6
Continuous
 62
     9
420
 12040119
370
     5
100
AcDbPolyline
 90
        2
 70
     0
 43
0.0
 10
47.98199999999999
 20
53.41379999999999
 10
47.97819400000001
 20
53.39466599999999
  0
LWPOLYLINE
  5
DB
330
1F
100
AcDbEntity
  8
Edge.Cuts
  6
Continuous
 62
     9
420
 12040119
370
     5
100
AcDbPolyline
 90
        2
 70
     0
 43
0.0
 10
47.97819400000001
 20
53.39466599999999
 10
47.951134
 20
53.36760599999999
  0
LWPOLYLINE
  5
DC
330
1F
100
AcDbEntity
  8
Edge.Cuts
  6
Continuous
 62
     9
420
 12040119
370
     5
100
AcDbPolyline
 90
        2
 70
     0
 43
0.0
 10
47.951134
 20
53.36760599999999
 10
47.932
 20
53.3638
  0
LWPOLYLINE
  5
DD
330
1F
100
AcDbEntity
  8
Edge.Cuts
  6
Continuous
 62
     9
420
 12040119
370
     5
100
AcDbPolyline
 90
        2
 70
     0
 43
0.0
 10
47.932
 20
53.3638
 10
33.932
 20
53.3638
  0
LWPOLYLINE
  5
DE
330
1F
100
AcDbEntity
  8
Edge.Cuts
  6
Continuous
 62
     9
420
 12040119
370
     5
100
AcDbPolyline
 90
        2
 70
     0
 43
0.0
 10
33.932
 20
53.3638
 10
33.912866
 20
53.36760599999999
  0
LWPOLYLINE
  5
DF
330
1F
100
AcDbEntity
  8
Edge.Cuts
  6
Continuous
 62
     9
420
 12040119
370
     5
100
AcDbPolyline
 90
        2
 70
     0
 43
0.0
 10
33.912866
 20
53.36760599999999
 10
33.885806
 20
53.39466599999999
  0
LWPOLYLINE
  5
E0
330
1F
100
AcDbEntity
  8
Edge.Cuts
  6
Continuous
 62
     9
420
 12040119
370
     5
100
AcDbPolyline
 90
        2
 70
     0
 43
0.0
 10
33.885806
 20
53.39466599999999
 10
33.882
 20
53.41379999999999
  0
LWPOLYLINE
  5
E1
330
1F
100
AcDbEntity
  8
Edge.Cuts
  6
Continuous
 62
     9
420
 12040119
370
     5
100
AcDbPolyline
 90
        2
 70
     0
 43
0.0
 10
33.882
 20
53.41379999999999
 10
33.882
 20
67.4138
  0
LWPOLYLINE
  5
E2
330
1F
100
AcDbEntity
  8
Edge.Cuts
  6
Continuous
 62
     9
420
 12040119
370
     5
100
AcDbPolyline
 90
        2
 70
     0
 43
0.0
 10
33.882
 20
67.4138
 10
33.885806
 20
67.43293399999999
  0
LWPOLYLINE
  5
E3
330
1F
100
AcDbEntity
  8
Edge.Cuts
  6
Continuous
 62
     9
420
 12040119
370
     5
100
AcDbPolyline
 90
        2
 70
     0
 43
0.0
 10
33.885806
 20
67.43293399999999
 10
33.912866
 20
67.459994
  0
LWPOLYLINE
  5
E4
330
1F
100
AcDbEntity
  8
Edge.Cuts
  6
Continuous
 62
     9
420
 12040119
370
     5
100
AcDbPolyline
 90
        2
 70
     0
 43
0.0
 10
33.912866
 20
67.459994
 10
33.932
 20
67.46379999999999
  0
LWPOLYLINE
  5
E5
330
1F
100
AcDbEntity
  8
Edge.Cuts
  6
Continuous
 62
     9
420
 12040119
370
     5
100
AcDbPolyline
 90
        2
 70
     0
 43
0.0
 10
33.932
 20
67.46379999999999
 10
47.932
 20
67.46379999999999
  0
LWPOLYLINE
  5
E6
330
1F
100
AcDbEntity
  8
Edge.Cuts
  6
Continuous
 62
     9
420
 12040119
370
     5
100
AcDbPolyline
 90
        2
 70
     0
 43
0.0
 10
47.932
 20
67.46379999999999
 10
47.951134
 20
67.459994
  0
LWPOLYLINE
  5
E7
330
1F
100
AcDbEntity
  8
Edge.Cuts
  6
Continuous
 62
     9
420
 12040119
370
     5
100
AcDbPolyline
 90
        2
 70
     0
 43
0.0
 10
33.982
 20
67.3638
 10
33.982
 20
53.4638
  0
LWPOLYLINE
  5
E8
330
1F
100
AcDbEntity
  8
Edge.Cuts
  6
Continuous
 62
     9
420
 12040119
370
     5
100
AcDbPolyline
 90
        2
 70
     0
 43
0.0
 10
33.982
 20
53.4638
 10
47.882
 20
53.4638
  0
LWPOLYLINE
  5
E9
330
1F
100
AcDbEntity
  8
Edge.Cuts
  6
Continuous
 62
     9
420
 12040119
370
     5
100
AcDbPolyline
 90
        2
 70
     0
 43
0.0
 10
47.882
 20
53.4638
 10
47.882
 20
67.3638
  0
LWPOLYLINE
  5
EA
330
1F
100
AcDbEntity
  8
Edge.Cuts
  6
Continuous
 62
     9
420
 12040119
370
     5
100
AcDbPolyline
 90
        2
 70
     0
 43
0.0
 10
47.882
 20
67.3638
 10
33.982
 20
67.3638
  0
LWPOLYLINE
  5
EB
330
1F
100
AcDbEntity
  8
Edge.Cuts
  6
Continuous
 62
     9
420
 12040119
370
     5
100
AcDbPolyline
 90
        2
 70
     0
 43
0.0
 10
67.035634
 20
67.459994
 10
67.062694
 20
67.43293399999999
  0
LWPOLYLINE
  5
EC
330
1F
100
AcDbEntity
  8
Edge.Cuts
  6
Continuous
 62
     9
420
 12040119
370
     5
100
AcDbPolyline
 90
        2
 70
     0
 43
0.0
 10
67.062694
 20
67.43293399999999
 10
67.0665
 20
67.4138
  0
LWPOLYLINE
  5
ED
330
1F
100
AcDbEntity
  8
Edge.Cuts
  6
Continuous
 62
     9
420
 12040119
370
     5
100
AcDbPolyline
 90
        2
 70
     0
 43
0.0
 10
67.0665
 20
67.4138
 10
67.0665
 20
53.41379999999999
  0
LWPOLYLINE
  5
EE
330
1F
100
AcDbEntity
  8
Edge.Cuts
  6
Continuous
 62
     9
420
 12040119
370
     5
100
AcDbPolyline
 90
        2
 70
     0
 43
0.0
 10
67.0665
 20
53.41379999999999
 10
67.062694
 20
53.39466599999999
  0
LWPOLYLINE
  5
EF
330
1F
100
AcDbEntity
  8
Edge.Cuts
  6
Continuous
 62
     9
420
 12040119
370
     5
100
AcDbPolyline
 90
        2
 70
     0
 43
0.0
 10
67.062694
 20
53.39466599999999
 10
67.035634
 20
53.36760599999999
  0
LWPOLYLINE
  5
F0
330
1F
100
AcDbEntity
  8
Edge.Cuts
  6
Continuous
 62
     9
420
 12040119
370
     5
100
AcDbPolyline
 90
        2
 70
     0
 43
0.0
 10
67.035634
 20
53.36760599999999
 10
67.01650000000001
 20
53.3638
  0
LWPOLYLINE
  5
F1
330
1F
100
AcDbEntity
  8
Edge.Cuts
  6
Continuous
 62
     9
420
 12040119
370
     5
100
AcDbPolyline
 90
        2
 70
     0
 43
0.0
 10
67.01650000000001
 20
53.3638
 10
53.0165
 20
53.3638
  0
LWPOLYLINE
  5
F2
330
1F
100
AcDbEntity
  8
Edge.Cuts
  6
Continuous
 62
     9
420
 12040119
370
     5
100
AcDbPolyline
 90
        2
 70
     0
 43
0.0
 10
53.0165
 20
53.3638
 10
52.997366
 20
53.36760599999999
  0
LWPOLYLINE
  5
F3
330
1F
100
AcDbEntity
  8
Edge.Cuts
  6
Continuous
 62
     9
420
 12040119
370
     5
100
AcDbPolyline
 90
        2
 70
     0
 43
0.0
 10
52.997366
 20
53.36760599999999
 10
52.97030599999999
 20
53.39466599999999
  0
LWPOLYLINE
  5
F4
330
1F
100
AcDbEntity
  8
Edge.Cuts
  6
Continuous
 62
     9
420
 12040119
370
     5
100
AcDbPolyline
 90
        2
 70
     0
 43
0.0
 10
52.97030599999999
 20
53.39466599999999
 10
52.9665
 20
53.41379999999999
  0
LWPOLYLINE
  5
F5
330
1F
100
AcDbEntity
  8
Edge.Cuts
  6
Continuous
 62
     9
420
 12040119
370
     5
100
AcDbPolyline
 90
        2
 70
     0
 43
0.0
 10
52.9665
 20
53.41379999999999
 10
52.9665
 20
67.4138
  0
LWPOLYLINE
  5
F6
330
1F
100
AcDbEntity
  8
Edge.Cuts
  6
Continuous
 62
     9
420
 12040119
370
     5
100
AcDbPolyline
 90
        2
 70
     0
 43
0.0
 10
52.9665
 20
67.4138
 10
52.97030599999999
 20
67.43293399999999
  0
LWPOLYLINE
  5
F7
330
1F
100
AcDbEntity
  8
Edge.Cuts
  6
Continuous
 62
     9
420
 12040119
370
     5
100
AcDbPolyline
 90
        2
 70
     0
 43
0.0
 10
52.97030599999999
 20
67.43293399999999
 10
52.997366
 20
67.459994
  0
LWPOLYLINE
  5
F8
330
1F
100
AcDbEntity
  8
Edge.Cuts
  6
Continuous
 62
     9
420
 12040119
370
     5
100
AcDbPolyline
 90
        2
 70
     0
 43
0.0
 10
52.997366
 20
67.459994
 10
53.0165
 20
67.46379999999999
  0
LWPOLYLINE
  5
F9
330
1F
100
AcDbEntity
  8
Edge.Cuts
  6
Continuous
 62
     9
420
 12040119
370
     5
100
AcDbPolyline
 90
        2
 70
     0
 43
0.0
 10
53.0165
 20
67.46379999999999
 10
67.01650000000001
 20
67.46379999999999
  0
LWPOLYLINE
  5
FA
330
1F
100
AcDbEntity
  8
Edge.Cuts
  6
Continuous
 62
     9
420
 12040119
370
     5
100
AcDbPolyline
 90
        2
 70
     0
 43
0.0
 10
67.01650000000001
 20
67.46379999999999
 10
67.035634
 20
67.459994
  0
LWPOLYLINE
  5
FB
330
1F
100
AcDbEntity
  8
Edge.Cuts
  6
Continuous
 62
     9
420
 12040119
370
     5
100
AcDbPolyline
 90
        2
 70
     0
 43
0.0
 10
53.0665
 20
67.3638
 10
53.0665
 20
53.4638
  0
LWPOLYLINE
  5
FC
330
1F
100
AcDbEntity
  8
Edge.Cuts
  6
Continuous
 62
     9
420
 12040119
370
     5
100
AcDbPolyline
 90
        2
 70
     0
 43
0.0
 10
53.0665
 20
53.4638
 10
66.9665
 20
53.4638
  0
LWPOLYLINE
  5
FD
330
1F
100
AcDbEntity
  8
Edge.Cuts
  6
Continuous
 62
     9
420
 12040119
370
     5
100
AcDbPolyline
 90
        2
 70
     0
 43
0.0
 10
66.9665
 20
53.4638
 10
66.9665
 20
67.3638
  0
LWPOLYLINE
  5
FE
330
1F
100
AcDbEntity
  8
Edge.Cuts
  6
Continuous
 62
     9
420
 12040119
370
     5
100
AcDbPolyline
 90
        2
 70
     0
 43
0.0
 10
66.9665
 20
67.3638
 10
53.0665
 20
67.3638
  0
LWPOLYLINE
  5
FF
330
1F
100
AcDbEntity
  8
Edge.Cuts
  6
Continuous
 62
     9
420
 12040119
370
     5
100
AcDbPolyline
 90
        2
 70
     0
 43
0.0
 10
86.051134
 20
67.459994
 10
86.078194
 20
67.43293399999999
  0
LWPOLYLINE
  5
100
330
1F
100
AcDbEntity
  8
Edge.Cuts
  6
Continuous
 62
     9
420
 12040119
370
     5
100
AcDbPolyline
 90
        2
 70
     0
 43
0.0
 10
86.078194
 20
67.43293399999999
 10
86.082
 20
67.4138
  0
LWPOLYLINE
  5
101
330
1F
100
AcDbEntity
  8
Edge.Cuts
  6
Continuous
 62
     9
420
 12040119
370
     5
100
AcDbPolyline
 90
        2
 70
     0
 43
0.0
 10
86.082
 20
67.4138
 10
86.082
 20
53.41379999999999
  0
LWPOLYLINE
  5
102
330
1F
100
AcDbEntity
  8
Edge.Cuts
  6
Continuous
 62
     9
420
 12040119
370
     5
100
AcDbPolyline
 90
        2
 70
     0
 43
0.0
 10
86.082
 20
53.41379999999999
 10
86.078194
 20
53.39466599999999
  0
LWPOLYLINE
  5
103
330
1F
100
AcDbEntity
  8
Edge.Cuts
  6
Continuous
 62
     9
420
 12040119
370
     5
100
AcDbPolyline
 90
        2
 70
     0
 43
0.0
 10
86.078194
 20
53.39466599999999
 10
86.051134
 20
53.36760599999999
  0
LWPOLYLINE
  5
104
330
1F
100
AcDbEntity
  8
Edge.Cuts
  6
Continuous
 62
     9
420
 12040119
370
     5
100
AcDbPolyline
 90
        2
 70
     0
 43
0.0
 10
86.051134
 20
53.36760599999999
 10
86.032
 20
53.3638
  0
LWPOLYLINE
  5
105
330
1F
100
AcDbEntity
  8
Edge.Cuts
  6
Continuous
 62
     9
420
 12040119
370
     5
100
AcDbPolyline
 90
        2
 70
     0
 43
0.0
 10
86.032
 20
53.3638
 10
72.032
 20
53.3638
  0
LWPOLYLINE
  5
106
330
1F
100
AcDbEntity
  8
Edge.Cuts
  6
Continuous
 62
     9
420
 12040119
370
     5
100
AcDbPolyline
 90
        2
 70
     0
 43
0.0
 10
72.032
 20
53.3638
 10
72.012866
 20
53.36760599999999
  0
LWPOLYLINE
  5
107
330
1F
100
AcDbEntity
  8
Edge.Cuts
  6
Continuous
 62
     9
420
 12040119
370
     5
100
AcDbPolyline
 90
        2
 70
     0
 43
0.0
 10
72.012866
 20
53.36760599999999
 10
71.985806
 20
53.39466599999999
  0
LWPOLYLINE
  5
108
330
1F
100
AcDbEntity
  8
Edge.Cuts
  6
Continuous
 62
     9
420
 12040119
370
     5
100
AcDbPolyline
 90
        2
 70
     0
 43
0.0
 10
71.985806
 20
53.39466599999999
 10
71.982
 20
53.41379999999999
  0
LWPOLYLINE
  5
109
330
1F
100
AcDbEntity
  8
Edge.Cuts
  6
Continuous
 62
     9
420
 12040119
370
     5
100
AcDbPolyline
 90
        2
 70
     0
 43
0.0
 10
71.982
 20
53.41379999999999
 10
71.982
 20
67.4138
  0
LWPOLYLINE
  5
10A
330
1F
100
AcDbEntity
  8
Edge.Cuts
  6
Continuous
 62
     9
420
 12040119
370
     5
100
AcDbPolyline
 90
        2
 70
     0
 43
0.0
 10
71.982
 20
67.4138
 10
71.985806
 20
67.43293399999999
  0
LWPOLYLINE
  5
10B
330
1F
100
AcDbEntity
  8
Edge.Cuts
  6
Continuous
 62
     9
420
 12040119
370
     5
100
AcDbPolyline
 90
        2
 70
     0
 43
0.0
 10
71.985806
 20
67.43293399999999
 10
72.012866
 20
67.459994
  0
LWPOLYLINE
  5
10C
330
1F
100
AcDbEntity
  8
Edge.Cuts
  6
Continuous
 62
     9
420
 12040119
370
     5
100
AcDbPolyline
 90
        2
 70
     0
 43
0.0
 10
72.012866
 20
67.459994
 10
72.032
 20
67.46379999999999
  0
LWPOLYLINE
  5
10D
330
1F
100
AcDbEntity
  8
Edge.Cuts
  6
Continuous
 62
     9
420
 12040119
370
     5
100
AcDbPolyline
 90
        2
 70
     0
 43
0.0
 10
72.032
 20
67.46379999999999
 10
86.032
 20
67.46379999999999
  0
LWPOLYLINE
  5
10E
330
1F
100
AcDbEntity
  8
Edge.Cuts
  6
Continuous
 62
     9
420
 12040119
370
     5
100
AcDbPolyline
 90
        2
 70
     0
 43
0.0
 10
86.032
 20
67.46379999999999
 10
86.051134
 20
67.459994
  0
LWPOLYLINE
  5
10F
330
1F
100
AcDbEntity
  8
Edge.Cuts
  6
Continuous
 62
     9
420
 12040119
370
     5
100
AcDbPolyline
 90
        2
 70
     0
 43
0.0
 10
72.08200000000001
 20
67.3638
 10
72.08200000000001
 20
53.4638
  0
LWPOLYLINE
  5
110
330
1F
100
AcDbEntity
  8
Edge.Cuts
  6
Continuous
 62
     9
420
 12040119
370
     5
100
AcDbPolyline
 90
        2
 70
     0
 43
0.0
 10
72.08200000000001
 20
53.4638
 10
85.982
 20
53.4638
  0
LWPOLYLINE
  5
111
330
1F
100
AcDbEntity
  8
Edge.Cuts
  6
Continuous
 62
     9
420
 12040119
370
     5
100
AcDbPolyline
 90
        2
 70
     0
 43
0.0
 10
85.982
 20
53.4638
 10
85.982
 20
67.3638
  0
LWPOLYLINE
  5
112
330
1F
100
AcDbEntity
  8
Edge.Cuts
  6
Continuous
 62
     9
420
 12040119
370
     5
100
AcDbPolyline
 90
        2
 70
     0
 43
0.0
 10
85.982
 20
67.3638
 10
72.08200000000001
 20
67.3638
  0
LWPOLYLINE
  5
113
330
1F
100
AcDbEntity
  8
Edge.Cuts
  6
Continuous
 62
     9
420
 12040119
370
     5
100
AcDbPolyline
 90
        2
 70
     0
 43
0.0
 10
124.201934
 20
67.459994
 10
124.228994
 20
67.43293399999999
  0
LWPOLYLINE
  5
114
330
1F
100
AcDbEntity
  8
Edge.Cuts
  6
Continuous
 62
     9
420
 12040119
370
     5
100
AcDbPolyline
 90
        2
 70
     0
 43
0.0
 10
124.228994
 20
67.43293399999999
 10
124.2328
 20
67.4138
  0
LWPOLYLINE
  5
115
330
1F
100
AcDbEntity
  8
Edge.Cuts
  6
Continuous
 62
     9
420
 12040119
370
     5
100
AcDbPolyline
 90
        2
 70
     0
 43
0.0
 10
124.2328
 20
67.4138
 10
124.2328
 20
53.41379999999999
  0
LWPOLYLINE
  5
116
330
1F
100
AcDbEntity
  8
Edge.Cuts
  6
Continuous
 62
     9
420
 12040119
370
     5
100
AcDbPolyline
 90
        2
 70
     0
 43
0.0
 10
124.2328
 20
53.41379999999999
 10
124.228994
 20
53.39466599999999
  0
LWPOLYLINE
  5
117
330
1F
100
AcDbEntity
  8
Edge.Cuts
  6
Continuous
 62
     9
420
 12040119
370
     5
100
AcDbPolyline
 90
        2
 70
     0
 43
0.0
 10
124.228994
 20
53.39466599999999
 10
124.201934
 20
53.36760599999999
  0
LWPOLYLINE
  5
118
330
1F
100
AcDbEntity
  8
Edge.Cuts
  6
Continuous
 62
     9
420
 12040119
370
     5
100
AcDbPolyline
 90
        2
 70
     0
 43
0.0
 10
124.201934
 20
53.36760599999999
 10
124.1828
 20
53.3638
  0
LWPOLYLINE
  5
119
330
1F
100
AcDbEntity
  8
Edge.Cuts
  6
Continuous
 62
     9
420
 12040119
370
     5
100
AcDbPolyline
 90
        2
 70
     0
 43
0.0
 10
124.1828
 20
53.3638
 10
110.1828
 20
53.3638
  0
LWPOLYLINE
  5
11A
330
1F
100
AcDbEntity
  8
Edge.Cuts
  6
Continuous
 62
     9
420
 12040119
370
     5
100
AcDbPolyline
 90
        2
 70
     0
 43
0.0
 10
110.1828
 20
53.3638
 10
110.163666
 20
53.36760599999999
  0
LWPOLYLINE
  5
11B
330
1F
100
AcDbEntity
  8
Edge.Cuts
  6
Continuous
 62
     9
420
 12040119
370
     5
100
AcDbPolyline
 90
        2
 70
     0
 43
0.0
 10
110.163666
 20
53.36760599999999
 10
110.136606
 20
53.39466599999999
  0
LWPOLYLINE
  5
11C
330
1F
100
AcDbEntity
  8
Edge.Cuts
  6
Continuous
 62
     9
420
 12040119
370
     5
100
AcDbPolyline
 90
        2
 70
     0
 43
0.0
 10
110.136606
 20
53.39466599999999
 10
110.1328
 20
53.41379999999999
  0
LWPOLYLINE
  5
11D
330
1F
100
AcDbEntity
  8
Edge.Cuts
  6
Continuous
 62
     9
420
 12040119
370
     5
100
AcDbPolyline
 90
        2
 70
     0
 43
0.0
 10
110.1328
 20
53.41379999999999
 10
110.1328
 20
67.4138
  0
LWPOLYLINE
  5
11E
330
1F
100
AcDbEntity
  8
Edge.Cuts
  6
Continuous
 62
     9
420
 12040119
370
     5
100
AcDbPolyline
 90
        2
 70
     0
 43
0.0
 10
110.1328
 20
67.4138
 10
110.136606
 20
67.43293399999999
  0
LWPOLYLINE
  5
11F
330
1F
100
AcDbEntity
  8
Edge.Cuts
  6
Continuous
 62
     9
420
 12040119
370
     5
100
AcDbPolyline
 90
        2
 70
     0
 43
0.0
 10
110.136606
 20
67.43293399999999
 10
110.163666
 20
67.459994
  0
LWPOLYLINE
  5
120
330
1F
100
AcDbEntity
  8
Edge.Cuts
  6
Continuous
 62
     9
420
 12040119
370
     5
100
AcDbPolyline
 90
        2
 70
     0
 43
0.0
 10
110.163666
 20
67.459994
 10
110.1828
 20
67.46379999999999
  0
LWPOLYLINE
  5
121
330
1F
100
AcDbEntity
  8
Edge.Cuts
  6
Continuous
 62
     9
420
 12040119
370
     5
100
AcDbPolyline
 90
        2
 70
     0
 43
0.0
 10
110.1828
 20
67.46379999999999
 10
124.1828
 20
67.46379999999999
  0
LWPOLYLINE
  5
122
330
1F
100
AcDbEntity
  8
Edge.Cuts
  6
Continuous
 62
     9
420
 12040119
370
     5
100
AcDbPolyline
 90
        2
 70
     0
 43
0.0
 10
124.1828
 20
67.46379999999999
 10
124.201934
 20
67.459994
  0
LWPOLYLINE
  5
123
330
1F
100
AcDbEntity
  8
Edge.Cuts
  6
Continuous
 62
     9
420
 12040119
370
     5
100
AcDbPolyline
 90
        2
 70
     0
 43
0.0
 10
110.2328
 20
67.3638
 10
110.2328
 20
53.4638
  0
LWPOLYLINE
  5
124
330
1F
100
AcDbEntity
  8
Edge.Cuts
  6
Continuous
 62
     9
420
 12040119
370
     5
100
AcDbPolyline
 90
        2
 70
     0
 43
0.0
 10
110.2328
 20
53.4638
 10
124.1328
 20
53.4638
  0
LWPOLYLINE
  5
125
330
1F
100
AcDbEntity
  8
Edge.Cuts
  6
Continuous
 62
     9
420
 12040119
370
     5
100
AcDbPolyline
 90
        2
 70
     0
 43
0.0
 10
124.1328
 20
53.4638
 10
124.1328
 20
67.3638
  0
LWPOLYLINE
  5
126
330
1F
100
AcDbEntity
  8
Edge.Cuts
  6
Continuous
 62
     9
420
 12040119
370
     5
100
AcDbPolyline
 90
        2
 70
     0
 43
0.0
 10
124.1328
 20
67.3638
 10
110.2328
 20
67.3638
  0
LWPOLYLINE
  5
127
330
1F
100
AcDbEntity
  8
Edge.Cuts
  6
Continuous
 62
     9
420
 12040119
370
     5
100
AcDbPolyline
 90
        2
 70
     0
 43
0.0
 10
143.286434
 20
67.459994
 10
143.313494
 20
67.43293399999999
  0
LWPOLYLINE
  5
128
330
1F
100
AcDbEntity
  8
Edge.Cuts
  6
Continuous
 62
     9
420
 12040119
370
     5
100
AcDbPolyline
 90
        2
 70
     0
 43
0.0
 10
143.313494
 20
67.43293399999999
 10
143.3173
 20
67.4138
  0
LWPOLYLINE
  5
129
330
1F
100
AcDbEntity
  8
Edge.Cuts
  6
Continuous
 62
     9
420
 12040119
370
     5
100
AcDbPolyline
 90
        2
 70
     0
 43
0.0
 10
143.3173
 20
67.4138
 10
143.3173
 20
53.41379999999999
  0
LWPOLYLINE
  5
12A
330
1F
100
AcDbEntity
  8
Edge.Cuts
  6
Continuous
 62
     9
420
 12040119
370
     5
100
AcDbPolyline
 90
        2
 70
     0
 43
0.0
 10
143.3173
 20
53.41379999999999
 10
143.313494
 20
53.39466599999999
  0
LWPOLYLINE
  5
12B
330
1F
100
AcDbEntity
  8
Edge.Cuts
  6
Continuous
 62
     9
420
 12040119
370
     5
100
AcDbPolyline
 90
        2
 70
     0
 43
0.0
 10
143.313494
 20
53.39466599999999
 10
143.286434
 20
53.36760599999999
  0
LWPOLYLINE
  5
12C
330
1F
100
AcDbEntity
  8
Edge.Cuts
  6
Continuous
 62
     9
420
 12040119
370
     5
100
AcDbPolyline
 90
        2
 70
     0
 43
0.0
 10
143.286434
 20
53.36760599999999
 10
143.2673
 20
53.3638
  0
LWPOLYLINE
  5
12D
330
1F
100
AcDbEntity
  8
Edge.Cuts
  6
Continuous
 62
     9
420
 12040119
370
     5
100
AcDbPolyline
 90
        2
 70
     0
 43
0.0
 10
143.2673
 20
53.3638
 10
129.2673
 20
53.3638
  0
LWPOLYLINE
  5
12E
330
1F
100
AcDbEntity
  8
Edge.Cuts
  6
Continuous
 62
     9
420
 12040119
370
     5
100
AcDbPolyline
 90
        2
 70
     0
 43
0.0
 10
129.2673
 20
53.3638
 10
129.248166
 20
53.36760599999999
  0
LWPOLYLINE
  5
12F
330
1F
100
AcDbEntity
  8
Edge.Cuts
  6
Continuous
 62
     9
420
 12040119
370
     5
100
AcDbPolyline
 90
        2
 70
     0
 43
0.0
 10
129.248166
 20
53.36760599999999
 10
129.221106
 20
53.39466599999999
  0
LWPOLYLINE
  5
130
330
1F
100
AcDbEntity
  8
Edge.Cuts
  6
Continuous
 62
     9
420
 12040119
370
     5
100
AcDbPolyline
 90
        2
 70
     0
 43
0.0
 10
129.221106
 20
53.39466599999999
 10
129.2173
 20
53.41379999999999
  0
LWPOLYLINE
  5
131
330
1F
100
AcDbEntity
  8
Edge.Cuts
  6
Continuous
 62
     9
420
 12040119
370
     5
100
AcDbPolyline
 90
        2
 70
     0
 43
0.0
 10
129.2173
 20
53.41379999999999
 10
129.2173
 20
67.4138
  0
LWPOLYLINE
  5
132
330
1F
100
AcDbEntity
  8
Edge.Cuts
  6
Continuous
 62
     9
420
 12040119
370
     5
100
AcDbPolyline
 90
        2
 70
     0
 43
0.0
 10
129.2173
 20
67.4138
 10
129.221106
 20
67.43293399999999
  0
LWPOLYLINE
  5
133
330
1F
100
AcDbEntity
  8
Edge.Cuts
  6
Continuous
 62
     9
420
 12040119
370
     5
100
AcDbPolyline
 90
        2
 70
     0
 43
0.0
 10
129.221106
 20
67.43293399999999
 10
129.248166
 20
67.459994
  0
LWPOLYLINE
  5
134
330
1F
100
AcDbEntity
  8
Edge.Cuts
  6
Continuous
 62
     9
420
 12040119
370
     5
100
AcDbPolyline
 90
        2
 70
     0
 43
0.0
 10
129.248166
 20
67.459994
 10
129.2673
 20
67.46379999999999
  0
LWPOLYLINE
  5
135
330
1F
100
AcDbEntity
  8
Edge.Cuts
  6
Continuous
 62
     9
420
 12040119
370
     5
100
AcDbPolyline
 90
        2
 70
     0
 43
0.0
 10
129.2673
 20
67.46379999999999
 10
143.2673
 20
67.46379999999999
  0
LWPOLYLINE
  5
136
330
1F
100
AcDbEntity
  8
Edge.Cuts
  6
Continuous
 62
     9
420
 12040119
370
     5
100
AcDbPolyline
 90
        2
 70
     0
 43
0.0
 10
143.2673
 20
67.46379999999999
 10
143.286434
 20
67.459994
  0
LWPOLYLINE
  5
137
330
1F
100
AcDbEntity
  8
Edge.Cuts
  6
Continuous
 62
     9
420
 12040119
370
     5
100
AcDbPolyline
 90
        2
 70
     0
 43
0.0
 10
129.3173
 20
67.3638
 10
129.3173
 20
53.4638
  0
LWPOLYLINE
  5
138
330
1F
100
AcDbEntity
  8
Edge.Cuts
  6
Continuous
 62
     9
420
 12040119
370
     5
100
AcDbPolyline
 90
        2
 70
     0
 43
0.0
 10
129.3173
 20
53.4638
 10
143.2173
 20
53.4638
  0
LWPOLYLINE
  5
139
330
1F
100
AcDbEntity
  8
Edge.Cuts
  6
Continuous
 62
     9
420
 12040119
370
     5
100
AcDbPolyline
 90
        2
 70
     0
 43
0.0
 10
143.2173
 20
53.4638
 10
143.2173
 20
67.3638
  0
LWPOLYLINE
  5
13A
330
1F
100
AcDbEntity
  8
Edge.Cuts
  6
Continuous
 62
     9
420
 12040119
370
     5
100
AcDbPolyline
 90
        2
 70
     0
 43
0.0
 10
143.2173
 20
67.3638
 10
129.3173
 20
67.3638
  0
LWPOLYLINE
  5
13B
330
1F
100
AcDbEntity
  8
Edge.Cuts
  6
Continuous
 62
     9
420
 12040119
370
     5
100
AcDbPolyline
 90
        2
 70
     0
 43
0.0
 10
162.336434
 20
67.459994
 10
162.363494
 20
67.43293399999999
  0
LWPOLYLINE
  5
13C
330
1F
100
AcDbEntity
  8
Edge.Cuts
  6
Continuous
 62
     9
420
 12040119
370
     5
100
AcDbPolyline
 90
        2
 70
     0
 43
0.0
 10
162.363494
 20
67.43293399999999
 10
162.3673
 20
67.4138
  0
LWPOLYLINE
  5
13D
330
1F
100
AcDbEntity
  8
Edge.Cuts
  6
Continuous
 62
     9
420
 12040119
370
     5
100
AcDbPolyline
 90
        2
 70
     0
 43
0.0
 10
162.3673
 20
67.4138
 10
162.3673
 20
53.41379999999999
  0
LWPOLYLINE
  5
13E
330
1F
100
AcDbEntity
  8
Edge.Cuts
  6
Continuous
 62
     9
420
 12040119
370
     5
100
AcDbPolyline
 90
        2
 70
     0
 43
0.0
 10
162.3673
 20
53.41379999999999
 10
162.363494
 20
53.39466599999999
  0
LWPOLYLINE
  5
13F
330
1F
100
AcDbEntity
  8
Edge.Cuts
  6
Continuous
 62
     9
420
 12040119
370
     5
100
AcDbPolyline
 90
        2
 70
     0
 43
0.0
 10
162.363494
 20
53.39466599999999
 10
162.336434
 20
53.36760599999999
  0
LWPOLYLINE
  5
140
330
1F
100
AcDbEntity
  8
Edge.Cuts
  6
Continuous
 62
     9
420
 12040119
370
     5
100
AcDbPolyline
 90
        2
 70
     0
 43
0.0
 10
162.336434
 20
53.36760599999999
 10
162.3173
 20
53.3638
  0
LWPOLYLINE
  5
141
330
1F
100
AcDbEntity
  8
Edge.Cuts
  6
Continuous
 62
     9
420
 12040119
370
     5
100
AcDbPolyline
 90
        2
 70
     0
 43
0.0
 10
162.3173
 20
53.3638
 10
148.3173
 20
53.3638
  0
LWPOLYLINE
  5
142
330
1F
100
AcDbEntity
  8
Edge.Cuts
  6
Continuous
 62
     9
420
 12040119
370
     5
100
AcDbPolyline
 90
        2
 70
     0
 43
0.0
 10
148.3173
 20
53.3638
 10
148.298166
 20
53.36760599999999
  0
LWPOLYLINE
  5
143
330
1F
100
AcDbEntity
  8
Edge.Cuts
  6
Continuous
 62
     9
420
 12040119
370
     5
100
AcDbPolyline
 90
        2
 70
     0
 43
0.0
 10
148.298166
 20
53.36760599999999
 10
148.271106
 20
53.39466599999999
  0
LWPOLYLINE
  5
144
330
1F
100
AcDbEntity
  8
Edge.Cuts
  6
Continuous
 62
     9
420
 12040119
370
     5
100
AcDbPolyline
 90
        2
 70
     0
 43
0.0
 10
148.271106
 20
53.39466599999999
 10
148.2673
 20
53.41379999999999
  0
LWPOLYLINE
  5
145
330
1F
100
AcDbEntity
  8
Edge.Cuts
  6
Continuous
 62
     9
420
 12040119
370
     5
100
AcDbPolyline
 90
        2
 70
     0
 43
0.0
 10
148.2673
 20
53.41379999999999
 10
148.2673
 20
67.4138
  0
LWPOLYLINE
  5
146
330
1F
100
AcDbEntity
  8
Edge.Cuts
  6
Continuous
 62
     9
420
 12040119
370
     5
100
AcDbPolyline
 90
        2
 70
     0
 43
0.0
 10
148.2673
 20
67.4138
 10
148.271106
 20
67.43293399999999
  0
LWPOLYLINE
  5
147
330
1F
100
AcDbEntity
  8
Edge.Cuts
  6
Continuous
 62
     9
420
 12040119
370
     5
100
AcDbPolyline
 90
        2
 70
     0
 43
0.0
 10
148.271106
 20
67.43293399999999
 10
148.298166
 20
67.459994
  0
LWPOLYLINE
  5
148
330
1F
100
AcDbEntity
  8
Edge.Cuts
  6
Continuous
 62
     9
420
 12040119
370
     5
100
AcDbPolyline
 90
        2
 70
     0
 43
0.0
 10
148.298166
 20
67.459994
 10
148.3173
 20
67.46379999999999
  0
LWPOLYLINE
  5
149
330
1F
100
AcDbEntity
  8
Edge.Cuts
  6
Continuous
 62
     9
420
 12040119
370
     5
100
AcDbPolyline
 90
        2
 70
     0
 43
0.0
 10
148.3173
 20
67.46379999999999
 10
162.3173
 20
67.46379999999999
  0
LWPOLYLINE
  5
14A
330
1F
100
AcDbEntity
  8
Edge.Cuts
  6
Continuous
 62
     9
420
 12040119
370
     5
100
AcDbPolyline
 90
        2
 70
     0
 43
0.0
 10
162.3173
 20
67.46379999999999
 10
162.336434
 20
67.459994
  0
LWPOLYLINE
  5
14B
330
1F
100
AcDbEntity
  8
Edge.Cuts
  6
Continuous
 62
     9
420
 12040119
370
     5
100
AcDbPolyline
 90
        2
 70
     0
 43
0.0
 10
148.3673
 20
67.3638
 10
148.3673
 20
53.4638
  0
LWPOLYLINE
  5
14C
330
1F
100
AcDbEntity
  8
Edge.Cuts
  6
Continuous
 62
     9
420
 12040119
370
     5
100
AcDbPolyline
 90
        2
 70
     0
 43
0.0
 10
148.3673
 20
53.4638
 10
162.2673
 20
53.4638
  0
LWPOLYLINE
  5
14D
330
1F
100
AcDbEntity
  8
Edge.Cuts
  6
Continuous
 62
     9
420
 12040119
370
     5
100
AcDbPolyline
 90
        2
 70
     0
 43
0.0
 10
162.2673
 20
53.4638
 10
162.2673
 20
67.3638
  0
LWPOLYLINE
  5
14E
330
1F
100
AcDbEntity
  8
Edge.Cuts
  6
Continuous
 62
     9
420
 12040119
370
     5
100
AcDbPolyline
 90
        2
 70
     0
 43
0.0
 10
162.2673
 20
67.3638
 10
148.3673
 20
67.3638
  0
LWPOLYLINE
  5
14F
330
1F
100
AcDbEntity
  8
Edge.Cuts
  6
Continuous
 62
     9
420
 12040119
370
     5
100
AcDbPolyline
 90
        2
 70
     0
 43
0.0
 10
181.420934
 20
67.459994
 10
181.447994
 20
67.43293399999999
  0
LWPOLYLINE
  5
150
330
1F
100
AcDbEntity
  8
Edge.Cuts
  6
Continuous
 62
     9
420
 12040119
370
     5
100
AcDbPolyline
 90
        2
 70
     0
 43
0.0
 10
181.447994
 20
67.43293399999999
 10
181.4518
 20
67.4138
  0
LWPOLYLINE
  5
151
330
1F
100
AcDbEntity
  8
Edge.Cuts
  6
Continuous
 62
     9
420
 12040119
370
     5
100
AcDbPolyline
 90
        2
 70
     0
 43
0.0
 10
181.4518
 20
67.4138
 10
181.4518
 20
53.41379999999999
  0
LWPOLYLINE
  5
152
330
1F
100
AcDbEntity
  8
Edge.Cuts
  6
Continuous
 62
     9
420
 12040119
370
     5
100
AcDbPolyline
 90
        2
 70
     0
 43
0.0
 10
181.4518
 20
53.41379999999999
 10
181.447994
 20
53.39466599999999
  0
LWPOLYLINE
  5
153
330
1F
100
AcDbEntity
  8
Edge.Cuts
  6
Continuous
 62
     9
420
 12040119
370
     5
100
AcDbPolyline
 90
        2
 70
     0
 43
0.0
 10
181.447994
 20
53.39466599999999
 10
181.420934
 20
53.36760599999999
  0
LWPOLYLINE
  5
154
330
1F
100
AcDbEntity
  8
Edge.Cuts
  6
Continuous
 62
     9
420
 12040119
370
     5
100
AcDbPolyline
 90
        2
 70
     0
 43
0.0
 10
181.420934
 20
53.36760599999999
 10
181.4018
 20
53.3638
  0
LWPOLYLINE
  5
155
330
1F
100
AcDbEntity
  8
Edge.Cuts
  6
Continuous
 62
     9
420
 12040119
370
     5
100
AcDbPolyline
 90
        2
 70
     0
 43
0.0
 10
181.4018
 20
53.3638
 10
167.4018
 20
53.3638
  0
LWPOLYLINE
  5
156
330
1F
100
AcDbEntity
  8
Edge.Cuts
  6
Continuous
 62
     9
420
 12040119
370
     5
100
AcDbPolyline
 90
        2
 70
     0
 43
0.0
 10
167.4018
 20
53.3638
 10
167.382666
 20
53.36760599999999
  0
LWPOLYLINE
  5
157
330
1F
100
AcDbEntity
  8
Edge.Cuts
  6
Continuous
 62
     9
420
 12040119
370
     5
100
AcDbPolyline
 90
        2
 70
     0
 43
0.0
 10
167.382666
 20
53.36760599999999
 10
167.355606
 20
53.39466599999999
  0
LWPOLYLINE
  5
158
330
1F
100
AcDbEntity
  8
Edge.Cuts
  6
Continuous
 62
     9
420
 12040119
370
     5
100
AcDbPolyline
 90
        2
 70
     0
 43
0.0
 10
167.355606
 20
53.39466599999999
 10
167.3518
 20
53.41379999999999
  0
LWPOLYLINE
  5
159
330
1F
100
AcDbEntity
  8
Edge.Cuts
  6
Continuous
 62
     9
420
 12040119
370
     5
100
AcDbPolyline
 90
        2
 70
     0
 43
0.0
 10
167.3518
 20
53.41379999999999
 10
167.3518
 20
67.4138
  0
LWPOLYLINE
  5
15A
330
1F
100
AcDbEntity
  8
Edge.Cuts
  6
Continuous
 62
     9
420
 12040119
370
     5
100
AcDbPolyline
 90
        2
 70
     0
 43
0.0
 10
167.3518
 20
67.4138
 10
167.355606
 20
67.43293399999999
  0
LWPOLYLINE
  5
15B
330
1F
100
AcDbEntity
  8
Edge.Cuts
  6
Continuous
 62
     9
420
 12040119
370
     5
100
AcDbPolyline
 90
        2
 70
     0
 43
0.0
 10
167.355606
 20
67.43293399999999
 10
167.382666
 20
67.459994
  0
LWPOLYLINE
  5
15C
330
1F
100
AcDbEntity
  8
Edge.Cuts
  6
Continuous
 62
     9
420
 12040119
370
     5
100
AcDbPolyline
 90
        2
 70
     0
 43
0.0
 10
167.382666
 20
67.459994
 10
167.4018
 20
67.46379999999999
  0
LWPOLYLINE
  5
15D
330
1F
100
AcDbEntity
  8
Edge.Cuts
  6
Continuous
 62
     9
420
 12040119
370
     5
100
AcDbPolyline
 90
        2
 70
     0
 43
0.0
 10
167.4018
 20
67.46379999999999
 10
181.4018
 20
67.46379999999999
  0
LWPOLYLINE
  5
15E
330
1F
100
AcDbEntity
  8
Edge.Cuts
  6
Continuous
 62
     9
420
 12040119
370
     5
100
AcDbPolyline
 90
        2
 70
     0
 43
0.0
 10
181.4018
 20
67.46379999999999
 10
181.420934
 20
67.459994
  0
LWPOLYLINE
  5
15F
330
1F
100
AcDbEntity
  8
Edge.Cuts
  6
Continuous
 62
     9
420
 12040119
370
     5
100
AcDbPolyline
 90
        2
 70
     0
 43
0.0
 10
167.4518
 20
67.3638
 10
167.4518
 20
53.4638
  0
LWPOLYLINE
  5
160
330
1F
100
AcDbEntity
  8
Edge.Cuts
  6
Continuous
 62
     9
420
 12040119
370
     5
100
AcDbPolyline
 90
        2
 70
     0
 43
0.0
 10
167.4518
 20
53.4638
 10
181.3518
 20
53.4638
  0
LWPOLYLINE
  5
161
330
1F
100
AcDbEntity
  8
Edge.Cuts
  6
Continuous
 62
     9
420
 12040119
370
     5
100
AcDbPolyline
 90
        2
 70
     0
 43
0.0
 10
181.3518
 20
53.4638
 10
181.3518
 20
67.3638
  0
LWPOLYLINE
  5
162
330
1F
100
AcDbEntity
  8
Edge.Cuts
  6
Continuous
 62
     9
420
 12040119
370
     5
100
AcDbPolyline
 90
        2
 70
     0
 43
0.0
 10
181.3518
 20
67.3638
 10
167.4518
 20
67.3638
  0
LWPOLYLINE
  5
163
330
1F
100
AcDbEntity
  8
Edge.Cuts
  6
Continuous
 62
     9
420
 12040119
370
     5
100
AcDbPolyline
 90
        2
 70
     0
 43
0.0
 10
162.352734
 20
86.50999399999999
 10
162.379794
 20
86.482934
  0
LWPOLYLINE
  5
164
330
1F
100
AcDbEntity
  8
Edge.Cuts
  6
Continuous
 62
     9
420
 12040119
370
     5
100
AcDbPolyline
 90
        2
 70
     0
 43
0.0
 10
162.379794
 20
86.482934
 10
162.3836
 20
86.46379999999999
  0
LWPOLYLINE
  5
165
330
1F
100
AcDbEntity
  8
Edge.Cuts
  6
Continuous
 62
     9
420
 12040119
370
     5
100
AcDbPolyline
 90
        2
 70
     0
 43
0.0
 10
162.3836
 20
86.46379999999999
 10
162.3836
 20
72.46379999999999
  0
LWPOLYLINE
  5
166
330
1F
100
AcDbEntity
  8
Edge.Cuts
  6
Continuous
 62
     9
420
 12040119
370
     5
100
AcDbPolyline
 90
        2
 70
     0
 43
0.0
 10
162.3836
 20
72.46379999999999
 10
162.379794
 20
72.444666
  0
LWPOLYLINE
  5
167
330
1F
100
AcDbEntity
  8
Edge.Cuts
  6
Continuous
 62
     9
420
 12040119
370
     5
100
AcDbPolyline
 90
        2
 70
     0
 43
0.0
 10
162.379794
 20
72.444666
 10
162.352734
 20
72.41760599999999
  0
LWPOLYLINE
  5
168
330
1F
100
AcDbEntity
  8
Edge.Cuts
  6
Continuous
 62
     9
420
 12040119
370
     5
100
AcDbPolyline
 90
        2
 70
     0
 43
0.0
 10
162.352734
 20
72.41760599999999
 10
162.3336
 20
72.4138
  0
LWPOLYLINE
  5
169
330
1F
100
AcDbEntity
  8
Edge.Cuts
  6
Continuous
 62
     9
420
 12040119
370
     5
100
AcDbPolyline
 90
        2
 70
     0
 43
0.0
 10
162.3336
 20
72.4138
 10
148.3336
 20
72.4138
  0
LWPOLYLINE
  5
16A
330
1F
100
AcDbEntity
  8
Edge.Cuts
  6
Continuous
 62
     9
420
 12040119
370
     5
100
AcDbPolyline
 90
        2
 70
     0
 43
0.0
 10
148.3336
 20
72.4138
 10
148.314466
 20
72.41760599999999
  0
LWPOLYLINE
  5
16B
330
1F
100
AcDbEntity
  8
Edge.Cuts
  6
Continuous
 62
     9
420
 12040119
370
     5
100
AcDbPolyline
 90
        2
 70
     0
 43
0.0
 10
148.314466
 20
72.41760599999999
 10
148.287406
 20
72.444666
  0
LWPOLYLINE
  5
16C
330
1F
100
AcDbEntity
  8
Edge.Cuts
  6
Continuous
 62
     9
420
 12040119
370
     5
100
AcDbPolyline
 90
        2
 70
     0
 43
0.0
 10
148.287406
 20
72.444666
 10
148.2836
 20
72.46379999999999
  0
LWPOLYLINE
  5
16D
330
1F
100
AcDbEntity
  8
Edge.Cuts
  6
Continuous
 62
     9
420
 12040119
370
     5
100
AcDbPolyline
 90
        2
 70
     0
 43
0.0
 10
148.2836
 20
72.46379999999999
 10
148.2836
 20
86.46379999999999
  0
LWPOLYLINE
  5
16E
330
1F
100
AcDbEntity
  8
Edge.Cuts
  6
Continuous
 62
     9
420
 12040119
370
     5
100
AcDbPolyline
 90
        2
 70
     0
 43
0.0
 10
148.2836
 20
86.46379999999999
 10
148.287406
 20
86.482934
  0
LWPOLYLINE
  5
16F
330
1F
100
AcDbEntity
  8
Edge.Cuts
  6
Continuous
 62
     9
420
 12040119
370
     5
100
AcDbPolyline
 90
        2
 70
     0
 43
0.0
 10
148.287406
 20
86.482934
 10
148.314466
 20
86.50999399999999
  0
LWPOLYLINE
  5
170
330
1F
100
AcDbEntity
  8
Edge.Cuts
  6
Continuous
 62
     9
420
 12040119
370
     5
100
AcDbPolyline
 90
        2
 70
     0
 43
0.0
 10
148.314466
 20
86.50999399999999
 10
148.3336
 20
86.5138
  0
LWPOLYLINE
  5
171
330
1F
100
AcDbEntity
  8
Edge.Cuts
  6
Continuous
 62
     9
420
 12040119
370
     5
100
AcDbPolyline
 90
        2
 70
     0
 43
0.0
 10
148.3336
 20
86.5138
 10
162.3336
 20
86.5138
  0
LWPOLYLINE
  5
172
330
1F
100
AcDbEntity
  8
Edge.Cuts
  6
Continuous
 62
     9
420
 12040119
370
     5
100
AcDbPolyline
 90
        2
 70
     0
 43
0.0
 10
162.3336
 20
86.5138
 10
162.352734
 20
86.50999399999999
  0
LWPOLYLINE
  5
173
330
1F
100
AcDbEntity
  8
Edge.Cuts
  6
Continuous
 62
     9
420
 12040119
370
     5
100
AcDbPolyline
 90
        2
 70
     0
 43
0.0
 10
148.3836
 20
86.4138
 10
148.3836
 20
72.5138
  0
LWPOLYLINE
  5
174
330
1F
100
AcDbEntity
  8
Edge.Cuts
  6
Continuous
 62
     9
420
 12040119
370
     5
100
AcDbPolyline
 90
        2
 70
     0
 43
0.0
 10
148.3836
 20
72.5138
 10
162.2836
 20
72.5138
  0
LWPOLYLINE
  5
175
330
1F
100
AcDbEntity
  8
Edge.Cuts
  6
Continuous
 62
     9
420
 12040119
370
     5
100
AcDbPolyline
 90
        2
 70
     0
 43
0.0
 10
162.2836
 20
72.5138
 10
162.2836
 20
86.4138
  0
LWPOLYLINE
  5
176
330
1F
100
AcDbEntity
  8
Edge.Cuts
  6
Continuous
 62
     9
420
 12040119
370
     5
100
AcDbPolyline
 90
        2
 70
     0
 43
0.0
 10
162.2836
 20
86.4138
 10
148.3836
 20
86.4138
  0
LWPOLYLINE
  5
177
330
1F
100
AcDbEntity
  8
Edge.Cuts
  6
Continuous
 62
     9
420
 12040119
370
     5
100
AcDbPolyline
 90
        2
 70
     0
 43
0.0
 10
181.437234
 20
86.50999399999999
 10
181.464294
 20
86.482934
  0
LWPOLYLINE
  5
178
330
1F
100
AcDbEntity
  8
Edge.Cuts
  6
Continuous
 62
     9
420
 12040119
370
     5
100
AcDbPolyline
 90
        2
 70
     0
 43
0.0
 10
181.464294
 20
86.482934
 10
181.4681
 20
86.46379999999999
  0
LWPOLYLINE
  5
179
330
1F
100
AcDbEntity
  8
Edge.Cuts
  6
Continuous
 62
     9
420
 12040119
370
     5
100
AcDbPolyline
 90
        2
 70
     0
 43
0.0
 10
181.4681
 20
86.46379999999999
 10
181.4681
 20
72.46379999999999
  0
LWPOLYLINE
  5
17A
330
1F
100
AcDbEntity
  8
Edge.Cuts
  6
Continuous
 62
     9
420
 12040119
370
     5
100
AcDbPolyline
 90
        2
 70
     0
 43
0.0
 10
181.4681
 20
72.46379999999999
 10
181.464294
 20
72.444666
  0
LWPOLYLINE
  5
17B
330
1F
100
AcDbEntity
  8
Edge.Cuts
  6
Continuous
 62
     9
420
 12040119
370
     5
100
AcDbPolyline
 90
        2
 70
     0
 43
0.0
 10
181.464294
 20
72.444666
 10
181.437234
 20
72.41760599999999
  0
LWPOLYLINE
  5
17C
330
1F
100
AcDbEntity
  8
Edge.Cuts
  6
Continuous
 62
     9
420
 12040119
370
     5
100
AcDbPolyline
 90
        2
 70
     0
 43
0.0
 10
181.437234
 20
72.41760599999999
 10
181.4181
 20
72.4138
  0
LWPOLYLINE
  5
17D
330
1F
100
AcDbEntity
  8
Edge.Cuts
  6
Continuous
 62
     9
420
 12040119
370
     5
100
AcDbPolyline
 90
        2
 70
     0
 43
0.0
 10
181.4181
 20
72.4138
 10
167.4181
 20
72.4138
  0
LWPOLYLINE
  5
17E
330
1F
100
AcDbEntity
  8
Edge.Cuts
  6
Continuous
 62
     9
420
 12040119
370
     5
100
AcDbPolyline
 90
        2
 70
     0
 43
0.0
 10
167.4181
 20
72.4138
 10
167.398966
 20
72.41760599999999
  0
LWPOLYLINE
  5
17F
330
1F
100
AcDbEntity
  8
Edge.Cuts
  6
Continuous
 62
     9
420
 12040119
370
     5
100
AcDbPolyline
 90
        2
 70
     0
 43
0.0
 10
167.398966
 20
72.41760599999999
 10
167.371906
 20
72.444666
  0
LWPOLYLINE
  5
180
330
1F
100
AcDbEntity
  8
Edge.Cuts
  6
Continuous
 62
     9
420
 12040119
370
     5
100
AcDbPolyline
 90
        2
 70
     0
 43
0.0
 10
167.371906
 20
72.444666
 10
167.3681
 20
72.46379999999999
  0
LWPOLYLINE
  5
181
330
1F
100
AcDbEntity
  8
Edge.Cuts
  6
Continuous
 62
     9
420
 12040119
370
     5
100
AcDbPolyline
 90
        2
 70
     0
 43
0.0
 10
167.3681
 20
72.46379999999999
 10
167.3681
 20
86.46379999999999
  0
LWPOLYLINE
  5
182
330
1F
100
AcDbEntity
  8
Edge.Cuts
  6
Continuous
 62
     9
420
 12040119
370
     5
100
AcDbPolyline
 90
        2
 70
     0
 43
0.0
 10
167.3681
 20
86.46379999999999
 10
167.371906
 20
86.482934
  0
LWPOLYLINE
  5
183
330
1F
100
AcDbEntity
  8
Edge.Cuts
  6
Continuous
 62
     9
420
 12040119
370
     5
100
AcDbPolyline
 90
        2
 70
     0
 43
0.0
 10
167.371906
 20
86.482934
 10
167.398966
 20
86.50999399999999
  0
LWPOLYLINE
  5
184
330
1F
100
AcDbEntity
  8
Edge.Cuts
  6
Continuous
 62
     9
420
 12040119
370
     5
100
AcDbPolyline
 90
        2
 70
     0
 43
0.0
 10
167.398966
 20
86.50999399999999
 10
167.4181
 20
86.5138
  0
LWPOLYLINE
  5
185
330
1F
100
AcDbEntity
  8
Edge.Cuts
  6
Continuous
 62
     9
420
 12040119
370
     5
100
AcDbPolyline
 90
        2
 70
     0
 43
0.0
 10
167.4181
 20
86.5138
 10
181.4181
 20
86.5138
  0
LWPOLYLINE
  5
186
330
1F
100
AcDbEntity
  8
Edge.Cuts
  6
Continuous
 62
     9
420
 12040119
370
     5
100
AcDbPolyline
 90
        2
 70
     0
 43
0.0
 10
181.4181
 20
86.5138
 10
181.437234
 20
86.50999399999999
  0
LWPOLYLINE
  5
187
330
1F
100
AcDbEntity
  8
Edge.Cuts
  6
Continuous
 62
     9
420
 12040119
370
     5
100
AcDbPolyline
 90
        2
 70
     0
 43
0.0
 10
167.4681
 20
86.4138
 10
167.4681
 20
72.5138
  0
LWPOLYLINE
  5
188
330
1F
100
AcDbEntity
  8
Edge.Cuts
  6
Continuous
 62
     9
420
 12040119
370
     5
100
AcDbPolyline
 90
        2
 70
     0
 43
0.0
 10
167.4681
 20
72.5138
 10
181.3681
 20
72.5138
  0
LWPOLYLINE
  5
189
330
1F
100
AcDbEntity
  8
Edge.Cuts
  6
Continuous
 62
     9
420
 12040119
370
     5
100
AcDbPolyline
 90
        2
 70
     0
 43
0.0
 10
181.3681
 20
72.5138
 10
181.3681
 20
86.4138
  0
LWPOLYLINE
  5
18A
330
1F
100
AcDbEntity
  8
Edge.Cuts
  6
Continuous
 62
     9
420
 12040119
370
     5
100
AcDbPolyline
 90
        2
 70
     0
 43
0.0
 10
181.3681
 20
86.4138
 10
167.4681
 20
86.4138
  0
LWPOLYLINE
  5
18B
330
1F
100
AcDbEntity
  8
Edge.Cuts
  6
Continuous
 62
     9
420
 12040119
370
     5
100
AcDbPolyline
 90
        2
 70
     0
 43
0.0
 10
28.901134
 20
86.560794
 10
28.928194
 20
86.533734
  0
LWPOLYLINE
  5
18C
330
1F
100
AcDbEntity
  8
Edge.Cuts
  6
Continuous
 62
     9
420
 12040119
370
     5
100
AcDbPolyline
 90
        2
 70
     0
 43
0.0
 10
28.928194
 20
86.533734
 10
28.93200000000001
 20
86.5146
  0
LWPOLYLINE
  5
18D
330
1F
100
AcDbEntity
  8
Edge.Cuts
  6
Continuous
 62
     9
420
 12040119
370
     5
100
AcDbPolyline
 90
        2
 70
     0
 43
0.0
 10
28.93200000000001
 20
86.5146
 10
28.93200000000001
 20
72.5146
  0
LWPOLYLINE
  5
18E
330
1F
100
AcDbEntity
  8
Edge.Cuts
  6
Continuous
 62
     9
420
 12040119
370
     5
100
AcDbPolyline
 90
        2
 70
     0
 43
0.0
 10
28.93200000000001
 20
72.5146
 10
28.928194
 20
72.495466
  0
LWPOLYLINE
  5
18F
330
1F
100
AcDbEntity
  8
Edge.Cuts
  6
Continuous
 62
     9
420
 12040119
370
     5
100
AcDbPolyline
 90
        2
 70
     0
 43
0.0
 10
28.928194
 20
72.495466
 10
28.901134
 20
72.46840599999999
  0
LWPOLYLINE
  5
190
330
1F
100
AcDbEntity
  8
Edge.Cuts
  6
Continuous
 62
     9
420
 12040119
370
     5
100
AcDbPolyline
 90
        2
 70
     0
 43
0.0
 10
28.901134
 20
72.46840599999999
 10
28.882
 20
72.4646
  0
LWPOLYLINE
  5
191
330
1F
100
AcDbEntity
  8
Edge.Cuts
  6
Continuous
 62
     9
420
 12040119
370
     5
100
AcDbPolyline
 90
        2
 70
     0
 43
0.0
 10
28.882
 20
72.4646
 10
14.882
 20
72.4646
  0
LWPOLYLINE
  5
192
330
1F
100
AcDbEntity
  8
Edge.Cuts
  6
Continuous
 62
     9
420
 12040119
370
     5
100
AcDbPolyline
 90
        2
 70
     0
 43
0.0
 10
14.882
 20
72.4646
 10
14.862866
 20
72.46840599999999
  0
LWPOLYLINE
  5
193
330
1F
100
AcDbEntity
  8
Edge.Cuts
  6
Continuous
 62
     9
420
 12040119
370
     5
100
AcDbPolyline
 90
        2
 70
     0
 43
0.0
 10
14.862866
 20
72.46840599999999
 10
14.835806
 20
72.495466
  0
LWPOLYLINE
  5
194
330
1F
100
AcDbEntity
  8
Edge.Cuts
  6
Continuous
 62
     9
420
 12040119
370
     5
100
AcDbPolyline
 90
        2
 70
     0
 43
0.0
 10
14.835806
 20
72.495466
 10
14.832
 20
72.5146
  0
LWPOLYLINE
  5
195
330
1F
100
AcDbEntity
  8
Edge.Cuts
  6
Continuous
 62
     9
420
 12040119
370
     5
100
AcDbPolyline
 90
        2
 70
     0
 43
0.0
 10
14.832
 20
72.5146
 10
14.832
 20
86.5146
  0
LWPOLYLINE
  5
196
330
1F
100
AcDbEntity
  8
Edge.Cuts
  6
Continuous
 62
     9
420
 12040119
370
     5
100
AcDbPolyline
 90
        2
 70
     0
 43
0.0
 10
14.832
 20
86.5146
 10
14.835806
 20
86.533734
  0
LWPOLYLINE
  5
197
330
1F
100
AcDbEntity
  8
Edge.Cuts
  6
Continuous
 62
     9
420
 12040119
370
     5
100
AcDbPolyline
 90
        2
 70
     0
 43
0.0
 10
14.835806
 20
86.533734
 10
14.862866
 20
86.560794
  0
LWPOLYLINE
  5
198
330
1F
100
AcDbEntity
  8
Edge.Cuts
  6
Continuous
 62
     9
420
 12040119
370
     5
100
AcDbPolyline
 90
        2
 70
     0
 43
0.0
 10
14.862866
 20
86.560794
 10
14.882
 20
86.5646
  0
LWPOLYLINE
  5
199
330
1F
100
AcDbEntity
  8
Edge.Cuts
  6
Continuous
 62
     9
420
 12040119
370
     5
100
AcDbPolyline
 90
        2
 70
     0
 43
0.0
 10
14.882
 20
86.5646
 10
28.882
 20
86.5646
  0
LWPOLYLINE
  5
19A
330
1F
100
AcDbEntity
  8
Edge.Cuts
  6
Continuous
 62
     9
420
 12040119
370
     5
100
AcDbPolyline
 90
        2
 70
     0
 43
0.0
 10
28.882
 20
86.5646
 10
28.901134
 20
86.560794
  0
LWPOLYLINE
  5
19B
330
1F
100
AcDbEntity
  8
Edge.Cuts
  6
Continuous
 62
     9
420
 12040119
370
     5
100
AcDbPolyline
 90
        2
 70
     0
 43
0.0
 10
14.932
 20
86.46459999999999
 10
14.932
 20
72.5646
  0
LWPOLYLINE
  5
19C
330
1F
100
AcDbEntity
  8
Edge.Cuts
  6
Continuous
 62
     9
420
 12040119
370
     5
100
AcDbPolyline
 90
        2
 70
     0
 43
0.0
 10
14.932
 20
72.5646
 10
28.832
 20
72.5646
  0
LWPOLYLINE
  5
19D
330
1F
100
AcDbEntity
  8
Edge.Cuts
  6
Continuous
 62
     9
420
 12040119
370
     5
100
AcDbPolyline
 90
        2
 70
     0
 43
0.0
 10
28.832
 20
72.5646
 10
28.832
 20
86.46459999999999
  0
LWPOLYLINE
  5
19E
330
1F
100
AcDbEntity
  8
Edge.Cuts
  6
Continuous
 62
     9
420
 12040119
370
     5
100
AcDbPolyline
 90
        2
 70
     0
 43
0.0
 10
28.832
 20
86.46459999999999
 10
14.932
 20
86.46459999999999
  0
LWPOLYLINE
  5
19F
330
1F
100
AcDbEntity
  8
Edge.Cuts
  6
Continuous
 62
     9
420
 12040119
370
     5
100
AcDbPolyline
 90
        2
 70
     0
 43
0.0
 10
47.916634
 20
86.560794
 10
47.94369400000001
 20
86.533734
  0
LWPOLYLINE
  5
1A0
330
1F
100
AcDbEntity
  8
Edge.Cuts
  6
Continuous
 62
     9
420
 12040119
370
     5
100
AcDbPolyline
 90
        2
 70
     0
 43
0.0
 10
47.94369400000001
 20
86.533734
 10
47.9475
 20
86.5146
  0
LWPOLYLINE
  5
1A1
330
1F
100
AcDbEntity
  8
Edge.Cuts
  6
Continuous
 62
     9
420
 12040119
370
     5
100
AcDbPolyline
 90
        2
 70
     0
 43
0.0
 10
47.9475
 20
86.5146
 10
47.9475
 20
72.5146
  0
LWPOLYLINE
  5
1A2
330
1F
100
AcDbEntity
  8
Edge.Cuts
  6
Continuous
 62
     9
420
 12040119
370
     5
100
AcDbPolyline
 90
        2
 70
     0
 43
0.0
 10
47.9475
 20
72.5146
 10
47.94369400000001
 20
72.495466
  0
LWPOLYLINE
  5
1A3
330
1F
100
AcDbEntity
  8
Edge.Cuts
  6
Continuous
 62
     9
420
 12040119
370
     5
100
AcDbPolyline
 90
        2
 70
     0
 43
0.0
 10
47.94369400000001
 20
72.495466
 10
47.916634
 20
72.46840599999999
  0
LWPOLYLINE
  5
1A4
330
1F
100
AcDbEntity
  8
Edge.Cuts
  6
Continuous
 62
     9
420
 12040119
370
     5
100
AcDbPolyline
 90
        2
 70
     0
 43
0.0
 10
47.916634
 20
72.46840599999999
 10
47.8975
 20
72.4646
  0
LWPOLYLINE
  5
1A5
330
1F
100
AcDbEntity
  8
Edge.Cuts
  6
Continuous
 62
     9
420
 12040119
370
     5
100
AcDbPolyline
 90
        2
 70
     0
 43
0.0
 10
47.8975
 20
72.4646
 10
33.8975
 20
72.4646
  0
LWPOLYLINE
  5
1A6
330
1F
100
AcDbEntity
  8
Edge.Cuts
  6
Continuous
 62
     9
420
 12040119
370
     5
100
AcDbPolyline
 90
        2
 70
     0
 43
0.0
 10
33.8975
 20
72.4646
 10
33.878366
 20
72.46840599999999
  0
LWPOLYLINE
  5
1A7
330
1F
100
AcDbEntity
  8
Edge.Cuts
  6
Continuous
 62
     9
420
 12040119
370
     5
100
AcDbPolyline
 90
        2
 70
     0
 43
0.0
 10
33.878366
 20
72.46840599999999
 10
33.851306
 20
72.495466
  0
LWPOLYLINE
  5
1A8
330
1F
100
AcDbEntity
  8
Edge.Cuts
  6
Continuous
 62
     9
420
 12040119
370
     5
100
AcDbPolyline
 90
        2
 70
     0
 43
0.0
 10
33.851306
 20
72.495466
 10
33.8475
 20
72.5146
  0
LWPOLYLINE
  5
1A9
330
1F
100
AcDbEntity
  8
Edge.Cuts
  6
Continuous
 62
     9
420
 12040119
370
     5
100
AcDbPolyline
 90
        2
 70
     0
 43
0.0
 10
33.8475
 20
72.5146
 10
33.8475
 20
86.5146
  0
LWPOLYLINE
  5
1AA
330
1F
100
AcDbEntity
  8
Edge.Cuts
  6
Continuous
 62
     9
420
 12040119
370
     5
100
AcDbPolyline
 90
        2
 70
     0
 43
0.0
 10
33.8475
 20
86.5146
 10
33.851306
 20
86.533734
  0
LWPOLYLINE
  5
1AB
330
1F
100
AcDbEntity
  8
Edge.Cuts
  6
Continuous
 62
     9
420
 12040119
370
     5
100
AcDbPolyline
 90
        2
 70
     0
 43
0.0
 10
33.851306
 20
86.533734
 10
33.878366
 20
86.560794
  0
LWPOLYLINE
  5
1AC
330
1F
100
AcDbEntity
  8
Edge.Cuts
  6
Continuous
 62
     9
420
 12040119
370
     5
100
AcDbPolyline
 90
        2
 70
     0
 43
0.0
 10
33.878366
 20
86.560794
 10
33.8975
 20
86.5646
  0
LWPOLYLINE
  5
1AD
330
1F
100
AcDbEntity
  8
Edge.Cuts
  6
Continuous
 62
     9
420
 12040119
370
     5
100
AcDbPolyline
 90
        2
 70
     0
 43
0.0
 10
33.8975
 20
86.5646
 10
47.8975
 20
86.5646
  0
LWPOLYLINE
  5
1AE
330
1F
100
AcDbEntity
  8
Edge.Cuts
  6
Continuous
 62
     9
420
 12040119
370
     5
100
AcDbPolyline
 90
        2
 70
     0
 43
0.0
 10
47.8975
 20
86.5646
 10
47.916634
 20
86.560794
  0
LWPOLYLINE
  5
1AF
330
1F
100
AcDbEntity
  8
Edge.Cuts
  6
Continuous
 62
     9
420
 12040119
370
     5
100
AcDbPolyline
 90
        2
 70
     0
 43
0.0
 10
33.94750000000001
 20
86.46459999999999
 10
33.94750000000001
 20
72.5646
  0
LWPOLYLINE
  5
1B0
330
1F
100
AcDbEntity
  8
Edge.Cuts
  6
Continuous
 62
     9
420
 12040119
370
     5
100
AcDbPolyline
 90
        2
 70
     0
 43
0.0
 10
33.94750000000001
 20
72.5646
 10
47.8475
 20
72.5646
  0
LWPOLYLINE
  5
1B1
330
1F
100
AcDbEntity
  8
Edge.Cuts
  6
Continuous
 62
     9
420
 12040119
370
     5
100
AcDbPolyline
 90
        2
 70
     0
 43
0.0
 10
47.8475
 20
72.5646
 10
47.8475
 20
86.46459999999999
  0
LWPOLYLINE
  5
1B2
330
1F
100
AcDbEntity
  8
Edge.Cuts
  6
Continuous
 62
     9
420
 12040119
370
     5
100
AcDbPolyline
 90
        2
 70
     0
 43
0.0
 10
47.8475
 20
86.46459999999999
 10
33.94750000000001
 20
86.46459999999999
  0
LWPOLYLINE
  5
1B3
330
1F
100
AcDbEntity
  8
Edge.Cuts
  6
Continuous
 62
     9
420
 12040119
370
     5
100
AcDbPolyline
 90
        2
 70
     0
 43
0.0
 10
187.931367
 20
92.94889699999999
 10
187.944897
 20
92.935367
  0
LWPOLYLINE
  5
1B4
330
1F
100
AcDbEntity
  8
Edge.Cuts
  6
Continuous
 62
     9
420
 12040119
370
     5
100
AcDbPolyline
 90
        2
 70
     0
 43
0.0
 10
187.944897
 20
92.935367
 10
187.9468
 20
92.9258
  0
LWPOLYLINE
  5
1B5
330
1F
100
AcDbEntity
  8
Edge.Cuts
  6
Continuous
 62
     9
420
 12040119
370
     5
100
AcDbPolyline
 90
        2
 70
     0
 43
0.0
 10
187.9468
 20
92.9258
 10
187.9468
 20
9.105800000000002
  0
LWPOLYLINE
  5
1B6
330
1F
100
AcDbEntity
  8
Edge.Cuts
  6
Continuous
 62
     9
420
 12040119
370
     5
100
AcDbPolyline
 90
        2
 70
     0
 43
0.0
 10
187.9468
 20
9.105800000000002
 10
187.944897
 20
9.096232999999998
  0
LWPOLYLINE
  5
1B7
330
1F
100
AcDbEntity
  8
Edge.Cuts
  6
Continuous
 62
     9
420
 12040119
370
     5
100
AcDbPolyline
 90
        2
 70
     0
 43
0.0
 10
187.944897
 20
9.096232999999998
 10
187.931367
 20
9.082702999999995
  0
LWPOLYLINE
  5
1B8
330
1F
100
AcDbEntity
  8
Edge.Cuts
  6
Continuous
 62
     9
420
 12040119
370
     5
100
AcDbPolyline
 90
        2
 70
     0
 43
0.0
 10
187.931367
 20
9.082702999999995
 10
187.9218
 20
9.080799999999996
  0
LWPOLYLINE
  5
1B9
330
1F
100
AcDbEntity
  8
Edge.Cuts
  6
Continuous
 62
     9
420
 12040119
370
     5
100
AcDbPolyline
 90
        2
 70
     0
 43
0.0
 10
187.9218
 20
9.080799999999996
 10
9.105800000000002
 20
9.080799999999996
  0
LWPOLYLINE
  5
1BA
330
1F
100
AcDbEntity
  8
Edge.Cuts
  6
Continuous
 62
     9
420
 12040119
370
     5
100
AcDbPolyline
 90
        2
 70
     0
 43
0.0
 10
9.105800000000002
 20
9.080799999999996
 10
9.096233000000002
 20
9.082702999999995
  0
LWPOLYLINE
  5
1BB
330
1F
100
AcDbEntity
  8
Edge.Cuts
  6
Continuous
 62
     9
420
 12040119
370
     5
100
AcDbPolyline
 90
        2
 70
     0
 43
0.0
 10
9.096233000000002
 20
9.082702999999995
 10
9.082703000000002
 20
9.096232999999998
  0
LWPOLYLINE
  5
1BC
330
1F
100
AcDbEntity
  8
Edge.Cuts
  6
Continuous
 62
     9
420
 12040119
370
     5
100
AcDbPolyline
 90
        2
 70
     0
 43
0.0
 10
9.082703000000002
 20
9.096232999999998
 10
9.080800000000002
 20
9.105800000000002
  0
LWPOLYLINE
  5
1BD
330
1F
100
AcDbEntity
  8
Edge.Cuts
  6
Continuous
 62
     9
420
 12040119
370
     5
100
AcDbPolyline
 90
        2
 70
     0
 43
0.0
 10
9.080800000000002
 20
9.105800000000002
 10
9.080800000000002
 20
92.9258
  0
LWPOLYLINE
  5
1BE
330
1F
100
AcDbEntity
  8
Edge.Cuts
  6
Continuous
 62
     9
420
 12040119
370
     5
100
AcDbPolyline
 90
        2
 70
     0
 43
0.0
 10
9.080800000000002
 20
92.9258
 10
9.082703000000002
 20
92.935367
  0
LWPOLYLINE
  5
1BF
330
1F
100
AcDbEntity
  8
Edge.Cuts
  6
Continuous
 62
     9
420
 12040119
370
     5
100
AcDbPolyline
 90
        2
 70
     0
 43
0.0
 10
9.082703000000002
 20
92.935367
 10
9.096233000000002
 20
92.94889699999999
  0
LWPOLYLINE
  5
1C0
330
1F
100
AcDbEntity
  8
Edge.Cuts
  6
Continuous
 62
     9
420
 12040119
370
     5
100
AcDbPolyline
 90
        2
 70
     0
 43
0.0
 10
9.096233000000002
 20
92.94889699999999
 10
9.105800000000002
 20
92.9508
  0
LWPOLYLINE
  5
1C1
330
1F
100
AcDbEntity
  8
Edge.Cuts
  6
Continuous
 62
     9
420
 12040119
370
     5
100
AcDbPolyline
 90
        2
 70
     0
 43
0.0
 10
9.105800000000002
 20
92.9508
 10
187.9218
 20
92.9508
  0
LWPOLYLINE
  5
1C2
330
1F
100
AcDbEntity
  8
Edge.Cuts
  6
Continuous
 62
     9
420
 12040119
370
     5
100
AcDbPolyline
 90
        2
 70
     0
 43
0.0
 10
187.9218
 20
92.9508
 10
187.931367
 20
92.94889699999999
  0
LWPOLYLINE
  5
1C3
330
1F
100
AcDbEntity
  8
Edge.Cuts
  6
Continuous
 62
     9
420
 12040119
370
     5
100
AcDbPolyline
 90
        2
 70
     0
 43
0.0
 10
9.130800000000002
 20
92.90079999999999
 10
9.130800000000002
 20
9.13079999999998
  0
LWPOLYLINE
  5
1C4
330
1F
100
AcDbEntity
  8
Edge.Cuts
  6
Continuous
 62
     9
420
 12040119
370
     5
100
AcDbPolyline
 90
        2
 70
     0
 43
0.0
 10
9.130800000000002
 20
9.13079999999998
 10
187.8968
 20
9.13079999999998
  0
LWPOLYLINE
  5
1C5
330
1F
100
AcDbEntity
  8
Edge.Cuts
  6
Continuous
 62
     9
420
 12040119
370
     5
100
AcDbPolyline
 90
        2
 70
     0
 43
0.0
 10
187.8968
 20
9.13079999999998
 10
187.8968
 20
92.90079999999999
  0
LWPOLYLINE
  5
1C6
330
1F
100
AcDbEntity
  8
Edge.Cuts
  6
Continuous
 62
     9
420
 12040119
370
     5
100
AcDbPolyline
 90
        2
 70
     0
 43
0.0
 10
187.8968
 20
92.90079999999999
 10
9.130800000000002
 20
92.90079999999999
  0
HATCH
  5
1C7
330
1F
100
AcDbEntity
  8
Edge.Cuts
 62
     7
420
 15461355
440
 33554687
100
AcDbHatch
 10
0.0
 20
0.0
 30
0.0
210
0.0
220
0.0
230
1.0
  2
SOLID
 70
     1
 71
     1
 91
        1
 92
        0
 93
        1
 72
     4
 94
        3
 73
     0
 74
     1
 95
       17
 96
       13
 40
0.0
 40
0.0
 40
0.0
 40
0.0
 40
1.0
 40
1.0
 40
1.0
 40
2.0
 40
2.0
 40
2.0
 40
3.0
 40
3.0
 40
3.0
 40
4.0
 40
4.0
 40
4.0
 40
4.0
 10
56.0808
 20
79.95079999999999
 10
56.9638640391904
 20
79.95079999999999
 10
57.68079999999999
 20
79.2338640391904
 10
57.68079999999999
 20
78.35079999999999
 10
57.68079999999999
 20
77.46773596080959
 10
56.9638640391904
 20
76.75079999999998
 10
56.0808
 20
76.75079999999998
 10
55.1977359608096
 20
76.75079999999998
 10
54.4808
 20
77.46773596080959
 10
54.4808
 20
78.35079999999999
 10
54.4808
 20
79.2338640391904
 10
55.1977359608096
 20
79.95079999999999
 10
56.0808
 20
79.95079999999999
 97
        0
 97
        0
 75
     0
 76
     1
 98
        0
  0
HATCH
  5
1C8
330
1F
100
AcDbEntity
  8
Edge.Cuts
 62
     7
420
 15461355
440
 33554687
100
AcDbHatch
 10
0.0
 20
0.0
 30
0.0
210
0.0
220
0.0
230
1.0
  2
SOLID
 70
     1
 71
     1
 91
        1
 92
        0
 93
        1
 72
     4
 94
        3
 73
     0
 74
     1
 95
       17
 96
       13
 40
0.0
 40
0.0
 40
0.0
 40
0.0
 40
1.0
 40
1.0
 40
1.0
 40
2.0
 40
2.0
 40
2.0
 40
3.0
 40
3.0
 40
3.0
 40
4.0
 40
4.0
 40
4.0
 40
4.0
 10
44.0808
 20
23.95079999999999
 10
44.9638640391904
 20
23.95079999999999
 10
45.68079999999999
 20
23.23386403919039
 10
45.68079999999999
 20
22.35079999999999
 10
45.68079999999999
 20
21.46773596080959
 10
44.9638640391904
 20
20.75079999999998
 10
44.0808
 20
20.75079999999998
 10
43.1977359608096
 20
20.75079999999998
 10
42.4808
 20
21.46773596080959
 10
42.4808
 20
22.35079999999999
 10
42.4808
 20
23.23386403919039
 10
43.1977359608096
 20
23.95079999999999
 10
44.0808
 20
23.95079999999999
 97
        0
 97
        0
 75
     0
 76
     1
 98
        0
  0
HATCH
  5
1C9
330
1F
100
AcDbEntity
  8
Edge.Cuts
 62
     7
420
 15461355
440
 33554687
100
AcDbHatch
 10
0.0
 20
0.0
 30
0.0
210
0.0
220
0.0
230
1.0
  2
SOLID
 70
     1
 71
     1
 91
        1
 92
        0
 93
        1
 72
     4
 94
        3
 73
     0
 74
     1
 95
       17
 96
       13
 40
0.0
 40
0.0
 40
0.0
 40
0.0
 40
1.0
 40
1.0
 40
1.0
 40
2.0
 40
2.0
 40
2.0
 40
3.0
 40
3.0
 40
3.0
 40
4.0
 40
4.0
 40
4.0
 40
4.0
 10
154.0808
 20
23.95079999999999
 10
154.9638640391904
 20
23.95079999999999
 10
155.6808
 20
23.23386403919039
 10
155.6808
 20
22.35079999999999
 10
155.6808
 20
21.46773596080959
 10
154.9638640391904
 20
20.75079999999998
 10
154.0808
 20
20.75079999999998
 10
153.1977359608096
 20
20.75079999999998
 10
152.4808
 20
21.46773596080959
 10
152.4808
 20
22.35079999999999
 10
152.4808
 20
23.23386403919039
 10
153.1977359608096
 20
23.95079999999999
 10
154.0808
 20
23.95079999999999
 97
        0
 97
        0
 75
     0
 76
     1
 98
        0
  0
HATCH
  5
1CA
330
1F
100
AcDbEntity
  8
Edge.Cuts
 62
     7
420
 15461355
440
 33554687
100
AcDbHatch
 10
0.0
 20
0.0
 30
0.0
210
0.0
220
0.0
230
1.0
  2
SOLID
 70
     1
 71
     1
 91
        1
 92
        0
 93
        1
 72
     4
 94
        3
 73
     0
 74
     1
 95
       17
 96
       13
 40
0.0
 40
0.0
 40
0.0
 40
0.0
 40
1.0
 40
1.0
 40
1.0
 40
2.0
 40
2.0
 40
2.0
 40
3.0
 40
3.0
 40
3.0
 40
4.0
 40
4.0
 40
4.0
 40
4.0
 10
139.0808
 20
79.9508
 10
139.9638640391904
 20
79.9508
 10
140.6808
 20
79.2338640391904
 10
140.6808
 20
78.35079999999999
 10
140.6808
 20
77.46773596080959
 10
139.9638640391904
 20
76.7508
 10
139.0808
 20
76.7508
 10
138.1977359608096
 20
76.7508
 10
137.4808
 20
77.46773596080959
 10
137.4808
 20
78.35079999999999
 10
137.4808
 20
79.2338640391904
 10
138.1977359608096
 20
79.9508
 10
139.0808
 20
79.9508
 97
        0
 97
        0
 75
     0
 76
     1
 98
        0
  0
HATCH
  5
1CB
330
1F
100
AcDbEntity
  8
Edge.Cuts
 62
     7
420
 15461355
440
 33554687
100
AcDbHatch
 10
0.0
 20
0.0
 30
0.0
210
0.0
220
0.0
230
1.0
  2
SOLID
 70
     1
 71
     1
 91
        1
 92
        0
 93
        1
 72
     4
 94
        3
 73
     0
 74
     1
 95
       17
 96
       13
 40
0.0
 40
0.0
 40
0.0
 40
0.0
 40
1.0
 40
1.0
 40
1.0
 40
2.0
 40
2.0
 40
2.0
 40
3.0
 40
3.0
 40
3.0
 40
4.0
 40
4.0
 40
4.0
 40
4.0
 10
165.0808
 20
42.95079999999999
 10
165.9638640391904
 20
42.95079999999999
 10
166.6808
 20
42.23386403919039
 10
166.6808
 20
41.35079999999999
 10
166.6808
 20
40.46773596080958
 10
165.9638640391904
 20
39.75079999999999
 10
165.0808
 20
39.75079999999999
 10
164.1977359608096
 20
39.75079999999999
 10
163.4808
 20
40.46773596080958
 10
163.4808
 20
41.35079999999999
 10
163.4808
 20
42.23386403919039
 10
164.1977359608096
 20
42.95079999999999
 10
165.0808
 20
42.95079999999999
 97
        0
 97
        0
 75
     0
 76
     1
 98
        0
  0
HATCH
  5
1CC
330
1F
100
AcDbEntity
  8
Edge.Cuts
 62
     7
420
 15461355
440
 33554687
100
AcDbHatch
 10
0.0
 20
0.0
 30
0.0
210
0.0
220
0.0
230
1.0
  2
SOLID
 70
     1
 71
     1
 91
        1
 92
        0
 93
        1
 72
     4
 94
        3
 73
     0
 74
     1
 95
       17
 96
       13
 40
0.0
 40
0.0
 40
0.0
 40
0.0
 40
1.0
 40
1.0
 40
1.0
 40
2.0
 40
2.0
 40
2.0
 40
3.0
 40
3.0
 40
3.0
 40
4.0
 40
4.0
 40
4.0
 40
4.0
 10
98.13320000000002
 20
62.95079999999999
 10
99.01626403919042
 20
62.95079999999999
 10
99.73320000000001
 20
62.2338640391904
 10
99.73320000000001
 20
61.35079999999999
 10
99.73320000000001
 20
60.46773596080959
 10
99.01626403919042
 20
59.75079999999999
 10
98.13320000000002
 20
59.75079999999999
 10
97.25013596080962
 20
59.75079999999999
 10
96.53320000000002
 20
60.46773596080959
 10
96.53320000000002
 20
61.35079999999999
 10
96.53320000000002
 20
62.2338640391904
 10
97.25013596080962
 20
62.95079999999999
 10
98.13320000000002
 20
62.95079999999999
 97
        0
 97
        0
 75
     0
 76
     1
 98
        0
  0
HATCH
  5
1CD
330
1F
100
AcDbEntity
  8
Edge.Cuts
 62
     7
420
 15461355
440
 33554687
100
AcDbHatch
 10
0.0
 20
0.0
 30
0.0
210
0.0
220
0.0
230
1.0
  2
SOLID
 70
     1
 71
     1
 91
        1
 92
        0
 93
        1
 72
     4
 94
        3
 73
     0
 74
     1
 95
       17
 96
       13
 40
0.0
 40
0.0
 40
0.0
 40
0.0
 40
1.0
 40
1.0
 40
1.0
 40
2.0
 40
2.0
 40
2.0
 40
3.0
 40
3.0
 40
3.0
 40
4.0
 40
4.0
 40
4.0
 40
4.0
 10
31.0808
 20
42.95079999999999
 10
31.9638640391904
 20
42.95079999999999
 10
32.6808
 20
42.23386403919039
 10
32.6808
 20
41.35079999999999
 10
32.6808
 20
40.46773596080958
 10
31.9638640391904
 20
39.75079999999999
 10
31.0808
 20
39.75079999999999
 10
30.1977359608096
 20
39.75079999999999
 10
29.4808
 20
40.46773596080958
 10
29.4808
 20
41.35079999999999
 10
29.4808
 20
42.23386403919039
 10
30.1977359608096
 20
42.95079999999999
 10
31.0808
 20
42.95079999999999
 97
        0
 97
        0
 75
     0
 76
     1
 98
        0
  0
VIEWPORT
  5
1D2
330
1CE
100
AcDbEntity
 67
     1
  8
0
100
AcDbViewport
 10
128.5
 20
97.5
 30
0.0
 40
314.226
 41
222.18
 68
     1
 69
     1
 12
51.0158
 22
98.51379999999999
 13
0.0
 23
0.0
 14
10.0
 24
10.0
 15
10.0
 25
10.0
 16
0.0
 26
0.0
 36
1.0
 17
0.0
 27
0.0
 37
0.0
 42
50.0
 43
0.0
 44
0.0
 45
222.18
 50
0.0
 51
0.0
 72
   100
 90
   557152
  1

281
     0
 71
     1
 74
     0
110
0.0
120
0.0
130
0.0
111
1.0
121
0.0
131
0.0
112
0.0
122
1.0
132
0.0
 79
     0
146
0.0
170
     0
 61
     5
348
2F
292
     1
282
     1
141
0.0
142
0.0
 63
   256
361
1D3
  0
VIEWPORT
  5
1D4
330
1CE
100
AcDbEntity
 67
     1
  8
0
100
AcDbViewport
 10
98.51379999999999
 20
51.0158
 30
0.0
 40
197.0276
 41
102.0316
 68
     2
 69
     2
 12
98.51379999999999
 22
51.0158
 13
0.0
 23
0.0
 14
10.0
 24
10.0
 15
10.0
 25
10.0
 16
0.0
 26
0.0
 36
1.0
 17
0.0
 27
0.0
 37
0.0
 42
50.0
 43
0.0
 44
0.0
 45
102.0316
 50
0.0
 51
0.0
 72
   100
 90
   557152
  1

281
     0
 71
     1
 74
     0
110
0.0
120
0.0
130
0.0
111
1.0
121
0.0
131
0.0
112
0.0
122
1.0
132
0.0
 79
     0
146
0.0
170
     0
 61
     5
348
2F
292
     1
282
     1
141
0.0
142
0.0
 63
   256
361
1D5
  0
ENDSEC
  0
SECTION
  2
OBJECTS
  0
DICTIONARY
  5
C
330
0
100
AcDbDictionary
281
     1
  3
ACAD_DETAILVIEWSTYLE
350
1DD
  3
ACAD_GROUP
350
D
  3
ACAD_LAYOUT
350
1A
  3
ACAD_MATERIAL
350
43
  3
ACAD_MLEADERSTYLE
350
5B
  3
ACAD_MLINESTYLE
350
17
  3
ACAD_PLOTSETTINGS
350
19
  3
ACAD_PLOTSTYLENAME
350
E
  3
ACAD_SCALELIST
350
47
  3
ACAD_SECTIONVIEWSTYLE
350
1DE
  3
ACAD_TABLESTYLE
350
59
  3
ACAD_VISUALSTYLE
350
2A
  3
ACDB_RECOMPOSE_DATA
350
1DA
  3
AcDbVariableDictionary
350
1D6
  0
SUN
  5
5D
330
29
100
AcDbSun
 90
        1
290
     0
 63
     7
421
 16777215
 40
1.0
291
     1
 91
  2455826
 92
 54000000
292
     0
 70
     2
 71
   256
280
     1
  0
SUN
  5
1D3
330
1D2
100
AcDbSun
 90
        1
290
     0
 63
     7
421
 16777215
 40
1.0
291
     1
 91
  2455826
 92
 54000000
292
     0
 70
     2
 71
   256
280
     1
  0
SUN
  5
1D5
330
1D4
100
AcDbSun
 90
        1
290
     0
 63
     7
421
 16777215
 40
1.0
291
     1
 91
  2455826
 92
 54000000
292
     0
 70
     2
 71
   256
280
     1
  0
DICTIONARY
  5
1DD
102
{ACAD_REACTORS
330
C
102
}
330
C
100
AcDbDictionary
281
     1
  0
DICTIONARY
  5
D
102
{ACAD_REACTORS
330
C
102
}
330
C
100
AcDbDictionary
281
     1
  0
DICTIONARY
  5
1A
102
{ACAD_REACTORS
330
C
102
}
330
C
100
AcDbDictionary
281
     1
  3
Layout1
350
1CF
  3
Model
350
22
  0
DICTIONARY
  5
43
102
{ACAD_REACTORS
330
C
102
}
330
C
100
AcDbDictionary
281
     1
  3
ByBlock
350
45
  3
ByLayer
350
44
  3
Global
350
46
  0
DICTIONARY
  5
5B
102
{ACAD_REACTORS
330
C
102
}
330
C
100
AcDbDictionary
281
     1
  3
Standard
350
5C
  0
DICTIONARY
  5
17
102
{ACAD_REACTORS
330
C
102
}
330
C
100
AcDbDictionary
281
     1
  3
Standard
350
18
  0
DICTIONARY
  5
19
102
{ACAD_REACTORS
330
C
102
}
330
C
100
AcDbDictionary
281
     1
  0
ACDBDICTIONARYWDFLT
  5
E
102
{ACAD_REACTORS
330
C
102
}
330
C
100
AcDbDictionary
281
     1
  3
Normal
350
F
100
AcDbDictionaryWithDefault
340
F
  0
DICTIONARY
  5
47
102
{ACAD_REACTORS
330
C
102
}
330
C
100
AcDbDictionary
281
     1
  3
A0
350
48
  3
A1
350
49
  3
A2
350
4A
  3
A3
350
4B
  3
A4
350
4C
  3
A5
350
4D
  3
A6
350
4E
  3
A7
350
4F
  3
A8
350
50
  3
A9
350
51
  3
B0
350
52
  3
B1
350
53
  3
B2
350
54
  3
B3
350
55
  3
B4
350
56
  3
B5
350
57
  3
B6
350
58
  0
DICTIONARY
  5
1DE
102
{ACAD_REACTORS
330
C
102
}
330
C
100
AcDbDictionary
281
     1
  0
DICTIONARY
  5
59
102
{ACAD_REACTORS
330
C
102
}
330
C
100
AcDbDictionary
281
     1
  3
Standard
350
5A
  0
DICTIONARY
  5
2A
102
{ACAD_REACTORS
330
C
102
}
330
C
100
AcDbDictionary
281
     1
  3
2dWireframe
350
2F
  3
Basic
350
32
  3
Brighten
350
36
  3
ColorChange
350
3A
  3
Conceptual
350
34
  3
Dim
350
35
  3
EdgeColorOff
350
3D
  3
Facepattern
350
39
  3
Flat
350
2B
  3
FlatWithEdges
350
2C
  3
Gouraud
350
2D
  3
GouraudWithEdges
350
2E
  3
Hidden
350
31
  3
JitterOff
350
3B
  3
Linepattern
350
38
  3
OverhangOff
350
3C
  3
Realistic
350
33
  3
Shaded
350
42
  3
Shaded with edges
350
41
  3
Shades of Gray
350
3E
  3
Sketchy
350
3F
  3
Thicken
350
37
  3
Wireframe
350
30
  3
X-Ray
350
40
  0
XRECORD
  5
1DA
102
{ACAD_REACTORS
330
C
102
}
330
C
100
AcDbXrecord
280
     1
 90
        1
330
5A
  0
DICTIONARY
  5
1D6
102
{ACAD_REACTORS
330
C
102
}
330
C
100
AcDbDictionary
281
     1
  3
CANNOSCALE
350
1D7
  3
CENTEREXE
350
1DF
  3
CENTERLTYPEFILE
350
1E0
  3
CMLEADERSTYLE
350
1DC
  3
CTABLESTYLE
350
1DB
  0
LAYOUT
  5
1CF
102
{ACAD_REACTORS
330
1A
102
}
330
1A
100
AcDbPlotSettings
  1

  2
none_device
  4
ISO_A4_(210.00_x_297.00_MM)
  6

 40
0.0
 41
0.0
 42
0.0
 43
0.0
 44
102.0316
 45
197.0276
 46
0.0
 47
0.0
 48
0.0
 49
0.0
140
0.0
141
0.0
142
1.0
143
1.0
 70
   688
 72
     1
 73
     3
 74
     5
  7

 75
    16
 76
     0
 77
     2
 78
   300
147
1.0
148
0.0
149
0.0
100
AcDbLayout
  1
Layout1
 70
     1
 71
     1
 10
-20.0
 20
-7.5
 11
277.0
 21
202.5
 12
0.0
 22
0.0
 32
0.0
 14
102.0316
 24
197.0276
 34
0.0
 15
0.0
 25
0.0
 35
0.0
146
0.0
 13
0.0
 23
0.0
 33
0.0
 16
1.0
 26
0.0
 36
0.0
 17
0.0
 27
1.0
 37
0.0
 76
     0
330
1CE
331
1D2
  0
LAYOUT
  5
22
102
{ACAD_REACTORS
330
1A
102
}
330
1A
100
AcDbPlotSettings
  1

  2
none_device
  4
Letter_(8.50_x_11.00_Inches)
  6

 40
6.35
 41
6.35
 42
6.35000508
 43
6.35000508
 44
215.9
 45
279.4
 46
0.0
 47
0.0
 48
0.0
 49
0.0
140
0.0
141
0.0
142
1.0
143
1.0
 70
  1712
 72
     1
 73
     0
 74
     0
  7

 75
     0
 76
     0
 77
     2
 78
   300
147
1.0
148
0.0
149
0.0
100
AcDbLayout
  1
Model
 70
     1
 71
     0
 10
0.0
 20
0.0
 11
420.0
 21
297.0
 12
0.0
 22
0.0
 32
0.0
 14
1.000000000000000E+20
 24
1.000000000000000E+20
 34
1.000000000000000E+20
 15
-1.000000000000000E+20
 25
-1.000000000000000E+20
 35
-1.000000000000000E+20
146
0.0
 13
0.0
 23
0.0
 33
0.0
 16
1.0
 26
0.0
 36
0.0
 17
0.0
 27
1.0
 37
0.0
 76
     0
330
1F
331
29
  0
MATERIAL
  5
45
102
{ACAD_REACTORS
330
43
102
}
330
43
100
AcDbMaterial
  1
ByBlock
 72
     1
 94
      127
  0
MATERIAL
  5
44
102
{ACAD_REACTORS
330
43
102
}
330
43
100
AcDbMaterial
  1
ByLayer
 72
     1
 94
      127
  0
MATERIAL
  5
46
102
{ACAD_REACTORS
330
43
102
}
330
43
100
AcDbMaterial
  1
Global
 72
     1
 94
      127
  0
MLEADERSTYLE
  5
5C
102
{ACAD_REACTORS
330
5B
102
}
330
5B
100
AcDbMLeaderStyle
179
     2
170
     2
171
     1
172
     0
 90
        2
 40
0.0
 41
0.0
173
     1
 91
-1056964608
340
14
 92
       -2
290
     1
 42
2.0
291
     1
 43
8.0
  3
Standard
341
0
 44
4.0
300

342
11
174
     1
178
     6
175
     1
176
     0
 93
-1056964608
 45
4.0
292
     0
297
     0
 46
4.0
343
0
 94
-1056964608
 47
1.0
 49
1.0
140
1.0
293
     1
141
0.0
294
     1
177
     0
142
1.0
295
     0
296
     0
143
3.75
271
     0
272
     9
273
     9
298
     0
  0
MLINESTYLE
  5
18
102
{ACAD_REACTORS
330
17
102
}
330
17
100
AcDbMlineStyle
  2
Standard
 70
     0
  3

 62
   256
 51
90.0
 52
90.0
 71
     2
 49
0.5
 62
   256
  6
BYLAYER
 49
-0.5
 62
   256
  6
BYLAYER
  0
ACDBPLACEHOLDER
  5
F
102
{ACAD_REACTORS
330
E
102
}
330
E
  0
SCALE
  5
48
102
{ACAD_REACTORS
330
47
102
}
330
47
100
AcDbScale
 70
     0
300
1:1
140
1.0
141
1.0
290
     1
  0
SCALE
  5
49
102
{ACAD_REACTORS
330
47
102
}
330
47
100
AcDbScale
 70
     0
300
1:2
140
1.0
141
2.0
290
     0
  0
SCALE
  5
4A
102
{ACAD_REACTORS
330
47
102
}
330
47
100
AcDbScale
 70
     0
300
1:4
140
1.0
141
4.0
290
     0
  0
SCALE
  5
4B
102
{ACAD_REACTORS
330
47
102
}
330
47
100
AcDbScale
 70
     0
300
1:5
140
1.0
141
5.0
290
     0
  0
SCALE
  5
4C
102
{ACAD_REACTORS
330
47
102
}
330
47
100
AcDbScale
 70
     0
300
1:8
140
1.0
141
8.0
290
     0
  0
SCALE
  5
4D
102
{ACAD_REACTORS
330
47
102
}
330
47
100
AcDbScale
 70
     0
300
1:10
140
1.0
141
10.0
290
     0
  0
SCALE
  5
4E
102
{ACAD_REACTORS
330
47
102
}
330
47
100
AcDbScale
 70
     0
300
1:16
140
1.0
141
16.0
290
     0
  0
SCALE
  5
4F
102
{ACAD_REACTORS
330
47
102
}
330
47
100
AcDbScale
 70
     0
300
1:20
140
1.0
141
20.0
290
     0
  0
SCALE
  5
50
102
{ACAD_REACTORS
330
47
102
}
330
47
100
AcDbScale
 70
     0
300
1:30
140
1.0
141
30.0
290
     0
  0
SCALE
  5
51
102
{ACAD_REACTORS
330
47
102
}
330
47
100
AcDbScale
 70
     0
300
1:40
140
1.0
141
40.0
290
     0
  0
SCALE
  5
52
102
{ACAD_REACTORS
330
47
102
}
330
47
100
AcDbScale
 70
     0
300
1:50
140
1.0
141
50.0
290
     0
  0
SCALE
  5
53
102
{ACAD_REACTORS
330
47
102
}
330
47
100
AcDbScale
 70
     0
300
1:100
140
1.0
141
100.0
290
     0
  0
SCALE
  5
54
102
{ACAD_REACTORS
330
47
102
}
330
47
100
AcDbScale
 70
     0
300
2:1
140
2.0
141
1.0
290
     0
  0
SCALE
  5
55
102
{ACAD_REACTORS
330
47
102
}
330
47
100
AcDbScale
 70
     0
300
4:1
140
4.0
141
1.0
290
     0
  0
SCALE
  5
56
102
{ACAD_REACTORS
330
47
102
}
330
47
100
AcDbScale
 70
     0
300
8:1
140
8.0
141
1.0
290
     0
  0
SCALE
  5
57
102
{ACAD_REACTORS
330
47
102
}
330
47
100
AcDbScale
 70
     0
300
10:1
140
10.0
141
1.0
290
     0
  0
SCALE
  5
58
102
{ACAD_REACTORS
330
47
102
}
330
47
100
AcDbScale
 70
     0
300
100:1
140
100.0
141
1.0
290
     0
  0
TABLESTYLE
  5
5A
102
{ACAD_REACTORS
330
59
102
}
102
{ACAD_XDICTIONARY
360
1D8
102
}
330
59
100
AcDbTableStyle
  3
Standard
 70
     0
 71
     0
 40
0.06
 41
0.06
280
     0
281
     0
  7
Standard
140
4.5
170
     2
 62
     0
 63
   257
283
     0
 90
        4
 91
        0
  1

274
    -2
284
     1
 64
     0
275
    -2
285
     1
 65
     0
276
    -2
286
     1
 66
     0
277
    -2
287
     1
 67
     0
278
    -2
288
     1
 68
     0
279
    -2
289
     1
 69
     0
  7
Standard
140
6.0
170
     5
 62
     0
 63
   257
283
     0
 90
        4
 91
        0
  1

274
    -2
284
     1
 64
     0
275
    -2
285
     1
 65
     0
276
    -2
286
     1
 66
     0
277
    -2
287
     1
 67
     0
278
    -2
288
     1
 68
     0
279
    -2
289
     1
 69
     0
  7
Standard
140
4.5
170
     5
 62
     0
 63
   257
283
     0
 90
        4
 91
        0
  1

274
    -2
284
     1
 64
     0
275
    -2
285
     1
 65
     0
276
    -2
286
     1
 66
     0
277
    -2
287
     1
 67
     0
278
    -2
288
     1
 68
     0
279
    -2
289
     1
 69
     0
  0
VISUALSTYLE
  5
2F
102
{ACAD_REACTORS
330
2A
102
}
330
2A
100
AcDbVisualStyle
  2
2dWireframe
 70
     4
177
     3
291
     0
 70
    58
 90
        0
176
     1
 90
        2
176
     1
 90
        0
176
     1
 90
        0
176
     1
 40
0.6
176
     1
 40
30.0
176
     1
 62
     7
420
 16777215
176
     1
 90
        1
176
     1
 90
        4
176
     1
 62
     7
176
     1
 62
   257
176
     1
 90
        1
176
     1
 90
        1
176
     1
 40
1.0
176
     1
 90
        0
176
     1
 62
   257
176
     1
 40
1.0
176
     1
 90
        1
176
     1
 90
        6
176
     1
 90
        2
176
     1
 62
     7
176
     1
 90
        5
176
     1
 90
        0
176
     1
 90
        0
176
     1
290
     0
176
     1
 90
        1
176
     1
 40
0.0
176
     1
 90
        0
176
     1
290
     1
176
     1
290
     1
176
     1
290
     0
176
     1
290
     0
176
     1
290
     0
176
     1
290
     0
176
     1
290
     0
176
     1
290
     0
176
     1
290
     0
176
     1
 90
       50
176
     1
 40
0.0
176
     1
 40
1.0
176
     1
 90
        0
176
     1
 62
    18
420
        0
176
     1
 90
       50
176
     1
 90
        3
176
     1
 62
     5
420
      255
176
     1
290
     0
176
     1
 90
       50
176
     1
 90
       50
176
     1
 90
       50
176
     1
290
     0
176
     1
 90
       50
176
     1
 62
   256
176
     0
 40
1.0
176
     0
 90
        2
176
     1
  1
strokes_ogs.tif
176
     1
290
     0
176
     1
 40
1.0
176
     1
 40
1.0
176
     1
  0
VISUALSTYLE
  5
32
102
{ACAD_REACTORS
330
2A
102
}
330
2A
100
AcDbVisualStyle
  2
Basic
 70
     7
177
     3
291
     1
 70
    58
 90
        1
176
     1
 90
        0
176
     1
 90
        1
176
     1
 90
        0
176
     1
 40
0.6
176
     1
 40
30.0
176
     1
 62
     7
420
 16777215
176
     1
 90
        0
176
     1
 90
        4
176
     1
 62
     7
176
     1
 62
   257
176
     1
 90
        1
176
     1
 90
        1
176
     1
 40
1.0
176
     1
 90
        8
176
     1
 62
     7
176
     1
 40
1.0
176
     1
 90
        1
176
     1
 90
        6
176
     1
 90
        2
176
     1
 62
     7
176
     1
 90
        5
176
     1
 90
        0
176
     1
 90
        0
176
     1
290
     0
176
     1
 90
        1
176
     1
 40
0.0
176
     1
 90
        0
176
     1
290
     0
176
     1
290
     1
176
     1
290
     1
176
     1
290
     0
176
     1
290
     0
176
     1
290
     0
176
     1
290
     0
176
     1
290
     0
176
     1
290
     0
176
     1
 90
       50
176
     1
 40
0.0
176
     1
 40
1.0
176
     1
 90
        0
176
     1
 62
    18
420
        0
176
     1
 90
       50
176
     1
 90
        3
176
     1
 62
     5
420
      255
176
     1
290
     0
176
     1
 90
       50
176
     1
 90
       50
176
     1
 90
       50
176
     1
290
     0
176
     1
 90
       50
176
     1
 62
   256
176
     0
 40
1.0
176
     0
 90
        2
176
     1
  1
strokes_ogs.tif
176
     1
290
     0
176
     1
 40
1.0
176
     1
 40
1.0
176
     1
  0
VISUALSTYLE
  5
36
102
{ACAD_REACTORS
330
2A
102
}
330
2A
100
AcDbVisualStyle
  2
Brighten
 70
    12
177
     3
291
     1
 70
    58
 90
        2
176
     1
 90
        2
176
     1
 90
        0
176
     1
 90
        0
176
     1
 40
0.6
176
     1
 40
30.0
176
     1
 62
     7
420
 16777215
176
     1
 90
        1
176
     1
 90
        4
176
     1
 62
     7
176
     1
 62
   257
176
     1
 90
        1
176
     1
 90
        1
176
     1
 40
1.0
176
     1
 90
        8
176
     1
 62
     7
176
     1
 40
1.0
176
     1
 90
        1
176
     1
 90
        6
176
     1
 90
        2
176
     1
 62
     7
176
     1
 90
        5
176
     1
 90
        0
176
     1
 90
        0
176
     1
290
     0
176
     1
 90
        1
176
     1
 40
50.0
176
     1
 90
        0
176
     1
290
     0
176
     1
290
     1
176
     1
290
     1
176
     1
290
     0
176
     1
290
     0
176
     1
290
     0
176
     1
290
     0
176
     1
290
     0
176
     1
290
     0
176
     1
 90
       50
176
     1
 40
0.0
176
     1
 40
1.0
176
     1
 90
        0
176
     1
 62
    18
420
        0
176
     1
 90
       50
176
     1
 90
        3
176
     1
 62
     5
420
      255
176
     1
290
     0
176
     1
 90
       50
176
     1
 90
       50
176
     1
 90
       50
176
     1
290
     0
176
     1
 90
       50
176
     1
 62
   256
176
     0
 40
1.0
176
     0
 90
        2
176
     1
  1
strokes_ogs.tif
176
     1
290
     0
176
     1
 40
1.0
176
     1
 40
1.0
176
     1
  0
VISUALSTYLE
  5
3A
102
{ACAD_REACTORS
330
2A
102
}
330
2A
100
AcDbVisualStyle
  2
ColorChange
 70
    16
177
     3
291
     1
 70
    58
 90
        2
176
     1
 90
        2
176
     1
 90
        3
176
     1
 90
        0
176
     1
 40
0.6
176
     1
 40
30.0
176
     1
 62
     8
420
  8421504
176
     1
 90
        1
176
     1
 90
        4
176
     1
 62
     7
176
     1
 62
   257
176
     1
 90
        1
176
     1
 90
        1
176
     1
 40
1.0
176
     1
 90
        8
176
     1
 62
     8
420
  8421504
176
     1
 40
1.0
176
     1
 90
        1
176
     1
 90
        6
176
     1
 90
        2
176
     1
 62
     7
176
     1
 90
        5
176
     1
 90
        0
176
     1
 90
        0
176
     1
290
     0
176
     1
 90
        1
176
     1
 40
0.0
176
     1
 90
        0
176
     1
290
     0
176
     1
290
     1
176
     1
290
     1
176
     1
290
     0
176
     1
290
     0
176
     1
290
     0
176
     1
290
     0
176
     1
290
     0
176
     1
290
     0
176
     1
 90
       50
176
     1
 40
0.0
176
     1
 40
1.0
176
     1
 90
        0
176
     1
 62
    18
420
        0
176
     1
 90
       50
176
     1
 90
        3
176
     1
 62
     5
420
      255
176
     1
290
     0
176
     1
 90
       50
176
     1
 90
       50
176
     1
 90
       50
176
     1
290
     0
176
     1
 90
       50
176
     1
 62
   256
176
     0
 40
1.0
176
     0
 90
        2
176
     1
  1
strokes_ogs.tif
176
     1
290
     0
176
     1
 40
1.0
176
     1
 40
1.0
176
     1
  0
VISUALSTYLE
  5
34
102
{ACAD_REACTORS
330
2A
102
}
330
2A
100
AcDbVisualStyle
  2
Conceptual
 70
     9
177
     3
291
     0
 70
    58
 90
        3
176
     1
 90
        2
176
     1
 90
        0
176
     1
 90
        0
176
     1
 40
0.6
176
     1
 40
30.0
176
     1
 62
     7
420
 16777215
176
     1
 90
        2
176
     1
 90
        2
176
     1
 62
     7
176
     1
 62
   257
176
     1
 90
        1
176
     1
 90
        1
176
     1
 40
179.0
176
     1
 90
        8
176
     1
 62
     7
176
     1
 40
1.0
176
     1
 90
        1
176
     1
 90
        6
176
     1
 90
        2
176
     1
 62
     7
176
     1
 90
        3
176
     1
 90
        0
176
     1
 90
        0
176
     1
290
     0
176
     1
 90
        1
176
     1
 40
0.0
176
     1
 90
        0
176
     1
290
     0
176
     1
290
     1
176
     1
290
     1
176
     1
290
     0
176
     1
290
     0
176
     1
290
     0
176
     1
290
     0
176
     1
290
     0
176
     1
290
     0
176
     1
 90
       50
176
     1
 40
0.0
176
     1
 40
1.0
176
     1
 90
        0
176
     1
 62
    18
420
        0
176
     1
 90
       50
176
     1
 90
        3
176
     1
 62
     5
420
      255
176
     1
290
     0
176
     1
 90
       50
176
     1
 90
       50
176
     1
 90
       50
176
     1
290
     0
176
     1
 90
       50
176
     1
 62
   256
176
     0
 40
1.0
176
     0
 90
        2
176
     1
  1
strokes_ogs.tif
176
     1
290
     0
176
     1
 40
1.0
176
     1
 40
1.0
176
     1
  0
VISUALSTYLE
  5
35
102
{ACAD_REACTORS
330
2A
102
}
330
2A
100
AcDbVisualStyle
  2
Dim
 70
    11
177
     3
291
     1
 70
    58
 90
        2
176
     1
 90
        2
176
     1
 90
        0
176
     1
 90
        0
176
     1
 40
0.6
176
     1
 40
30.0
176
     1
 62
     7
420
 16777215
176
     1
 90
        1
176
     1
 90
        4
176
     1
 62
     7
176
     1
 62
   257
176
     1
 90
        1
176
     1
 90
        1
176
     1
 40
1.0
176
     1
 90
        8
176
     1
 62
     7
176
     1
 40
1.0
176
     1
 90
        1
176
     1
 90
        6
176
     1
 90
        2
176
     1
 62
     7
176
     1
 90
        5
176
     1
 90
        0
176
     1
 90
        0
176
     1
290
     0
176
     1
 90
        1
176
     1
 40
-50.0
176
     1
 90
        0
176
     1
290
     0
176
     1
290
     1
176
     1
290
     1
176
     1
290
     0
176
     1
290
     0
176
     1
290
     0
176
     1
290
     0
176
     1
290
     0
176
     1
290
     0
176
     1
 90
       50
176
     1
 40
0.0
176
     1
 40
1.0
176
     1
 90
        0
176
     1
 62
    18
420
        0
176
     1
 90
       50
176
     1
 90
        3
176
     1
 62
     5
420
      255
176
     1
290
     0
176
     1
 90
       50
176
     1
 90
       50
176
     1
 90
       50
176
     1
290
     0
176
     1
 90
       50
176
     1
 62
   256
176
     0
 40
1.0
176
     0
 90
        2
176
     1
  1
strokes_ogs.tif
176
     1
290
     0
176
     1
 40
1.0
176
     1
 40
1.0
176
     1
  0
VISUALSTYLE
  5
3D
102
{ACAD_REACTORS
330
2A
102
}
330
2A
100
AcDbVisualStyle
  2
EdgeColorOff
 70
    22
177
     3
291
     1
 70
    58
 90
        2
176
     0
 90
        2
176
     0
 90
        0
176
     0
 90
        0
176
     0
 40
0.6
176
     0
 40
30.0
176
     0
 62
     7
420
 16777215
176
     0
 90
        1
176
     0
 90
        4
176
     0
 62
     7
176
     0
 62
   257
176
     0
 90
        1
176
     0
 90
        1
176
     0
 40
1.0
176
     0
 90
        8
176
     2
 62
     7
176
     0
 40
1.0
176
     0
 90
        1
176
     0
 90
        6
176
     0
 90
        2
176
     0
 62
     7
176
     0
 90
        5
176
     0
 90
        0
176
     0
 90
        0
176
     0
290
     0
176
     0
 90
        1
176
     0
 40
0.0
176
     0
 90
        0
176
     0
290
     0
176
     0
290
     1
176
     0
290
     1
176
     0
290
     0
176
     0
290
     0
176
     0
290
     0
176
     0
290
     0
176
     0
290
     0
176
     0
290
     0
176
     0
 90
       50
176
     0
 40
0.0
176
     0
 40
1.0
176
     0
 90
        0
176
     0
 62
    18
420
        0
176
     0
 90
       50
176
     0
 90
        3
176
     0
 62
     5
420
      255
176
     0
290
     0
176
     0
 90
       50
176
     0
 90
       50
176
     0
 90
       50
176
     0
290
     0
176
     0
 90
       50
176
     0
 62
   256
176
     0
 40
1.0
176
     0
 90
        2
176
     0
  1
strokes_ogs.tif
176
     0
290
     0
176
     0
 40
1.0
176
     0
 40
1.0
176
     0
  0
VISUALSTYLE
  5
39
102
{ACAD_REACTORS
330
2A
102
}
330
2A
100
AcDbVisualStyle
  2
Facepattern
 70
    15
177
     3
291
     1
 70
    58
 90
        2
176
     1
 90
        2
176
     1
 90
        0
176
     1
 90
        0
176
     1
 40
0.6
176
     1
 40
30.0
176
     1
 62
     7
420
 16777215
176
     1
 90
        1
176
     1
 90
        4
176
     1
 62
     7
176
     1
 62
   257
176
     1
 90
        1
176
     1
 90
        1
176
     1
 40
1.0
176
     1
 90
        8
176
     1
 62
     7
176
     1
 40
1.0
176
     1
 90
        1
176
     1
 90
        6
176
     1
 90
        2
176
     1
 62
     7
176
     1
 90
        5
176
     1
 90
        0
176
     1
 90
        0
176
     1
290
     0
176
     1
 90
        1
176
     1
 40
0.0
176
     1
 90
        0
176
     1
290
     0
176
     1
290
     1
176
     1
290
     1
176
     1
290
     0
176
     1
290
     0
176
     1
290
     0
176
     1
290
     0
176
     1
290
     0
176
     1
290
     0
176
     1
 90
       50
176
     1
 40
0.0
176
     1
 40
1.0
176
     1
 90
        0
176
     1
 62
    18
420
        0
176
     1
 90
       50
176
     1
 90
        3
176
     1
 62
     5
420
      255
176
     1
290
     0
176
     1
 90
       50
176
     1
 90
       50
176
     1
 90
       50
176
     1
290
     0
176
     1
 90
       50
176
     1
 62
   256
176
     0
 40
1.0
176
     0
 90
        2
176
     1
  1
strokes_ogs.tif
176
     1
290
     0
176
     1
 40
1.0
176
     1
 40
1.0
176
     1
  0
VISUALSTYLE
  5
2B
102
{ACAD_REACTORS
330
2A
102
}
330
2A
100
AcDbVisualStyle
  2
Flat
 70
     0
177
     3
291
     1
 70
    58
 90
        2
176
     1
 90
        1
176
     1
 90
        1
176
     1
 90
        2
176
     1
 40
0.6
176
     1
 40
30.0
176
     1
 62
     7
420
 16777215
176
     1
 90
        0
176
     1
 90
        0
176
     1
 62
     7
176
     1
 62
   257
176
     1
 90
        1
176
     1
 90
        1
176
     1
 40
1.0
176
     1
 90
        8
176
     1
 62
     7
176
     1
 40
1.0
176
     1
 90
        1
176
     1
 90
        6
176
     1
 90
        2
176
     1
 62
     7
176
     1
 90
        5
176
     1
 90
        0
176
     1
 90
        0
176
     1
290
     0
176
     1
 90
       13
176
     1
 40
0.0
176
     1
 90
        0
176
     1
290
     0
176
     1
290
     1
176
     1
290
     1
176
     1
290
     0
176
     1
290
     0
176
     1
290
     0
176
     1
290
     0
176
     1
290
     0
176
     1
290
     0
176
     1
 90
       50
176
     1
 40
0.0
176
     1
 40
1.0
176
     1
 90
        0
176
     1
 62
    18
420
        0
176
     1
 90
       50
176
     1
 90
        3
176
     1
 62
     5
420
      255
176
     1
290
     0
176
     1
 90
       50
176
     1
 90
       50
176
     1
 90
       50
176
     1
290
     0
176
     1
 90
       50
176
     1
 62
   256
176
     0
 40
1.0
176
     0
 90
        2
176
     1
  1
strokes_ogs.tif
176
     1
290
     0
176
     1
 40
1.0
176
     1
 40
1.0
176
     1
  0
VISUALSTYLE
  5
2C
102
{ACAD_REACTORS
330
2A
102
}
330
2A
100
AcDbVisualStyle
  2
FlatWithEdges
 70
     1
177
     3
291
     1
 70
    58
 90
        2
176
     1
 90
        1
176
     1
 90
        1
176
     1
 90
        2
176
     1
 40
0.6
176
     1
 40
30.0
176
     1
 62
     7
420
 16777215
176
     1
 90
        1
176
     1
 90
        0
176
     1
 62
     7
176
     1
 62
   257
176
     1
 90
        1
176
     1
 90
        1
176
     1
 40
1.0
176
     1
 90
        0
176
     1
 62
   257
176
     1
 40
1.0
176
     1
 90
        1
176
     1
 90
        6
176
     1
 90
        2
176
     1
 62
     7
176
     1
 90
        5
176
     1
 90
        0
176
     1
 90
        0
176
     1
290
     0
176
     1
 90
       13
176
     1
 40
0.0
176
     1
 90
        0
176
     1
290
     0
176
     1
290
     1
176
     1
290
     1
176
     1
290
     0
176
     1
290
     0
176
     1
290
     0
176
     1
290
     0
176
     1
290
     0
176
     1
290
     0
176
     1
 90
       50
176
     1
 40
0.0
176
     1
 40
1.0
176
     1
 90
        0
176
     1
 62
    18
420
        0
176
     1
 90
       50
176
     1
 90
        3
176
     1
 62
     5
420
      255
176
     1
290
     0
176
     1
 90
       50
176
     1
 90
       50
176
     1
 90
       50
176
     1
290
     0
176
     1
 90
       50
176
     1
 62
   256
176
     0
 40
1.0
176
     0
 90
        2
176
     1
  1
strokes_ogs.tif
176
     1
290
     0
176
     1
 40
1.0
176
     1
 40
1.0
176
     1
  0
VISUALSTYLE
  5
2D
102
{ACAD_REACTORS
330
2A
102
}
330
2A
100
AcDbVisualStyle
  2
Gouraud
 70
     2
177
     3
291
     1
 70
    58
 90
        2
176
     1
 90
        2
176
     1
 90
        1
176
     1
 90
        2
176
     1
 40
0.6
176
     1
 40
30.0
176
     1
 62
     7
420
 16777215
176
     1
 90
        0
176
     1
 90
        0
176
     1
 62
     7
176
     1
 62
   257
176
     1
 90
        1
176
     1
 90
        1
176
     1
 40
1.0
176
     1
 90
        0
176
     1
 62
     7
176
     1
 40
1.0
176
     1
 90
        1
176
     1
 90
        6
176
     1
 90
        2
176
     1
 62
     7
176
     1
 90
        5
176
     1
 90
        0
176
     1
 90
        0
176
     1
290
     0
176
     1
 90
       13
176
     1
 40
0.0
176
     1
 90
        0
176
     1
290
     0
176
     1
290
     1
176
     1
290
     1
176
     1
290
     0
176
     1
290
     0
176
     1
290
     0
176
     1
290
     0
176
     1
290
     0
176
     1
290
     0
176
     1
 90
       50
176
     1
 40
0.0
176
     1
 40
1.0
176
     1
 90
        0
176
     1
 62
    18
420
        0
176
     1
 90
       50
176
     1
 90
        3
176
     1
 62
     5
420
      255
176
     1
290
     0
176
     1
 90
       50
176
     1
 90
       50
176
     1
 90
       50
176
     1
290
     0
176
     1
 90
       50
176
     1
 62
   256
176
     0
 40
1.0
176
     0
 90
        2
176
     1
  1
strokes_ogs.tif
176
     1
290
     0
176
     1
 40
1.0
176
     1
 40
1.0
176
     1
  0
VISUALSTYLE
  5
2E
102
{ACAD_REACTORS
330
2A
102
}
330
2A
100
AcDbVisualStyle
  2
GouraudWithEdges
 70
     3
177
     3
291
     1
 70
    58
 90
        2
176
     1
 90
        2
176
     1
 90
        1
176
     1
 90
        2
176
     1
 40
0.6
176
     1
 40
30.0
176
     1
 62
     7
420
 16777215
176
     1
 90
        1
176
     1
 90
        0
176
     1
 62
     7
176
     1
 62
   257
176
     1
 90
        1
176
     1
 90
        1
176
     1
 40
1.0
176
     1
 90
        0
176
     1
 62
   257
176
     1
 40
1.0
176
     1
 90
        1
176
     1
 90
        6
176
     1
 90
        2
176
     1
 62
     7
176
     1
 90
        5
176
     1
 90
        0
176
     1
 90
        0
176
     1
290
     0
176
     1
 90
       13
176
     1
 40
0.0
176
     1
 90
        0
176
     1
290
     0
176
     1
290
     1
176
     1
290
     1
176
     1
290
     0
176
     1
290
     0
176
     1
290
     0
176
     1
290
     0
176
     1
290
     0
176
     1
290
     0
176
     1
 90
       50
176
     1
 40
0.0
176
     1
 40
1.0
176
     1
 90
        0
176
     1
 62
    18
420
        0
176
     1
 90
       50
176
     1
 90
        3
176
     1
 62
     5
420
      255
176
     1
290
     0
176
     1
 90
       50
176
     1
 90
       50
176
     1
 90
       50
176
     1
290
     0
176
     1
 90
       50
176
     1
 62
   256
176
     0
 40
1.0
176
     0
 90
        2
176
     1
  1
strokes_ogs.tif
176
     1
290
     0
176
     1
 40
1.0
176
     1
 40
1.0
176
     1
  0
VISUALSTYLE
  5
31
102
{ACAD_REACTORS
330
2A
102
}
330
2A
100
AcDbVisualStyle
  2
Hidden
 70
     6
177
     3
291
     0
 70
    58
 90
        1
176
     1
 90
        2
176
     1
 90
        2
176
     1
 90
        0
176
     1
 40
0.6
176
     1
 40
30.0
176
     1
 62
     7
420
 16777215
176
     1
 90
        2
176
     1
 90
        2
176
     1
 62
     7
176
     1
 62
   257
176
     1
 90
        2
176
     1
 90
        1
176
     1
 40
40.0
176
     1
 90
        0
176
     1
 62
   257
176
     1
 40
1.0
176
     1
 90
        1
176
     1
 90
        6
176
     1
 90
        2
176
     1
 62
     7
176
     1
 90
        3
176
     1
 90
        0
176
     1
 90
        0
176
     1
290
     0
176
     1
 90
        1
176
     1
 40
0.0
176
     1
 90
        0
176
     1
290
     0
176
     1
290
     1
176
     1
290
     1
176
     1
290
     0
176
     1
290
     0
176
     1
290
     0
176
     1
290
     0
176
     1
290
     0
176
     1
290
     0
176
     1
 90
       50
176
     1
 40
0.0
176
     1
 40
1.0
176
     1
 90
        0
176
     1
 62
    18
420
        0
176
     1
 90
       50
176
     1
 90
        3
176
     1
 62
     5
420
      255
176
     1
290
     0
176
     1
 90
       50
176
     1
 90
       50
176
     1
 90
       50
176
     1
290
     0
176
     1
 90
       50
176
     1
 62
   256
176
     0
 40
1.0
176
     0
 90
        2
176
     1
  1
strokes_ogs.tif
176
     1
290
     0
176
     1
 40
1.0
176
     1
 40
1.0
176
     1
  0
VISUALSTYLE
  5
3B
102
{ACAD_REACTORS
330
2A
102
}
330
2A
100
AcDbVisualStyle
  2
JitterOff
 70
    20
177
     3
291
     1
 70
    58
 90
        2
176
     0
 90
        2
176
     0
 90
        0
176
     0
 90
        0
176
     0
 40
0.6
176
     0
 40
30.0
176
     0
 62
     7
420
 16777215
176
     0
 90
        1
176
     0
 90
        4
176
     0
 62
     7
176
     0
 62
   257
176
     0
 90
        1
176
     0
 90
        1
176
     0
 40
1.0
176
     0
 90
       10
176
     2
 62
     7
176
     0
 40
1.0
176
     0
 90
        1
176
     0
 90
        6
176
     0
 90
        2
176
     0
 62
     7
176
     0
 90
        5
176
     0
 90
        0
176
     0
 90
        0
176
     0
290
     0
176
     0
 90
        1
176
     0
 40
0.0
176
     0
 90
        0
176
     0
290
     0
176
     0
290
     1
176
     0
290
     1
176
     0
290
     0
176
     0
290
     0
176
     0
290
     0
176
     0
290
     0
176
     0
290
     0
176
     0
290
     0
176
     0
 90
       50
176
     0
 40
0.0
176
     0
 40
1.0
176
     0
 90
        0
176
     0
 62
    18
420
        0
176
     0
 90
       50
176
     0
 90
        3
176
     0
 62
     5
420
      255
176
     0
290
     0
176
     0
 90
       50
176
     0
 90
       50
176
     0
 90
       50
176
     0
290
     0
176
     0
 90
       50
176
     0
 62
   256
176
     0
 40
1.0
176
     0
 90
        2
176
     0
  1
strokes_ogs.tif
176
     0
290
     0
176
     0
 40
1.0
176
     0
 40
1.0
176
     0
  0
VISUALSTYLE
  5
38
102
{ACAD_REACTORS
330
2A
102
}
330
2A
100
AcDbVisualStyle
  2
Linepattern
 70
    14
177
     3
291
     1
 70
    58
 90
        2
176
     1
 90
        2
176
     1
 90
        0
176
     1
 90
        0
176
     1
 40
0.6
176
     1
 40
30.0
176
     1
 62
     7
420
 16777215
176
     1
 90
        1
176
     1
 90
        4
176
     1
 62
     7
176
     1
 62
   257
176
     1
 90
        7
176
     1
 90
        7
176
     1
 40
1.0
176
     1
 90
        8
176
     1
 62
     7
176
     1
 40
1.0
176
     1
 90
        1
176
     1
 90
        6
176
     1
 90
        2
176
     1
 62
     7
176
     1
 90
        5
176
     1
 90
        0
176
     1
 90
        0
176
     1
290
     0
176
     1
 90
        1
176
     1
 40
0.0
176
     1
 90
        0
176
     1
290
     0
176
     1
290
     1
176
     1
290
     1
176
     1
290
     0
176
     1
290
     0
176
     1
290
     0
176
     1
290
     0
176
     1
290
     0
176
     1
290
     0
176
     1
 90
       50
176
     1
 40
0.0
176
     1
 40
1.0
176
     1
 90
        0
176
     1
 62
    18
420
        0
176
     1
 90
       50
176
     1
 90
        3
176
     1
 62
     5
420
      255
176
     1
290
     0
176
     1
 90
       50
176
     1
 90
       50
176
     1
 90
       50
176
     1
290
     0
176
     1
 90
       50
176
     1
 62
   256
176
     0
 40
1.0
176
     0
 90
        2
176
     1
  1
strokes_ogs.tif
176
     1
290
     0
176
     1
 40
1.0
176
     1
 40
1.0
176
     1
  0
VISUALSTYLE
  5
3C
102
{ACAD_REACTORS
330
2A
102
}
330
2A
100
AcDbVisualStyle
  2
OverhangOff
 70
    21
177
     3
291
     1
 70
    58
 90
        2
176
     0
 90
        2
176
     0
 90
        0
176
     0
 90
        0
176
     0
 40
0.6
176
     0
 40
30.0
176
     0
 62
     7
420
 16777215
176
     0
 90
        1
176
     0
 90
        4
176
     0
 62
     7
176
     0
 62
   257
176
     0
 90
        1
176
     0
 90
        1
176
     0
 40
1.0
176
     0
 90
        9
176
     2
 62
     7
176
     0
 40
1.0
176
     0
 90
        1
176
     0
 90
        6
176
     0
 90
        2
176
     0
 62
     7
176
     0
 90
        5
176
     0
 90
        0
176
     0
 90
        0
176
     0
290
     0
176
     0
 90
        1
176
     0
 40
0.0
176
     0
 90
        0
176
     0
290
     0
176
     0
290
     1
176
     0
290
     1
176
     0
290
     0
176
     0
290
     0
176
     0
290
     0
176
     0
290
     0
176
     0
290
     0
176
     0
290
     0
176
     0
 90
       50
176
     0
 40
0.0
176
     0
 40
1.0
176
     0
 90
        0
176
     0
 62
    18
420
        0
176
     0
 90
       50
176
     0
 90
        3
176
     0
 62
     5
420
      255
176
     0
290
     0
176
     0
 90
       50
176
     0
 90
       50
176
     0
 90
       50
176
     0
290
     0
176
     0
 90
       50
176
     0
 62
   256
176
     0
 40
1.0
176
     0
 90
        2
176
     0
  1
strokes_ogs.tif
176
     0
290
     0
176
     0
 40
1.0
176
     0
 40
1.0
176
     0
  0
VISUALSTYLE
  5
33
102
{ACAD_REACTORS
330
2A
102
}
330
2A
100
AcDbVisualStyle
  2
Realistic
 70
     8
177
     3
291
     0
 70
    58
 90
        2
176
     1
 90
        3
176
     1
 90
        0
176
     1
 90
        2
176
     1
 40
0.6
176
     1
 40
30.0
176
     1
 62
     7
420
 16777215
176
     1
 90
        0
176
     1
 90
        0
176
     1
 62
     7
176
     1
 62
   257
176
     1
 90
        1
176
     1
 90
        1
176
     1
 40
1.0
176
     1
 90
        8
176
     1
 62
   257
176
     1
 40
1.0
176
     1
 90
        1
176
     1
 90
        6
176
     1
 90
        2
176
     1
 62
     7
176
     1
 90
        3
176
     1
 90
        0
176
     1
 90
        0
176
     1
290
     0
176
     1
 90
       13
176
     1
 40
0.0
176
     1
 90
        0
176
     1
290
     0
176
     1
290
     1
176
     1
290
     1
176
     1
290
     0
176
     1
290
     0
176
     1
290
     0
176
     1
290
     0
176
     1
290
     0
176
     1
290
     0
176
     1
 90
       50
176
     1
 40
0.0
176
     1
 40
1.0
176
     1
 90
        0
176
     1
 62
    18
420
        0
176
     1
 90
       50
176
     1
 90
        3
176
     1
 62
     5
420
      255
176
     1
290
     0
176
     1
 90
       50
176
     1
 90
       50
176
     1
 90
       50
176
     1
290
     0
176
     1
 90
       50
176
     1
 62
   256
176
     0
 40
1.0
176
     0
 90
        2
176
     1
  1
strokes_ogs.tif
176
     1
290
     0
176
     1
 40
1.0
176
     1
 40
1.0
176
     1
  0
VISUALSTYLE
  5
42
102
{ACAD_REACTORS
330
2A
102
}
330
2A
100
AcDbVisualStyle
  2
Shaded
 70
    27
177
     3
291
     0
 70
    58
 90
        2
176
     1
 90
        2
176
     1
 90
        1
176
     1
 90
        2
176
     1
 40
0.6
176
     1
 40
30.0
176
     1
 62
     7
420
 16777215
176
     1
 90
        0
176
     1
 90
        4
176
     1
 62
     7
176
     1
 62
   257
176
     1
 90
        1
176
     1
 90
        1
176
     1
 40
1.0
176
     1
 90
        8
176
     1
 62
   257
176
     1
 40
1.0
176
     1
 90
        1
176
     1
 90
        6
176
     1
 90
        2
176
     1
 62
     8
420
  7895160
176
     1
 90
        3
176
     1
 90
        0
176
     1
 90
        0
176
     1
290
     0
176
     1
 90
        5
176
     1
 40
0.0
176
     1
 90
        0
176
     1
290
     0
176
     1
290
     1
176
     1
290
     1
176
     1
290
     0
176
     1
290
     0
176
     1
290
     0
176
     1
290
     0
176
     1
290
     0
176
     1
290
     0
176
     1
 90
       50
176
     1
 40
0.0
176
     1
 40
1.0
176
     1
 90
        0
176
     1
 62
    18
420
        0
176
     1
 90
       50
176
     1
 90
        3
176
     1
 62
     5
420
      255
176
     1
290
     0
176
     1
 90
       50
176
     1
 90
       50
176
     1
 90
       50
176
     1
290
     0
176
     1
 90
       50
176
     1
 62
   256
176
     0
 40
1.0
176
     0
 90
        2
176
     1
  1
strokes_ogs.tif
176
     1
290
     0
176
     1
 40
1.0
176
     1
 40
1.0
176
     1
  0
VISUALSTYLE
  5
41
102
{ACAD_REACTORS
330
2A
102
}
330
2A
100
AcDbVisualStyle
  2
Shaded with edges
 70
    26
177
     3
291
     0
 70
    58
 90
        2
176
     1
 90
        2
176
     1
 90
        1
176
     1
 90
        2
176
     1
 40
0.6
176
     1
 40
30.0
176
     1
 62
     7
420
 16777215
176
     1
 90
        1
176
     1
 90
       10
176
     1
 62
     7
176
     1
 62
   257
176
     1
 90
        2
176
     1
 90
        1
176
     1
 40
1.0
176
     1
 90
        8
176
     1
 62
   257
176
     1
 40
1.0
176
     1
 90
        1
176
     1
 90
        6
176
     1
 90
        2
176
     1
 62
     7
176
     1
 90
        3
176
     1
 90
        0
176
     1
 90
        0
176
     1
290
     0
176
     1
 90
        5
176
     1
 40
0.0
176
     1
 90
        0
176
     1
290
     0
176
     1
290
     1
176
     1
290
     1
176
     1
290
     0
176
     1
290
     0
176
     1
290
     0
176
     1
290
     0
176
     1
290
     0
176
     1
290
     0
176
     1
 90
       50
176
     1
 40
0.0
176
     1
 40
1.0
176
     1
 90
        0
176
     1
 62
    18
420
        0
176
     1
 90
       50
176
     1
 90
        3
176
     1
 62
     5
420
      255
176
     1
290
     0
176
     1
 90
       50
176
     1
 90
       50
176
     1
 90
       50
176
     1
290
     0
176
     1
 90
       50
176
     1
 62
   256
176
     0
 40
1.0
176
     0
 90
        2
176
     1
  1
strokes_ogs.tif
176
     1
290
     0
176
     1
 40
1.0
176
     1
 40
1.0
176
     1
  0
VISUALSTYLE
  5
3E
102
{ACAD_REACTORS
330
2A
102
}
330
2A
100
AcDbVisualStyle
  2
Shades of Gray
 70
    23
177
     3
291
     0
 70
    58
 90
        2
176
     1
 90
        2
176
     1
 90
        3
176
     1
 90
        0
176
     1
 40
0.6
176
     1
 40
30.0
176
     1
 62
     7
420
 16777215
176
     1
 90
        2
176
     1
 90
        2
176
     1
 62
     7
176
     1
 62
     7
176
     1
 90
        1
176
     1
 90
        1
176
     1
 40
40.0
176
     1
 90
        8
176
     1
 62
     7
176
     1
 40
1.0
176
     1
 90
        1
176
     1
 90
        6
176
     1
 90
        2
176
     1
 62
     7
176
     1
 90
        3
176
     1
 90
        0
176
     1
 90
        0
176
     1
290
     0
176
     1
 90
        1
176
     1
 40
0.0
176
     1
 90
        0
176
     1
290
     0
176
     1
290
     1
176
     1
290
     1
176
     1
290
     0
176
     1
290
     0
176
     1
290
     0
176
     1
290
     0
176
     1
290
     0
176
     1
290
     0
176
     1
 90
       50
176
     1
 40
0.0
176
     1
 40
1.0
176
     1
 90
        0
176
     1
 62
    18
420
        0
176
     1
 90
       50
176
     1
 90
        3
176
     1
 62
     5
420
      255
176
     1
290
     0
176
     1
 90
       50
176
     1
 90
       50
176
     1
 90
       50
176
     1
290
     0
176
     1
 90
       50
176
     1
 62
   256
176
     0
 40
1.0
176
     0
 90
        2
176
     1
  1
strokes_ogs.tif
176
     1
290
     0
176
     1
 40
1.0
176
     1
 40
1.0
176
     1
  0
VISUALSTYLE
  5
3F
102
{ACAD_REACTORS
330
2A
102
}
330
2A
100
AcDbVisualStyle
  2
Sketchy
 70
    24
177
     3
291
     0
 70
    58
 90
        1
176
     1
 90
        2
176
     1
 90
        2
176
     1
 90
        0
176
     1
 40
0.6
176
     1
 40
30.0
176
     1
 62
     7
420
 16777215
176
     1
 90
        2
176
     1
 90
        2
176
     1
 62
     7
176
     1
 62
     7
176
     1
 90
        1
176
     1
 90
        1
176
     1
 40
40.0
176
     1
 90
       11
176
     1
 62
     7
176
     1
 40
1.0
176
     1
 90
        1
176
     1
 90
        6
176
     1
 90
        2
176
     1
 62
     7
176
     1
 90
        6
176
     1
 90
        0
176
     1
 90
        0
176
     1
290
     0
176
     1
 90
        1
176
     1
 40
0.0
176
     1
 90
        0
176
     1
290
     0
176
     1
290
     1
176
     1
290
     1
176
     1
290
     0
176
     1
290
     0
176
     1
290
     0
176
     1
290
     0
176
     1
290
     0
176
     1
290
     0
176
     1
 90
       50
176
     1
 40
0.0
176
     1
 40
1.0
176
     1
 90
        0
176
     1
 62
    18
420
        0
176
     1
 90
       50
176
     1
 90
        3
176
     1
 62
     5
420
      255
176
     1
290
     0
176
     1
 90
       50
176
     1
 90
       50
176
     1
 90
       50
176
     1
290
     0
176
     1
 90
       50
176
     1
 62
   256
176
     0
 40
1.0
176
     0
 90
        2
176
     1
  1
strokes_ogs.tif
176
     1
290
     0
176
     1
 40
1.0
176
     1
 40
1.0
176
     1
  0
VISUALSTYLE
  5
37
102
{ACAD_REACTORS
330
2A
102
}
330
2A
100
AcDbVisualStyle
  2
Thicken
 70
    13
177
     3
291
     1
 70
    58
 90
        2
176
     1
 90
        2
176
     1
 90
        0
176
     1
 90
        0
176
     1
 40
0.6
176
     1
 40
30.0
176
     1
 62
     7
420
 16777215
176
     1
 90
        1
176
     1
 90
        4
176
     1
 62
     7
176
     1
 62
   257
176
     1
 90
        1
176
     1
 90
        1
176
     1
 40
1.0
176
     1
 90
       12
176
     1
 62
     7
176
     1
 40
1.0
176
     1
 90
        1
176
     1
 90
        6
176
     1
 90
        2
176
     1
 62
     7
176
     1
 90
        5
176
     1
 90
        0
176
     1
 90
        0
176
     1
290
     0
176
     1
 90
        1
176
     1
 40
0.0
176
     1
 90
        0
176
     1
290
     0
176
     1
290
     1
176
     1
290
     1
176
     1
290
     0
176
     1
290
     0
176
     1
290
     0
176
     1
290
     0
176
     1
290
     0
176
     1
290
     0
176
     1
 90
       50
176
     1
 40
0.0
176
     1
 40
1.0
176
     1
 90
        0
176
     1
 62
    18
420
        0
176
     1
 90
       50
176
     1
 90
        3
176
     1
 62
     5
420
      255
176
     1
290
     0
176
     1
 90
       50
176
     1
 90
       50
176
     1
 90
       50
176
     1
290
     0
176
     1
 90
       50
176
     1
 62
   256
176
     0
 40
1.0
176
     0
 90
        2
176
     1
  1
strokes_ogs.tif
176
     1
290
     0
176
     1
 40
1.0
176
     1
 40
1.0
176
     1
  0
VISUALSTYLE
  5
30
102
{ACAD_REACTORS
330
2A
102
}
330
2A
100
AcDbVisualStyle
  2
Wireframe
 70
     5
177
     3
291
     0
 70
    58
 90
        0
176
     1
 90
        2
176
     1
 90
        0
176
     1
 90
        0
176
     1
 40
0.6
176
     1
 40
30.0
176
     1
 62
     7
420
 16777215
176
     1
 90
        1
176
     1
 90
        4
176
     1
 62
     7
176
     1
 62
   257
176
     1
 90
        1
176
     1
 90
        1
176
     1
 40
1.0
176
     1
 90
        0
176
     1
 62
   257
176
     1
 40
1.0
176
     1
 90
        1
176
     1
 90
        6
176
     1
 90
        2
176
     1
 62
     7
176
     1
 90
        3
176
     1
 90
        0
176
     1
 90
        0
176
     1
290
     0
176
     1
 90
        1
176
     1
 40
0.0
176
     1
 90
        0
176
     1
290
     0
176
     1
290
     1
176
     1
290
     1
176
     1
290
     0
176
     1
290
     0
176
     1
290
     0
176
     1
290
     0
176
     1
290
     0
176
     1
290
     0
176
     1
 90
       50
176
     1
 40
0.0
176
     1
 40
1.0
176
     1
 90
        0
176
     1
 62
    18
420
        0
176
     1
 90
       50
176
     1
 90
        3
176
     1
 62
     5
420
      255
176
     1
290
     0
176
     1
 90
       50
176
     1
 90
       50
176
     1
 90
       50
176
     1
290
     0
176
     1
 90
       50
176
     1
 62
   256
176
     0
 40
1.0
176
     0
 90
        2
176
     1
  1
strokes_ogs.tif
176
     1
290
     0
176
     1
 40
1.0
176
     1
 40
1.0
176
     1
  0
VISUALSTYLE
  5
40
102
{ACAD_REACTORS
330
2A
102
}
330
2A
100
AcDbVisualStyle
  2
X-Ray
 70
    25
177
     3
291
     0
 70
    58
 90
        2
176
     1
 90
        2
176
     1
 90
        1
176
     1
 90
        1
176
     1
 40
0.5
176
     1
 40
30.0
176
     1
 62
     7
420
 16777215
176
     1
 90
        1
176
     1
 90
        0
176
     1
 62
     7
176
     1
 62
   257
176
     1
 90
        1
176
     1
 90
        1
176
     1
 40
1.0
176
     1
 90
        8
176
     1
 62
     7
176
     1
 40
1.0
176
     1
 90
        1
176
     1
 90
        6
176
     1
 90
        2
176
     1
 62
     7
176
     1
 90
        3
176
     1
 90
        0
176
     1
 90
        0
176
     1
290
     0
176
     1
 90
       13
176
     1
 40
0.0
176
     1
 90
        0
176
     1
290
     0
176
     1
290
     1
176
     1
290
     1
176
     1
290
     0
176
     1
290
     0
176
     1
290
     0
176
     1
290
     0
176
     1
290
     0
176
     1
290
     0
176
     1
 90
       50
176
     1
 40
0.0
176
     1
 40
1.0
176
     1
 90
        0
176
     1
 62
    18
420
        0
176
     1
 90
       50
176
     1
 90
        3
176
     1
 62
     5
420
      255
176
     1
290
     0
176
     1
 90
       50
176
     1
 90
       50
176
     1
 90
       50
176
     1
290
     0
176
     1
 90
       50
176
     1
 62
   256
176
     0
 40
1.0
176
     0
 90
        2
176
     1
  1
strokes_ogs.tif
176
     1
290
     0
176
     1
 40
1.0
176
     1
 40
1.0
176
     1
  0
DICTIONARYVAR
  5
1D7
102
{ACAD_REACTORS
330
1D6
102
}
330
1D6
100
DictionaryVariables
280
     0
  1
1:1
  0
DICTIONARYVAR
  5
1DF
102
{ACAD_REACTORS
330
1D6
102
}
330
1D6
100
DictionaryVariables
280
     0
  1
3.500000
  0
DICTIONARYVAR
  5
1E0
102
{ACAD_REACTORS
330
1D6
102
}
330
1D6
100
DictionaryVariables
280
     0
  1
acadiso.lin
  0
DICTIONARYVAR
  5
1DC
102
{ACAD_REACTORS
330
1D6
102
}
330
1D6
100
DictionaryVariables
280
     0
  1
Standard
  0
DICTIONARYVAR
  5
1DB
102
{ACAD_REACTORS
330
1D6
102
}
330
1D6
100
DictionaryVariables
280
     0
  1
Standard
  0
DICTIONARY
  5
1D8
330
5A
100
AcDbDictionary
280
     1
281
     1
  3
ACAD_ROUNDTRIP_2008_TABLESTYLE_CELLSTYLEMAP
360
1D9
  0
CELLSTYLEMAP
  5
1D9
102
{ACAD_REACTORS
330
1D8
102
}
330
1D8
100
AcDbCellStyleMap
 90
        3
300
CELLSTYLE
  1
TABLEFORMAT_BEGIN
 90
        5
170
     1
 91
        0
 92
    32768
 62
   257
 93
        1
300
CONTENTFORMAT
  1
CONTENTFORMAT_BEGIN
 90
        0
 91
        0
 92
        4
 93
        0
300

 40
0.0
140
1.0
 94
        5
 62
     0
340
11
144
6.0
309
CONTENTFORMAT_END
171
     1
301
MARGIN
  1
CELLMARGIN_BEGIN
 40
1.5
 40
1.5
 40
1.5
 40
1.5
 40
1.5
 40
1.5
309
CELLMARGIN_END
 94
        6
 95
        1
302
GRIDFORMAT
  1
GRIDFORMAT_BEGIN
 90
        0
 91
        1
 62
     0
 92
       -2
340
14
 93
        0
 40
0.045
309
GRIDFORMAT_END
 95
        2
302
GRIDFORMAT
  1
GRIDFORMAT_BEGIN
 90
        0
 91
        1
 62
     0
 92
       -2
340
14
 93
        0
 40
0.045
309
GRIDFORMAT_END
 95
        4
302
GRIDFORMAT
  1
GRIDFORMAT_BEGIN
 90
        0
 91
        1
 62
     0
 92
       -2
340
14
 93
        0
 40
0.045
309
GRIDFORMAT_END
 95
        8
302
GRIDFORMAT
  1
GRIDFORMAT_BEGIN
 90
        0
 91
        1
 62
     0
 92
       -2
340
14
 93
        0
 40
0.045
309
GRIDFORMAT_END
 95
       16
302
GRIDFORMAT
  1
GRIDFORMAT_BEGIN
 90
        0
 91
        1
 62
     0
 92
       -2
340
14
 93
        0
 40
0.045
309
GRIDFORMAT_END
 95
       32
302
GRIDFORMAT
  1
GRIDFORMAT_BEGIN
 90
        0
 91
        1
 62
     0
 92
       -2
340
14
 93
        0
 40
0.045
309
GRIDFORMAT_END
309
TABLEFORMAT_END
  1
CELLSTYLE_BEGIN
 90
        1
 91
        1
300
_TITLE
309
CELLSTYLE_END
300
CELLSTYLE
  1
TABLEFORMAT_BEGIN
 90
        5
170
     1
 91
        0
 92
        0
 62
   257
 93
        1
300
CONTENTFORMAT
  1
CONTENTFORMAT_BEGIN
 90
        0
 91
        0
 92
        4
 93
        0
300

 40
0.0
140
1.0
 94
        5
 62
     0
340
11
144
4.5
309
CONTENTFORMAT_END
171
     1
301
MARGIN
  1
CELLMARGIN_BEGIN
 40
1.5
 40
1.5
 40
1.5
 40
1.5
 40
1.5
 40
1.5
309
CELLMARGIN_END
 94
        6
 95
        1
302
GRIDFORMAT
  1
GRIDFORMAT_BEGIN
 90
        0
 91
        1
 62
     0
 92
       -2
340
14
 93
        0
 40
0.045
309
GRIDFORMAT_END
 95
        2
302
GRIDFORMAT
  1
GRIDFORMAT_BEGIN
 90
        0
 91
        1
 62
     0
 92
       -2
340
14
 93
        0
 40
0.045
309
GRIDFORMAT_END
 95
        4
302
GRIDFORMAT
  1
GRIDFORMAT_BEGIN
 90
        0
 91
        1
 62
     0
 92
       -2
340
14
 93
        0
 40
0.045
309
GRIDFORMAT_END
 95
        8
302
GRIDFORMAT
  1
GRIDFORMAT_BEGIN
 90
        0
 91
        1
 62
     0
 92
       -2
340
14
 93
        0
 40
0.045
309
GRIDFORMAT_END
 95
       16
302
GRIDFORMAT
  1
GRIDFORMAT_BEGIN
 90
        0
 91
        1
 62
     0
 92
       -2
340
14
 93
        0
 40
0.045
309
GRIDFORMAT_END
 95
       32
302
GRIDFORMAT
  1
GRIDFORMAT_BEGIN
 90
        0
 91
        1
 62
     0
 92
       -2
340
14
 93
        0
 40
0.045
309
GRIDFORMAT_END
309
TABLEFORMAT_END
  1
CELLSTYLE_BEGIN
 90
        2
 91
        1
300
_HEADER
309
CELLSTYLE_END
300
CELLSTYLE
  1
TABLEFORMAT_BEGIN
 90
        5
170
     1
 91
        0
 92
        0
 62
   257
 93
        1
300
CONTENTFORMAT
  1
CONTENTFORMAT_BEGIN
 90
        0
 91
        0
 92
        4
 93
        0
300

 40
0.0
140
1.0
 94
        2
 62
     0
340
11
144
4.5
309
CONTENTFORMAT_END
171
     1
301
MARGIN
  1
CELLMARGIN_BEGIN
 40
1.5
 40
1.5
 40
1.5
 40
1.5
 40
1.5
 40
1.5
309
CELLMARGIN_END
 94
        6
 95
        1
302
GRIDFORMAT
  1
GRIDFORMAT_BEGIN
 90
        0
 91
        1
 62
     0
 92
       -2
340
14
 93
        0
 40
0.045
309
GRIDFORMAT_END
 95
        2
302
GRIDFORMAT
  1
GRIDFORMAT_BEGIN
 90
        0
 91
        1
 62
     0
 92
       -2
340
14
 93
        0
 40
0.045
309
GRIDFORMAT_END
 95
        4
302
GRIDFORMAT
  1
GRIDFORMAT_BEGIN
 90
        0
 91
        1
 62
     0
 92
       -2
340
14
 93
        0
 40
0.045
309
GRIDFORMAT_END
 95
        8
302
GRIDFORMAT
  1
GRIDFORMAT_BEGIN
 90
        0
 91
        1
 62
     0
 92
       -2
340
14
 93
        0
 40
0.045
309
GRIDFORMAT_END
 95
       16
302
GRIDFORMAT
  1
GRIDFORMAT_BEGIN
 90
        0
 91
        1
 62
     0
 92
       -2
340
14
 93
        0
 40
0.045
309
GRIDFORMAT_END
 95
       32
302
GRIDFORMAT
  1
GRIDFORMAT_BEGIN
 90
        0
 91
        1
 62
     0
 92
       -2
340
14
 93
        0
 40
0.045
309
GRIDFORMAT_END
309
TABLEFORMAT_END
  1
CELLSTYLE_BEGIN
 90
        3
 91
        2
300
_DATA
309
CELLSTYLE_END
  0
ENDSEC
  0
EOF
